<?xml version="1.0" encoding="UTF-8"?>
<svg xmlns="http://www.w3.org/2000/svg" xmlns:xlink="http://www.w3.org/1999/xlink" width="430.74pt" height="632.69pt" viewBox="0 0 430.74 632.69" version="1.1">
<defs>
<clipPath id="clip1">
  <path d="M 0 0 L 430.738281 0 L 430.738281 632.691406 L 0 632.691406 Z M 0 0 "/>
</clipPath>
</defs>
<g id="surface1">
<g clip-path="url(#clip1)" clip-rule="nonzero">
<path style=" stroke:none;fill-rule:evenodd;fill:rgb(96.899414%,85.499573%,25.099182%);fill-opacity:1;" d="M 430.742188 -0.00390625 L 430.742188 417.113281 C 430.742188 536.46875 216.816406 632.691406 215.578125 632.691406 C 214.339844 632.691406 0 536.46875 0 417.113281 L 0 -0.00390625 L 430.742188 -0.00390625 "/>
</g>
<path style=" stroke:none;fill-rule:evenodd;fill:rgb(70.199585%,15.699768%,42.399597%);fill-opacity:1;" d="M 8.257813 8.671875 L 422.066406 8.671875 L 422.066406 99.9375 L 8.257813 99.9375 L 8.257813 8.671875 "/>
<path style=" stroke:none;fill-rule:evenodd;fill:rgb(96.899414%,85.499573%,25.099182%);fill-opacity:1;" d="M 24.835938 68.695313 C 24.300781 70.078125 22.992188 73.148438 22.992188 74.300781 C 22.992188 77.144531 26.679688 77.601563 28.832031 77.910156 L 28.832031 79.675781 C 28.292969 79.675781 25.988281 79.601563 23.761719 79.523438 C 21.535156 79.445313 19.460938 79.371094 19.308594 79.371094 C 18.386719 79.371094 15.160156 79.371094 13.929688 79.445313 L 13.929688 77.910156 C 15.160156 77.679688 17.082031 77.296875 18.539063 74.914063 C 21.226563 70.613281 34.515625 37.976563 35.511719 35.363281 C 36.28125 33.445313 36.742188 32.0625 37.203125 30.679688 L 39.199219 30.679688 C 39.660156 32.214844 40.121094 33.902344 41.042969 36.4375 C 42.65625 40.96875 50.335938 60.785156 51.871094 64.855469 C 56.324219 77.21875 57.628906 77.449219 60.703125 77.910156 L 60.703125 79.445313 C 59.855469 79.371094 58.9375 79.292969 57.859375 79.214844 C 56.785156 79.140625 55.554688 79.140625 53.945313 79.140625 C 49.183594 79.140625 45.574219 79.523438 43.191406 79.675781 L 43.191406 77.910156 C 45.1875 77.601563 47.03125 76.835938 47.03125 75.070313 C 47.03125 73.992188 43.269531 63.933594 42.886719 62.859375 C 41.503906 62.703125 40.65625 62.628906 37.355469 62.628906 C 34.515625 62.628906 30.828125 62.628906 27.140625 63.164063 L 24.835938 68.695313 M 28.523438 59.480469 C 30.597656 59.785156 33.515625 60.167969 36.816406 60.167969 C 39.351563 60.167969 40.582031 60.015625 41.808594 59.863281 C 39.734375 54.179688 37.585938 48.34375 35.050781 43.195313 L 28.523438 59.480469 "/>
<path style=" stroke:none;fill-rule:evenodd;fill:rgb(96.899414%,85.499573%,25.099182%);fill-opacity:1;" d="M 63.289063 68.207031 C 63.992188 71.40625 64.882813 73.496094 69.535156 75.714844 C 72.277344 76.953125 75.71875 77.804688 78.332031 77.804688 C 79.863281 77.804688 84.644531 77.347656 84.644531 71.078125 C 84.644531 65.726563 80.183594 63.769531 74.445313 61.742188 C 68.707031 59.65625 63.863281 56.980469 63.863281 49.992188 C 63.863281 43.203125 69.34375 38.375 77.1875 38.375 C 78.589844 38.375 84.964844 39.15625 85.984375 39.15625 C 86.621094 39.15625 87.320313 39.027344 87.769531 38.699219 L 88.851563 38.960938 C 88.789063 39.417969 88.597656 42.617188 88.597656 42.746094 C 88.597656 43.335938 88.722656 46.402344 88.722656 46.535156 L 88.722656 48.492188 L 87.386719 48.492188 C 85.917969 40.136719 77.3125 40.136719 76.484375 40.136719 C 70.621094 40.136719 69.21875 44.378906 69.21875 47.25 C 69.21875 50.582031 70.492188 52.929688 78.144531 55.671875 C 83.304688 57.632813 90.316406 60.308594 90.316406 68.53125 C 90.316406 72.84375 88.023438 79.957031 75.785156 79.957031 C 72.597656 79.957031 69.726563 79.566406 66.667969 78.914063 C 66.539063 78.914063 66.09375 78.78125 65.902344 78.78125 C 65.328125 78.78125 65.265625 79.109375 65.265625 79.371094 L 63.542969 79.371094 C 63.355469 75.84375 62.972656 73.757813 61.761719 68.597656 L 63.289063 68.207031 "/>
<path style=" stroke:none;fill-rule:evenodd;fill:rgb(96.899414%,85.499573%,25.099182%);fill-opacity:1;" d="M 130.410156 43.398438 C 128.242188 41.703125 123.527344 41.703125 120.976563 41.703125 C 118.554688 41.703125 118.109375 41.703125 116.960938 41.898438 C 116.707031 47.578125 116.453125 58.675781 116.453125 69.902344 C 116.453125 76.824219 117.027344 76.953125 119.894531 77.542969 C 122.1875 77.867188 122.445313 77.867188 123.019531 78 L 122.824219 79.632813 C 122.316406 79.632813 120.914063 79.5 119.574219 79.433594 C 118.238281 79.304688 116.960938 79.238281 116.578125 79.238281 C 110.394531 79.238281 109.695313 79.238281 103.257813 80.285156 L 102.683594 78.585938 C 103.703125 78.324219 108.421875 77.085938 108.929688 76.234375 C 109.695313 75.0625 109.757813 61.875 109.757813 59.71875 C 109.757813 53.777344 109.757813 44.511719 109.121094 41.898438 C 107.335938 41.769531 106.507813 41.703125 103.191406 41.703125 C 95.097656 41.703125 94.589844 42.878906 93.566406 45.554688 L 91.972656 45.164063 C 93.566406 41.117188 94.140625 38.960938 94.523438 37.65625 L 95.605469 37.65625 C 96.117188 38.046875 97.328125 38.375 98.15625 38.4375 C 100.707031 38.765625 110.203125 38.765625 113.519531 38.765625 C 118.171875 38.765625 127.480469 38.699219 131.433594 38.503906 C 132.324219 38.4375 132.515625 38.375 132.898438 38.113281 L 133.855469 38.699219 C 133.34375 40.136719 132.324219 42.746094 132.070313 45.554688 L 130.15625 45.882813 L 130.410156 43.398438 "/>
<path style=" stroke:none;fill-rule:evenodd;fill:rgb(96.899414%,85.499573%,25.099182%);fill-opacity:1;" d="M 155.652344 37.980469 C 167.320313 37.980469 176.6875 47.25 176.6875 59.132813 C 176.6875 70.101563 168.273438 80.414063 155.269531 80.414063 C 141.820313 80.414063 133.855469 70.230469 133.855469 58.804688 C 133.855469 46.078125 144.5625 37.980469 155.652344 37.980469 M 156.675781 78.0625 C 160.753906 78.0625 169.296875 75.519531 169.296875 63.441406 C 169.296875 54.953125 165.277344 40.527344 153.871094 40.527344 C 150.808594 40.527344 141.3125 41.964844 141.3125 55.28125 C 141.3125 66.050781 146.347656 78.0625 156.675781 78.0625 "/>
<path style=" stroke:none;fill-rule:evenodd;fill:rgb(96.899414%,85.499573%,25.099182%);fill-opacity:1;" d="M 216.910156 68.074219 C 216.910156 66.050781 217.101563 56.847656 217.101563 55.019531 C 217.101563 41.117188 216.59375 40.460938 210.601563 39.875 L 211.175781 38.4375 C 211.558594 38.375 212.132813 38.308594 212.769531 38.308594 C 213.277344 38.308594 214.679688 38.375 216.144531 38.503906 C 217.613281 38.699219 219.144531 38.765625 219.652344 38.765625 C 219.972656 38.765625 224.050781 38.699219 224.878906 38.699219 L 224.878906 40.332031 C 223.988281 40.265625 222.203125 40.265625 221.4375 41.769531 C 220.226563 44.117188 220.097656 55.214844 220.097656 58.675781 C 220.035156 60.894531 219.90625 70.621094 219.90625 72.582031 C 219.90625 73.300781 220.035156 75.976563 220.097656 77.804688 L 220.226563 80.285156 L 218.3125 80.285156 C 216.144531 76.105469 212.769531 72.710938 209.390625 69.445313 L 189.820313 50.191406 C 188.992188 49.339844 188.035156 48.359375 187.207031 47.707031 C 187.144531 49.015625 187.015625 52.015625 187.015625 53.324219 L 186.761719 68.402344 C 186.695313 74.472656 186.695313 76.824219 193.773438 77.933594 C 193.964844 78.71875 193.835938 79.238281 193.773438 79.695313 C 192.945313 79.632813 192.179688 79.5 191.222656 79.371094 C 190.328125 79.304688 189.246094 79.238281 187.71875 79.238281 C 186.3125 79.238281 180.132813 79.632813 178.855469 79.695313 C 178.792969 78.976563 178.792969 78.78125 178.855469 77.933594 C 182.871094 77.867188 183.253906 75.582031 183.382813 70.035156 L 183.699219 50.90625 C 183.828125 45.488281 183.765625 41.050781 178.347656 40.203125 C 178.28125 39.484375 178.28125 39.222656 178.347656 38.242188 C 178.664063 38.242188 180.003906 38.375 181.34375 38.4375 C 182.679688 38.503906 184.085938 38.570313 184.59375 38.570313 L 187.589844 38.570313 C 191.542969 43.203125 191.734375 43.398438 202.503906 53.976563 C 205.4375 56.980469 208.371094 59.914063 211.429688 62.789063 L 216.910156 68.074219 "/>
<path style=" stroke:none;fill-rule:evenodd;fill:rgb(96.899414%,85.499573%,25.099182%);fill-opacity:1;" d="M 244.371094 43.964844 C 239.074219 33.289063 238.996094 33.289063 234.695313 33.136719 L 234.695313 31.523438 L 254.507813 31.523438 L 254.507813 33.519531 C 250.515625 33.675781 249.976563 33.675781 249.976563 34.980469 C 249.976563 36.898438 252.4375 42.429688 263.953125 68.617188 C 264.800781 66.621094 265.03125 66.160156 267.027344 61.859375 C 269.023438 57.636719 277.777344 38.972656 277.777344 35.824219 C 277.777344 33.675781 275.246094 33.445313 273.785156 33.289063 L 274.015625 31.292969 C 279.390625 31.601563 282.003906 31.601563 288.300781 31.601563 L 288.378906 33.445313 C 284.460938 34.367188 282.386719 36.132813 279.160156 42.660156 L 269.023438 63.242188 C 267.335938 66.699219 264.339844 73.300781 262.421875 80.214844 L 260.652344 80.597656 C 259.808594 77.988281 256.503906 70.460938 256.503906 70.460938 L 244.371094 43.964844 "/>
<path style=" stroke:none;fill-rule:evenodd;fill:rgb(96.899414%,85.499573%,25.099182%);fill-opacity:1;" d="M 284.894531 77.738281 C 287.0625 77.476563 289.929688 77.214844 290.820313 75.648438 C 292.035156 73.429688 292.035156 62.59375 292.035156 59.066406 C 292.035156 56.066406 292.035156 43.792969 291.078125 41.898438 C 290.757813 41.246094 290.246094 40.136719 285.402344 40.136719 L 285.46875 38.375 C 286.296875 38.375 288.78125 38.4375 291.078125 38.503906 C 293.4375 38.636719 295.601563 38.699219 295.921875 38.699219 C 297.515625 38.699219 303.125 38.503906 304.78125 38.4375 L 304.78125 40.460938 C 301.65625 40.460938 300.636719 40.660156 299.9375 41.441406 C 298.40625 43.203125 298.40625 54.433594 298.40625 57.761719 C 298.40625 60.765625 298.40625 73.101563 298.789063 74.996094 C 299.234375 76.953125 299.617188 77.347656 304.398438 77.738281 L 304.273438 79.371094 L 294.136719 79.238281 C 289.355469 79.109375 286.871094 79.238281 284.894531 79.371094 L 284.894531 77.738281 "/>
<path style=" stroke:none;fill-rule:evenodd;fill:rgb(96.899414%,85.499573%,25.099182%);fill-opacity:1;" d="M 340.351563 70.816406 C 340.09375 72.90625 340.03125 73.363281 337.863281 79.957031 C 336.464844 79.695313 335.378906 79.5 333.59375 79.371094 C 331.808594 79.238281 329.257813 79.175781 324.925781 79.175781 L 307.203125 79.175781 L 307.078125 77.542969 C 308.160156 77.410156 309.816406 77.019531 310.644531 75.976563 C 311.730469 74.605469 311.730469 73.953125 311.792969 58.023438 C 311.792969 45.945313 311.792969 44.835938 311.601563 43.203125 C 311.285156 40.460938 309.433594 40.265625 307.585938 40.136719 L 307.585938 38.570313 C 310.007813 38.636719 310.773438 38.699219 315.363281 38.699219 C 320.207031 38.699219 321.421875 38.636719 323.839844 38.503906 L 323.839844 40.203125 C 321.800781 40.460938 320.015625 40.789063 319.378906 41.964844 C 318.484375 43.660156 318.359375 55.542969 318.359375 58.480469 L 318.296875 68.53125 C 318.296875 72.582031 318.359375 74.605469 318.933594 75.582031 C 319.441406 76.5625 320.972656 76.5625 323.90625 76.5625 C 336.269531 76.5625 337.800781 73.691406 338.820313 70.621094 L 340.351563 70.816406 "/>
<path style=" stroke:none;fill-rule:evenodd;fill:rgb(96.899414%,85.499573%,25.099182%);fill-opacity:1;" d="M 373.878906 70.816406 C 373.625 72.90625 373.5625 73.363281 371.394531 79.957031 C 369.992188 79.695313 368.90625 79.5 367.121094 79.371094 C 365.339844 79.238281 362.789063 79.175781 358.453125 79.175781 L 340.730469 79.175781 L 340.605469 77.542969 C 341.6875 77.410156 343.347656 77.019531 344.175781 75.976563 C 345.257813 74.605469 345.257813 73.953125 345.320313 58.023438 C 345.320313 45.945313 345.320313 44.835938 345.132813 43.203125 C 344.8125 40.460938 342.964844 40.265625 341.113281 40.136719 L 341.113281 38.570313 C 343.539063 38.636719 344.300781 38.699219 348.890625 38.699219 C 353.734375 38.699219 354.945313 38.636719 357.367188 38.503906 L 357.367188 40.203125 C 355.328125 40.460938 353.546875 40.789063 352.90625 41.964844 C 352.015625 43.660156 351.886719 55.542969 351.886719 58.480469 L 351.824219 68.53125 C 351.824219 72.582031 351.886719 74.605469 352.460938 75.582031 C 352.972656 76.5625 354.503906 76.5625 357.433594 76.5625 C 369.800781 76.5625 371.328125 73.691406 372.347656 70.621094 L 373.878906 70.816406 "/>
<path style=" stroke:none;fill-rule:evenodd;fill:rgb(96.899414%,85.499573%,25.099182%);fill-opacity:1;" d="M 383.886719 70.296875 C 383.441406 71.472656 382.355469 74.082031 382.355469 75.0625 C 382.355469 77.476563 385.414063 77.867188 387.203125 78.128906 L 387.203125 79.632813 C 386.753906 79.632813 384.84375 79.566406 382.996094 79.5 C 381.144531 79.433594 379.421875 79.371094 379.296875 79.371094 C 378.53125 79.371094 375.855469 79.371094 374.835938 79.433594 L 374.835938 78.128906 C 375.855469 77.933594 377.449219 77.605469 378.660156 75.582031 C 380.890625 71.929688 391.917969 44.183594 392.746094 41.964844 C 393.382813 40.332031 393.765625 39.15625 394.148438 37.980469 L 395.804688 37.980469 C 396.1875 39.289063 396.570313 40.722656 397.335938 42.878906 C 398.675781 46.730469 405.050781 63.570313 406.324219 67.03125 C 410.019531 77.542969 411.105469 77.738281 413.652344 78.128906 L 413.652344 79.433594 C 412.953125 79.371094 412.1875 79.304688 411.296875 79.238281 C 410.402344 79.175781 409.382813 79.175781 408.046875 79.175781 C 404.09375 79.175781 401.097656 79.5 399.121094 79.632813 L 399.121094 78.128906 C 400.777344 77.867188 402.308594 77.214844 402.308594 75.714844 C 402.308594 74.800781 399.183594 66.246094 398.867188 65.335938 C 397.71875 65.203125 397.015625 65.136719 394.277344 65.136719 C 391.917969 65.136719 388.859375 65.136719 385.796875 65.59375 L 383.886719 70.296875 M 386.945313 62.460938 C 388.667969 62.722656 391.089844 63.050781 393.828125 63.050781 C 395.933594 63.050781 396.953125 62.917969 397.972656 62.789063 C 396.253906 57.957031 394.46875 52.996094 392.363281 48.621094 L 386.945313 62.460938 "/>
<path style=" stroke:none;fill-rule:evenodd;fill:rgb(0.799561%,54.499817%,78.399658%);fill-opacity:1;" d="M 68.96875 109.023438 L 68.96875 528.761719 C 34.851563 496.523438 8.257813 458.203125 8.257813 417.113281 L 8.257813 109.023438 L 68.96875 109.023438 "/>
<path style=" stroke:none;fill-rule:evenodd;fill:rgb(0.799561%,54.499817%,78.399658%);fill-opacity:1;" d="M 186.667969 109.023438 L 186.667969 610.359375 C 170.328125 601.683594 148.613281 589.273438 125.960938 573.886719 L 125.960938 109.023438 L 186.667969 109.023438 "/>
<path style=" stroke:none;fill-rule:evenodd;fill:rgb(0.799561%,54.499817%,78.399658%);fill-opacity:1;" d="M 304.367188 109.023438 L 304.367188 574.230469 C 281.898438 589.449219 260.359375 601.738281 244.070313 610.34375 L 244.070313 109.023438 L 304.367188 109.023438 "/>
<path style=" stroke:none;fill-rule:evenodd;fill:rgb(70.199585%,15.699768%,42.399597%);fill-opacity:1;" d="M 127.613281 109.023438 L 127.613281 575 C 107.265625 561.28125 86.09375 545.152344 67.316406 527.171875 L 67.316406 109.023438 L 127.613281 109.023438 "/>
<path style=" stroke:none;fill-rule:evenodd;fill:rgb(70.199585%,15.699768%,42.399597%);fill-opacity:1;" d="M 245.3125 109.023438 L 245.3125 609.691406 C 227.433594 619.191406 215.945313 624.421875 215.554688 624.421875 C 215.359375 624.421875 203.039063 619.113281 185.015625 609.472656 L 185.015625 109.023438 L 245.3125 109.023438 "/>
<path style=" stroke:none;fill-rule:evenodd;fill:rgb(70.199585%,15.699768%,42.399597%);fill-opacity:1;" d="M 363.425781 109.023438 L 363.425781 527.25 C 344.527344 545.355469 323.199219 561.570313 302.714844 575.34375 L 302.714844 109.023438 L 363.425781 109.023438 "/>
<path style=" stroke:none;fill-rule:evenodd;fill:rgb(0.799561%,54.499817%,78.399658%);fill-opacity:1;" d="M 422.066406 109.023438 L 422.066406 425.621094 C 418.726563 463.519531 393.527344 498.820313 361.773438 528.839844 L 361.773438 109.023438 L 422.066406 109.023438 "/>
<path style=" stroke:none;fill-rule:evenodd;fill:rgb(96.899414%,85.499573%,25.099182%);fill-opacity:1;" d="M 317.996094 363.421875 C 317.996094 363.421875 317.171875 356.402344 315.519531 351.863281 C 313.867188 346.90625 308.085938 340.710938 308.085938 340.710938 C 308.085938 340.710938 323.777344 344.835938 330.386719 349.378906 C 337.410156 354.335938 345.664063 354.75 348.144531 353.921875 C 352.6875 353.097656 356.816406 344.835938 353.929688 335.753906 C 351.035156 326.667969 344.429688 320.890625 327.910156 306.429688 C 310.5625 291.976563 284.546875 280 284.546875 253.15625 C 284.546875 225.902344 306.847656 211.445313 306.847656 211.445313 C 306.847656 211.445313 304.785156 202.773438 310.152344 198.230469 C 313.453125 195.753906 315.929688 196.164063 319.234375 192.445313 C 322.539063 189.144531 327.085938 187.90625 327.085938 187.90625 C 327.085938 187.90625 324.605469 190.382813 323.777344 193.6875 C 323.367188 196.992188 322.128906 199.054688 322.128906 199.054688 C 322.128906 199.054688 324.191406 192.035156 332.453125 192.035156 C 340.714844 192.035156 349.382813 188.730469 349.382813 188.730469 L 344.839844 195.753906 C 344.839844 195.753906 354.339844 196.164063 360.535156 189.96875 C 366.730469 183.773438 370.449219 175.101563 370.449219 175.101563 C 370.449219 175.101563 373.339844 195.753906 364.25 206.488281 C 355.164063 217.640625 345.664063 221.355469 345.664063 221.355469 C 345.664063 221.355469 345.664063 223.421875 349.796875 223.835938 C 353.929688 224.246094 356.816406 223.835938 356.816406 223.835938 C 356.816406 223.835938 353.929688 227.964844 345.664063 229.617188 C 337.410156 231.269531 333.691406 229.203125 333.691406 229.203125 C 333.691406 229.203125 333.691406 230.855469 336.582031 232.921875 C 339.472656 234.984375 343.191406 234.984375 343.191406 234.984375 C 343.191406 234.984375 331.625 242.832031 320.0625 236.636719 C 311.804688 232.09375 313.039063 227.964844 313.039063 227.964844 C 313.039063 227.964844 294.871094 240.351563 302.714844 257.699219 C 310.152344 275.046875 332.039063 286.609375 351.859375 304.777344 C 374.164063 325.429688 379.945313 334.515625 374.574219 353.921875 C 369.207031 373.335938 351.859375 374.15625 341.539063 371.683594 C 329.972656 369.207031 317.996094 363.421875 317.996094 363.421875 M 244.898438 465.84375 C 244.488281 467.082031 244.070313 467.90625 244.070313 467.90625 C 244.070313 467.90625 244.070313 467.082031 243.660156 465.84375 C 243.660156 464.191406 243.246094 461.710938 244.070313 458.820313 C 245.3125 453.457031 251.921875 452.210938 251.921875 452.210938 C 251.921875 452.210938 254.8125 448.5 256.878906 448.5 C 259.355469 448.5 260.179688 449.738281 263.898438 452.210938 C 268.027344 454.277344 269.679688 451.390625 269.679688 451.390625 C 269.679688 451.390625 272.980469 447.667969 277.113281 448.5 C 281.652344 449.320313 285.371094 455.515625 291.566406 460.472656 C 297.761719 465.84375 301.890625 460.886719 306.433594 455.515625 C 310.976563 450.152344 308.5 439.414063 302.714844 427.433594 C 302.714844 427.027344 302.714844 427.027344 302.304688 426.609375 C 296.9375 415.875 288.675781 418.347656 288.675781 418.347656 C 288.675781 418.347656 289.503906 419.585938 290.742188 421.652344 C 291.980469 423.722656 294.871094 424.542969 294.871094 424.542969 C 294.871094 424.542969 290.328125 424.957031 287.023438 424.542969 C 283.304688 424.136719 278.765625 422.890625 278.765625 422.890625 C 278.765625 422.890625 279.175781 424.542969 280.003906 426.609375 L 280.414063 427.027344 C 281.242188 429.085938 284.132813 431.976563 284.132813 431.976563 C 284.132813 431.976563 281.652344 432.804688 276.699219 431.976563 C 272.15625 431.152344 269.679688 427.027344 269.679688 427.027344 C 269.679688 427.027344 268.4375 429.914063 268.855469 431.976563 C 269.265625 433.628906 271.328125 438.171875 271.328125 438.171875 C 271.328125 438.171875 267.613281 436.523438 263.070313 434.457031 C 258.941406 432.804688 258.527344 427.433594 258.527344 427.433594 C 258.527344 427.433594 257.703125 429.085938 257.289063 431.976563 C 256.878906 434.457031 259.765625 438.585938 259.765625 438.585938 C 259.765625 438.585938 252.335938 434.042969 246.550781 426.609375 C 242.835938 421.238281 239.945313 414.636719 240.355469 406.375 C 241.183594 386.140625 239.53125 384.070313 239.53125 384.070313 C 239.53125 384.070313 238.292969 382.003906 234.160156 379.53125 C 230.445313 377.460938 218.878906 374.988281 205.664063 372.097656 C 192.449219 369.617188 180.058594 362.183594 180.058594 362.183594 C 180.058594 362.183594 185.429688 363.011719 188.734375 363.011719 C 191.625 363.011719 196.164063 361.769531 196.164063 361.769531 L 192.449219 355.167969 L 206.078125 354.335938 L 200.296875 348.558594 C 200.296875 348.558594 201.949219 348.140625 204.425781 347.726563 C 206.492188 347.320313 208.554688 346.90625 211.035156 346.488281 C 215.988281 346.074219 223.835938 346.074219 223.835938 346.074219 C 223.835938 346.074219 222.1875 344.835938 220.535156 343.601563 C 218.878906 342.363281 218.46875 339.878906 218.46875 339.878906 C 218.46875 339.878906 222.1875 340.296875 226.730469 339.878906 C 231.683594 339.472656 236.226563 338.226563 236.226563 338.226563 L 230.445313 330.796875 L 238.292969 328.320313 L 237.050781 314.691406 C 237.050781 314.691406 234.988281 322.125 230.445313 327.082031 C 225.902344 332.035156 220.945313 329.558594 220.945313 329.558594 L 227.554688 334.921875 C 227.554688 334.921875 223.835938 335.753906 217.640625 335.753906 C 211.445313 335.753906 208.96875 333.277344 208.96875 333.277344 C 208.96875 333.277344 208.96875 335.339844 210.207031 337.40625 C 211.445313 339.878906 213.925781 341.53125 213.925781 341.53125 L 200.710938 341.53125 C 191.625 341.53125 191.625 344.015625 191.625 344.015625 L 194.515625 347.726563 L 196.578125 350.625 L 180.886719 348.140625 L 186.667969 356.402344 C 186.667969 356.402344 170.976563 354.335938 162.714844 356.820313 C 154.453125 358.878906 150.324219 368.792969 150.324219 368.792969 C 150.324219 368.792969 153.21875 375.402344 151.566406 379.53125 C 149.5 384.070313 142.894531 382.835938 142.894531 382.835938 C 142.894531 382.835938 140.828125 385.722656 135.046875 388.207031 C 129.265625 390.679688 121.417969 382.417969 121.417969 382.417969 C 121.417969 382.417969 126.371094 382.835938 128.851563 382.003906 C 131.328125 381.183594 131.742188 376.640625 130.089844 373.75 C 128.4375 371.269531 131.742188 367.140625 131.742188 367.140625 C 131.742188 367.140625 126.785156 368.792969 123.480469 372.503906 C 119.765625 376.640625 116.871094 379.945313 111.917969 381.597656 C 106.550781 383.25 102.832031 376.640625 102.832031 376.640625 C 102.832031 376.640625 100.769531 376.640625 95.398438 373.335938 C 90.03125 370.445313 90.855469 360.117188 90.855469 360.117188 C 90.855469 360.117188 93.335938 363.835938 97.878906 365.488281 C 102.007813 367.554688 104.898438 365.488281 104.898438 365.488281 C 104.898438 365.488281 106.964844 360.945313 110.265625 358.878906 C 113.15625 357.226563 118.527344 358.464844 118.527344 358.464844 L 122.65625 352.683594 L 114.394531 353.921875 C 109.027344 354.75 108.199219 350.210938 108.199219 350.210938 C 108.199219 350.210938 107.375 350.210938 103.65625 349.378906 C 99.53125 348.558594 96.636719 354.335938 96.636719 354.335938 C 96.636719 354.335938 96.636719 350.625 97.878906 347.726563 C 98.289063 346.074219 99.117188 344.835938 99.941406 344.015625 C 103.246094 341.53125 107.375 339.472656 107.375 339.472656 C 107.375 339.472656 111.503906 334.921875 114.808594 332.863281 C 118.527344 330.796875 121.417969 332.863281 125.132813 334.101563 C 129.265625 335.339844 129.675781 336.992188 135.460938 336.992188 C 141.238281 336.574219 143.71875 331.625 150.738281 330.796875 C 157.761719 330.386719 161.0625 332.035156 168.496094 327.492188 C 175.929688 323.363281 180.886719 308.496094 178.410156 306.019531 C 172.628906 300.234375 177.171875 288.261719 177.171875 288.261719 C 177.171875 288.261719 175.519531 289.910156 173.453125 296.109375 C 171.386719 301.890625 172.214844 308.082031 172.214844 308.082031 C 172.214844 308.082031 170.5625 310.5625 167.671875 310.148438 C 164.78125 309.324219 161.0625 308.082031 161.0625 308.082031 C 161.0625 308.082031 160.648438 310.148438 163.128906 312.628906 C 166.019531 314.691406 168.496094 315.105469 168.496094 315.105469 C 168.496094 315.105469 164.367188 318.40625 158.996094 317.996094 C 153.628906 317.582031 145.78125 311.800781 145.78125 311.800781 C 145.78125 311.800781 144.546875 315.105469 145.78125 317.167969 L 148.675781 322.535156 C 148.675781 322.535156 142.066406 322.535156 137.523438 320.058594 C 132.980469 317.582031 128.4375 310.976563 128.4375 310.976563 C 128.4375 310.976563 127.199219 312.628906 127.199219 315.515625 C 127.199219 317.996094 127.613281 320.890625 127.613281 320.890625 C 127.613281 320.890625 122.242188 317.582031 120.589844 314.277344 C 118.9375 311.386719 116.871094 306.019531 116.871094 306.019531 C 116.871094 306.019531 116.460938 307.671875 115.636719 310.148438 C 114.808594 313.039063 115.222656 316.34375 115.222656 316.34375 C 115.222656 316.34375 109.4375 311.800781 106.964844 303.953125 C 104.484375 296.109375 99.53125 288.261719 92.507813 287.847656 C 85.488281 287.847656 83.007813 289.910156 81.769531 291.976563 C 80.117188 294.042969 78.054688 296.933594 74.75 297.347656 C 70.621094 297.761719 68.140625 293.214844 68.140625 293.214844 C 68.140625 293.214844 65.253906 293.214844 62.773438 294.867188 C 60.292969 296.519531 58.230469 303.539063 58.230469 303.539063 C 58.230469 303.539063 55.339844 295.695313 56.992188 291.5625 C 59.054688 287.019531 62.773438 284.957031 62.773438 284.957031 C 62.773438 284.957031 61.949219 278.347656 66.078125 277.109375 C 69.792969 275.457031 78.46875 272.152344 79.707031 271.328125 C 79.707031 271.328125 76.402344 268.4375 71.445313 270.5 C 66.492188 272.566406 61.949219 274.21875 60.292969 272.152344 C 59.054688 270.089844 58.230469 268.851563 58.230469 268.851563 C 58.230469 268.851563 52.859375 269.675781 52.449219 272.152344 C 52.035156 275.046875 52.035156 277.523438 52.035156 277.523438 C 52.035156 277.523438 46.667969 268.4375 50.796875 263.894531 C 54.511719 259.351563 58.230469 260.589844 58.230469 260.589844 C 58.230469 260.589844 59.46875 254.808594 61.535156 254.808594 C 66.492188 254.808594 72.269531 253.980469 72.269531 253.980469 C 72.269531 253.980469 64.839844 251.503906 64.011719 249.027344 C 63.597656 246.136719 64.425781 246.960938 64.425781 246.960938 C 64.425781 246.960938 61.949219 244.070313 56.992188 245.722656 C 52.035156 246.960938 49.558594 250.679688 49.558594 250.679688 C 49.558594 250.679688 49.972656 241.59375 54.511719 239.117188 C 58.644531 237.050781 61.949219 236.636719 61.949219 236.636719 C 61.949219 236.636719 69.792969 230.855469 77.226563 232.09375 C 85.074219 233.332031 87.140625 241.179688 87.140625 241.179688 C 87.140625 241.179688 95.398438 263.894531 115.636719 268.4375 C 135.046875 272.980469 151.152344 268.023438 151.152344 268.023438 C 156.109375 266.785156 157.761719 264.71875 157.761719 264.71875 C 157.761719 264.71875 162.714844 254.808594 169.324219 248.613281 C 176.34375 242.832031 180.476563 241.179688 187.082031 237.464844 C 193.691406 234.160156 202.777344 230.441406 205.664063 223.835938 C 208.554688 217.226563 201.949219 210.621094 201.949219 210.621094 C 201.949219 210.621094 202.363281 221.355469 193.277344 227.550781 C 184.605469 233.332031 174.277344 230.027344 171.800781 230.027344 C 169.324219 230.027344 166.847656 231.683594 163.953125 234.984375 C 161.476563 238.289063 164.367188 243.246094 164.367188 243.246094 C 164.367188 243.246094 162.300781 242.417969 161.0625 242.003906 C 159.410156 241.179688 157.347656 237.464844 157.347656 237.464844 C 157.347656 237.464844 156.519531 239.117188 155.695313 241.59375 C 154.867188 243.65625 156.933594 246.550781 156.933594 246.550781 C 156.933594 246.550781 154.042969 246.550781 147.847656 243.246094 C 141.652344 239.527344 144.128906 232.09375 144.128906 232.09375 L 140 232.09375 L 137.9375 230.027344 L 141.238281 227.136719 L 140.828125 220.53125 L 146.195313 225.484375 C 146.195313 225.484375 154.042969 223.007813 160.648438 223.007813 C 166.847656 222.597656 168.496094 219.292969 168.496094 219.292969 L 166.433594 215.160156 C 166.433594 215.160156 164.367188 216.8125 162.300781 217.640625 C 159.824219 218.050781 159.410156 217.640625 156.933594 216.402344 C 154.042969 215.574219 149.5 216.402344 149.5 216.402344 C 149.5 216.402344 150.324219 215.988281 152.804688 215.160156 C 155.28125 214.335938 157.761719 214.75 159.824219 215.160156 C 161.890625 215.574219 163.953125 213.921875 163.953125 211.855469 C 163.953125 209.792969 163.953125 209.792969 158.585938 208.554688 C 153.21875 207.726563 145.367188 211.03125 145.367188 211.03125 L 145.367188 217.640625 L 139.589844 213.507813 L 136.285156 214.335938 L 131.328125 208.140625 C 131.328125 208.140625 133.394531 206.902344 133.394531 203.183594 C 133.394531 201.535156 133.394531 199.054688 130.503906 199.054688 C 125.960938 198.640625 127.613281 202.359375 127.613281 202.359375 L 128.851563 206.488281 C 128.851563 206.488281 127.199219 205.25 125.132813 203.183594 C 123.070313 200.707031 121.828125 197.816406 121.828125 197.816406 C 121.828125 197.816406 133.394531 189.144531 137.523438 187.078125 C 141.652344 185.425781 143.304688 182.535156 144.546875 177.992188 C 145.367188 173.863281 150.324219 168.90625 150.324219 168.90625 L 162.714844 159.410156 C 162.714844 159.410156 160.238281 156.929688 159.824219 148.257813 C 159.410156 139.585938 172.628906 129.261719 172.628906 129.261719 C 172.628906 129.261719 172.214844 130.085938 171.386719 132.566406 C 170.5625 134.628906 171.800781 138.34375 171.800781 138.34375 C 171.800781 138.34375 174.691406 131.738281 177.996094 129.261719 C 181.710938 126.371094 186.667969 125.128906 186.667969 125.128906 C 186.667969 125.128906 185.429688 126.371094 185.84375 129.261719 C 185.84375 132.152344 186.667969 132.976563 186.667969 132.976563 C 186.667969 132.976563 193.691406 126.78125 198.230469 124.71875 C 202.777344 122.652344 210.207031 119.347656 210.207031 119.347656 C 210.207031 119.347656 208.96875 122.652344 208.554688 125.128906 C 208.144531 128.023438 210.621094 130.914063 210.621094 130.914063 C 210.621094 130.914063 233.746094 128.433594 247.789063 132.566406 C 261.835938 137.109375 270.503906 158.171875 270.503906 158.171875 C 270.503906 158.171875 267.613281 156.929688 262.246094 155.691406 C 257.289063 154.453125 254.398438 156.105469 254.398438 156.105469 C 254.398438 156.105469 263.070313 160.234375 266.785156 163.539063 C 270.089844 166.84375 275.046875 172.210938 277.523438 177.992188 C 280.003906 184.1875 284.546875 200.292969 284.546875 200.292969 C 284.546875 200.292969 283.722656 198.640625 282.070313 197.816406 C 280.828125 196.992188 277.9375 196.578125 275.875 197.402344 C 273.808594 197.816406 274.222656 198.640625 272.980469 201.945313 C 272.15625 205.664063 269.265625 204.011719 269.265625 204.011719 C 269.265625 204.011719 276.285156 210.621094 278.351563 213.097656 C 280.828125 215.574219 284.132813 215.988281 284.132813 215.988281 C 284.132813 215.988281 282.894531 216.8125 280.003906 219.292969 C 277.523438 221.769531 275.046875 222.183594 275.046875 222.183594 C 275.046875 222.183594 278.765625 226.3125 280.828125 231.269531 C 282.894531 236.636719 281.652344 242.417969 281.652344 242.417969 C 281.652344 242.417969 279.175781 238.289063 274.632813 235.398438 C 270.503906 232.09375 266.785156 233.746094 266.785156 233.746094 C 266.785156 233.746094 272.980469 240.765625 277.113281 246.960938 C 280.828125 253.15625 282.480469 261.828125 283.722656 268.4375 C 284.132813 270.914063 283.304688 275.457031 282.070313 279.585938 C 282.070313 280 272.980469 271.742188 272.15625 273.804688 C 279.175781 282.890625 277.9375 291.152344 277.523438 292.804688 C 275.046875 297.761719 276.285156 301.890625 276.285156 301.890625 L 277.523438 312.210938 C 277.523438 312.210938 277.523438 315.105469 280.828125 321.710938 C 284.132813 328.320313 289.089844 329.558594 300.652344 341.53125 C 302.714844 343.601563 304.367188 345.667969 305.609375 347.726563 C 311.804688 357.640625 310.152344 367.140625 310.5625 372.503906 C 311.390625 378.707031 317.996094 379.53125 322.953125 377.878906 C 327.496094 375.808594 334.929688 374.15625 334.929688 374.15625 C 334.929688 374.15625 333.277344 378.292969 333.691406 386.960938 C 334.105469 395.636719 346.492188 391.097656 346.492188 391.097656 C 346.492188 391.097656 346.492188 393.570313 345.253906 396.875 C 344.015625 399.765625 339.886719 399.765625 339.886719 399.765625 L 344.429688 399.765625 C 347.734375 399.765625 349.382813 398.527344 349.382813 398.527344 C 349.382813 398.527344 348.144531 401.832031 344.839844 405.546875 C 341.949219 408.851563 337.410156 407.199219 337.410156 407.199219 C 337.410156 407.199219 338.234375 408.441406 344.015625 410.085938 C 350.214844 411.738281 352.6875 407.613281 352.6875 407.613281 C 352.6875 407.613281 352.277344 411.332031 348.558594 416.28125 C 344.429688 421.238281 339.0625 421.238281 336.582031 424.136719 C 335.339844 424.957031 334.929688 425.78125 334.929688 426.609375 C 334.519531 428.261719 334.929688 431.152344 335.339844 436.933594 C 335.757813 445.609375 339.886719 447.261719 343.191406 452.625 C 346.90625 457.582031 344.839844 460.886719 343.191406 465.429688 L 343.191406 465.84375 C 341.539063 469.558594 340.714844 468.320313 334.105469 469.972656 C 327.085938 472.039063 318.410156 473.691406 312.214844 476.582031 C 306.019531 479.886719 303.957031 488.140625 303.957031 488.140625 C 303.957031 488.140625 303.132813 493.511719 300.652344 495.988281 C 297.761719 498.886719 293.632813 493.929688 293.632813 493.929688 C 293.632813 493.929688 292.394531 495.164063 289.914063 498.054688 C 287.847656 500.945313 290.742188 505.488281 290.742188 505.488281 C 290.742188 505.488281 287.4375 503.011719 283.304688 499.292969 C 279.589844 495.164063 283.722656 489.792969 283.722656 489.792969 C 283.722656 489.792969 282.480469 486.488281 282.480469 483.597656 C 282.480469 480.710938 288.675781 479.886719 288.675781 479.886719 L 290.328125 476.996094 L 286.609375 475.34375 C 286.609375 475.34375 284.132813 476.167969 281.242188 479.472656 C 277.9375 482.363281 278.765625 484.015625 274.222656 485.25 C 269.265625 486.488281 266.785156 481.953125 266.785156 481.953125 C 266.785156 481.953125 264.722656 481.539063 261.417969 482.777344 C 258.527344 484.015625 256.464844 492.691406 256.464844 492.691406 C 256.464844 492.691406 251.921875 487.734375 253.160156 480.300781 C 254.398438 472.863281 258.941406 473.691406 260.59375 470.800781 C 261.835938 467.90625 267.613281 466.667969 267.613281 466.667969 C 267.613281 466.667969 266.785156 466.253906 263.898438 466.253906 C 261.417969 466.253906 260.59375 467.90625 254.8125 466.667969 C 253.984375 466.667969 253.570313 466.253906 252.746094 465.84375 C 250.265625 464.191406 251.507813 460.066406 251.507813 460.066406 C 251.507813 460.066406 249.855469 460.472656 247.789063 461.710938 C 246.140625 462.539063 245.3125 464.609375 244.898438 465.84375 M 155.695313 180.882813 C 155.695313 180.882813 161.476563 188.320313 170.976563 185.015625 C 179.234375 182.125 178.820313 166.429688 178.820313 166.429688 L 166.847656 173.863281 C 166.847656 175.925781 168.085938 177.578125 169.734375 177.578125 C 170.976563 177.578125 172.214844 176.753906 172.628906 175.925781 C 172.628906 176.34375 172.628906 177.167969 172.628906 177.578125 C 172.628906 180.882813 170.148438 183.773438 166.433594 183.773438 C 163.128906 183.773438 160.648438 181.296875 160.238281 177.992188 L 155.695313 180.882813 M 191.210938 156.519531 C 191.210938 156.519531 194.925781 155.691406 196.992188 154.863281 C 199.058594 154.039063 200.296875 150.734375 200.296875 150.734375 C 200.296875 150.734375 200.710938 152.800781 200.296875 155.691406 C 199.882813 158.582031 198.230469 160.234375 198.230469 160.234375 L 203.1875 157.757813 C 203.1875 157.757813 203.1875 158.996094 202.363281 161.886719 C 201.121094 164.777344 203.601563 164.777344 203.601563 164.777344 C 203.601563 164.777344 209.382813 160.648438 211.445313 156.519531 C 213.925781 151.976563 211.445313 145.367188 203.1875 145.367188 C 195.339844 145.367188 191.210938 156.519531 191.210938 156.519531 M 180.058594 372.921875 C 180.058594 372.921875 185.84375 377.054688 201.121094 380.765625 C 216.402344 384.488281 230.03125 386.140625 230.03125 386.140625 C 230.03125 386.140625 219.707031 392.332031 221.773438 403.894531 C 223.835938 415.042969 227.140625 421.652344 233.746094 435.695313 C 240.355469 450.152344 232.507813 461.710938 232.507813 461.710938 C 232.507813 461.710938 231.273438 455.109375 229.203125 452.625 C 226.730469 450.152344 223.425781 447.261719 223.425781 447.261719 C 223.425781 447.261719 225.488281 455.109375 224.664063 461.304688 C 223.835938 467.496094 219.707031 472.453125 219.707031 472.453125 C 219.707031 472.453125 219.707031 465.015625 217.230469 460.886719 C 214.339844 456.347656 211.445313 454.277344 211.445313 454.277344 C 211.445313 454.277344 213.101563 457.582031 211.445313 461.710938 C 209.382813 466.253906 206.492188 469.972656 206.492188 469.972656 C 206.492188 469.972656 206.492188 467.496094 206.078125 464.609375 C 205.664063 461.710938 204.015625 459.234375 204.015625 459.234375 C 204.015625 459.234375 197.820313 459.234375 191.210938 463.363281 C 184.605469 467.082031 175.929688 472.453125 175.929688 472.453125 C 175.929688 472.453125 177.996094 474.101563 177.171875 477.40625 C 176.34375 480.710938 174.277344 481.539063 174.277344 481.539063 C 174.277344 481.539063 174.277344 483.597656 176.34375 485.667969 C 177.996094 487.734375 180.058594 488.554688 180.058594 488.554688 C 180.058594 488.554688 174.277344 491.445313 170.5625 488.554688 C 166.847656 485.667969 165.605469 481.953125 165.605469 481.953125 C 165.605469 481.953125 162.300781 483.191406 161.890625 480.710938 C 161.476563 478.648438 161.476563 476.996094 161.476563 476.996094 C 161.476563 476.996094 155.28125 478.234375 153.628906 480.710938 C 152.390625 483.597656 151.566406 488.972656 148.261719 489.792969 C 144.957031 491.039063 142.066406 488.140625 142.066406 488.140625 C 142.066406 488.140625 136.699219 488.972656 135.460938 492.277344 C 134.632813 495.582031 136.699219 500.945313 136.699219 500.945313 C 136.699219 500.945313 128.4375 492.691406 128.4375 488.140625 C 128.4375 483.191406 131.328125 481.539063 131.328125 481.539063 C 131.328125 481.539063 126.785156 478.648438 129.675781 475.34375 C 132.566406 471.625 135.871094 471.625 135.871094 471.625 L 137.523438 468.734375 C 137.523438 468.734375 133.808594 466.253906 130.089844 467.90625 C 126.785156 469.972656 125.546875 473.277344 122.65625 472.453125 C 119.765625 471.210938 118.9375 468.320313 118.9375 468.320313 C 118.9375 468.320313 116.050781 465.84375 113.15625 467.082031 C 110.265625 468.734375 107.375 473.691406 107.375 473.691406 C 107.375 473.691406 106.550781 463.363281 109.851563 460.472656 C 113.15625 457.582031 117.285156 458 117.285156 458 C 117.285156 458 117.699219 451.804688 122.242188 451.390625 C 126.371094 450.558594 128.851563 450.558594 128.851563 450.558594 L 128.023438 445.609375 C 128.023438 445.609375 123.480469 447.261719 119.351563 446.847656 C 114.808594 446.433594 114.808594 440.652344 114.808594 440.652344 C 114.808594 440.652344 112.742188 439.414063 108.613281 440.652344 C 106.136719 441.476563 103.246094 445.609375 103.246094 445.609375 C 103.246094 445.609375 104.898438 431.152344 113.570313 429.914063 C 118.9375 429.5 118.9375 429.914063 118.9375 429.914063 C 118.9375 429.914063 121.417969 425.375 128.4375 426.609375 C 132.980469 427.847656 134.21875 431.976563 134.21875 431.976563 C 134.21875 431.976563 141.652344 436.523438 143.304688 443.542969 C 144.546875 450.558594 146.609375 456.347656 153.628906 455.929688 C 161.0625 455.515625 166.019531 454.695313 170.5625 451.390625 C 174.691406 447.667969 175.519531 447.667969 179.644531 442.71875 C 183.777344 437.347656 186.667969 431.566406 186.667969 431.566406 C 186.667969 431.566406 146.609375 428.671875 151.980469 401.417969 C 155.28125 382.417969 180.058594 372.921875 180.058594 372.921875 "/>
<path style=" stroke:none;fill-rule:evenodd;fill:rgb(96.899414%,85.499573%,25.099182%);fill-opacity:1;" d="M 106.449219 536.300781 C 105.261719 538.054688 104.015625 539.890625 103.824219 540.515625 C 103.503906 541.679688 104.945313 543.210938 106.625 544.410156 L 105.816406 545.542969 C 105.132813 544.992188 104.5625 544.460938 103.75 543.820313 C 102.898438 543.148438 101.847656 542.398438 100.210938 541.234375 C 99.410156 540.664063 98.539063 540.105469 97.796875 539.640625 C 96.980469 539.183594 96.320313 538.777344 95.816406 538.417969 L 94.804688 537.699219 L 95.496094 536.734375 C 98.371094 537.769531 98.691406 537.492188 99.117188 537.160156 C 100.160156 536.320313 103.605469 531.488281 104.683594 529.976563 C 105.96875 528.167969 106.4375 527.421875 111.011719 520.734375 C 115.378906 514.34375 115.199219 514.148438 112.542969 512.007813 C 112.890625 511.429688 113.21875 510.96875 113.441406 510.746094 C 114.011719 511.277344 117.132813 513.566406 118.648438 514.644531 C 119.359375 515.152344 120.105469 515.621094 120.808594 516.058594 C 121.554688 516.523438 122.296875 516.992188 122.96875 517.46875 C 129.734375 522.289063 131.175781 529.78125 128.03125 534.195313 C 126.058594 536.96875 119.546875 540.945313 110.34375 534.386719 C 109.714844 533.9375 109.125 533.519531 108.652344 533.117188 L 106.449219 536.300781 M 122.328125 519.167969 C 121.277344 518.421875 120.425781 518.191406 119.773438 518.042969 C 114.777344 524.433594 114.296875 525.105469 109.910156 531.355469 C 110.449219 531.929688 111.152344 532.808594 112.285156 533.617188 C 113.128906 534.21875 118.105469 537.636719 122.863281 530.953125 C 126.96875 525.195313 124.976563 521.054688 122.328125 519.167969 "/>
<path style=" stroke:none;fill-rule:evenodd;fill:rgb(96.899414%,85.499573%,25.099182%);fill-opacity:1;" d="M 120.65625 554.332031 C 122.960938 554.59375 123.859375 554.589844 124.847656 553.21875 C 125.730469 552.082031 130.507813 541.273438 131.550781 538.859375 C 134.210938 532.699219 134.59375 531.683594 134.921875 530.53125 C 135.558594 528.277344 133.683594 527.414063 132.707031 526.9375 L 133.429688 525.785156 C 134.09375 526.074219 136.867188 527.328125 137.4375 527.574219 C 138.050781 527.835938 139.75 528.457031 141.421875 529.011719 C 143.140625 529.585938 144.8125 530.140625 145.382813 530.386719 C 153.152344 533.738281 154.253906 539.386719 152.722656 542.9375 C 151.207031 546.445313 147.210938 548.148438 142.9375 547.765625 C 143.867188 560.191406 145.652344 566.078125 150.273438 568.523438 L 149.742188 569.753906 C 145.105469 567.867188 138.476563 565.003906 137.433594 546.0625 C 136.175781 545.460938 135.796875 545.300781 134.671875 544.644531 C 134.175781 545.667969 133.761719 546.5 132.613281 549.152344 C 131.941406 550.714844 129.894531 555.453125 130.082031 556.714844 C 130.308594 557.878906 132.019531 559.125 132.640625 559.507813 L 131.960938 560.5625 C 130.527344 559.71875 129.695313 559.300781 128.957031 558.925781 C 128.171875 558.53125 127.460938 558.226563 126.136719 557.652344 C 124.191406 556.8125 123.8125 556.648438 120.164063 555.46875 L 120.65625 554.332031 M 143.820313 531.394531 C 141.359375 530.332031 141.09375 530.949219 139.640625 533.917969 C 137.507813 538.339844 137.261719 538.90625 135.53125 543.046875 C 136.179688 543.5 136.351563 543.628906 137.628906 544.179688 C 139.902344 545.160156 144.78125 547.265625 147.398438 541.203125 C 148.136719 539.496094 149.554688 533.871094 143.820313 531.394531 "/>
<path style=" stroke:none;fill-rule:evenodd;fill:rgb(96.899414%,85.499573%,25.099182%);fill-opacity:1;" d="M 179.6875 563.488281 L 178.53125 563.222656 C 178.914063 558.757813 178.960938 558.558594 171.011719 556.746094 C 168.945313 556.277344 168.269531 556.226563 167.066406 556.167969 C 166.90625 556.871094 165.4375 562.621094 165.402344 562.773438 C 164.773438 565.539063 164.699219 567.480469 164.644531 568.898438 C 166.234375 569.578125 168.558594 570.53125 171.425781 571.183594 C 178.972656 572.902344 181.214844 569.339844 182.28125 567.675781 L 183.386719 567.929688 C 182.480469 570.738281 181.695313 572.09375 179.46875 575.132813 C 176.195313 574.175781 174.054688 573.582031 172.214844 573.058594 C 170.367188 572.582031 168.757813 572.214844 166.390625 571.675781 C 161.761719 570.621094 159.578125 570.230469 154.566406 569.460938 L 155.015625 568.1875 C 156.90625 568.246094 157.96875 568.222656 158.648438 566.632813 C 159.796875 563.929688 161.878906 555.25 162.636719 551.929688 C 162.921875 550.671875 163.980469 544.402344 164.300781 542.992188 C 164.730469 540.179688 164.332031 539.824219 162.574219 538.949219 C 162.386719 538.851563 162.09375 538.734375 162.054688 538.671875 L 162.25 537.816406 L 178.148438 541.4375 C 181.671875 542.242188 183.433594 542.640625 186.757813 543.136719 C 186.121094 546.640625 184.632813 549.6875 183.976563 549.539063 C 183.726563 549.484375 183.296875 549.277344 182.953125 549.148438 C 183.242188 548.578125 183.554688 547.910156 183.703125 547.253906 C 184.140625 545.34375 182.222656 544.007813 177.238281 542.871094 C 175.179688 542.402344 173.007813 542.171875 170.773438 541.980469 C 169.734375 544.917969 169.160156 546.746094 168.496094 549.664063 C 168.242188 550.773438 168.035156 551.675781 167.550781 554.054688 C 168.695313 554.367188 170.332031 554.84375 172.09375 555.246094 C 175.613281 556.050781 178.3125 556.292969 178.757813 556.183594 C 179.695313 556.027344 180.710938 553.664063 180.722656 553.613281 L 181.878906 553.878906 L 179.6875 563.488281 "/>
<path style=" stroke:none;fill-rule:evenodd;fill:rgb(96.899414%,85.499573%,25.099182%);fill-opacity:1;" d="M 195.355469 568.871094 C 195.242188 570.984375 195.121094 573.199219 195.277344 573.835938 C 195.601563 575 197.628906 575.570313 199.683594 575.730469 L 199.574219 577.121094 C 198.703125 577 197.941406 576.835938 196.914063 576.707031 C 195.839844 576.570313 194.554688 576.46875 192.546875 576.3125 C 191.570313 576.234375 190.539063 576.207031 189.660156 576.191406 C 188.726563 576.21875 187.949219 576.210938 187.332031 576.164063 L 186.097656 576.066406 L 186.191406 574.882813 C 189.1875 574.289063 189.320313 573.886719 189.515625 573.382813 C 189.976563 572.125 190.4375 566.210938 190.585938 564.359375 C 190.757813 562.144531 190.773438 561.265625 191.253906 553.179688 C 191.699219 545.449219 191.445313 545.378906 188.066406 544.90625 C 188.070313 544.234375 188.113281 543.667969 188.1875 543.363281 C 188.953125 543.527344 192.808594 543.878906 194.660156 544.023438 C 195.53125 544.09375 196.410156 544.109375 197.238281 544.121094 C 198.117188 544.140625 198.996094 544.15625 199.820313 544.222656 C 208.101563 544.871094 213.195313 550.546875 212.773438 555.949219 C 212.507813 559.34375 208.976563 566.105469 197.710938 565.226563 C 196.9375 565.164063 196.21875 565.109375 195.605469 565.007813 L 195.355469 568.871094 M 200.144531 546.007813 C 198.859375 545.90625 198.011719 546.148438 197.375 546.359375 C 196.382813 554.40625 196.320313 555.230469 195.773438 562.847656 C 196.535156 563.0625 197.589844 563.457031 198.980469 563.566406 C 200.007813 563.644531 206.035156 564.011719 206.675781 555.832031 C 207.226563 548.785156 203.386719 546.261719 200.144531 546.007813 "/>
<path style=" stroke:none;fill-rule:evenodd;fill:rgb(96.899414%,85.499573%,25.099182%);fill-opacity:1;" d="M 215.695313 570.480469 C 215.371094 571.425781 214.574219 573.523438 214.605469 574.296875 C 214.683594 576.203125 217.171875 576.414063 218.621094 576.5625 L 218.671875 577.746094 C 218.308594 577.761719 216.757813 577.773438 215.261719 577.78125 C 213.765625 577.789063 212.371094 577.792969 212.269531 577.796875 C 211.648438 577.820313 209.484375 577.90625 208.660156 577.992188 L 208.621094 576.960938 C 209.4375 576.773438 210.71875 576.464844 211.632813 574.828125 C 213.320313 571.867188 221.367188 549.597656 221.96875 547.820313 C 222.433594 546.507813 222.703125 545.570313 222.976563 544.628906 L 224.316406 544.574219 C 224.667969 545.59375 225.023438 546.714844 225.710938 548.390625 C 226.914063 551.390625 232.597656 564.488281 233.738281 567.179688 C 237.0625 575.359375 237.945313 575.480469 240.019531 575.707031 L 240.058594 576.738281 C 239.492188 576.710938 238.871094 576.683594 238.144531 576.660156 C 237.421875 576.636719 236.597656 576.671875 235.515625 576.714844 C 232.316406 576.839844 229.90625 577.195313 228.3125 577.363281 L 228.265625 576.175781 C 229.597656 575.917969 230.8125 575.351563 230.765625 574.167969 C 230.738281 573.445313 227.941406 566.789063 227.652344 566.078125 C 226.722656 566.011719 226.152344 565.984375 223.9375 566.074219 C 222.027344 566.148438 219.554688 566.246094 217.09375 566.707031 L 215.695313 570.480469 M 217.921875 564.195313 C 219.320313 564.347656 221.289063 564.527344 223.507813 564.4375 C 225.210938 564.371094 226.03125 564.234375 226.851563 564.097656 C 225.308594 560.339844 223.707031 556.476563 221.867188 553.089844 L 217.921875 564.195313 "/>
<path style=" stroke:none;fill-rule:evenodd;fill:rgb(96.899414%,85.499573%,25.099182%);fill-opacity:1;" d="M 244.269531 575.335938 C 246.300781 574.21875 247.035156 573.691406 247.042969 572.003906 C 247.105469 570.566406 244.75 558.984375 244.199219 556.410156 C 242.804688 549.851563 242.53125 548.800781 242.132813 547.671875 C 241.34375 545.464844 239.316406 545.84375 238.246094 546.019531 L 238.167969 544.664063 C 238.875 544.515625 241.863281 543.929688 242.46875 543.800781 C 243.125 543.664063 244.871094 543.183594 246.554688 542.667969 C 248.289063 542.140625 249.972656 541.625 250.578125 541.496094 C 258.855469 539.738281 263.019531 543.703125 263.828125 547.488281 C 264.621094 551.222656 262.351563 554.925781 258.640625 557.085938 C 266.59375 566.683594 271.453125 570.449219 276.636719 569.769531 L 276.917969 571.082031 C 272.042969 572.222656 264.976563 573.726563 253.167969 558.882813 C 251.796875 559.121094 251.390625 559.207031 250.097656 559.324219 C 250.28125 560.445313 250.425781 561.363281 251.027344 564.191406 C 251.382813 565.855469 252.453125 570.902344 253.335938 571.824219 C 254.195313 572.644531 256.3125 572.667969 257.039063 572.621094 L 257.09375 573.875 C 255.4375 574.015625 254.519531 574.15625 253.699219 574.277344 C 252.828125 574.410156 252.074219 574.574219 250.660156 574.871094 C 248.59375 575.3125 248.1875 575.398438 244.527344 576.546875 L 244.269531 575.335938 M 249.890625 543.226563 C 247.265625 543.785156 247.40625 544.441406 247.941406 547.703125 C 248.757813 552.539063 248.886719 553.144531 249.871094 557.527344 C 250.660156 557.515625 250.871094 557.523438 252.238281 557.234375 C 254.660156 556.71875 259.859375 555.613281 258.484375 549.152344 C 258.097656 547.335938 255.996094 541.925781 249.890625 543.226563 "/>
<path style=" stroke:none;fill-rule:evenodd;fill:rgb(96.899414%,85.499573%,25.099182%);fill-opacity:1;" d="M 297.710938 548.84375 L 296.613281 549.292969 C 294.351563 545.425781 294.273438 545.234375 286.734375 548.339844 C 284.777344 549.148438 284.195313 549.5 283.175781 550.140625 C 283.453125 550.808594 285.570313 556.355469 285.628906 556.496094 C 286.710938 559.121094 287.769531 560.75 288.539063 561.941406 C 290.230469 561.578125 292.679688 561.015625 295.398438 559.894531 C 302.554688 556.949219 302.328125 552.742188 302.242188 550.769531 L 303.292969 550.335938 C 304.175781 553.15625 304.316406 554.714844 304.25 558.480469 C 301.019531 559.589844 298.929688 560.339844 297.125 560.96875 C 295.339844 561.648438 293.8125 562.277344 291.570313 563.203125 C 287.183594 565.011719 285.171875 565.949219 280.632813 568.210938 L 280.265625 566.910156 C 281.84375 565.871094 282.699219 565.238281 282.339844 563.546875 C 281.714844 560.679688 278.410156 552.382813 277.113281 549.234375 C 276.621094 548.042969 273.871094 542.3125 273.320313 540.976563 C 272.046875 538.429688 271.519531 538.367188 269.578125 538.667969 C 269.367188 538.695313 269.0625 538.765625 268.996094 538.738281 L 268.660156 537.929688 L 283.738281 531.71875 C 287.078125 530.339844 288.746094 529.652344 291.746094 528.136719 C 293.246094 531.371094 293.789063 534.71875 293.171875 534.976563 C 292.929688 535.074219 292.464844 535.15625 292.109375 535.246094 C 292.015625 534.613281 291.882813 533.886719 291.628906 533.265625 C 290.882813 531.453125 288.546875 531.46875 283.820313 533.414063 C 281.863281 534.21875 279.960938 535.28125 278.027344 536.414063 C 278.871094 539.414063 279.453125 541.238281 280.59375 544.003906 C 281.027344 545.054688 281.382813 545.914063 282.351563 548.136719 C 283.46875 547.730469 285.085938 547.179688 286.753906 546.492188 C 290.09375 545.117188 292.4375 543.757813 292.738281 543.410156 C 293.414063 542.742188 292.878906 540.230469 292.859375 540.183594 L 293.957031 539.730469 L 297.710938 548.84375 "/>
<path style=" stroke:none;fill-rule:evenodd;fill:rgb(96.899414%,85.499573%,25.099182%);fill-opacity:1;" d="M 308.238281 541.664063 C 307.117188 540.117188 302.308594 533.664063 300.628906 531.695313 C 297.925781 528.492188 297.519531 528.019531 294.976563 529.609375 L 294.15625 528.480469 L 300.375 523.785156 C 301.972656 522.5625 305.042969 519.761719 306.546875 518.671875 C 315.402344 512.25 325.691406 513.078125 331.203125 520.683594 C 335.441406 526.53125 336.914063 537 325.257813 545.449219 C 324.214844 546.207031 319.59375 549.238281 318.671875 549.90625 C 317.921875 550.449219 314.566406 552.945313 313.855469 553.460938 L 312.601563 554.367188 L 311.847656 553.324219 C 314.472656 551.230469 314.808594 550.730469 310.234375 544.421875 L 308.238281 541.664063 M 306.710938 520.65625 C 305.792969 521.324219 304.222656 522.585938 303.019531 524.796875 C 304.679688 527.609375 306.289063 530.011719 309.863281 534.941406 C 311.195313 536.777344 315.902344 543.183594 318.4375 546.507813 C 320.152344 545.964844 322.597656 545.210938 324.730469 543.667969 C 330.285156 539.640625 331.292969 531.707031 326.113281 524.5625 C 319.785156 515.832031 311.222656 517.386719 306.710938 520.65625 "/>
</g>
</svg>
