<?xml version="1.0" encoding="UTF-8" standalone="no"?>
<svg
   xmlns:dc="http://purl.org/dc/elements/1.1/"
   xmlns:cc="http://creativecommons.org/ns#"
   xmlns:rdf="http://www.w3.org/1999/02/22-rdf-syntax-ns#"
   xmlns:svg="http://www.w3.org/2000/svg"
   xmlns="http://www.w3.org/2000/svg"
   xmlns:sodipodi="http://sodipodi.sourceforge.net/DTD/sodipodi-0.dtd"
   xmlns:inkscape="http://www.inkscape.org/namespaces/inkscape"
   id="svg2"
   xml:space="preserve"
   height="700"
   width="700"
   version="1.1"
   viewBox="0 0 699.99701 700.00192"
   inkscape:version="0.91 r13725"
   sodipodi:docname="Logo Brentford FC 2017.svg"><defs
     id="defs13" /><sodipodi:namedview
     pagecolor="#ffffff"
     bordercolor="#666666"
     borderopacity="1"
     objecttolerance="10"
     gridtolerance="10"
     guidetolerance="10"
     inkscape:pageopacity="0"
     inkscape:pageshadow="2"
     inkscape:window-width="1440"
     inkscape:window-height="788"
     id="namedview11"
     showgrid="false"
     inkscape:zoom="0.52047306"
     inkscape:cx="280.61618"
     inkscape:cy="424.81102"
     inkscape:window-x="0"
     inkscape:window-y="1"
     inkscape:window-maximized="1"
     inkscape:current-layer="svg2" /><metadata
     id="metadata8"><rdf:RDF><cc:Work
         rdf:about=""><dc:format>image/svg+xml</dc:format><dc:type
           rdf:resource="http://purl.org/dc/dcmitype/StillImage" /><dc:title /></cc:Work></rdf:RDF></metadata><g
     id="g4492"><path
       style="fill:#ffffff;stroke:#000000;stroke-width:8.95585537"
       inkscape:connector-curvature="0"
       d="M 695.52328,350.01697 C 695.52328,159.47529 540.51906,4.4774474 349.99611,4.4774474 159.47317,4.4774474 4.4771868,159.47529 4.4771868,350.01697 c 0,190.50873 154.9959832,345.50657 345.5189232,345.50657 190.52295,0 345.52717,-154.99784 345.52717,-345.50657"
       id="big-circle" /><path
       inkscape:connector-curvature="0"
       id="path4171"
       d="m 682.99685,349.99209 c 0,183.59103 -149.36305,332.94763 -332.94367,332.94763 -183.58061,0 -332.935432,-149.36484 -332.935432,-332.94763 0,-183.59927 149.363062,-332.964114 332.935432,-332.964114 183.58885,0 332.94367,149.364844 332.94367,332.964114"
       style="fill:#e30613" /><g
       id="g4394"><path
         inkscape:connector-curvature="0"
         id="path4243"
         d="m 575.66822,349.98943 c 0,124.40739 -101.21336,225.61641 -225.61371,225.61641 -124.40034,0 -225.60814,-101.2146 -225.60814,-225.61641 0,-124.41297 101.21338,-225.62757 225.60814,-225.62757 124.40592,0 225.61371,101.2146 225.61371,225.62757"
         style="fill:#ffffff" /><path
         style="color:#000000;font-style:normal;font-variant:normal;font-weight:normal;font-stretch:normal;font-size:medium;line-height:normal;font-family:sans-serif;text-indent:0;text-align:start;text-decoration:none;text-decoration-line:none;text-decoration-style:solid;text-decoration-color:#000000;letter-spacing:normal;word-spacing:normal;text-transform:none;direction:ltr;block-progression:tb;writing-mode:lr-tb;baseline-shift:baseline;text-anchor:start;white-space:normal;clip-rule:nonzero;display:inline;overflow:visible;visibility:visible;opacity:1;isolation:auto;mix-blend-mode:normal;color-interpolation:sRGB;color-interpolation-filters:linearRGB;solid-color:#000000;solid-opacity:1;fill:#ffffff;fill-opacity:1;fill-rule:nonzero;stroke:none;stroke-width:20.00005341;stroke-linecap:round;stroke-linejoin:round;stroke-miterlimit:4;stroke-dasharray:none;stroke-dashoffset:0;stroke-opacity:1;color-rendering:auto;image-rendering:auto;shape-rendering:auto;text-rendering:auto;enable-background:accumulate"
         d="m 156.54102,227.72266 c -0.92113,-0.0203 -1.84063,0.0869 -2.73243,0.31836 l -25.94531,6.74804 c -0.0287,0.007 -0.0573,0.0142 -0.0859,0.0215 -2.71023,0.73031 -4.66022,1.29754 -6.70703,2.21484 -2.04155,0.91494 -4.69003,2.73514 -6.25195,5.12305 -1.7846,2.735 -2.12679,7.47411 -1.72461,9.64062 0.36651,1.97435 0.86274,3.51987 1.47656,5.71485 0.0204,0.0836 0.0419,0.16695 0.0645,0.25 0.0356,0.12846 0.0473,0.19025 0.084,0.32421 0.005,0.017 0.0104,0.0339 0.0156,0.0508 0.006,0.0241 0.0129,0.0482 0.0195,0.0723 l 11.98047,41.68164 c 1.75606,6.10599 8.68639,9.04813 14.29882,6.07031 l 42.52149,-22.5625 c 5.09115,-2.70159 6.85112,-9.13601 3.84375,-14.05273 L 164.85547,232.5 c -1.77759,-2.90393 -4.91044,-4.70402 -8.31445,-4.77734 z"
         id="path4333"
         inkscape:connector-curvature="0"
         sodipodi:nodetypes="ccccscsccccccccccc" /><path
         style="color:#000000;font-style:normal;font-variant:normal;font-weight:normal;font-stretch:normal;font-size:medium;line-height:normal;font-family:sans-serif;text-indent:0;text-align:start;text-decoration:none;text-decoration-line:none;text-decoration-style:solid;text-decoration-color:#000000;letter-spacing:normal;word-spacing:normal;text-transform:none;direction:ltr;block-progression:tb;writing-mode:lr-tb;baseline-shift:baseline;text-anchor:start;white-space:normal;clip-rule:nonzero;display:inline;overflow:visible;visibility:visible;opacity:1;isolation:auto;mix-blend-mode:normal;color-interpolation:sRGB;color-interpolation-filters:linearRGB;solid-color:#000000;solid-opacity:1;fill:#ffffff;fill-opacity:1;fill-rule:nonzero;stroke:none;stroke-width:20.00005341;stroke-linecap:round;stroke-linejoin:round;stroke-miterlimit:4;stroke-dasharray:none;stroke-dashoffset:0;stroke-opacity:1;color-rendering:auto;image-rendering:auto;shape-rendering:auto;text-rendering:auto;enable-background:accumulate"
         d="m 542.89648,227.63086 c -3.31618,0.15128 -6.34118,1.93819 -8.07421,4.76953 l -22.54297,36.83594 c -3.00908,4.9166 -1.24989,11.3524 3.84179,14.05469 l 42.52344,22.5625 c 5.61258,2.97613 12.54151,0.0332 14.29688,-6.07227 l 11.98242,-41.68164 c 0.012,-0.0403 0.0237,-0.0806 0.0352,-0.12109 0.71278,-2.60386 1.22271,-4.13123 1.62305,-6.30079 0.15611,-0.84597 0.0795,-2.23282 -0.0293,-3.58398 0.0994,-2.1329 -0.48649,-4.24162 -1.67187,-6.01758 l -0.002,-0.006 -0.01,-0.0137 c -0.01,-0.0157 -0.0195,-0.0313 -0.0293,-0.0469 -0.004,-0.005 -0.0101,-0.008 -0.0137,-0.0137 -0.68694,-1.06867 -1.57119,-1.99667 -2.60547,-2.73437 -1.21502,-0.99945 -2.49323,-1.83039 -3.62695,-2.33789 -2.0436,-0.91481 -3.99484,-1.48258 -6.70508,-2.21289 -0.028,-0.008 -0.056,-0.0157 -0.084,-0.0234 l -25.93555,-6.74609 c -0.96974,-0.25183 -1.97181,-0.35652 -2.97266,-0.31055 z"
         id="path4345"
         inkscape:connector-curvature="0"
         sodipodi:nodetypes="ccccccccscccccccsccccc" /></g><path
       style="fill:#140e0c"
       inkscape:connector-curvature="0"
       d="m 177.21194,232.89359 c 37.59812,-55.30627 101.02204,-91.70082 172.80064,-91.70082 72.26367,0 136.07135,36.90844 173.57476,92.862 l 7.91805,-3.31342 c -38.93635,-58.53699 -106.09497,-97.8938 -181.49709,-97.8938 -75.26623,0 -141.7125,38.4995 -180.6818,96.83144 l 7.88799,3.20331 z m -40.82141,77.88926 c -2.3123,12.67259 -3.52354,25.89694 -3.52354,39.23082 0,119.72576 97.40677,217.13367 217.13934,217.13367 119.72433,0 217.13109,-97.40791 217.13109,-217.13367 0,-13.394 -1.2212,-26.60764 -3.5536,-39.32964 l -8.40821,0.01 c 2.38238,12.59271 3.62369,26.03612 3.62369,39.32058 0,115.1222 -93.65972,208.80773 -208.78877,208.80773 -115.13729,0 -208.80525,-93.6773 -208.80525,-208.80773 0,-13.39399 1.26132,-26.49728 3.68372,-39.19046 l -8.49797,-0.0404 z"
       id="middle-black-border" /></g><path
     id="grey-lines"
     d="m 194.76953,360.54176 0,110.31273 3.82389,-0.67068 0,-109.3739 -3.82389,-0.27028 z m 3.58366,-118.50693 0,-25.4168 -3.82388,3.50357 0,20.48135 3.82388,1.43147 z m 119.60904,-41.25176 0,27.51765 3.82389,-1.982 0,-19.61089 -3.82389,-5.92608 z m 0,292.37198 0,57.12873 3.82389,0.61065 0,-54.52637 -3.82389,-3.21327 z m 3.82389,-309.60038 0,-34.26571 -3.82389,0.82081 0,31.34216 3.82389,2.10215 z m -61.50263,173.66742 0,-8.02825 -3.82388,2.43248 0,13.36435 3.82388,-7.76792 z m 0,-89.93021 0,-16.50614 -3.82388,-4.49462 0,19.33005 3.82388,1.6717 z m -3.82388,164.28733 0,96.94673 3.82388,2.18222 0,-105.33858 -3.82388,6.20634 z m 3.82388,-210.49597 0,-53.92601 -3.82388,2.15224 0,48.06901 3.82388,3.70377 z m 243.1216,139.72946 0,109.37391 3.82388,0.67068 0,-110.31274 -3.82388,0.27028 z m 4.0641,-120.2034 0,-20.48136 -3.82388,-3.50357 0,25.4168 3.82388,-1.43146 z m -127.25137,-33.89431 0,19.61089 3.81384,1.982 0,-27.51765 -3.81384,5.92608 z m 0,289.65432 0,54.52636 3.81384,-0.61064 0,-57.12874 -3.81384,3.21327 z m 3.81384,-314.91218 0,-31.34216 -3.81384,-0.82081 0,34.2657 3.81384,-2.10215 z m 61.50263,183.54161 0,-13.36435 -3.82389,-2.43248 0,8.02825 3.82389,7.76792 z m 0,-99.37617 0,-19.33005 -3.82389,4.49462 0,16.50614 3.82389,-1.6717 z m -3.82389,159.75788 0,105.33858 3.82389,-2.18222 0,-96.94673 -3.82389,-6.20634 z m 0,-204.2865 0,-53.92601 3.82389,2.15223 0,48.06901 -3.82389,3.70378 z"
     inkscape:connector-curvature="0"
     style="fill:#e8e4d9" /><g
     id="g4280"
     transform="matrix(0.99999998,0,0,1.0000031,6.9841587e-6,615.00147)"><g
       style="fill:#ffffff"
       id="g4237"><path
         inkscape:connector-curvature="0"
         style="fill:#ffffff"
         d="m 176.15039,-508.80664 c -3.46008,0.0514 -7.14363,1.3775 -10.67773,4.22852 l -14.93555,12.0625 32.50391,40.28124 8.07812,-6.52734 -12.84375,-15.91601 3.73438,-3.01368 21.66211,8.81055 9.78906,-7.9082 -24.54492,-9.5 c 3.41342,-6.2964 2.03307,-12.76313 -1.32032,-16.92774 -2.9167,-3.61491 -6.99663,-5.65589 -11.44531,-5.58984 z m -1.39844,10.13281 c 1.95268,-0.0296 3.7601,0.86447 5.06641,2.48047 2.47254,3.06304 2.02039,7.26598 -1.5332,10.12891 l -5.56446,4.49414 -8.49804,-10.5293 5.875,-4.73437 c 1.52854,-1.23503 3.13554,-1.81684 4.65429,-1.83985 z"
         transform="matrix(1.0000028,0,0,1.0000028,-3.0136193e-4,0)"
         id="path4187" /><path
         inkscape:connector-curvature="0"
         style="fill:#ffffff"
         d="m 205.90469,-531.17677 22.34228,46.6878 28.87862,-13.83373 -3.83385,-8.00821 -19.50935,9.33888 -5.40546,-11.28159 15.11501,-7.23739 -3.83385,-8.01776 -15.11501,7.23738 -5.43553,-11.35159 18.93948,-9.06958 -3.83385,-8.01777 -28.30874,13.55372 z"
         id="path4185" /><path
         inkscape:connector-curvature="0"
         style="fill:#ffffff"
         d="m 263.22298,-554.75125 11.55162,50.45134 10.12031,-2.32237 -7.26738,-31.74312 30.9712,26.31686 9.57927,-2.19225 -11.56232,-50.45134 -10.11044,2.31231 7.31737,31.97289 -31.01155,-26.54744 -9.58997,2.20221 z"
         id="path4183" /><path
         inkscape:connector-curvature="0"
         style="fill:#ffffff"
         d="m 328.84901,-558.40495 16.20701,0.0801 -0.24022,42.87401 10.39044,0.0601 0.23026,-42.87401 16.20618,0.0901 0.0404,-8.88922 -42.79293,-0.23024 -0.0404,8.88923 z"
         id="path4181" /><path
         inkscape:connector-curvature="0"
         style="fill:#ffffff"
         d="m 385.80661,-513.1888 10.20102,1.96199 4.0441,-21.01166 16.45654,3.1632 1.67999,-8.73193 -16.44583,-3.1632 2.37176,-12.35219 20.6211,3.96367 1.68,-8.72864 -30.82461,-5.93603 -9.77526,50.83429 z"
         id="path4179" /><path
         inkscape:connector-curvature="0"
         style="fill:#ffffff"
         d="m 458.46094,-545.31641 c -10.40328,-0.0417 -20.08578,6.12064 -24.59766,16.89453 -5.98604,14.29487 0.28074,29.45973 14.14453,35.26563 l 0,-0.002 c 13.85416,5.8059 29.06068,-0.35992 35.04688,-14.6543 6.01609,-14.36486 -0.25113,-29.53003 -14.11524,-35.33594 -3.46354,-1.45147 -7.01075,-2.15406 -10.47851,-2.16797 z m 0.45898,9.79883 c 2.10135,0.005 4.23569,0.43629 6.30274,1.30469 8.26785,3.46377 12.30138,12.57314 8.19726,22.36328 -4.0748,9.71933 -13.39392,13.24283 -21.66211,9.7793 l 0,0.002 c -8.26862,-3.47447 -12.30265,-12.57271 -8.22851,-22.30273 3.07092,-7.34302 9.08657,-11.16204 15.39062,-11.14649 z"
         transform="matrix(1.0000028,0,0,1.0000028,-3.0136193e-4,0)"
         id="path4177" /><path
         inkscape:connector-curvature="0"
         style="fill:#ffffff"
         d="m 515.16602,-517.57227 -31.20118,41.30274 8.28907,6.25586 12.32226,-16.31641 3.83399,2.89258 -3.28321,23.14453 10.04102,7.58789 3.26172,-26.12695 c 6.93704,1.79183 12.87437,-1.12238 16.09765,-5.38672 4.975,-6.59673 4.24344,-15.52558 -4.04492,-21.79102 l -15.31445,-11.5625 -0.002,0 z m 2.93945,13.36133 6.02539,4.54492 c 3.58356,2.703 3.96466,6.63683 1.73242,9.58985 -2.37306,3.14317 -6.55749,3.72352 -10.20117,0.9707 l -5.70508,-4.31445 8.14844,-10.79102 z"
         transform="matrix(1.0000028,0,0,1.0000028,-3.0136193e-4,0)"
         id="path4175" /><path
         inkscape:connector-curvature="0"
         style="fill:#ffffff"
         d="m 131.34766,-466.30078 c -4.16948,-0.18056 -8.83626,1.93936 -13.07227,6.98828 l -12.01172,14.35352 0,0.002 39.66992,33.23242 12.4336,-14.83398 c 7.37746,-8.79944 4.82439,-18.62753 -1.02149,-23.52344 -5.00505,-4.19425 -11.03141,-3.49415 -15.74609,0.0488 1.92194,-4.86494 0.48963,-10.26009 -3.48438,-13.59375 -1.94446,-1.62917 -4.26589,-2.5655 -6.76757,-2.67383 z m -1.94532,10.73633 c 1.14398,-0.0238 2.34655,0.36235 3.52149,1.34961 2.83284,2.37268 2.88147,6.11491 0.45898,9.00781 l -4.69336,5.60937 -8.98437,-7.52734 4.84961,-5.78906 c 1.19508,-1.43274 2.94103,-2.61071 4.84765,-2.65039 z m 17.29688,11.9082 c 1.32766,-0.0204 2.66694,0.43767 3.93555,1.5 3.43343,2.88294 3.00279,7.43795 0.0195,11.00195 l -4.89453,5.84571 -10.3711,-8.6875 5.14453,-6.14649 c 1.77053,-2.11462 3.95326,-3.47974 6.16602,-3.51367 z"
         transform="matrix(1.0000028,0,0,1.0000028,-3.0136193e-4,0)"
         id="path4189" /><path
         inkscape:connector-curvature="0"
         style="fill:#ffffff"
         d="m 565.15625,-476.31055 -36.85547,36.32813 12.03125,12.2207 c 12.92358,13.10322 29.01983,9.83012 38.03906,0.94141 9.07937,-8.93861 11.64269,-24.27477 -0.33984,-36.4375 l -12.86328,-13.04297 -0.0117,-0.01 z m 0.97461,13.65235 5.57422,5.65625 c 7.34807,7.4579 5.38573,16.78634 -1.05078,23.13281 -6.50666,6.40659 -15.85571,8.11776 -23.36328,0.5 l -5.36524,-5.43555 24.20508,-23.85351 z"
         transform="matrix(1.0000028,0,0,1.0000028,-3.0136193e-4,0)"
         id="path4173" /></g><g
       style="fill:#ffffff"
       id="g4253"><path
         inkscape:connector-curvature="0"
         style="fill:#ffffff"
         d="m 646.0293,-284.19922 c -7.08717,0 -12.46289,5.31529 -12.46289,12.0918 0,7.13731 5.83537,12.04297 11.9414,12.04297 0.52055,0 1.04195,-0.0601 1.5625,-0.16016 l -7.81836,13.44531 6.35547,0 10.63086,-18.38867 0,-0.002 c 1.20119,-2.0921 2.24219,-4.38488 2.24219,-6.9375 0,-6.77692 -5.36408,-12.0918 -12.45117,-12.0918 z m 0.0527,5.30078 c 4.01411,0 6.66602,3.0736 6.66602,6.77735 0,3.64372 -2.65199,6.77539 -6.66602,6.77539 -4.06409,0 -6.67773,-3.13167 -6.67773,-6.77539 0,-3.70383 2.61364,-6.77735 6.67773,-6.77735 z"
         transform="matrix(1.0000028,0,0,1.0000028,-3.0136193e-4,0)"
         id="path4223" /><path
         inkscape:connector-curvature="0"
         style="fill:#ffffff"
         d="m 612.24414,-284.19922 c -5.46548,0 -9.64062,4.27473 -9.64062,9.64063 0,2.66272 0.99114,4.90522 2.71289,6.46679 -3.44349,1.982 -5.625,5.52445 -5.625,9.79883 0,6.7168 5.46523,11.9336 12.55273,11.93359 7.19727,0 12.61328,-5.21679 12.61328,-11.93359 0,-4.27437 -2.18347,-7.76808 -5.62695,-9.75 1.72174,-1.61164 2.76367,-3.85298 2.76367,-6.51562 0,-5.36548 -4.22456,-9.64063 -9.75,-9.64063 z m 0.0527,5.30078 c 2.56263,0 4.27539,1.87174 4.27539,4.32422 0,2.45247 -1.71285,4.32422 -4.27539,4.32422 -2.49257,0 -4.16407,-1.87175 -4.16407,-4.32422 0,-2.45248 1.67158,-4.32422 4.16407,-4.32422 z m 0,13.91406 c 4.12411,10e-6 6.83789,2.97203 6.83789,6.67579 0,3.64371 -2.71378,6.61718 -6.83789,6.61718 -4.01403,0 -6.7168,-2.97347 -6.7168,-6.61718 0,-3.70376 2.70277,-6.67579 6.7168,-6.67579 z"
         transform="matrix(1.0000028,0,0,1.0000028,-3.0136193e-4,0)"
         id="path4221" /><path
         inkscape:connector-curvature="0"
         style="fill:#ffffff"
         d="m 79.535156,-284.11328 c -5.475532,0 -9.640625,4.27474 -9.640625,9.64062 0,2.66274 0.99143,4.90513 2.703125,6.4668 -3.433438,1.982 -5.625,5.52446 -5.625,9.79883 0,6.72686 5.475165,11.93164 12.5625,11.93164 7.18723,0 12.613282,-5.20478 12.613282,-11.93164 0,-4.27438 -2.191561,-7.76809 -5.625,-9.75 1.721743,-1.61166 2.761718,-3.85298 2.761718,-6.51563 0,-5.36547 -4.22456,-9.64062 -9.75,-9.64062 z m 0.01563,5.33203 c 2.552597,0 4.273438,1.8737 4.273438,4.32617 0,2.45248 -1.720841,4.32422 -4.273438,4.32422 -2.502526,0 -4.173828,-1.87174 -4.173828,-4.32422 0,-2.45247 1.671302,-4.32617 4.173828,-4.32617 z m 0.01172,13.91797 c 4.114084,0 6.826172,2.97203 6.826172,6.67578 0,3.64372 -2.712006,6.61719 -6.826172,6.61719 -4.014023,0 -6.728516,-2.97347 -6.728516,-6.61719 0,-3.70375 2.714493,-6.67578 6.728516,-6.67578 z"
         transform="matrix(1.0000028,0,0,1.0000028,-3.0136193e-4,0)"
         id="path4193" /><path
         inkscape:connector-curvature="0"
         style="fill:#ffffff"
         d="m 54.780919,-284.11406 -5.735782,3.57364 0,33.85466 5.735782,0 0,-37.42879 z"
         id="path4191" /></g><g
       id="g4266"><path
         inkscape:connector-curvature="0"
         style="fill:#ffffff"
         d="m 570.44336,-112.07617 c -2.89027,0.0362 -6.10418,1.49934 -9.15039,4.7539 l -9.62891,10.289067 28.44922,26.619141 9.93945,-10.642579 c 5.90599,-6.306444 4.40515,-13.79266 0.21094,-17.716797 l -0.002,0 c -3.59362,-3.353412 -8.1467,-3.083822 -11.83008,-0.611328 1.64162,-3.573634 0.79043,-7.688304 -2.0625,-10.361324 -1.62477,-1.52405 -3.6778,-2.35825 -5.92578,-2.33008 z m -0.96289,8.00195 c 0.86114,0.0296 1.74915,0.36795 2.59375,1.15625 2.0325,1.90195 1.91266,4.715023 -0.0293,6.787111 l -3.7539,4.02539 -6.44532,-6.027343 3.88282,-4.154298 c 0.95724,-1.02607 2.31672,-1.83638 3.75195,-1.78711 z m 12.50391,9.669923 c 0.99879,0.04 1.984,0.440692 2.88867,1.289063 2.47247,2.302187 1.95268,5.714956 -0.42969,8.267578 l -3.92383,4.195312 -7.4375,-6.96875 4.12305,-4.404297 c 1.41394,-1.514014 3.11462,-2.445567 4.7793,-2.378906 z"
         transform="matrix(1.0000028,0,0,1.0000028,-3.0136193e-4,0)"
         id="path4219" /><path
         inkscape:connector-curvature="0"
         style="fill:#ffffff"
         d="m 125.17163,-100.09726 7.6177,-5.61576 9.38986,12.712893 5.38545,-3.974044 -14.02384,-19.009639 -31.35166,23.12402 4.64469,6.296407 12.95326,-9.560406 7.48759,10.15006 5.38544,-3.974045 -7.48758,-10.150056 z"
         id="path4195" /><path
         inkscape:connector-curvature="0"
         style="fill:#ffffff"
         d="m 556.65035,-63.638246 -16.50595,-18.909167 -5.886,5.145273 15.95584,18.278336 c 3.85394,4.414475 2.78278,8.578763 -0.47049,11.421602 -3.2633,2.842922 -7.60774,3.263333 -11.38114,-1.061048 l -15.96654,-18.289042 -5.88599,5.145272 16.50595,18.909175 c 6.46658,7.397553 15.6256,5.916019 21.51135,0.780786 5.88599,-5.145273 8.62891,-13.974544 2.12214,-21.421764"
         id="path4217" /><path
         inkscape:connector-curvature="0"
         style="fill:#ffffff"
         d="m 528.43055,-22.336947 -3.71378,-5.555636 -12.94255,8.648754 -17.92818,-26.827452 -6.49656,4.334428 21.64229,32.3928881 19.43935,-12.9928991 z"
         id="path4215" /><path
         inkscape:connector-curvature="0"
         style="fill:#ffffff"
         d="m 487.59844,-9.8439281 -7.21731,-0.4904929 c 0.21025,5.8660319 -2.43245,10.14017776 -7.08719,12.2031292 -6.0661,2.6827459 -12.76302,0.2803285 -16.14607,-7.3575378 -3.52354,-7.9480884 -0.13012,-14.0445514 5.92602,-16.7276184 3.30333,-1.471495 7.37748,-1.911917 11.29138,0.630657 l 2.90293,-7.047225 c -5.90601,-3.093192 -12.1322,-2.532617 -17.00748,-0.37034 -9.19962,4.074194 -15.60584,14.744558 -10.14009,27.0876862 5.13519,11.5813579 16.40713,14.8153808 25.82581,10.6408819 7.03712,-3.1132035 11.79208,-9.7605234 11.65208,-18.5690414"
         id="path4213" /><path
         inkscape:connector-curvature="0"
         style="fill:#ffffff"
         d="m 422.99284,27.734857 -1.3113,-6.566697 -15.2649,3.053086 -6.32641,-31.6319486 -7.66778,1.5315295 7.64777,38.1988021 22.92287,-4.58469 z"
         id="path4211" /><path
         inkscape:connector-curvature="0"
         style="fill:#ffffff"
         d="m 382.09155,35.412664 -0.37034,-6.676802 -15.54571,0.880853 -1.83186,-32.2125439 -7.79789,0.4404222 2.20227,38.8889257 23.3437,-1.321357 z"
         id="path4209" /><path
         inkscape:connector-curvature="0"
         style="fill:#ffffff"
         d="m 322.28516,-3.8359375 -19.06836,37.2187495 8.41797,0.859376 4.13281,-8.447266 14.30469,1.451172 2.35156,9.099609 8.42969,0.859375 -11.1504,-40.2910155 -7.41796,-0.75 z m 2.59179,11.0292969 3.25196,12.5332026 -8.94727,-0.910156 5.69531,-11.6230466 z"
         transform="matrix(1.0000028,0,0,1.0000028,-3.0136193e-4,0)"
         id="path4205" /><path
         inkscape:connector-curvature="0"
         style="fill:#ffffff"
         d="m 272.82617,-13.447266 -10.46094,37.519532 14.03516,3.914062 c 8.31841,2.322356 14.26419,-2.472113 15.80664,-8.007812 1.32135,-4.734814 -1.03182,-8.639363 -4.92578,-10.7714848 3.93398,-0.2001988 7.18696,-2.8533177 8.23828,-6.6171874 1.37142,-4.9049538 -1.48095,-10.1198314 -9.11914,-12.2519532 l -0.002,0 -13.57227,-3.7851566 z m 5.70313,8.5273441 5.47656,1.5214844 0,0.00195 c 2.16216,0.6105611 4.31328,2.3710005 3.48242,5.3339844 -0.74076,2.6827467 -3.2926,3.8740533 -6.02539,3.1132812 l -5.30469,-1.4804687 2.3711,-8.4902344 z m -4.11524,14.828125 5.81641,1.6210939 c 3.19322,0.890896 5.40456,3.103633 4.51367,6.296875 -0.91099,3.253284 -4.17367,4.374561 -7.53711,3.433594 l -5.52539,-1.541016 2.73242,-9.8105469 z"
         transform="matrix(1.0000028,0,0,1.0000028,-3.0136193e-4,0)"
         id="path4203" /><path
         inkscape:connector-curvature="0"
         style="fill:#ffffff"
         d="m 258.25259,-17.910934 -29.30027,-13.373369 -2.77281,6.086243 11.09126,5.065151 -13.40372,29.3499314 7.11716,3.2532856 13.39384,-29.359814 11.09126,5.065152 2.78278,-6.086251 z"
         id="path4201" /><path
         inkscape:connector-curvature="0"
         style="fill:#ffffff"
         d="m 193.05859,-50.710938 c -6.41632,0.160032 -12.60364,3.510129 -16.53906,9.691407 -6.25631,9.840378 -3.53377,21.883086 6.00586,27.949219 9.53888,6.0761864 21.60306,3.4337152 27.85938,-6.40625 6.29634,-9.889799 3.57283,-21.934691 -5.9668,-28 -3.57708,-2.278571 -7.50958,-3.330394 -11.35938,-3.234376 z m 0.64063,7.423829 c 2.35401,-0.07484 4.72347,0.574704 6.85937,1.933593 l 0,-0.002 c 5.69575,3.623542 7.51868,10.891807 3.23438,17.638672 -4.26422,6.696877 -11.62262,8.117847 -17.31836,4.494141 -5.68577,-3.622718 -7.51605,-10.891097 -3.26172,-17.587891 2.68366,-4.216842 6.56297,-6.351831 10.48633,-6.476562 z"
         transform="matrix(1.0000028,0,0,1.0000028,-3.0136193e-4,0)"
         id="path4199" /><path
         inkscape:connector-curvature="0"
         style="fill:#ffffff"
         d="m 154.03516,-82.5625 c -5.12142,-0.05997 -10.31491,1.914515 -14.5293,5.988281 -8.38842,8.108251 -8.54777,20.451825 -0.68945,28.580078 7.8579,8.128263 20.21017,8.377041 28.58789,0.269532 8.42876,-8.148274 8.58829,-20.500761 0.73047,-28.619141 -3.92896,-4.064127 -8.9782,-6.158776 -14.09961,-6.21875 z m 0.25195,7.583984 c 3.17576,-0.0037 6.21819,1.29238 8.56055,3.714844 4.69466,4.853896 4.77511,12.352773 -0.97071,17.898438 -5.69632,5.515596 -13.18416,5.184763 -17.8789,0.339843 -4.69475,-4.854718 -4.77415,-12.351582 0.93164,-17.867187 2.87286,-2.777815 6.18166,-4.082191 9.35742,-4.085938 z"
         transform="matrix(1.0000028,0,0,1.0000028,-3.0136193e-4,0)"
         id="path4197" /></g></g><g
     id="g4464"><g
       id="g4445"><path
         style="fill:#140e0c"
         d="m 576.4943,247.5195 c -0.7007,-1.06107 -2.19219,-1.80182 -7.20718,-3.15318 l -25.93583,-6.7468 c -0.05,-0.27027 -22.54245,36.83713 -22.54245,36.83713 l 42.52235,22.56274 11.98193,-41.68201 c 1.47146,-5.37542 1.96195,-6.61667 1.18118,-7.81788"
         id="path4313" /><path
         style="fill:#140e0c"
         d="m 410.72921,286.14843 125.26475,-50.76116 -21.70161,34.68496 -103.5231,23.97416 -0.04,-7.89796 z"
         id="path4337"
         inkscape:connector-curvature="0" /><path
         style="fill:#140e0c"
         d="m 410.89938,299.76215 -0.04,5.48553 151.17055,0 -48.84865,-26.65687 -102.28186,21.17134 z"
         id="path4335"
         inkscape:connector-curvature="0" /><path
         style="fill:#140e0c"
         d="m 186.88628,278.59081 -48.85866,26.59681 151.18056,0 -0.05,-5.42547 -102.27186,-21.17134 z"
         id="path4331"
         inkscape:connector-curvature="0" /><path
         style="fill:#140e0c"
         d="m 166.22571,321.30386 c -0.0801,1.31132 1.24123,2.53255 3.2132,4.61465 l 28.2181,27.98821 22.71262,-21.83201 -42.73256,-17.89803 -8.36833,4.20423 c -2.19219,1.24125 -2.98297,2.03205 -3.04303,2.92295"
         id="path4329"
         inkscape:connector-curvature="0" /><path
         style="fill:#140e0c"
         d="m 289.64862,286.14843 -125.26475,-50.76116 21.6916,34.68496 103.53311,23.97416 0.04,-7.89796 z"
         id="path4327"
         inkscape:connector-curvature="0" /><path
         style="fill:#140e0c"
         d="m 187.55695,310.94342 39.24909,15.68581 62.8626,-10.31039 -0.14014,-5.37542 -101.97155,0 z"
         id="path4325"
         inkscape:connector-curvature="0" /><path
         style="fill:#140e0c"
         d="m 230.25948,333.39605 c 0.62062,-0.24025 -25.2051,23.2234 -25.2051,23.2234 l 18.58851,1.05106 c 0,0 5.67565,0.37037 9.27924,-0.45046 2.30229,-0.51051 9.37934,-4.49452 9.37934,-4.49452 0,0 47.41722,-25.44565 47.40721,-25.65586 l -0.1001,-5.5556 c 0,0 -59.97973,12.13223 -59.3491,11.88198"
         id="path4323"
         inkscape:connector-curvature="0" /><path
         style="fill:#140e0c"
         d="m 410.76925,321.51407 -0.11011,5.5556 c -0.01,0.21021 47.40721,25.65586 47.40721,25.65586 0,0 7.07705,3.98401 9.38935,4.49452 3.59358,0.82083 9.26923,0.45046 9.26923,0.45046 l 18.59853,-1.05106 c 0,0 -25.83573,-23.46365 -25.20511,-23.2234 0.63063,0.25025 -59.3491,-11.88198 -59.3491,-11.88198"
         id="path4321"
         inkscape:connector-curvature="0" /><path
         style="fill:#140e0c"
         d="m 531.03903,318.38091 -8.37835,-4.20423 -42.73256,17.89803 22.72263,21.83201 28.21811,-27.98821 c 1.97196,-2.0821 3.29328,-3.30333 3.20319,-4.61465 -0.05,-0.8909 -0.84084,-1.6817 -3.03302,-2.92295"
         id="path4319"
         inkscape:connector-curvature="0" /><path
         style="fill:#140e0c"
         d="m 460.86914,421.48482 c -0.79078,-1.06107 -22.5925,-58.8393 -22.5925,-58.8393 -3.69368,-9.23931 -6.85683,-10.8209 -13.4534,-14.51462 l -14.98492,-9.55964 -0.71071,0.90091 17.17711,23.43361 0.04,34.04431 55.89567,70.98154 c 7.64761,9.49957 7.90787,12.66276 18.99892,12.66276 l 6.85683,-3.16319 -12.92287,-2.12214 c 0,0 -33.51338,-52.77318 -34.30417,-53.82424"
         id="path4317"
         inkscape:connector-curvature="0" /><path
         style="fill:#140e0c"
         d="m 239.73888,421.48482 c -0.79079,1.05106 -34.30417,53.82424 -34.30417,53.82424 l -12.92287,2.12214 6.85683,3.16319 c 11.08104,0 11.35131,-3.16319 18.99892,-12.66276 l 55.80558,-70.98154 0.13013,-34.04431 17.1671,-23.43361 -0.71071,-0.90091 -14.9649,9.55964 c -6.59657,3.69372 -9.76973,5.27531 -13.46341,14.51462 0,0 -21.80171,57.77823 -22.5925,58.8393"
         id="path4315"
         inkscape:connector-curvature="0" /><path
         style="fill:#140e0c"
         d="m 410.72921,310.84332 -0.14014,5.37541 62.87261,10.3104 39.23908,-15.68581 -101.97155,0 z"
         id="path4311"
         inkscape:connector-curvature="0" /><path
         style="fill:#140e0c"
         d="m 409.13762,277.36958 39.97982,-43.34368 25.72562,-31.27151 1.39139,-8.50858 -2.58258,-2.37239 -3.16315,9.69978 -67.08681,60.95142 c 0.19019,0.5906 5.73571,14.84496 5.73571,14.84496"
         id="path4309"
         inkscape:connector-curvature="0" /><path
         style="fill:#140e0c"
         d="m 251.21034,234.0259 39.97982,43.34368 c 0,0 5.54552,-14.25436 5.73571,-14.84496 l -67.08681,-60.95142 -3.17316,-9.69978 -2.56255,2.37239 1.38137,8.50858 25.72562,31.27151 z"
         id="path4307"
         inkscape:connector-curvature="0" /><path
         style="fill:#140e0c"
         d="m 292.76202,176.03368 6.02151,7.0547 18.73833,10.29105 18.83013,27.27742 -5.33206,7.36525 c 0,0 -10.76586,3.57561 -12.99807,6.39845 -2.77277,3.53356 -3.36134,17.22078 -3.36134,17.22075 l -8.30666,4.76955 -9.90042,29.26375 0,46.32825 7.05471,4.69142 -20.91217,29.295 0,70.71308 23.35162,39.57042 31.93759,24.27546 12.293,15.43754 12.26176,-15.43754 31.93758,-24.27546 23.35163,-39.57042 0,-70.71308 -20.50397,-29.545 6.64651,-4.44142 0,-46.32825 -9.90042,-29.26375 -8.32034,-4.76955 c 0,0 -0.56509,-13.68719 -3.34766,-17.22075 -2.23223,-2.82284 -12.99613,-6.39845 -12.99613,-6.39845 l -5.03713,-6.94338 19.14459,-27.69929 18.7227,-10.293 6.02151,-7.05275 -9.22854,2.90821 -19.78522,11.07424 -19.0977,27.02743 -9.44729,-2.47267 -9.79104,2.37892 -19.01763,-26.93368 -19.78717,-11.07424 -9.24221,-2.90821 z m 38.25791,54.63296 2.87697,13.23246 -12.90238,4.97266 10.02541,-18.20512 z m 38.28918,0.002 10.02541,18.20513 -12.74808,-5.1465 2.72267,-13.05863 z m -19.23834,52.23842 38.75596,16.89263 -12.918,29.02937 0,-22.69537 -25.83796,-13.20121 -36.63096,4.08204 -0.3125,-1.17383 36.94346,-12.93363 z m -46.39075,131.57263 24.88288,8.86916 43.19933,0 24.90046,-8.86916 0.26563,0.7207 -22.58405,17.26567 -48.3595,0 -22.586,-17.26567 0.28125,-0.7207 z"
         id="path4305"
         inkscape:connector-curvature="0" /><path
         id="path4343"
         d="m 124.36402,255.43748 11.98193,41.68201 42.52235,-22.56274 c 0,0 -22.50241,-37.1074 -22.54245,-36.83713 l -25.94584,6.7468 c -5.015,1.35137 -6.50648,2.09211 -7.19717,3.15318 -0.79079,1.20121 -0.29029,2.44246 1.18118,7.81788"
         style="fill:#140e0c"
         inkscape:connector-curvature="0" /></g><g
       id="g4247"
       transform="matrix(10.009969,0,0,-10.010088,-5172.7314,7562.7817)"><path
         id="path4251"
         d="m 557.1,710.85 -3.15,-1.106 -4.405,0 -3.11,1.106 1.101,-1.918 2.59,-0.936 -1.819,0.044 2.477,-1.882 1.926,0 2.477,1.882 -1.817,-0.044 2.589,0.936 1.141,1.918 z m -10.032,16.208 2.636,1.397 4.088,0 2.636,-1.397 -0.29,0.818 -1.899,1.581 1.688,-0.58 -0.185,0.58 c 0,0 -1.819,0.896 -1.845,0.975 l -4.299,0 c -0.026,-0.079 -1.845,-0.975 -1.845,-0.975 l -0.185,-0.58 1.688,0.58 -1.899,-1.581 -0.289,-0.818 z m 10.652,-8.326 -0.006,0.007 -3.712,-0.455 2.821,1.56 -1.113,1.557 -1.602,-1.069 -4.721,0 -1.56,1.042 -1.108,-1.53 2.774,-1.56 -3.712,0.455 -0.005,-0.007 0,-1.985 2.398,-0.896 7.146,0 2.4,0.896 0,1.985 z"
         inkscape:connector-curvature="0"
         style="fill:#fbb800" /></g></g></svg>