<svg id="Layer_1" enable-background="new 0 0 512 512" viewBox="0 0 512 512" xmlns="http://www.w3.org/2000/svg"><g clip-rule="evenodd" fill-rule="evenodd"><g><path d="m421.706 56.984c11.853 0 21.52 9.668 21.52 21.52v395.976c0 11.853-9.667 21.52-21.52 21.52h-331.413c-11.853 0-21.52-9.667-21.52-21.52v-395.976c0-11.853 9.668-21.52 21.52-21.52z" fill="#eceff1"/><path d="m421.706 56.984c11.853 0 21.52 9.667 21.52 21.52v395.976c0 11.852-9.668 21.52-21.52 21.52h-17.466c11.853 0 21.52-9.668 21.52-21.52v-395.976c0-11.853-9.668-21.52-21.52-21.52z" fill="#d1d1d6"/><path d="m178.386 43.977h38.141c2.266 0 4.194-1.367 4.944-3.506 4.999-14.252 18.569-24.471 34.529-24.471 15.959 0 29.53 10.219 34.528 24.471.75 2.139 2.678 3.506 4.944 3.506h38.141c2.886 0 5.24 2.353 5.24 5.239v45.473c0 2.886-2.353 5.24-5.24 5.24h-155.227c-2.886 0-5.24-2.354-5.24-5.24v-45.473c0-2.886 2.354-5.239 5.24-5.239z" fill="#e3a76f"/><path d="m247.267 17.049c2.799-.685 5.723-1.049 8.733-1.049 15.959 0 29.53 10.219 34.528 24.471.75 2.139 2.678 3.506 4.944 3.506h-17.466c-2.266 0-4.194-1.367-4.944-3.506-4.056-11.564-13.755-20.473-25.795-23.422zm68.88 26.928h17.466c2.886 0 5.239 2.354 5.239 5.239v45.473c0 2.886-2.354 5.24-5.239 5.24h-17.466c2.886 0 5.24-2.354 5.24-5.24v-45.473c-.001-2.886-2.354-5.239-5.24-5.239z" fill="#c48958"/><path d="m325.941 199.972h36.397c1.652 0 3 1.348 3 3v36.397c0 1.652-1.348 3-3 3h-36.397c-1.652 0-3-1.348-3-3v-36.397c0-1.652 1.348-3 3-3zm-176.279 139.885h36.397c1.652 0 3 1.348 3 3v36.397c0 1.652-1.348 3-3 3h-36.397c-1.652 0-3-1.348-3-3v-36.397c0-1.653 1.347-3 3-3z" fill="#fe646f"/><path d="m325.941 199.972h10c-1.652 0-3 1.348-3 3v36.397c0 1.652 1.348 3 3 3h-10c-1.652 0-3-1.348-3-3v-36.397c0-1.652 1.348-3 3-3zm-149.882 139.885h10c1.652 0 3 1.348 3 3v36.397c0 1.652-1.348 3-3 3h-10c1.652 0 3-1.348 3-3v-36.397c-.001-1.653-1.348-3-3-3z" fill="#fd4755"/><path d="m325.941 269.915h36.397c1.652 0 3 1.348 3 3v36.397c0 1.652-1.348 3-3 3h-36.397c-1.652 0-3-1.348-3-3v-36.397c0-1.653 1.348-3 3-3zm-176.279-139.885h36.397c1.652 0 3 1.348 3 3v36.397c0 1.652-1.348 3-3 3h-36.397c-1.652 0-3-1.348-3-3v-36.397c0-1.653 1.347-3 3-3z" fill="#8ac9fe"/><path d="m325.941 269.915h10c-1.652 0-3 1.348-3 3v36.397c0 1.652 1.348 3 3 3h-10c-1.652 0-3-1.348-3-3v-36.397c0-1.653 1.348-3 3-3zm-149.882-139.885h10c1.652 0 3 1.348 3 3v36.397c0 1.652-1.348 3-3 3h-10c1.652 0 3-1.348 3-3v-36.397c-.001-1.653-1.348-3-3-3z" fill="#60b7ff"/><path d="m325.941 339.857h36.397c1.652 0 3 1.348 3 3v36.397c0 1.652-1.348 3-3 3h-36.397c-1.652 0-3-1.348-3-3v-36.397c0-1.653 1.348-3 3-3zm-176.279-139.885h36.397c1.652 0 3 1.348 3 3v36.397c0 1.652-1.348 3-3 3h-36.397c-1.652 0-3-1.348-3-3v-36.397c0-1.652 1.347-3 3-3z" fill="#6cf5c2"/><path d="m325.941 339.857h10c-1.652 0-3 1.348-3 3v36.397c0 1.652 1.348 3 3 3h-10c-1.652 0-3-1.348-3-3v-36.397c0-1.653 1.348-3 3-3zm-149.882-139.885h10c1.652 0 3 1.348 3 3v36.397c0 1.652-1.348 3-3 3h-10c1.652 0 3-1.348 3-3v-36.397c-.001-1.652-1.348-3-3-3z" fill="#00e499"/><path d="m325.941 130.03h36.397c1.652 0 3 1.348 3 3v36.397c0 1.652-1.348 3-3 3h-36.397c-1.652 0-3-1.348-3-3v-36.397c0-1.653 1.348-3 3-3zm-176.279 139.885h36.397c1.652 0 3 1.348 3 3v36.397c0 1.652-1.348 3-3 3h-36.397c-1.652 0-3-1.348-3-3v-36.397c0-1.653 1.347-3 3-3z" fill="#ffe177"/><path d="m325.941 130.03h10c-1.652 0-3 1.348-3 3v36.397c0 1.652 1.348 3 3 3h-10c-1.652 0-3-1.348-3-3v-36.397c0-1.653 1.348-3 3-3zm-149.882 139.885h10c1.652 0 3 1.348 3 3v36.397c0 1.652-1.348 3-3 3h-10c1.652 0 3-1.348 3-3v-36.397c-.001-1.653-1.348-3-3-3z" fill="#ffd064"/></g><path d="m309.627 469.659c0 4.419-3.577 8-8 8h-193.425c-4.424 0-8.001-3.581-8.001-8s3.577-8 8.001-8h193.425c4.423 0 8 3.581 8 8zm68.193 0c0 4.419-3.577 8-8.001 8h-24.661c-4.424 0-8-3.581-8-8s3.577-8 8-8h24.661c4.424 0 8.001 3.581 8.001 8zm-277.619-29.997c0-4.424 3.577-8.001 8.001-8.001h99.442c4.424 0 8.001 3.577 8.001 8.001 0 4.419-3.577 7.996-8.001 7.996h-99.442c-4.424 0-8.001-3.577-8.001-7.996zm234.792 7.996h-90.5c-4.377 0-7.953-3.577-7.953-7.996 0-4.424 3.577-8.001 7.953-8.001h90.5c4.377 0 8.001 3.577 8.001 8.001 0 4.419-3.624 7.996-8.001 7.996zm-234.792-37.998c0-4.419 3.577-8 8.001-8h25.696c4.424 0 8.001 3.581 8.001 8s-3.576 8.001-8.001 8.001h-25.696c-4.424-.001-8.001-3.582-8.001-8.001zm167.023-8.001c4.424 0 8 3.581 8 8s-3.577 8.001-8 8.001h-94.454c-4.424 0-8-3.581-8-8.001 0-4.419 3.577-8 8-8zm-112.572-53.797h26.402v26.388h-26.402zm78.923-91.723 22.401-23.399 22.402 23.399-22.402 23.404zm-52.521 48.173h-26.402v-26.397h26.402zm0-69.944h-26.402v-26.397h26.402zm0-69.944h-26.402v-26.397h26.402zm149.892-26.397h26.402v26.397h-26.402zm0 69.944h26.402v26.397h-26.402zm0 69.943h26.402v26.397h-26.402zm0 69.948h26.402v26.388h-26.402zm-184.295 42.389h42.403c4.424 0 8.001-3.582 8.001-8.001v-17.982l58.922-61.585 58.969 61.585v17.982c0 4.419 3.577 8.001 8 8.001h42.403c4.424 0 8.001-3.582 8.001-8.001v-42.389c0-4.424-3.577-8-8.001-8h-42.403c-4.424 0-8 3.577-8 8v1.266l-47.862-50.017 22.402-23.399 25.461 26.609v17.992c0 4.419 3.577 8 8 8h42.403c4.424 0 8.001-3.582 8.001-8v-42.398c0-4.419-3.577-8-8.001-8h-42.403c-4.424 0-8 3.582-8 8v1.271l-14.401-15.046 14.401-15.041v1.271c0 4.419 3.577 8.001 8 8.001h42.403c4.424 0 8.001-3.582 8.001-8.001v-42.399c0-4.419-3.577-8.001-8.001-8.001h-42.403c-4.424 0-8 3.581-8 8.001v17.987l-25.461 26.613-22.402-23.399 47.862-50.017v1.27c0 4.419 3.577 8.001 8 8.001h42.403c4.424 0 8.001-3.581 8.001-8.001v-42.398c0-4.414-3.577-7.996-8.001-7.996h-42.403c-4.424 0-8 3.582-8 7.996v17.987l-58.969 61.586-58.922-61.586v-17.987c0-4.414-3.577-7.996-8.001-7.996h-42.403c-4.424 0-8.001 3.582-8.001 7.996v42.398c0 4.419 3.577 8.001 8.001 8.001h42.403c4.424 0 8.001-3.581 8.001-8.001v-1.27l47.862 50.017-22.402 23.399-25.46-26.613v-17.987c0-4.419-3.577-8.001-8.001-8.001h-42.403c-4.424 0-8.001 3.581-8.001 8.001v42.398c0 4.419 3.577 8.001 8.001 8.001h42.403c4.424 0 8.001-3.582 8.001-8.001v-1.271l14.401 15.041-14.401 15.046v-1.271c0-4.419-3.577-8-8.001-8h-42.403c-4.424 0-8.001 3.582-8.001 8v42.398c0 4.419 3.577 8 8.001 8h42.403c4.424 0 8.001-3.582 8.001-8v-17.991l25.46-26.609 22.402 23.399-47.862 50.017v-1.266c0-4.424-3.577-8-8.001-8h-42.403c-4.424 0-8.001 3.577-8.001 8v42.389c.001 4.42 3.578 8.001 8.001 8.001zm99.678-344.258c0-5.332 4.33-9.681 9.648-9.681 5.365 0 9.695 4.348 9.695 9.681 0 5.327-4.33 9.676-9.695 9.676-5.318 0-9.648-4.349-9.648-9.676zm188.907 428.485v-395.975c0-7.455-6.071-13.521-13.507-13.521h-74.876v34.944c0 4.424-3.577 8-8.001 8h-165.705c-4.424 0-8.001-3.577-8.001-8v-34.944h-74.875c-7.436 0-13.507 6.066-13.507 13.521v395.975c0 7.45 6.071 13.521 13.507 13.521h331.458c7.436 0 13.507-6.071 13.507-13.521zm-254.088-422.504v39.951h149.704v-39.951h-39.297c-3.671 0-6.918-2.532-7.765-6.123-3.106-12.867-14.542-21.856-27.814-21.856-13.225 0-24.66 8.989-27.766 21.856-.847 3.591-4.094 6.123-7.765 6.123zm240.581-2.993h-74.876v-5.007c0-4.419-3.577-8.001-8.001-8.001h-41.461c-6.683-16.744-22.919-27.973-41.415-27.973-18.495 0-34.685 11.229-41.367 27.973h-41.462c-4.424 0-8.001 3.582-8.001 8.001v5.007h-74.875c-16.237 0-29.508 13.243-29.508 29.522v395.975c0 16.284 13.271 29.522 29.508 29.522h331.458c16.236 0 29.508-13.238 29.508-29.522v-395.975c0-16.278-13.272-29.522-29.508-29.522z" fill="#242222"/></g></svg>