<svg id="Capa_1" enable-background="new 0 0 512 512" height="512" viewBox="0 0 512 512" width="512" xmlns="http://www.w3.org/2000/svg"><g><path d="m304.14 0h-51.244l-12.555 3.357-21.977 11.333-14.156 21.634-6.448 11.504v21.119h159.885l12.602-9.245c-3.38-33.53-31.687-59.702-66.107-59.702z" fill="#935cb5"/><path d="m266.665 0h-58.805c-34.421 0-62.727 26.172-66.108 59.701l8.448 9.245h58.805l-8.448-9.245c3.381-33.529 31.688-59.701 66.108-59.701z" fill="#834aa3"/><path d="m502.697 143.463h-446.592v4.121l2.7 2.995-2.7 2.842v231.45l20.049 26.871 16.998 4.378 12.633 1.878h149.72l11.62-9.19h194.019l11.882 7.179c22.417-6.339 38.972-27.02 38.972-51.394v-214.013z" fill="#ffd500"/><g><path d="m58.805 364.594v-214.014l13.013-7.116h-58.805l-13.013 7.116v214.014c0 29.373 24.032 53.405 53.405 53.405h58.805c-29.372 0-53.405-24.033-53.405-53.405z" fill="#fbc700"/></g><path d="m458.595 59.701h-362.852c-9.905 4.483-19.717 9.245-19.717 9.245l-14.938 19.831-4.983 16.363v42.444l2.7 2.995h453.195v-37.473c0-29.372-24.032-53.405-53.405-53.405z" fill="#a374c0"/><path d="m112.211 59.701h-58.806c-29.373 0-53.405 24.033-53.405 53.405v37.473h58.805v-37.473c0-29.372 24.033-53.405 53.406-53.405z" fill="#935cb5"/><path d="m302.101 106.152c-2.563-.861-31.884 2.285-31.884 2.285l-19.028 16.826-.001 12.057-18.401 11.98-28.578 49.106-1.607 61.64 18.166 57.176 23.866 19.316 6.555 3.841 1.429 5.946 21.661 24.875 107.886-69.088 2.826-7.63c7.368-17.061 11.459-35.868 11.459-55.633-.001-61.417-39.428-113.619-94.349-132.697z" fill="#b5dcff"/><path d="m207.753 238.85c0-61.418 39.427-113.62 94.348-132.698-14.442-5.017-29.951-7.751-46.101-7.751-77.568 0-140.45 62.881-140.45 140.449s62.881 140.45 140.45 140.45c.264 0 .525-.009.789-.01l4.843.01 23.398-14.984c-45.837-23.125-77.277-70.621-77.277-125.466z" fill="#8bcaff"/><path d="m256 137.204c-1.613 0-3.217.042-4.812.116l-18.401 11.98-28.578 49.106-1.607 61.64 18.166 57.176 23.866 19.316 6.555 3.841c1.595.074 3.198.116 4.811.116 6.342 0 12.546-.586 18.566-1.697h10.074l50.479-31.878 5.614-11.919c10.683-16.089 16.912-35.391 16.912-56.152 0-56.136-45.508-101.645-101.645-101.645z" fill="#8bcaff"/><path d="m251.188 137.321c-53.902 2.513-96.834 47.005-96.834 101.529s42.932 99.017 96.835 101.529c-26.757-25.57-43.437-61.596-43.437-101.529.001-39.933 16.679-75.959 43.436-101.529z" fill="#60b9fe"/><circle cx="256" cy="238.85" fill="#1ca8ff" r="53.398"/><path d="m393.532 296.483h-29.119l-55.015 43.896-7.297 94.285 39.457 55.115 32.193 16.741 19.781 1.491c46.336-12.854 80.351-55.334 80.351-105.764s-34.015-92.91-80.351-105.764z" fill="#ff5595"/><path d="m313.182 402.247c0-50.43 34.014-92.91 80.351-105.764-9.358-2.596-19.217-3.989-29.403-3.989-60.615 0-109.753 49.138-109.753 109.753s49.138 109.753 109.753 109.753c10.185 0 20.044-1.393 29.403-3.989-46.337-12.855-80.351-55.334-80.351-105.764z" fill="#ff3581"/><path d="m386.905 352.189-17.154 17.154c-3.104 3.104-8.138 3.104-11.242 0l-17.481-17.481c-7.534-7.534-19.748-7.534-27.282 0-7.534 7.534-7.534 19.749 0 27.282l17.481 17.481c3.104 3.104 3.104 8.138 0 11.242l-17.481 17.481c-7.534 7.534-7.534 19.748 0 27.282 7.534 7.534 19.748 7.534 27.282 0l17.481-17.481c3.104-3.104 8.138-3.104 11.242 0l17.154 17.154c7.397 7.397 19.448 7.945 27.103.816 8.037-7.485 8.205-20.072.506-27.771l-17.481-17.481c-3.104-3.104-3.104-8.138 0-11.242l17.481-17.481c7.699-7.699 7.53-20.286-.506-27.771-7.655-7.129-19.706-6.581-27.103.816z" fill="#dbedff"/></g></svg>