<svg id="Capa_3" enable-background="new 0 0 453.54 453.54" height="512" viewBox="0 0 453.54 453.54" width="512" xmlns="http://www.w3.org/2000/svg" xmlns:xlink="http://www.w3.org/1999/xlink"><linearGradient id="SVGID_1_" gradientUnits="userSpaceOnUse" x1="151.1" x2="307.544" y1="27.276" y2="439.72"><stop offset="0" stop-color="#442683"/><stop offset=".0017" stop-color="#472683"/><stop offset=".0128" stop-color="#592583"/><stop offset=".0255" stop-color="#672383"/><stop offset=".041" stop-color="#712283"/><stop offset=".0617" stop-color="#762282"/><stop offset=".1099" stop-color="#782182"/><stop offset=".1676" stop-color="#942170"/><stop offset=".2686" stop-color="#bf1a4a"/><stop offset=".3141" stop-color="#ce1539"/><stop offset=".5602" stop-color="#dd7f43"/><stop offset=".8168" stop-color="#e7be4d"/><stop offset="1" stop-color="#e5b34b"/></linearGradient><linearGradient id="SVGID_2_" gradientUnits="userSpaceOnUse" x1="115.954" x2="421.731" y1="100.849" y2="459.96"><stop offset=".00000004" stop-color="#622483"/><stop offset=".3665" stop-color="#c81537"/><stop offset=".6073" stop-color="#d9643e"/><stop offset=".8168" stop-color="#e7be4d"/><stop offset="1" stop-color="#e7c04d"/></linearGradient><g><circle cx="226.77" cy="226.771" fill="url(#SVGID_1_)" r="226.771"/><path d="m363.321 162.344-24.197-34.016c-8.908-13.388-24.129-22.215-41.417-22.215h-141.875c-27.458 0-49.719 22.26-49.719 49.719v141.875c0 11.267 3.753 21.652 10.07 29.992l22.842 34.861c8.907 13.389 24.13 22.219 41.418 22.219h143.793c27.458 0 49.72-22.26 49.72-49.719v-141.875c0-11.267-3.752-21.652-10.068-29.989m-53.135 37.783c2.119 3.951 6.283 6.638 11.078 6.638 1.378 0 2.702-.231 3.944-.641v78.001c0 22.527-18.266 40.799-40.798 40.799h-13.948c26.804-7.694 46.423-32.375 46.423-61.653 0-14.368-4.724-27.635-12.704-38.328l-24.764-34.869c-8.326-12.334-20.833-21.603-35.482-25.808h40.677zm-99.967 63.144c0-23.479 19.035-42.512 42.513-42.512 5.635 0 11.01 1.105 15.931 3.097.033.684.053 1.372.053 2.061 0 23.479-19.034 42.514-42.514 42.514-5.635 0-11.009-1.107-15.931-3.101-.032-.684-.052-1.368-.052-2.059zm114.989-95.56v10.494c-.473-.863-1.054-1.656-1.709-2.379-.485-.905-1.085-1.734-1.767-2.489-.485-.905-1.086-1.736-1.77-2.492-.485-.905-1.086-1.736-1.77-2.491-.484-.905-1.084-1.733-1.768-2.488-.247-.461-.528-.902-.829-1.328 3.336.379 6.549 1.156 9.59 2.291.008.293.023.586.023.882zm-125.695 131.397c8.326 12.337 20.836 21.607 35.488 25.816h-67.007c-5.011 0-9.81-.91-14.245-2.563-.007-.296-.022-.587-.022-.882v-116.415c0-22.532 18.265-40.798 40.797-40.798h13.945c-26.802 7.696-46.421 32.374-46.421 61.651 0 14.368 4.724 27.628 12.7 38.323z" fill="url(#SVGID_2_)"/><g fill="#fff"><path d="m297.708 106.113h-141.876c-27.458 0-49.719 22.26-49.719 49.719v141.876c0 27.459 22.261 49.719 49.719 49.719h141.876c27.459 0 49.72-22.26 49.72-49.719v-141.876c-.001-27.459-22.261-49.719-49.72-49.719zm28.067 178.866c0 22.527-18.266 40.795-40.798 40.795h-116.415c-22.531 0-40.796-18.268-40.796-40.795v-116.417c0-22.531 18.265-40.797 40.796-40.797h116.416c22.532 0 40.798 18.266 40.798 40.797v116.417z"/><path d="m226.769 162.616c-35.431 0-64.153 28.721-64.153 64.155 0 35.43 28.723 64.153 64.153 64.153 35.432 0 64.155-28.723 64.155-64.153 0-35.434-28.723-64.155-64.155-64.155zm0 106.665c-23.478 0-42.512-19.031-42.512-42.51s19.035-42.514 42.512-42.514c23.48 0 42.514 19.035 42.514 42.514s-19.034 42.51-42.514 42.51z"/><circle cx="295.303" cy="157.7" r="12.563"/></g></g></svg>