<svg height="512" viewBox="0 0 176 176" width="512" xmlns="http://www.w3.org/2000/svg" xmlns:xlink="http://www.w3.org/1999/xlink"><linearGradient id="linear-gradient" gradientUnits="userSpaceOnUse" x1="25.77" x2="150.23" y1="25.77" y2="150.23"><stop offset="0" stop-color="#57c75c"/><stop offset="1" stop-color="#1b5e20"/></linearGradient><linearGradient id="linear-gradient-2" gradientUnits="userSpaceOnUse" x1="34.26" x2="141.74" y1="34.26" y2="141.74"><stop offset="0" stop-color="#1b5e20"/><stop offset="1" stop-color="#4caf50"/></linearGradient><linearGradient id="linear-gradient-3" gradientUnits="userSpaceOnUse" x1="83.55" x2="136.95" y1="93.12" y2="146.52"><stop offset="0" stop-color="#1b5e20"/><stop offset="1" stop-color="#1b5e20" stop-opacity="0"/></linearGradient><linearGradient id="linear-gradient-4" x1="66.79" x2="104.67" xlink:href="#linear-gradient-3" y1="71.28" y2="109.16"/><g id="Layer_2" data-name="Layer 2"><g id="Color"><g id="_09.Whatsapp" data-name="09.Whatsapp"><g id="Background"><circle id="Background_01" cx="88" cy="88" fill="url(#linear-gradient)" r="88"/><circle id="Background_02" cx="88" cy="88" fill="url(#linear-gradient-2)" r="76"/></g><g id="Shadow"><path d="m162 105.44a76 76 0 0 1 -73.68 58.56l-37.69-37.69 15.37-4.92a40 40 0 0 0 50.61-61.32z" fill="url(#linear-gradient-3)"/><path d="m109.26 104.57-4.26 4.26c-4.48 4.48-16.36-.45-26.89-11s-15.25-22.4-10.99-26.83l4.26-4.26a4.47 4.47 0 0 1 6.05 0l6.28 6.26a4.17 4.17 0 0 1 -1.57 6.94 4.07 4.07 0 0 0 -2.69 4.94c1.12 4.7 7.17 10.53 11.66 11.65a4.27 4.27 0 0 0 4.89-2.72 4.18 4.18 0 0 1 7-1.57l6.27 6.28a4.47 4.47 0 0 1 -.01 6.05z" fill="url(#linear-gradient-4)"/></g><path id="Icon" d="m88 48a40 40 0 0 0 -32.38 63.45l-5 14.86 15.38-4.92a40 40 0 1 0 22-73.39zm21.25 56.57-4.25 4.26c-4.48 4.48-16.36-.45-26.89-11s-15.25-22.4-10.99-26.83l4.26-4.26a4.47 4.47 0 0 1 6.05 0l6.28 6.26a4.17 4.17 0 0 1 -1.57 6.94 4.07 4.07 0 0 0 -2.69 4.94c1.12 4.7 7.17 10.53 11.66 11.65a4.27 4.27 0 0 0 4.89-2.72 4.18 4.18 0 0 1 7-1.57l6.27 6.28a4.47 4.47 0 0 1 -.01 6.05z" fill="#fff"/></g></g></g></svg>