<svg height="512" viewBox="0 0 176 176" width="512" xmlns="http://www.w3.org/2000/svg" xmlns:xlink="http://www.w3.org/1999/xlink"><linearGradient id="linear-gradient" gradientUnits="userSpaceOnUse" x1="25.77" x2="150.23" y1="25.77" y2="150.23"><stop offset="0" stop-color="#f55244"/><stop offset=".87" stop-color="#d90b09"/><stop offset="1" stop-color="#d50000"/></linearGradient><linearGradient id="linear-gradient-2" gradientUnits="userSpaceOnUse" x1="34.26" x2="141.74" y1="34.26" y2="141.74"><stop offset="0" stop-color="#d50000"/><stop offset=".13" stop-color="#d90b09"/><stop offset="1" stop-color="#f55244"/></linearGradient><linearGradient id="linear-gradient-3" gradientUnits="userSpaceOnUse" x1="73.53" x2="90.21" y1="79.67" y2="96.36"><stop offset="0" stop-color="#d50000"/><stop offset=".65" stop-color="#d60101" stop-opacity=".34"/><stop offset="1" stop-color="#d60101" stop-opacity="0"/></linearGradient><linearGradient id="linear-gradient-4" x1="83.68" x2="141.78" xlink:href="#linear-gradient-3" y1="83.6" y2="141.69"/><g id="Layer_2" data-name="Layer 2"><g id="Color"><g id="_02.YouTube" data-name="02.YouTube"><g id="Background"><circle id="Background_01" cx="88" cy="88" fill="url(#linear-gradient)" r="88"/><circle id="Background_02" cx="88" cy="88" fill="url(#linear-gradient-2)" r="76"/></g><g id="Shadow"><path d="m98.54 88.03-21.08 12.23v-24.52z" fill="url(#linear-gradient-3)"/><path d="m162.55 102.82a76.07 76.07 0 0 1 -59.55 59.7l-49.1-49.1a15 15 0 0 0 9.27 3.17h49.74a15.13 15.13 0 0 0 15.09-15.14v-26.9a15.08 15.08 0 0 0 -4.26-10.55z" fill="url(#linear-gradient-4)"/></g><path id="Icon" d="m112.87 59.41h-49.74a15.13 15.13 0 0 0 -15.13 15.14v26.9a15.13 15.13 0 0 0 15.13 15.14h49.74a15.13 15.13 0 0 0 15.13-15.14v-26.9a15.13 15.13 0 0 0 -15.13-15.14zm-35.41 40.85v-24.52l21.08 12.26z" fill="#fff"/></g></g></g></svg>