<svg width="360" height="206" viewBox="0 0 360 206" fill="none" xmlns="http://www.w3.org/2000/svg">
<path d="M359.198 173.7L326.198 205.2C309.098 191.1 289.598 184.2 267.698 184.2C248.798 184.2 227.498 189.9 203.798 201L201.998 198C221.498 182.7 232.298 168.3 234.398 154.8V152.1C234.398 137.7 225.998 129.3 209.198 127.2C213.398 123.6 217.898 121.8 222.698 121.8C226.298 121.8 230.198 122.4 234.098 123.3L234.398 121.5C234.398 106.8 224.198 97.2 208.898 98.1L201.698 98.4C205.298 90.3 211.898 86.1 221.798 86.1H226.898C228.098 86.1 229.898 86.4 232.298 87.3L231.698 72.9C231.398 63.6 233.198 54 237.398 44.7C241.298 36.3 247.298 27.6 255.398 18.3C246.698 23.7 237.698 26.4 228.698 26.4C225.398 26.4 220.598 25.5 214.298 24C207.998 22.5 203.798 21.6 201.098 21.6C195.098 21.6 189.098 25.8 183.398 34.5L181.298 32.7C185.798 11.7 197.498 1.20001 216.098 1.20001H218.498C223.598 1.20001 230.498 2.40001 238.598 5.10002C246.998 7.5 252.698 8.7 255.998 8.7C259.898 8.7 264.098 8.10001 268.298 6.90001C269.198 6.60001 273.098 5.10002 279.398 2.40001L280.298 3.90001C263.798 18 255.698 34.5 255.698 54C255.698 57.6 255.998 63 256.898 70.5C257.798 78 258.098 83.4 258.098 87.3C258.098 91.8 258.698 102 258.698 106.5C258.698 121.2 256.598 133.8 252.398 144.9C249.098 153 242.798 164.7 233.198 179.4L234.098 180.3C248.798 168.6 258.998 157.8 265.298 147.3C272.198 135 275.798 120.6 275.798 103.8C275.798 98.1 275.498 90 274.598 78.9C273.998 67.8 273.698 59.7 273.698 54L273.398 51.3C273.398 33.9 277.898 21.3 286.598 13.2C294.998 5.70001 307.898 2.1 325.598 2.1L326.198 4.20001C307.598 6.90001 298.298 17.4 298.298 35.7C298.298 39 298.598 43.8 299.498 50.4C300.398 56.7 300.698 61.5 300.698 64.8V78.9C300.698 99.9 297.398 117 290.498 129.9C283.898 142.8 272.198 155.1 255.098 167.4L255.698 168.6C273.998 162.9 288.398 160.2 299.498 160.2C310.298 160.2 319.598 162.3 327.698 166.8C330.398 168.3 333.998 170.4 338.498 173.4C341.198 175.2 343.298 176.1 344.498 176.1C346.298 176.1 349.598 174 354.698 169.5L359.198 173.7Z" fill="#3D3030"/>
<path d="M174.3 173.4L140.1 201.6C129 194.7 121.8 183.6 118.2 168.3L74.4 201L31.8 178.5C26.7 175.8 22.5 174.3 19.2 174.3C14.7 174.3 10.8 178.2 10.8 183C10.8 185.4 13.8 192 13.8 194.7C13.8 198.9 11.4 201 6.6 201C2.1 201 0 198.3 0 193.2C0 186.9 3.6 178.8 10.5 168.3L37.2 128.7C17.4 110.4 6.9 93 5.4 76.5L4.8 69.9C4.8 52.8 11.7 37.2 25.5 23.1C39.3 8.99998 56.7 2.09998 77.4 2.09998C98.4 2.09998 118.5 8.69999 137.7 21.9C147.6 10.5 158.7 3.29998 171.6 0.299988L172.2 0.899998C164.1 8.39999 158.7 15 155.4 20.1C150.9 27.6 148.5 35.7 148.8 44.7L151.2 146.4C151.5 160.5 154.5 170.4 160.2 175.8L169.8 168.6L174.3 173.4ZM117.3 113.1V47.1L111.3 38.4H108.9L58.2 113.1H117.3ZM102.6 32.7C91.2 27.9 80.4 25.5 69.9 25.5C54.6 25.5 41.7 30 31.2 39.3C20.1 48.9 14.4 61.2 14.4 76.2C14.4 93.6 23.1 109.2 40.8 123.3L80.7 64.8C77.7 60 73.2 57.6 67.5 57.6L62.7 58.2C55.2 59.1 49.2 63.6 44.7 71.1C44.7 61.8 48 54.3 54.6 48.9C60.6 44.1 68.4 41.7 78.3 41.7C84.6 41.7 90.3 42.3 95.4 43.5L102.6 32.7ZM118.5 158.1V134.1H43.2L32.1 150.3L93.3 178.5L118.5 158.1Z" fill="#3D3030"/>
<path d="M359.198 173.7L326.198 205.2C309.098 191.1 289.598 184.2 267.698 184.2C248.798 184.2 227.498 189.9 203.798 201L201.998 198C221.498 182.7 232.298 168.3 234.398 154.8V152.1C234.398 137.7 225.998 129.3 209.198 127.2C213.398 123.6 217.898 121.8 222.698 121.8C226.298 121.8 230.198 122.4 234.098 123.3L234.398 121.5C234.398 106.8 224.198 97.2 208.898 98.1L201.698 98.4C205.298 90.3 211.898 86.1 221.798 86.1H226.898C228.098 86.1 229.898 86.4 232.298 87.3L231.698 72.9C231.398 63.6 233.198 54 237.398 44.7C241.298 36.3 247.298 27.6 255.398 18.3C246.698 23.7 237.698 26.4 228.698 26.4C225.398 26.4 220.598 25.5 214.298 24C207.998 22.5 203.798 21.6 201.098 21.6C195.098 21.6 189.098 25.8 183.398 34.5L181.298 32.7C185.798 11.7 197.498 1.20001 216.098 1.20001H218.498C223.598 1.20001 230.498 2.40001 238.598 5.10002C246.998 7.5 252.698 8.7 255.998 8.7C259.898 8.7 264.098 8.10001 268.298 6.90001C269.198 6.60001 273.098 5.10002 279.398 2.40001L280.298 3.90001C263.798 18 255.698 34.5 255.698 54C255.698 57.6 255.998 63 256.898 70.5C257.798 78 258.098 83.4 258.098 87.3C258.098 91.8 258.698 102 258.698 106.5C258.698 121.2 256.598 133.8 252.398 144.9C249.098 153 242.798 164.7 233.198 179.4L234.098 180.3C248.798 168.6 258.998 157.8 265.298 147.3C272.198 135 275.798 120.6 275.798 103.8C275.798 98.1 275.498 90 274.598 78.9C273.998 67.8 273.698 59.7 273.698 54L273.398 51.3C273.398 33.9 277.898 21.3 286.598 13.2C294.998 5.70001 307.898 2.1 325.598 2.1L326.198 4.20001C307.598 6.90001 298.298 17.4 298.298 35.7C298.298 39 298.598 43.8 299.498 50.4C300.398 56.7 300.698 61.5 300.698 64.8V78.9C300.698 99.9 297.398 117 290.498 129.9C283.898 142.8 272.198 155.1 255.098 167.4L255.698 168.6C273.998 162.9 288.398 160.2 299.498 160.2C310.298 160.2 319.598 162.3 327.698 166.8C330.398 168.3 333.998 170.4 338.498 173.4C341.198 175.2 343.298 176.1 344.498 176.1C346.298 176.1 349.598 174 354.698 169.5L359.198 173.7Z" stroke="black"/>
<path d="M174.3 173.4L140.1 201.6C129 194.7 121.8 183.6 118.2 168.3L74.4 201L31.8 178.5C26.7 175.8 22.5 174.3 19.2 174.3C14.7 174.3 10.8 178.2 10.8 183C10.8 185.4 13.8 192 13.8 194.7C13.8 198.9 11.4 201 6.6 201C2.1 201 0 198.3 0 193.2C0 186.9 3.6 178.8 10.5 168.3L37.2 128.7C17.4 110.4 6.9 93 5.4 76.5L4.8 69.9C4.8 52.8 11.7 37.2 25.5 23.1C39.3 8.99998 56.7 2.09998 77.4 2.09998C98.4 2.09998 118.5 8.69999 137.7 21.9C147.6 10.5 158.7 3.29998 171.6 0.299988L172.2 0.899998C164.1 8.39999 158.7 15 155.4 20.1C150.9 27.6 148.5 35.7 148.8 44.7L151.2 146.4C151.5 160.5 154.5 170.4 160.2 175.8L169.8 168.6L174.3 173.4ZM117.3 113.1V47.1L111.3 38.4H108.9L58.2 113.1H117.3ZM102.6 32.7C91.2 27.9 80.4 25.5 69.9 25.5C54.6 25.5 41.7 30 31.2 39.3C20.1 48.9 14.4 61.2 14.4 76.2C14.4 93.6 23.1 109.2 40.8 123.3L80.7 64.8C77.7 60 73.2 57.6 67.5 57.6L62.7 58.2C55.2 59.1 49.2 63.6 44.7 71.1C44.7 61.8 48 54.3 54.6 48.9C60.6 44.1 68.4 41.7 78.3 41.7C84.6 41.7 90.3 42.3 95.4 43.5L102.6 32.7ZM118.5 158.1V134.1H43.2L32.1 150.3L93.3 178.5L118.5 158.1Z" stroke="black"/>
</svg>
