<svg width="550" height="151" viewBox="0 0 550 151" fill="none" xmlns="http://www.w3.org/2000/svg">
<mask id="path-1-outside-1_58_14" maskUnits="userSpaceOnUse" x="0.400024" y="0.549988" width="550" height="150" fill="black">
<rect fill="white" x="0.400024" y="0.549988" width="550" height="150"/>
<path d="M500.991 43.1V38.75H501.441C504.641 38.75 507.291 38.4 509.391 37.7C511.591 36.9 513.291 35.7 514.491 34.1C515.691 32.4 516.391 30.15 516.591 27.35L521.541 38.3H546.741V43.1H500.991ZM526.341 94.85C526.341 99.15 526.841 102.6 527.841 105.2C528.941 107.7 530.441 109.5 532.341 110.6C534.241 111.7 536.391 112.25 538.791 112.25C541.391 112.25 543.591 111.9 545.391 111.2C547.291 110.5 548.491 110.1 548.991 110V114.95C548.091 115.45 546.941 115.9 545.541 116.3C544.241 116.7 542.841 117 541.341 117.2C539.841 117.4 538.241 117.5 536.541 117.5C532.141 117.5 528.141 116.75 524.541 115.25C520.941 113.75 518.091 111.35 515.991 108.05C513.991 104.65 512.991 100.2 512.991 94.7V37.7L515.691 37.25L517.341 18.95H526.341V94.85Z"/>
<path d="M476.428 19.7C473.828 19.7 471.628 18.9 469.828 17.3C468.028 15.6 467.128 13.35 467.128 10.55C467.128 7.74999 468.028 5.54999 469.828 3.94998C471.628 2.34999 473.828 1.54999 476.428 1.54999C479.028 1.54999 481.178 2.34999 482.878 3.94998C484.678 5.54999 485.578 7.74999 485.578 10.55C485.578 13.35 484.678 15.6 482.878 17.3C481.178 18.9 479.028 19.7 476.428 19.7ZM483.328 38.3V106.1C483.328 108.3 484.378 109.75 486.478 110.45C488.678 111.15 491.428 111.5 494.728 111.5H495.028V116H458.128V111.5H458.428C461.728 111.5 464.478 111.15 466.678 110.45C468.878 109.75 469.978 108.3 469.978 106.1V49.85C469.978 47.65 469.128 46.15 467.428 45.35C465.728 44.45 463.178 43.7 459.778 43.1L458.128 42.8V38.3H483.328Z"/>
<path d="M436.879 97.55C436.879 95.25 436.329 93.35 435.229 91.85C434.129 90.25 432.579 88.9 430.579 87.8C428.679 86.7 426.479 85.7 423.979 84.8C421.479 83.9 418.829 83.05 416.029 82.25C413.229 81.35 410.329 80.35 407.329 79.25C404.429 78.15 401.729 76.75 399.229 75.05C396.829 73.25 394.879 70.95 393.379 68.15C391.879 65.35 391.129 61.85 391.129 57.65C391.129 53.65 392.179 50.1 394.279 47C396.479 43.9 399.579 41.45 403.579 39.65C407.579 37.75 412.379 36.8 417.979 36.8C421.979 36.8 425.579 37.2 428.779 38C431.979 38.7 434.679 39.6 436.879 40.7C439.179 41.7 440.879 42.65 441.979 43.55V57.35H430.429V42.5C431.329 42.4 432.129 42.65 432.829 43.25C433.529 43.85 434.129 44.6 434.629 45.5C435.229 46.3 435.629 47.05 435.829 47.75C436.029 48.45 436.029 48.85 435.829 48.95C434.829 47.65 433.479 46.45 431.779 45.35C430.179 44.25 428.229 43.35 425.929 42.65C423.729 41.95 421.079 41.6 417.979 41.6C412.079 41.6 407.779 43 405.079 45.8C402.379 48.5 401.029 51.75 401.029 55.55C401.029 58.35 401.629 60.6 402.829 62.3C404.129 64 405.829 65.4 407.929 66.5C410.029 67.6 412.379 68.55 414.979 69.35C417.579 70.05 420.179 70.8 422.779 71.6C425.779 72.5 428.729 73.55 431.629 74.75C434.529 75.85 437.129 77.2 439.429 78.8C441.829 80.4 443.729 82.4 445.129 84.8C446.529 87.2 447.229 90.2 447.229 93.8C447.229 98.4 446.029 102.5 443.629 106.1C441.329 109.6 438.029 112.4 433.729 114.5C429.429 116.5 424.279 117.5 418.279 117.5C413.379 117.5 409.029 117 405.229 116C401.429 115.1 398.129 113.95 395.329 112.55C392.529 111.05 390.179 109.55 388.279 108.05V93.2H400.429V110.6C399.429 110.1 398.579 109.6 397.879 109.1C397.279 108.6 396.829 108.15 396.529 107.75C396.329 107.25 396.279 106.75 396.379 106.25C396.479 105.75 396.779 105.2 397.279 104.6C398.479 106.3 400.129 107.75 402.229 108.95C404.329 110.15 406.729 111.1 409.429 111.8C412.229 112.4 415.179 112.7 418.279 112.7C422.379 112.7 425.779 112.1 428.479 110.9C431.279 109.6 433.379 107.8 434.779 105.5C436.179 103.2 436.879 100.55 436.879 97.55Z"/>
<path d="M375.173 77.3C375.173 85.2 373.473 92.2 370.073 98.3C366.673 104.3 362.023 109 356.123 112.4C350.223 115.8 343.473 117.5 335.873 117.5C328.373 117.5 321.623 115.8 315.623 112.4C309.723 109 305.073 104.3 301.673 98.3C298.273 92.2 296.573 85.2 296.573 77.3C296.573 71.4 297.523 66 299.423 61.1C301.423 56.1 304.173 51.8 307.673 48.2C311.273 44.6 315.423 41.8 320.123 39.8C324.923 37.8 330.173 36.8 335.873 36.8C341.573 36.8 346.773 37.8 351.473 39.8C356.273 41.7 360.423 44.5 363.923 48.2C367.523 51.8 370.273 56.1 372.173 61.1C374.173 66 375.173 71.4 375.173 77.3ZM310.673 77.3C310.673 84.2 311.623 90.35 313.523 95.75C315.423 101.05 318.223 105.2 321.923 108.2C325.723 111.2 330.373 112.7 335.873 112.7C341.473 112.7 346.123 111.2 349.823 108.2C353.523 105.2 356.323 101.05 358.223 95.75C360.123 90.45 361.073 84.3 361.073 77.3C361.073 70.3 360.123 64.1 358.223 58.7C356.323 53.3 353.523 49.1 349.823 46.1C346.123 43.1 341.473 41.6 335.873 41.6C330.373 41.6 325.723 43.15 321.923 46.25C318.223 49.25 315.423 53.45 313.523 58.85C311.623 64.15 310.673 70.3 310.673 77.3Z"/>
<path d="M235.178 149.45H197.678V144.95H197.828C200.028 144.95 201.978 144.8 203.678 144.5C205.478 144.2 206.878 143.65 207.878 142.85C208.978 142.05 209.528 140.95 209.528 139.55V49.85C209.528 48.35 209.128 47.2 208.328 46.4C207.628 45.6 206.528 44.95 205.028 44.45C203.528 43.95 201.628 43.5 199.328 43.1L197.678 42.8V38.3H221.828V55.85L222.878 56.15V143.45C222.878 143.75 223.478 144 224.678 144.2C225.878 144.5 227.278 144.7 228.878 144.8C230.578 144.9 232.028 144.95 233.228 144.95H235.178V149.45ZM247.778 117.5C242.778 117.5 238.328 116.65 234.428 114.95C230.628 113.15 227.128 110.35 223.928 106.55C220.828 102.65 217.728 97.6 214.628 91.4L218.228 89.6C220.528 94.8 223.028 99.05 225.728 102.35C228.428 105.65 231.428 108.1 234.728 109.7C238.128 111.2 241.878 111.95 245.978 111.95C249.978 111.95 253.478 111.1 256.478 109.4C259.578 107.7 262.128 105.3 264.128 102.2C266.128 99 267.628 95.25 268.628 90.95C269.728 86.55 270.278 81.7 270.278 76.4C270.278 71.3 269.779 66.65 268.779 62.45C267.779 58.25 266.279 54.65 264.279 51.65C262.379 48.65 259.978 46.35 257.078 44.75C254.278 43.15 250.978 42.35 247.178 42.35C242.578 42.35 238.528 43.3 235.028 45.2C231.628 47.1 228.578 49.9 225.878 53.6C223.278 57.2 220.778 61.55 218.378 66.65L215.228 64.85C218.328 58.55 221.428 53.35 224.528 49.25C227.728 45.05 231.328 41.95 235.328 39.95C239.328 37.85 244.028 36.8 249.428 36.8C256.028 36.8 261.928 38.45 267.128 41.75C272.428 45.05 276.628 49.7 279.728 55.7C282.828 61.6 284.378 68.5 284.378 76.4C284.378 84.4 282.828 91.5 279.728 97.7C276.628 103.9 272.328 108.75 266.828 112.25C261.328 115.75 254.978 117.5 247.778 117.5Z"/>
<path d="M130.63 77.9C130.63 83.5 131.28 88.45 132.58 92.75C133.98 97.05 135.88 100.7 138.28 103.7C140.78 106.6 143.68 108.85 146.98 110.45C150.28 111.95 153.93 112.7 157.93 112.7C162.03 112.7 165.63 112 168.73 110.6C171.83 109.2 174.53 107.3 176.83 104.9C179.13 102.5 181.08 99.8 182.68 96.8L186.73 100.25C184.93 103.85 182.53 106.95 179.53 109.55C176.53 112.15 173.13 114.15 169.33 115.55C165.53 116.85 161.38 117.5 156.88 117.5C149.68 117.5 143.03 115.9 136.93 112.7C130.93 109.4 126.13 104.75 122.53 98.75C118.93 92.75 117.13 85.7 117.13 77.6C117.13 69.5 118.78 62.4 122.08 56.3C125.38 50.1 129.83 45.3 135.43 41.9C141.13 38.5 147.48 36.8 154.48 36.8C159.58 36.8 164.13 37.65 168.13 39.35C172.23 41.05 175.68 43.55 178.48 46.85C181.38 50.05 183.58 54.05 185.08 58.85C186.58 63.55 187.33 69 187.33 75.2H126.58L126.43 70.7H178.18L173.98 72.35C173.88 67.35 173.43 62.95 172.63 59.15C171.83 55.35 170.58 52.15 168.88 49.55C167.28 46.95 165.28 45 162.88 43.7C160.48 42.3 157.68 41.6 154.48 41.6C150.98 41.6 147.73 42.45 144.73 44.15C141.83 45.75 139.33 48.15 137.23 51.35C135.13 54.45 133.48 58.25 132.28 62.75C131.18 67.25 130.63 72.3 130.63 77.9Z"/>
<path d="M1.40002 14V9.5H45.95C54.35 9.5 62 10.75 68.9 13.25C75.9 15.65 81.9 19.15 86.9 23.75C92 28.35 95.95 33.95 98.75 40.55C101.55 47.05 102.95 54.35 102.95 62.45C102.95 70.55 101.55 77.9 98.75 84.5C95.95 91 92 96.65 86.9 101.45C81.9 106.15 75.9 109.75 68.9 112.25C62 114.75 54.35 116 45.95 116H1.40002V111.5H2.30002C5.50002 111.5 8.30003 111.15 10.7 110.45C13.1 109.75 14.3 108.3 14.3 106.1V19.4C14.3 17.2 13.1 15.75 10.7 15.05C8.30003 14.35 5.50002 14 2.30002 14H1.40002ZM45.95 14.75H28.25V110.75H45.95C52.25 110.75 57.95 109.65 63.05 107.45C68.25 105.25 72.7 102.1 76.4 98C80.1 93.8 82.95 88.75 84.95 82.85C86.95 76.85 87.95 70.05 87.95 62.45C87.95 54.85 86.95 48.1 84.95 42.2C82.95 36.2 80.1 31.2 76.4 27.2C72.7 23.1 68.25 20 63.05 17.9C57.95 15.8 52.25 14.75 45.95 14.75Z"/>
</mask>
<path d="M500.991 43.1V38.75H501.441C504.641 38.75 507.291 38.4 509.391 37.7C511.591 36.9 513.291 35.7 514.491 34.1C515.691 32.4 516.391 30.15 516.591 27.35L521.541 38.3H546.741V43.1H500.991ZM526.341 94.85C526.341 99.15 526.841 102.6 527.841 105.2C528.941 107.7 530.441 109.5 532.341 110.6C534.241 111.7 536.391 112.25 538.791 112.25C541.391 112.25 543.591 111.9 545.391 111.2C547.291 110.5 548.491 110.1 548.991 110V114.95C548.091 115.45 546.941 115.9 545.541 116.3C544.241 116.7 542.841 117 541.341 117.2C539.841 117.4 538.241 117.5 536.541 117.5C532.141 117.5 528.141 116.75 524.541 115.25C520.941 113.75 518.091 111.35 515.991 108.05C513.991 104.65 512.991 100.2 512.991 94.7V37.7L515.691 37.25L517.341 18.95H526.341V94.85Z" fill="black"/>
<path d="M476.428 19.7C473.828 19.7 471.628 18.9 469.828 17.3C468.028 15.6 467.128 13.35 467.128 10.55C467.128 7.74999 468.028 5.54999 469.828 3.94998C471.628 2.34999 473.828 1.54999 476.428 1.54999C479.028 1.54999 481.178 2.34999 482.878 3.94998C484.678 5.54999 485.578 7.74999 485.578 10.55C485.578 13.35 484.678 15.6 482.878 17.3C481.178 18.9 479.028 19.7 476.428 19.7ZM483.328 38.3V106.1C483.328 108.3 484.378 109.75 486.478 110.45C488.678 111.15 491.428 111.5 494.728 111.5H495.028V116H458.128V111.5H458.428C461.728 111.5 464.478 111.15 466.678 110.45C468.878 109.75 469.978 108.3 469.978 106.1V49.85C469.978 47.65 469.128 46.15 467.428 45.35C465.728 44.45 463.178 43.7 459.778 43.1L458.128 42.8V38.3H483.328Z" fill="black"/>
<path d="M436.879 97.55C436.879 95.25 436.329 93.35 435.229 91.85C434.129 90.25 432.579 88.9 430.579 87.8C428.679 86.7 426.479 85.7 423.979 84.8C421.479 83.9 418.829 83.05 416.029 82.25C413.229 81.35 410.329 80.35 407.329 79.25C404.429 78.15 401.729 76.75 399.229 75.05C396.829 73.25 394.879 70.95 393.379 68.15C391.879 65.35 391.129 61.85 391.129 57.65C391.129 53.65 392.179 50.1 394.279 47C396.479 43.9 399.579 41.45 403.579 39.65C407.579 37.75 412.379 36.8 417.979 36.8C421.979 36.8 425.579 37.2 428.779 38C431.979 38.7 434.679 39.6 436.879 40.7C439.179 41.7 440.879 42.65 441.979 43.55V57.35H430.429V42.5C431.329 42.4 432.129 42.65 432.829 43.25C433.529 43.85 434.129 44.6 434.629 45.5C435.229 46.3 435.629 47.05 435.829 47.75C436.029 48.45 436.029 48.85 435.829 48.95C434.829 47.65 433.479 46.45 431.779 45.35C430.179 44.25 428.229 43.35 425.929 42.65C423.729 41.95 421.079 41.6 417.979 41.6C412.079 41.6 407.779 43 405.079 45.8C402.379 48.5 401.029 51.75 401.029 55.55C401.029 58.35 401.629 60.6 402.829 62.3C404.129 64 405.829 65.4 407.929 66.5C410.029 67.6 412.379 68.55 414.979 69.35C417.579 70.05 420.179 70.8 422.779 71.6C425.779 72.5 428.729 73.55 431.629 74.75C434.529 75.85 437.129 77.2 439.429 78.8C441.829 80.4 443.729 82.4 445.129 84.8C446.529 87.2 447.229 90.2 447.229 93.8C447.229 98.4 446.029 102.5 443.629 106.1C441.329 109.6 438.029 112.4 433.729 114.5C429.429 116.5 424.279 117.5 418.279 117.5C413.379 117.5 409.029 117 405.229 116C401.429 115.1 398.129 113.95 395.329 112.55C392.529 111.05 390.179 109.55 388.279 108.05V93.2H400.429V110.6C399.429 110.1 398.579 109.6 397.879 109.1C397.279 108.6 396.829 108.15 396.529 107.75C396.329 107.25 396.279 106.75 396.379 106.25C396.479 105.75 396.779 105.2 397.279 104.6C398.479 106.3 400.129 107.75 402.229 108.95C404.329 110.15 406.729 111.1 409.429 111.8C412.229 112.4 415.179 112.7 418.279 112.7C422.379 112.7 425.779 112.1 428.479 110.9C431.279 109.6 433.379 107.8 434.779 105.5C436.179 103.2 436.879 100.55 436.879 97.55Z" fill="black"/>
<path d="M375.173 77.3C375.173 85.2 373.473 92.2 370.073 98.3C366.673 104.3 362.023 109 356.123 112.4C350.223 115.8 343.473 117.5 335.873 117.5C328.373 117.5 321.623 115.8 315.623 112.4C309.723 109 305.073 104.3 301.673 98.3C298.273 92.2 296.573 85.2 296.573 77.3C296.573 71.4 297.523 66 299.423 61.1C301.423 56.1 304.173 51.8 307.673 48.2C311.273 44.6 315.423 41.8 320.123 39.8C324.923 37.8 330.173 36.8 335.873 36.8C341.573 36.8 346.773 37.8 351.473 39.8C356.273 41.7 360.423 44.5 363.923 48.2C367.523 51.8 370.273 56.1 372.173 61.1C374.173 66 375.173 71.4 375.173 77.3ZM310.673 77.3C310.673 84.2 311.623 90.35 313.523 95.75C315.423 101.05 318.223 105.2 321.923 108.2C325.723 111.2 330.373 112.7 335.873 112.7C341.473 112.7 346.123 111.2 349.823 108.2C353.523 105.2 356.323 101.05 358.223 95.75C360.123 90.45 361.073 84.3 361.073 77.3C361.073 70.3 360.123 64.1 358.223 58.7C356.323 53.3 353.523 49.1 349.823 46.1C346.123 43.1 341.473 41.6 335.873 41.6C330.373 41.6 325.723 43.15 321.923 46.25C318.223 49.25 315.423 53.45 313.523 58.85C311.623 64.15 310.673 70.3 310.673 77.3Z" fill="black"/>
<path d="M235.178 149.45H197.678V144.95H197.828C200.028 144.95 201.978 144.8 203.678 144.5C205.478 144.2 206.878 143.65 207.878 142.85C208.978 142.05 209.528 140.95 209.528 139.55V49.85C209.528 48.35 209.128 47.2 208.328 46.4C207.628 45.6 206.528 44.95 205.028 44.45C203.528 43.95 201.628 43.5 199.328 43.1L197.678 42.8V38.3H221.828V55.85L222.878 56.15V143.45C222.878 143.75 223.478 144 224.678 144.2C225.878 144.5 227.278 144.7 228.878 144.8C230.578 144.9 232.028 144.95 233.228 144.95H235.178V149.45ZM247.778 117.5C242.778 117.5 238.328 116.65 234.428 114.95C230.628 113.15 227.128 110.35 223.928 106.55C220.828 102.65 217.728 97.6 214.628 91.4L218.228 89.6C220.528 94.8 223.028 99.05 225.728 102.35C228.428 105.65 231.428 108.1 234.728 109.7C238.128 111.2 241.878 111.95 245.978 111.95C249.978 111.95 253.478 111.1 256.478 109.4C259.578 107.7 262.128 105.3 264.128 102.2C266.128 99 267.628 95.25 268.628 90.95C269.728 86.55 270.278 81.7 270.278 76.4C270.278 71.3 269.779 66.65 268.779 62.45C267.779 58.25 266.279 54.65 264.279 51.65C262.379 48.65 259.978 46.35 257.078 44.75C254.278 43.15 250.978 42.35 247.178 42.35C242.578 42.35 238.528 43.3 235.028 45.2C231.628 47.1 228.578 49.9 225.878 53.6C223.278 57.2 220.778 61.55 218.378 66.65L215.228 64.85C218.328 58.55 221.428 53.35 224.528 49.25C227.728 45.05 231.328 41.95 235.328 39.95C239.328 37.85 244.028 36.8 249.428 36.8C256.028 36.8 261.928 38.45 267.128 41.75C272.428 45.05 276.628 49.7 279.728 55.7C282.828 61.6 284.378 68.5 284.378 76.4C284.378 84.4 282.828 91.5 279.728 97.7C276.628 103.9 272.328 108.75 266.828 112.25C261.328 115.75 254.978 117.5 247.778 117.5Z" fill="black"/>
<path d="M130.63 77.9C130.63 83.5 131.28 88.45 132.58 92.75C133.98 97.05 135.88 100.7 138.28 103.7C140.78 106.6 143.68 108.85 146.98 110.45C150.28 111.95 153.93 112.7 157.93 112.7C162.03 112.7 165.63 112 168.73 110.6C171.83 109.2 174.53 107.3 176.83 104.9C179.13 102.5 181.08 99.8 182.68 96.8L186.73 100.25C184.93 103.85 182.53 106.95 179.53 109.55C176.53 112.15 173.13 114.15 169.33 115.55C165.53 116.85 161.38 117.5 156.88 117.5C149.68 117.5 143.03 115.9 136.93 112.7C130.93 109.4 126.13 104.75 122.53 98.75C118.93 92.75 117.13 85.7 117.13 77.6C117.13 69.5 118.78 62.4 122.08 56.3C125.38 50.1 129.83 45.3 135.43 41.9C141.13 38.5 147.48 36.8 154.48 36.8C159.58 36.8 164.13 37.65 168.13 39.35C172.23 41.05 175.68 43.55 178.48 46.85C181.38 50.05 183.58 54.05 185.08 58.85C186.58 63.55 187.33 69 187.33 75.2H126.58L126.43 70.7H178.18L173.98 72.35C173.88 67.35 173.43 62.95 172.63 59.15C171.83 55.35 170.58 52.15 168.88 49.55C167.28 46.95 165.28 45 162.88 43.7C160.48 42.3 157.68 41.6 154.48 41.6C150.98 41.6 147.73 42.45 144.73 44.15C141.83 45.75 139.33 48.15 137.23 51.35C135.13 54.45 133.48 58.25 132.28 62.75C131.18 67.25 130.63 72.3 130.63 77.9Z" fill="black"/>
<path d="M1.40002 14V9.5H45.95C54.35 9.5 62 10.75 68.9 13.25C75.9 15.65 81.9 19.15 86.9 23.75C92 28.35 95.95 33.95 98.75 40.55C101.55 47.05 102.95 54.35 102.95 62.45C102.95 70.55 101.55 77.9 98.75 84.5C95.95 91 92 96.65 86.9 101.45C81.9 106.15 75.9 109.75 68.9 112.25C62 114.75 54.35 116 45.95 116H1.40002V111.5H2.30002C5.50002 111.5 8.30003 111.15 10.7 110.45C13.1 109.75 14.3 108.3 14.3 106.1V19.4C14.3 17.2 13.1 15.75 10.7 15.05C8.30003 14.35 5.50002 14 2.30002 14H1.40002ZM45.95 14.75H28.25V110.75H45.95C52.25 110.75 57.95 109.65 63.05 107.45C68.25 105.25 72.7 102.1 76.4 98C80.1 93.8 82.95 88.75 84.95 82.85C86.95 76.85 87.95 70.05 87.95 62.45C87.95 54.85 86.95 48.1 84.95 42.2C82.95 36.2 80.1 31.2 76.4 27.2C72.7 23.1 68.25 20 63.05 17.9C57.95 15.8 52.25 14.75 45.95 14.75Z" fill="black"/>
<path d="M500.991 43.1V38.75H501.441C504.641 38.75 507.291 38.4 509.391 37.7C511.591 36.9 513.291 35.7 514.491 34.1C515.691 32.4 516.391 30.15 516.591 27.35L521.541 38.3H546.741V43.1H500.991ZM526.341 94.85C526.341 99.15 526.841 102.6 527.841 105.2C528.941 107.7 530.441 109.5 532.341 110.6C534.241 111.7 536.391 112.25 538.791 112.25C541.391 112.25 543.591 111.9 545.391 111.2C547.291 110.5 548.491 110.1 548.991 110V114.95C548.091 115.45 546.941 115.9 545.541 116.3C544.241 116.7 542.841 117 541.341 117.2C539.841 117.4 538.241 117.5 536.541 117.5C532.141 117.5 528.141 116.75 524.541 115.25C520.941 113.75 518.091 111.35 515.991 108.05C513.991 104.65 512.991 100.2 512.991 94.7V37.7L515.691 37.25L517.341 18.95H526.341V94.85Z" stroke="black" stroke-width="2" mask="url(#path-1-outside-1_58_14)"/>
<path d="M476.428 19.7C473.828 19.7 471.628 18.9 469.828 17.3C468.028 15.6 467.128 13.35 467.128 10.55C467.128 7.74999 468.028 5.54999 469.828 3.94998C471.628 2.34999 473.828 1.54999 476.428 1.54999C479.028 1.54999 481.178 2.34999 482.878 3.94998C484.678 5.54999 485.578 7.74999 485.578 10.55C485.578 13.35 484.678 15.6 482.878 17.3C481.178 18.9 479.028 19.7 476.428 19.7ZM483.328 38.3V106.1C483.328 108.3 484.378 109.75 486.478 110.45C488.678 111.15 491.428 111.5 494.728 111.5H495.028V116H458.128V111.5H458.428C461.728 111.5 464.478 111.15 466.678 110.45C468.878 109.75 469.978 108.3 469.978 106.1V49.85C469.978 47.65 469.128 46.15 467.428 45.35C465.728 44.45 463.178 43.7 459.778 43.1L458.128 42.8V38.3H483.328Z" stroke="black" stroke-width="2" mask="url(#path-1-outside-1_58_14)"/>
<path d="M436.879 97.55C436.879 95.25 436.329 93.35 435.229 91.85C434.129 90.25 432.579 88.9 430.579 87.8C428.679 86.7 426.479 85.7 423.979 84.8C421.479 83.9 418.829 83.05 416.029 82.25C413.229 81.35 410.329 80.35 407.329 79.25C404.429 78.15 401.729 76.75 399.229 75.05C396.829 73.25 394.879 70.95 393.379 68.15C391.879 65.35 391.129 61.85 391.129 57.65C391.129 53.65 392.179 50.1 394.279 47C396.479 43.9 399.579 41.45 403.579 39.65C407.579 37.75 412.379 36.8 417.979 36.8C421.979 36.8 425.579 37.2 428.779 38C431.979 38.7 434.679 39.6 436.879 40.7C439.179 41.7 440.879 42.65 441.979 43.55V57.35H430.429V42.5C431.329 42.4 432.129 42.65 432.829 43.25C433.529 43.85 434.129 44.6 434.629 45.5C435.229 46.3 435.629 47.05 435.829 47.75C436.029 48.45 436.029 48.85 435.829 48.95C434.829 47.65 433.479 46.45 431.779 45.35C430.179 44.25 428.229 43.35 425.929 42.65C423.729 41.95 421.079 41.6 417.979 41.6C412.079 41.6 407.779 43 405.079 45.8C402.379 48.5 401.029 51.75 401.029 55.55C401.029 58.35 401.629 60.6 402.829 62.3C404.129 64 405.829 65.4 407.929 66.5C410.029 67.6 412.379 68.55 414.979 69.35C417.579 70.05 420.179 70.8 422.779 71.6C425.779 72.5 428.729 73.55 431.629 74.75C434.529 75.85 437.129 77.2 439.429 78.8C441.829 80.4 443.729 82.4 445.129 84.8C446.529 87.2 447.229 90.2 447.229 93.8C447.229 98.4 446.029 102.5 443.629 106.1C441.329 109.6 438.029 112.4 433.729 114.5C429.429 116.5 424.279 117.5 418.279 117.5C413.379 117.5 409.029 117 405.229 116C401.429 115.1 398.129 113.95 395.329 112.55C392.529 111.05 390.179 109.55 388.279 108.05V93.2H400.429V110.6C399.429 110.1 398.579 109.6 397.879 109.1C397.279 108.6 396.829 108.15 396.529 107.75C396.329 107.25 396.279 106.75 396.379 106.25C396.479 105.75 396.779 105.2 397.279 104.6C398.479 106.3 400.129 107.75 402.229 108.95C404.329 110.15 406.729 111.1 409.429 111.8C412.229 112.4 415.179 112.7 418.279 112.7C422.379 112.7 425.779 112.1 428.479 110.9C431.279 109.6 433.379 107.8 434.779 105.5C436.179 103.2 436.879 100.55 436.879 97.55Z" stroke="black" stroke-width="2" mask="url(#path-1-outside-1_58_14)"/>
<path d="M375.173 77.3C375.173 85.2 373.473 92.2 370.073 98.3C366.673 104.3 362.023 109 356.123 112.4C350.223 115.8 343.473 117.5 335.873 117.5C328.373 117.5 321.623 115.8 315.623 112.4C309.723 109 305.073 104.3 301.673 98.3C298.273 92.2 296.573 85.2 296.573 77.3C296.573 71.4 297.523 66 299.423 61.1C301.423 56.1 304.173 51.8 307.673 48.2C311.273 44.6 315.423 41.8 320.123 39.8C324.923 37.8 330.173 36.8 335.873 36.8C341.573 36.8 346.773 37.8 351.473 39.8C356.273 41.7 360.423 44.5 363.923 48.2C367.523 51.8 370.273 56.1 372.173 61.1C374.173 66 375.173 71.4 375.173 77.3ZM310.673 77.3C310.673 84.2 311.623 90.35 313.523 95.75C315.423 101.05 318.223 105.2 321.923 108.2C325.723 111.2 330.373 112.7 335.873 112.7C341.473 112.7 346.123 111.2 349.823 108.2C353.523 105.2 356.323 101.05 358.223 95.75C360.123 90.45 361.073 84.3 361.073 77.3C361.073 70.3 360.123 64.1 358.223 58.7C356.323 53.3 353.523 49.1 349.823 46.1C346.123 43.1 341.473 41.6 335.873 41.6C330.373 41.6 325.723 43.15 321.923 46.25C318.223 49.25 315.423 53.45 313.523 58.85C311.623 64.15 310.673 70.3 310.673 77.3Z" stroke="black" stroke-width="2" mask="url(#path-1-outside-1_58_14)"/>
<path d="M235.178 149.45H197.678V144.95H197.828C200.028 144.95 201.978 144.8 203.678 144.5C205.478 144.2 206.878 143.65 207.878 142.85C208.978 142.05 209.528 140.95 209.528 139.55V49.85C209.528 48.35 209.128 47.2 208.328 46.4C207.628 45.6 206.528 44.95 205.028 44.45C203.528 43.95 201.628 43.5 199.328 43.1L197.678 42.8V38.3H221.828V55.85L222.878 56.15V143.45C222.878 143.75 223.478 144 224.678 144.2C225.878 144.5 227.278 144.7 228.878 144.8C230.578 144.9 232.028 144.95 233.228 144.95H235.178V149.45ZM247.778 117.5C242.778 117.5 238.328 116.65 234.428 114.95C230.628 113.15 227.128 110.35 223.928 106.55C220.828 102.65 217.728 97.6 214.628 91.4L218.228 89.6C220.528 94.8 223.028 99.05 225.728 102.35C228.428 105.65 231.428 108.1 234.728 109.7C238.128 111.2 241.878 111.95 245.978 111.95C249.978 111.95 253.478 111.1 256.478 109.4C259.578 107.7 262.128 105.3 264.128 102.2C266.128 99 267.628 95.25 268.628 90.95C269.728 86.55 270.278 81.7 270.278 76.4C270.278 71.3 269.779 66.65 268.779 62.45C267.779 58.25 266.279 54.65 264.279 51.65C262.379 48.65 259.978 46.35 257.078 44.75C254.278 43.15 250.978 42.35 247.178 42.35C242.578 42.35 238.528 43.3 235.028 45.2C231.628 47.1 228.578 49.9 225.878 53.6C223.278 57.2 220.778 61.55 218.378 66.65L215.228 64.85C218.328 58.55 221.428 53.35 224.528 49.25C227.728 45.05 231.328 41.95 235.328 39.95C239.328 37.85 244.028 36.8 249.428 36.8C256.028 36.8 261.928 38.45 267.128 41.75C272.428 45.05 276.628 49.7 279.728 55.7C282.828 61.6 284.378 68.5 284.378 76.4C284.378 84.4 282.828 91.5 279.728 97.7C276.628 103.9 272.328 108.75 266.828 112.25C261.328 115.75 254.978 117.5 247.778 117.5Z" stroke="black" stroke-width="2" mask="url(#path-1-outside-1_58_14)"/>
<path d="M130.63 77.9C130.63 83.5 131.28 88.45 132.58 92.75C133.98 97.05 135.88 100.7 138.28 103.7C140.78 106.6 143.68 108.85 146.98 110.45C150.28 111.95 153.93 112.7 157.93 112.7C162.03 112.7 165.63 112 168.73 110.6C171.83 109.2 174.53 107.3 176.83 104.9C179.13 102.5 181.08 99.8 182.68 96.8L186.73 100.25C184.93 103.85 182.53 106.95 179.53 109.55C176.53 112.15 173.13 114.15 169.33 115.55C165.53 116.85 161.38 117.5 156.88 117.5C149.68 117.5 143.03 115.9 136.93 112.7C130.93 109.4 126.13 104.75 122.53 98.75C118.93 92.75 117.13 85.7 117.13 77.6C117.13 69.5 118.78 62.4 122.08 56.3C125.38 50.1 129.83 45.3 135.43 41.9C141.13 38.5 147.48 36.8 154.48 36.8C159.58 36.8 164.13 37.65 168.13 39.35C172.23 41.05 175.68 43.55 178.48 46.85C181.38 50.05 183.58 54.05 185.08 58.85C186.58 63.55 187.33 69 187.33 75.2H126.58L126.43 70.7H178.18L173.98 72.35C173.88 67.35 173.43 62.95 172.63 59.15C171.83 55.35 170.58 52.15 168.88 49.55C167.28 46.95 165.28 45 162.88 43.7C160.48 42.3 157.68 41.6 154.48 41.6C150.98 41.6 147.73 42.45 144.73 44.15C141.83 45.75 139.33 48.15 137.23 51.35C135.13 54.45 133.48 58.25 132.28 62.75C131.18 67.25 130.63 72.3 130.63 77.9Z" stroke="black" stroke-width="2" mask="url(#path-1-outside-1_58_14)"/>
<path d="M1.40002 14V9.5H45.95C54.35 9.5 62 10.75 68.9 13.25C75.9 15.65 81.9 19.15 86.9 23.75C92 28.35 95.95 33.95 98.75 40.55C101.55 47.05 102.95 54.35 102.95 62.45C102.95 70.55 101.55 77.9 98.75 84.5C95.95 91 92 96.65 86.9 101.45C81.9 106.15 75.9 109.75 68.9 112.25C62 114.75 54.35 116 45.95 116H1.40002V111.5H2.30002C5.50002 111.5 8.30003 111.15 10.7 110.45C13.1 109.75 14.3 108.3 14.3 106.1V19.4C14.3 17.2 13.1 15.75 10.7 15.05C8.30003 14.35 5.50002 14 2.30002 14H1.40002ZM45.95 14.75H28.25V110.75H45.95C52.25 110.75 57.95 109.65 63.05 107.45C68.25 105.25 72.7 102.1 76.4 98C80.1 93.8 82.95 88.75 84.95 82.85C86.95 76.85 87.95 70.05 87.95 62.45C87.95 54.85 86.95 48.1 84.95 42.2C82.95 36.2 80.1 31.2 76.4 27.2C72.7 23.1 68.25 20 63.05 17.9C57.95 15.8 52.25 14.75 45.95 14.75Z" stroke="black" stroke-width="2" mask="url(#path-1-outside-1_58_14)"/>
</svg>
