<svg height="512" viewBox="0 0 512 512" width="512" xmlns="http://www.w3.org/2000/svg"><g id="flat"><path d="m448 272a8 8 0 0 1 -8-8v-96a8 8 0 0 1 16 0v96a8 8 0 0 1 -8 8z" fill="#b3b3b3"/><path d="m360 256h96v48h-96z" fill="#ff2b63"/><circle cx="448" cy="152" fill="#ff2b63" r="16"/><path d="m454.972 137.616a23.5 23.5 0 0 1 -20.9 22.241 15.993 15.993 0 1 0 20.9-22.241z" fill="#e5235f"/><path d="m411 294a58.962 58.962 0 0 1 -51-29.348v39.348h96v-30.862a58.855 58.855 0 0 1 -45 20.862z" fill="#e5235f"/><path d="m104 376h304v112h-304z" fill="#ff2b63"/><path d="m208 392h96v48h-96z" fill="#808080"/><path d="m290 409.662a127.417 127.417 0 0 1 14 .778v-8.778h-96v38.338a125.5 125.5 0 0 1 82-30.338z" fill="#666"/><path d="m408 344h-304v-240l152-16 152 16z" fill="#8726e2"/><path d="m134 252c-10.11 0-20.111-.459-30-1.309v93.309h304v-226.728c-63.274 81.94-162.465 134.728-274 134.728z" fill="#691daf"/><path d="m136 128h240v160h-240z" fill="#e6e6e6"/><path d="m208 128h16v160h-16z" fill="#b3b3b3"/><path d="m288 128h16v160h-16z" fill="#b3b3b3"/><path d="m408 104c0-44.183-68.053-80-152-80s-152 35.817-152 80z" fill="#ff2b63"/><path d="m104 312v64a32 32 0 0 0 32 32h240a32 32 0 0 0 32-32v-64z" fill="#b3b3b3"/><path d="m104 312v32a32 32 0 0 0 32 32h240a32 32 0 0 0 32-32v-32z" fill="#e6e6e6"/><path d="m200 336c0 8.837-10.745 16-24 16s-24-7.163-24-16v-24h48z" fill="#3ba4f2"/><ellipse cx="176" cy="312" fill="#48bdff" rx="24" ry="16"/><path d="m280 336c0 8.837-10.745 16-24 16s-24-7.163-24-16v-24h48z" fill="#3ba4f2"/><ellipse cx="256" cy="312" fill="#48bdff" rx="24" ry="16"/><path d="m360 336c0 8.837-10.745 16-24 16s-24-7.163-24-16v-24h48z" fill="#3ba4f2"/><ellipse cx="336" cy="312" fill="#48bdff" rx="24" ry="16"/><g fill="#ffcd01"><circle cx="384" cy="464" r="8"/><circle cx="352" cy="464" r="8"/><circle cx="320" cy="464" r="8"/><circle cx="288" cy="464" r="8"/><circle cx="256" cy="464" r="8"/><circle cx="224" cy="464" r="8"/><circle cx="192" cy="464" r="8"/><circle cx="160" cy="464" r="8"/><circle cx="128" cy="464" r="8"/><path d="m224 80h64v-32l-16 8-16-16-16 16-16-8z"/></g><path d="m175.994 232a8 8 0 0 1 -7.149-11.58l10.211-20.42h-11.056a8 8 0 0 1 -16 0v-8a8 8 0 0 1 8-8h32a8 8 0 0 1 7.155 11.578l-16 32a8 8 0 0 1 -7.161 4.422z" fill="#ff2b63"/><path d="m255.994 232a8 8 0 0 1 -7.149-11.58l10.211-20.42h-11.056a8 8 0 0 1 -16 0v-8a8 8 0 0 1 8-8h32a8 8 0 0 1 7.155 11.578l-16 32a8 8 0 0 1 -7.161 4.422z" fill="#ff2b63"/><path d="m176 288a8 8 0 0 1 -6.656-3.562l-16-24a8 8 0 0 1 1-10.095l8-8a8 8 0 0 1 5.656-2.343h16a8 8 0 0 1 5.657 2.343l8 8a8 8 0 0 1 1 10.095l-16 24a8 8 0 0 1 -6.657 3.562zm-5.706-30.98 5.706 8.558 5.706-8.558-1.019-1.02h-9.374z" fill="#ffba01"/><path d="m256 288a8 8 0 0 1 -6.656-3.562l-16-24a8 8 0 0 1 1-10.095l8-8a8 8 0 0 1 5.656-2.343h16a8 8 0 0 1 5.657 2.343l8 8a8 8 0 0 1 1 10.095l-16 24a8 8 0 0 1 -6.657 3.562zm-5.706-30.98 5.706 8.558 5.706-8.558-1.019-1.02h-9.374z" fill="#ffba01"/><path d="m336 176a24 24 0 1 1 24-24 24.028 24.028 0 0 1 -24 24zm0-32a8 8 0 1 0 8 8 8.009 8.009 0 0 0 -8-8z" fill="#3bdabe"/><path d="m335.994 288a8 8 0 0 1 -7.149-11.58l10.211-20.42h-11.056a8 8 0 0 1 -16 0v-8a8 8 0 0 1 8-8h32a8 8 0 0 1 7.155 11.578l-16 32a8 8 0 0 1 -7.161 4.422z" fill="#ff2b63"/><path d="m352 232h-32a8 8 0 0 1 -8-8v-32a8 8 0 0 1 8-8h32a8 8 0 0 1 8 8v32a8 8 0 0 1 -8 8zm-24-16h16v-16h-16z" fill="#ff891f"/><path d="m272 176h-32a8 8 0 0 1 -8-8v-32a8 8 0 0 1 8-8h32a8 8 0 0 1 8 8v32a8 8 0 0 1 -8 8zm-24-16h16v-16h-16z" fill="#ff891f"/><path d="m192 176h-32a8 8 0 0 1 -8-8v-32a8 8 0 0 1 8-8h32a8 8 0 0 1 8 8v32a8 8 0 0 1 -8 8zm-24-16h16v-16h-16z" fill="#ff891f"/><path d="m228 72c-1.339 0-2.671-.031-4-.076v8.076h64v-24.7a115.457 115.457 0 0 1 -60 16.7z" fill="#ffba01"/></g></svg>