<svg id="Capa_1" enable-background="new 0 0 512 512" height="512" viewBox="0 0 512 512" width="512" xmlns="http://www.w3.org/2000/svg" xmlns:xlink="http://www.w3.org/1999/xlink"><linearGradient id="SVGID_1_" gradientTransform="matrix(.983 .185 -.185 .983 32.547 -74.135)" gradientUnits="userSpaceOnUse" x1="411.191" x2="477.782" y1="251.149" y2="135.809"><stop offset="0" stop-color="#c9baec"/><stop offset="1" stop-color="#f3eefa"/></linearGradient><linearGradient id="SVGID_00000038412390573281794510000014964743409601305221_" gradientUnits="userSpaceOnUse" x1="462.826" x2="439.715" y1="144.11" y2="189.86"><stop offset="0" stop-color="#7662bd"/><stop offset="1" stop-color="#7662bd" stop-opacity="0"/></linearGradient><linearGradient id="SVGID_00000055675978354731710670000000718448703947547797_" gradientTransform="matrix(.983 .185 -.185 .983 32.547 -74.135)" gradientUnits="userSpaceOnUse" x1="487.872" x2="451.572" y1="169.059" y2="106.185"><stop offset="0" stop-color="#63141a"/><stop offset=".2842" stop-color="#981f28"/><stop offset=".5147" stop-color="#c62834"/><stop offset=".9681" stop-color="#fb4355"/><stop offset="1" stop-color="#ff4557"/></linearGradient><linearGradient id="lg1"><stop offset="0" stop-color="#59171d"/><stop offset=".1229" stop-color="#641a21"/><stop offset=".7108" stop-color="#972731"/><stop offset="1" stop-color="#ab2c37"/></linearGradient><linearGradient id="SVGID_00000147902675717203208030000004682382587933027471_" gradientUnits="userSpaceOnUse" x1="338.102" x2="332.332" xlink:href="#lg1" y1="372.106" y2="362.112"/><linearGradient id="SVGID_00000078745066117403231740000017272435584896917153_" gradientUnits="userSpaceOnUse" x1="152.593" x2="169.831" y1="245.989" y2="216.131"><stop offset="0" stop-color="#ab2c37"/><stop offset=".1412" stop-color="#b8303c"/><stop offset=".7169" stop-color="#eb414f"/><stop offset="1" stop-color="#ff4757"/></linearGradient><linearGradient id="SVGID_00000108270694361379683580000007223655493187517056_" gradientTransform="matrix(.866 -.5 0 1.155 34.066 90.531)" gradientUnits="userSpaceOnUse" x1="270.641" x2="270.641" y1="176.02" y2="351.729"><stop offset="0" stop-color="#ab2c37"/><stop offset=".2831" stop-color="#bf323f"/><stop offset=".8588" stop-color="#f24352"/><stop offset="1" stop-color="#ff4757"/></linearGradient><linearGradient id="SVGID_00000034070191809979336120000003010809701032453816_" gradientTransform="matrix(.866 -.5 0 1.155 34.066 90.531)" gradientUnits="userSpaceOnUse" x1="178.007" x2="178.007" xlink:href="#lg1" y1="292.685" y2="220.092"/><linearGradient id="SVGID_00000139986216778833000900000008037517860085034412_" gradientTransform="matrix(.866 -.5 0 1.155 34.066 90.531)" gradientUnits="userSpaceOnUse" x1="178.007" x2="178.007" xlink:href="#lg1" y1="187.292" y2="209.696"/><linearGradient id="lg2"><stop offset="0" stop-color="#ffc538"/><stop offset=".1017" stop-color="#ffcc4c"/><stop offset=".3081" stop-color="#fddf7f"/><stop offset=".5" stop-color="#fcf3b3"/><stop offset=".6192" stop-color="#fcf2b0"/><stop offset=".7069" stop-color="#fceea7"/><stop offset=".7844" stop-color="#fde897"/><stop offset=".8561" stop-color="#fde080"/><stop offset=".9238" stop-color="#fed563"/><stop offset=".9876" stop-color="#ffc840"/><stop offset="1" stop-color="#ffc538"/></linearGradient><linearGradient id="SVGID_00000036212624320640158620000000376940394932004757_" gradientTransform="matrix(.866 -.5 0 1.155 34.066 90.531)" gradientUnits="userSpaceOnUse" x1="178.007" x2="178.007" xlink:href="#lg2" y1="278.38" y2="200.019"/><linearGradient id="SVGID_00000039840549639893016750000001952921141224514203_" gradientTransform="matrix(.866 -.5 0 1.155 34.066 90.531)" gradientUnits="userSpaceOnUse" x1="261.385" x2="261.385" xlink:href="#lg1" y1="292.686" y2="220.093"/><linearGradient id="SVGID_00000060712018986999417370000007842605802187395257_" gradientTransform="matrix(.866 -.5 0 1.155 34.066 90.531)" gradientUnits="userSpaceOnUse" x1="261.385" x2="261.385" xlink:href="#lg1" y1="187.293" y2="209.697"/><linearGradient id="SVGID_00000121261075109988219340000004672786933041858708_" gradientTransform="matrix(.866 -.5 0 1.155 34.066 90.531)" gradientUnits="userSpaceOnUse" x1="261.385" x2="261.385" xlink:href="#lg2" y1="278.381" y2="200.02"/><linearGradient id="SVGID_00000031918672792484906510000015434854706962791583_" gradientTransform="matrix(.866 -.5 0 1.155 34.066 90.531)" gradientUnits="userSpaceOnUse" x1="344.764" x2="344.764" xlink:href="#lg1" y1="292.686" y2="220.094"/><linearGradient id="SVGID_00000163047112979158579790000006085118552897878960_" gradientTransform="matrix(.866 -.5 0 1.155 34.066 90.531)" gradientUnits="userSpaceOnUse" x1="344.764" x2="344.764" xlink:href="#lg1" y1="187.294" y2="209.698"/><linearGradient id="SVGID_00000044891876125701776970000002085743283744317887_" gradientTransform="matrix(.866 -.5 0 1.155 34.066 90.531)" gradientUnits="userSpaceOnUse" x1="344.764" x2="344.764" xlink:href="#lg2" y1="278.382" y2="200.021"/><linearGradient id="SVGID_00000084492439331483281390000014577207843646388896_" gradientUnits="userSpaceOnUse" x1="340.684" x2="194.661" y1="271.568" y2="249.565"><stop offset="0" stop-color="#fff"/><stop offset="1" stop-color="#fff" stop-opacity="0"/></linearGradient><linearGradient id="SVGID_00000089544556145999463260000003587485713773550467_" gradientTransform="matrix(.866 -.5 0 1.155 34.066 90.531)" gradientUnits="userSpaceOnUse" x1="270.641" x2="270.641" y1="345.429" y2="157.715"><stop offset="0" stop-color="#ff4757"/><stop offset=".563" stop-color="#ff6673"/><stop offset="1" stop-color="#ff7a85"/></linearGradient><linearGradient id="SVGID_00000162348772978856282520000001472655305641732513_" gradientUnits="userSpaceOnUse" x1="326.033" x2="317.272" xlink:href="#lg1" y1="202.928" y2="218.103"/><g><g><path d="m408.443 259.982-14.617-8.231 64.998-115.418 14.617 8.231z" fill="url(#SVGID_1_)"/></g><path d="m449.779 186.582 23.662-42.018-14.617-8.231-28.297 50.249z" fill="url(#SVGID_00000038412390573281794510000014964743409601305221_)"/><circle cx="466.132" cy="140.449" fill="url(#SVGID_00000055675978354731710670000000718448703947547797_)" r="30.294"/><path d="m460.943 282.603-49.962-41.033v-155.516l-285.177 320.163 54.215 104.363 285.178-164.648c1.599-1.218 2.683-3.137 2.683-5.432v-43.223c-.001-5.682-2.546-11.067-6.937-14.674z" fill="url(#SVGID_00000147902675717203208030000004682382587933027471_)"/><path d="m175.766 447.25-42.582-34.972 270.831-347.251-110.402-63.745-.004.006c-3.566-1.974-8.179-1.748-13.222 1.163l-244.364 141.084c-11.297 6.522-20.455 24.02-20.455 39.083v226.022c0 7.221 3.849 13.895 10.1 17.512l146.766 84.918c4.562 2.64 10.27-.652 10.27-5.923v-43.223c-.001-5.683-2.546-11.067-6.938-14.674z" fill="url(#SVGID_00000078745066117403231740000017272435584896917153_)"/><path d="m390.623 66.101-244.364 141.084c-11.297 6.522-20.455 24.02-20.455 39.083v149.719c0 15.062 9.158 21.986 20.455 15.464l244.364-141.084c11.297-6.522 20.455-24.02 20.455-39.082v-149.72c-.001-15.063-9.159-21.986-20.455-15.464z" fill="url(#SVGID_00000108270694361379683580000007223655493187517056_)"/><g><g><path d="m217.732 202.941-59.026 34.079v115.501l59.026-34.079z" fill="url(#SVGID_00000034070191809979336120000003010809701032453816_)"/><path d="m158.706 352.521 59.026-149.58-59.026 34.079z" fill="url(#SVGID_00000139986216778833000900000008037517860085034412_)"/><path d="m213.36 213.991-50.281 29.03v98.451l50.281-29.03z" fill="#221c36"/><path d="m210.445 219.658-44.452 25.664v90.482l44.452-25.664z" fill="url(#SVGID_00000036212624320640158620000000376940394932004757_)"/><g><path d="m199.439 243.673-23.897 13.797c-2.154 1.244-3.901 4.581-3.901 7.453 0 2.872 1.746 4.193 3.901 2.949l18.322-10.578-11.813 42.463c-1.273 4.575.142 7.967 3.216 7.104 2.283-.641 4.514-3.517 5.41-6.765l13.691-49.683c.474-1.72.564-3.412.227-4.774-.648-2.62-2.82-3.315-5.156-1.966z" fill="#ff4757"/><path d="m184.354 307.879c-.89 0-1.686-.319-2.308-.939-1.428-1.424-1.744-4.198-.848-7.42l11.232-40.376-16.445 9.495c-1.223.706-2.442.78-3.438.206-1.138-.657-1.791-2.086-1.791-3.921 0-3.203 1.908-6.814 4.344-8.22l23.898-13.797c1.452-.839 2.921-1.017 4.133-.501 1.137.484 1.962 1.557 2.324 3.02.368 1.488.285 3.342-.233 5.222l-13.691 49.683c-1.001 3.632-3.479 6.668-6.023 7.382-.399.111-.784.166-1.154.166zm9.509-51.471c.192 0 .384.062.542.186.284.22.407.59.311.937l-11.812 42.463c-.701 2.521-.547 4.755.394 5.692.425.424.993.53 1.73.322 1.916-.538 3.977-3.181 4.795-6.148l13.691-49.683c.439-1.592.518-3.129.222-4.326-.159-.644-.514-1.482-1.3-1.816-.684-.292-1.592-.149-2.554.405l-.442-.767.442.767-23.897 13.797c-1.874 1.082-3.457 4.144-3.457 6.686 0 1.168.338 2.061.905 2.388.541.312 1.205.061 1.667-.206l18.321-10.578c.138-.08.29-.119.442-.119z" fill="#221c36"/></g></g><g><path d="m289.938 161.253-59.026 34.078v115.502l59.026-34.079z" fill="url(#SVGID_00000039840549639893016750000001952921141224514203_)"/><path d="m230.912 310.833 59.026-149.58-59.026 34.078z" fill="url(#SVGID_00000060712018986999417370000007842605802187395257_)"/><path d="m285.566 172.302-50.282 29.03v98.451l50.282-29.03z" fill="#221c36"/><path d="m282.651 177.97-44.452 25.664v90.482l44.452-25.664z" fill="url(#SVGID_00000121261075109988219340000004672786933041858708_)"/><g><path d="m271.645 201.984-23.897 13.797c-2.154 1.244-3.901 4.581-3.901 7.453 0 2.872 1.746 4.193 3.901 2.949l18.322-10.578-11.813 42.463c-1.273 4.574.142 7.967 3.215 7.104 2.283-.641 4.514-3.517 5.41-6.765l13.691-49.683c.474-1.72.564-3.412.227-4.774-.647-2.619-2.819-3.314-5.155-1.966z" fill="#ff4757"/><path d="m256.56 266.191c-.891 0-1.687-.319-2.309-.94-1.428-1.424-1.744-4.198-.848-7.42l11.231-40.376-16.445 9.495c-1.222.706-2.442.779-3.438.206-1.138-.657-1.791-2.086-1.791-3.921 0-3.203 1.908-6.813 4.344-8.219l23.897-13.797c1.452-.839 2.92-1.017 4.133-.501 1.137.484 1.962 1.557 2.324 3.02.368 1.488.285 3.342-.233 5.222l-13.691 49.683c-1.001 3.632-3.477 6.668-6.023 7.383-.396.11-.781.165-1.151.165zm9.509-51.471c.192 0 .384.062.542.186.284.22.407.591.311.937l-11.812 42.463c-.701 2.521-.547 4.755.393 5.692.426.424.994.53 1.731.322 1.916-.538 3.978-3.181 4.795-6.149l13.691-49.683c.44-1.592.518-3.128.222-4.326-.159-.644-.514-1.482-1.3-1.816-.684-.292-1.592-.149-2.554.405l-.442-.767.442.767-23.897 13.797c-1.874 1.082-3.457 4.144-3.457 6.686 0 1.168.338 2.061.905 2.388.54.311 1.204.062 1.667-.206l18.321-10.578c.138-.079.29-.118.442-.118z" fill="#221c36"/></g></g><g><path d="m362.144 119.564-59.026 34.079v115.502l59.026-34.079z" fill="url(#SVGID_00000031918672792484906510000015434854706962791583_)"/><path d="m303.118 269.145 59.026-149.581-59.026 34.079z" fill="url(#SVGID_00000163047112979158579790000006085118552897878960_)"/><path d="m357.772 130.614-50.282 29.03v98.451l50.282-29.03z" fill="#221c36"/><path d="m354.857 136.281-44.452 25.664v90.483l44.452-25.664z" fill="url(#SVGID_00000044891876125701776970000002085743283744317887_)"/><g><path d="m343.851 160.296-23.897 13.797c-2.154 1.244-3.901 4.581-3.901 7.453 0 2.872 1.746 4.193 3.901 2.949l18.322-10.578-11.813 42.463c-1.273 4.575.142 7.967 3.216 7.104 2.283-.641 4.514-3.517 5.41-6.765l13.691-49.683c.474-1.72.564-3.412.227-4.774-.648-2.619-2.82-3.315-5.156-1.966z" fill="#ff4757"/><path d="m328.766 224.502c-.89 0-1.686-.319-2.309-.94-1.427-1.424-1.743-4.198-.847-7.42l11.232-40.376-16.445 9.495c-1.223.706-2.442.78-3.438.206-1.138-.657-1.791-2.087-1.791-3.921 0-3.203 1.908-6.814 4.344-8.219l23.898-13.797c1.451-.838 2.92-1.017 4.133-.501 1.137.484 1.962 1.557 2.324 3.02.368 1.488.285 3.342-.233 5.222l-13.691 49.683c-1.001 3.632-3.479 6.668-6.023 7.383-.398.11-.784.165-1.154.165zm9.509-51.47c.192 0 .384.062.542.186.284.22.407.591.31.937l-11.812 42.463c-.701 2.52-.547 4.755.393 5.692.426.425.994.53 1.731.322 1.916-.538 3.978-3.181 4.795-6.148l13.691-49.683c.439-1.592.518-3.129.222-4.326-.159-.644-.514-1.482-1.299-1.816-.688-.292-1.593-.149-2.555.405l-23.897 13.797c-1.874 1.082-3.457 4.144-3.457 6.686 0 1.168.338 2.061.905 2.388.54.312 1.204.061 1.667-.206l18.321-10.578c.139-.08.291-.119.443-.119z" fill="#221c36"/></g></g></g><path d="m335.672 97.827-189.413 109.358c-11.297 6.522-20.455 24.02-20.455 39.083v149.719c0 15.062 9.158 21.986 20.455 15.464l84.536-48.807z" fill="url(#SVGID_00000084492439331483281390000014577207843646388896_)"/><path d="m387.331 103.763v132.742c0 2.264-1.377 4.895-3.075 5.875l-231.631 133.733c-1.698.98-3.075-.06-3.075-2.324v-132.743c0-2.264 1.377-4.895 3.075-5.875l231.631-133.733c1.698-.98 3.075.061 3.075 2.325zm3.292-37.662-244.364 141.084c-11.297 6.522-20.455 24.02-20.455 39.083v149.719c0 15.062 9.158 21.986 20.455 15.463l244.364-141.084c11.297-6.522 20.455-24.02 20.455-39.082v-149.719c-.001-15.063-9.158-21.986-20.455-15.464z" fill="url(#SVGID_00000089544556145999463260000003587485713773550467_)"/><g fill="#f7e041"><path d="m276.087 147.903c0-5.631-3.423-8.219-7.646-5.781s-7.646 8.979-7.646 14.61 3.423 8.219 7.646 5.781 7.646-8.979 7.646-14.61z"/><path d="m306.557 130.311c0-5.631-3.423-8.219-7.646-5.781s-7.646 8.979-7.646 14.61 3.423 8.219 7.646 5.781c4.223-2.439 7.646-8.98 7.646-14.61z"/><ellipse cx="329.382" cy="117.133" rx="11.739" ry="6.641" transform="matrix(.392 -.92 .92 .392 92.632 374.353)"/><path d="m367.498 95.127c0-5.631-3.423-8.219-7.646-5.781s-7.646 8.979-7.646 14.61 3.423 8.219 7.646 5.781c4.223-2.439 7.646-8.98 7.646-14.61z"/><path d="m401.135 79.928c0-5.631-3.423-8.219-7.646-5.781s-7.646 8.979-7.646 14.61 3.423 8.219 7.646 5.781c4.222-2.438 7.646-8.979 7.646-14.61z"/><path d="m151.039 224.321c0-5.631-3.423-8.219-7.646-5.781s-7.646 8.979-7.646 14.61 3.423 8.219 7.646 5.781 7.646-8.979 7.646-14.61z"/><path d="m184.676 200.679c0-5.631-3.423-8.219-7.646-5.781s-7.646 8.979-7.646 14.61 3.423 8.219 7.646 5.781 7.646-8.979 7.646-14.61z"/><path d="m215.146 183.087c0-5.631-3.423-8.219-7.646-5.78-4.223 2.438-7.646 8.979-7.646 14.61s3.423 8.219 7.646 5.781c4.223-2.439 7.646-8.98 7.646-14.611z"/><path d="m245.617 165.495c0-5.631-3.423-8.219-7.646-5.781s-7.646 8.979-7.646 14.61 3.423 8.219 7.646 5.781c4.222-2.438 7.646-8.979 7.646-14.61z"/><path d="m276.087 320.82c0-5.631-3.423-8.219-7.646-5.78-4.223 2.438-7.646 8.979-7.646 14.61s3.423 8.219 7.646 5.781c4.223-2.44 7.646-8.981 7.646-14.611z"/><path d="m306.557 303.228c0-5.631-3.423-8.219-7.646-5.781s-7.646 8.979-7.646 14.61 3.423 8.219 7.646 5.781c4.223-2.439 7.646-8.98 7.646-14.61z"/><ellipse cx="329.382" cy="290.05" rx="11.739" ry="6.641" transform="matrix(.392 -.92 .92 .392 -66.479 479.565)"/><path d="m367.498 268.043c0-5.631-3.423-8.219-7.646-5.781s-7.646 8.979-7.646 14.61 3.423 8.219 7.646 5.781 7.646-8.979 7.646-14.61z"/><path d="m401.135 244.402c0-5.631-3.423-8.219-7.646-5.781s-7.646 8.979-7.646 14.61 3.423 8.219 7.646 5.78c4.222-2.438 7.646-8.979 7.646-14.609z"/><ellipse cx="143.393" cy="393.209" rx="11.739" ry="6.641" transform="matrix(.392 -.92 .92 .392 -274.567 371.193)"/><path d="m184.676 373.596c0-5.631-3.423-8.219-7.646-5.78-4.223 2.438-7.646 8.979-7.646 14.61s3.423 8.219 7.646 5.78c4.223-2.438 7.646-8.979 7.646-14.61z"/><path d="m215.146 356.004c0-5.631-3.423-8.219-7.646-5.78-4.223 2.438-7.646 8.979-7.646 14.61s3.423 8.219 7.646 5.781c4.223-2.439 7.646-8.98 7.646-14.611z"/><path d="m245.617 338.412c0-5.631-3.423-8.219-7.646-5.78-4.223 2.438-7.646 8.979-7.646 14.61s3.423 8.219 7.646 5.78c4.222-2.438 7.646-8.979 7.646-14.61z"/><g><ellipse cx="136.967" cy="274.055" rx="11.739" ry="6.641" transform="matrix(.392 -.92 .92 .392 -168.837 292.779)"/><path d="m136.967 324.878c4.223-2.438 7.646-8.979 7.646-14.61s-3.423-8.219-7.646-5.78c-4.223 2.438-7.646 8.979-7.646 14.61-.001 5.63 3.423 8.218 7.646 5.78z"/><path d="m136.967 365.505c4.223-2.438 7.646-8.979 7.646-14.61s-3.423-8.219-7.646-5.781-7.646 8.979-7.646 14.61c-.001 5.631 3.423 8.219 7.646 5.781z"/></g><g><path d="m399.442 132.71c4.223-2.438 7.646-8.979 7.646-14.61s-3.423-8.219-7.646-5.781-7.646 8.979-7.646 14.61 3.423 8.219 7.646 5.781z"/><path d="m399.442 173.337c4.223-2.438 7.646-8.979 7.646-14.61s-3.423-8.219-7.646-5.781-7.646 8.979-7.646 14.61 3.423 8.219 7.646 5.781z"/><ellipse cx="399.442" cy="203.769" rx="11.739" ry="6.641" transform="matrix(.392 -.92 .92 .392 55.542 491.534)"/></g></g><path d="m152.625 376.113 231.632-133.733c1.698-.98 3.074-3.611 3.074-5.875v-132.742c0-2.265-1.377-3.305-3.074-2.325l-10.928 6.309v125.936c0 2.264-1.376 4.894-3.075 5.875l-220.703 127.424v6.806c0 2.265 1.376 3.306 3.074 2.325z" fill="url(#SVGID_00000162348772978856282520000001472655305641732513_)"/><path d="m196.559 391.65-24.264 14.098c-1.751 1.017-1.949 3.469-.384 4.754l20.889 17.156c1.908 1.567 4.588 1.783 6.723.543l24.265-14.097c1.751-1.017 1.949-3.469.384-4.754l-20.89-17.157c-1.908-1.567-4.589-1.784-6.723-.543z" fill="#f7e041"/><path d="m235.565 369.146-24.264 14.098c-1.751 1.017-1.949 3.469-.384 4.755l20.889 17.156c1.908 1.567 4.588 1.783 6.723.543l24.265-14.097c1.751-1.017 1.949-3.469.384-4.755l-20.89-17.157c-1.908-1.567-4.589-1.783-6.723-.543z" fill="#f7e041"/><path d="m274.571 346.643-24.264 14.098c-1.751 1.017-1.949 3.469-.384 4.754l20.889 17.156c1.908 1.567 4.588 1.783 6.723.543l24.265-14.097c1.751-1.017 1.949-3.469.384-4.755l-20.89-17.157c-1.908-1.566-4.589-1.783-6.723-.542z" fill="#f7e041"/><path d="m398.299 274.841-24.264 14.098c-1.751 1.017-1.949 3.469-.384 4.754l20.889 17.156c1.908 1.567 4.588 1.783 6.723.543l24.265-14.097c1.751-1.017 1.949-3.469.384-4.755l-20.89-17.157c-1.908-1.566-4.589-1.782-6.723-.542z" fill="#e9e5f6"/></g></svg>