<?xml version="1.0" encoding="iso-8859-1"?>
<!-- Generator: Adobe Illustrator 19.0.0, SVG Export Plug-In . SVG Version: 6.00 Build 0)  -->
<svg version="1.1" id="Capa_1" xmlns="http://www.w3.org/2000/svg" xmlns:xlink="http://www.w3.org/1999/xlink" x="0px" y="0px"
	 viewBox="0 0 512.002 512.002" style="enable-background:new 0 0 512.002 512.002;" xml:space="preserve">
<rect x="477.68" y="211.391" style="fill:#068F8F;" width="15" height="186.86"/>
<path style="fill:#EE3835;" d="M278.053,71.682c0.293,2.819-1.786,5.126-4.619,5.126h-75.493c-2.833,0-4.878-2.303-4.545-5.117
	l6.625-55.961c0.334-2.815,2.924-5.118,5.757-5.118h60.781c2.833,0,5.39,2.307,5.683,5.126L278.053,71.682z"/>
<ellipse style="fill:#FECF05;" cx="235.98" cy="63.755" rx="14.495" ry="14.505"/>
<path style="opacity:0.1;enable-background:new    ;" d="M208.647,71.69l6.625-55.961c0.334-2.815,2.924-5.118,5.757-5.118h-15.251
	c-2.833,0-5.424,2.303-5.757,5.118l-6.625,55.961c-0.333,2.814,1.712,5.117,4.545,5.117h15.251
	C210.359,76.808,208.314,74.505,208.647,71.69z"/>
<path style="fill:#0059AD;" d="M306.776,97.365c0,2.835-2.318,5.153-5.151,5.153h-131.81c-2.833,0-5.151-2.318-5.151-5.153V72.506
	c0-2.834,2.318-5.153,5.151-5.153h131.81c2.833,0,5.151,2.319,5.151,5.153V97.365z"/>
<path style="fill:#FECF05;" d="M500.297,415.884c0,10.83-8.776,19.609-19.601,19.609h-36.102c-10.826,0-19.601-8.779-19.601-19.609
	v-25.67c0-10.83,8.775-19.609,19.601-19.609h36.102c10.825,0,19.601,8.779,19.601,19.609V415.884z"/>
<path style="fill:#EE3835;" d="M462.484,444.342c0,2.834-2.318,5.153-5.151,5.153h-33.025c-2.833,0-5.151-2.319-5.151-5.153v-82.586
	c0-2.834,2.318-5.153,5.151-5.153h33.025c2.833,0,5.151,2.319,5.151,5.153V444.342z"/>
<path style="fill:#068F8F;" d="M426.462,473.891c0,5.668-4.636,10.306-10.302,10.306H55.281c-5.666,0-10.302-4.638-10.302-10.306
	V99.927c0-5.668,4.636-10.307,10.302-10.307H416.16c5.666,0,10.302,4.639,10.302,10.307V473.891z"/>
<path style="opacity:0.1;enable-background:new    ;" d="M63.04,473.891V99.927c0-5.668,4.636-10.307,10.302-10.307H55.281
	c-5.666,0-10.302,4.639-10.302,10.307v373.964c0,5.668,4.636,10.306,10.302,10.306h18.062
	C67.677,484.196,63.04,479.559,63.04,473.891z"/>
<path style="fill:#F7931E;" d="M434.763,314.988c0,5.668-4.636,10.307-10.302,10.307H46.98c-5.666,0-10.302-4.639-10.302-10.307
	v-153.93c0-5.668,4.636-10.307,10.302-10.307h377.48c5.666,0,10.302,4.639,10.302,10.307L434.763,314.988L434.763,314.988z"/>
<path style="opacity:0.1;enable-background:new    ;" d="M54.681,314.988v-153.93c0-5.668,4.636-10.307,10.302-10.307H46.98
	c-5.666,0-10.302,4.639-10.302,10.307v153.93c0,5.668,4.636,10.307,10.302,10.307h18.002
	C59.316,325.295,54.681,320.656,54.681,314.988z"/>
<path style="fill:#C0272D;" d="M324.081,474.659c0,5.669-4.636,10.307-10.302,10.307H157.662c-5.666,0-10.302-4.638-10.302-10.307
	V371.587c0-5.669,4.636-10.307,10.302-10.307H313.78c5.666,0,10.302,4.638,10.302,10.307v103.072H324.081z"/>
<path style="opacity:0.1;enable-background:new    ;" d="M165.344,474.659V371.587c0-5.669,4.636-10.307,10.302-10.307h-17.984
	c-5.666,0-10.302,4.638-10.302,10.307v103.072c0,5.669,4.636,10.307,10.302,10.307h17.984
	C169.98,484.966,165.344,480.328,165.344,474.659z"/>
<path style="fill:#F7931E;" d="M207.829,445.198v-14.593c0-2.834-2.318-5.152-5.151-5.152H144.4c-2.833,0-5.151,2.318-5.151,5.152
	v14.593c0,2.834,2.318,5.153,5.151,5.153c-2.833,0-5.151,2.318-5.151,5.153v14.593c0,2.835,2.318,5.153,5.151,5.153h58.278
	c2.833,0,5.151-2.318,5.151-5.153v-14.593c0-2.835-2.318-5.153-5.151-5.153C205.511,450.352,207.829,448.032,207.829,445.198z"/>
<path style="fill:#FECF05;" d="M324.081,470.098c0,2.835-2.318,5.153-5.151,5.153h-58.278c-2.833,0-5.151-2.318-5.151-5.153v-14.593
	c0-2.835,2.318-5.153,5.151-5.153h58.278c2.833,0,5.151,2.318,5.151,5.153V470.098z"/>
<path style="fill:#FFFFFF;" d="M182.089,287.476c0,5.668-4.636,10.307-10.302,10.307H85.126c-5.666,0-10.302-4.639-10.302-10.307
	v-98.619c0-5.669,4.636-10.307,10.302-10.307h86.661c5.666,0,10.302,4.638,10.302,10.307V287.476z"/>
<path style="fill:#0059AD;" d="M110.459,278.929c-1.787,0-3.581-0.635-5.014-1.925c-3.08-2.771-3.33-7.512-0.56-10.592
	l40.859-45.415c0.653-0.727,1.522-2.989,1.522-3.968v-4.628h-40.691c-4.142,0-7.5-3.357-7.5-7.5s3.358-7.5,7.5-7.5h43.04
	c6.976,0,12.651,5.676,12.651,12.652v6.976c0,4.651-2.258,10.538-5.369,13.999l-40.861,45.417
	C114.556,278.091,112.512,278.929,110.459,278.929z"/>
<path style="fill:#FFFFFF;" d="M289.353,287.476c0,5.668-4.636,10.307-10.302,10.307H192.39c-5.666,0-10.302-4.639-10.302-10.307
	v-98.619c0-5.669,4.636-10.307,10.302-10.307h86.661c5.666,0,10.302,4.638,10.302,10.307V287.476z"/>
<path style="fill:#0059AD;" d="M215.509,278.929c-1.787,0-3.581-0.635-5.014-1.925c-3.08-2.77-3.33-7.512-0.56-10.592l40.858-45.415
	c0.653-0.727,1.522-2.989,1.522-3.968v-4.628h-40.69c-4.142,0-7.5-3.357-7.5-7.5s3.358-7.5,7.5-7.5h43.039
	c6.976,0,12.651,5.676,12.651,12.652v6.976c0,4.651-2.258,10.538-5.369,13.999l-40.86,45.417
	C219.606,278.091,217.562,278.929,215.509,278.929z"/>
<path style="fill:#FFFFFF;" d="M396.616,287.476c0,5.668-4.636,10.307-10.302,10.307h-86.659c-5.666,0-10.302-4.639-10.302-10.307
	v-98.619c0-5.669,4.636-10.307,10.302-10.307h86.659c5.666,0,10.302,4.638,10.302,10.307V287.476z"/>
<path style="fill:#F8B816;" d="M386.314,171.05h-86.659c-3.84,0-7.391,1.235-10.302,3.312c-2.911-2.076-6.462-3.312-10.302-3.312
	H192.39c-3.84,0-7.391,1.235-10.302,3.312c-2.911-2.076-6.462-3.312-10.302-3.312h-86.66c-9.816,0-17.802,7.988-17.802,17.807
	v98.619c0,9.818,7.986,17.807,17.802,17.807h86.661c3.84,0,7.391-1.235,10.302-3.312c2.911,2.076,6.462,3.312,10.302,3.312h86.661
	c3.84,0,7.391-1.235,10.302-3.312c2.911,2.076,6.462,3.312,10.302,3.312h86.659c9.816,0,17.802-7.988,17.802-17.807v-98.619
	C404.116,179.038,396.13,171.05,386.314,171.05z M171.787,290.282H85.126c-1.519,0-2.802-1.285-2.802-2.807v-98.619
	c0-1.521,1.283-2.807,2.802-2.807h86.661c1.519,0,2.802,1.285,2.802,2.807v98.619C174.589,288.997,173.306,290.282,171.787,290.282z
	 M279.052,290.282h-86.661c-1.519,0-2.802-1.285-2.802-2.807v-98.619c0-1.521,1.283-2.807,2.802-2.807h86.661
	c1.518,0,2.802,1.285,2.802,2.807v98.619C281.853,288.997,280.57,290.282,279.052,290.282z M389.116,287.476
	c0,1.521-1.283,2.807-2.802,2.807h-86.659c-1.519,0-2.802-1.285-2.802-2.807v-98.619c0-1.521,1.283-2.807,2.802-2.807h86.659
	c1.519,0,2.802,1.285,2.802,2.807V287.476z"/>
<path style="fill:#0059AD;" d="M322.773,278.929c-1.787,0-3.58-0.635-5.014-1.925c-3.08-2.77-3.33-7.512-0.56-10.592l40.859-45.415
	c0.653-0.726,1.522-2.989,1.522-3.968v-4.628h-40.69c-4.142,0-7.5-3.357-7.5-7.5s3.358-7.5,7.5-7.5h43.04
	c6.976,0,12.651,5.676,12.651,12.652v6.976c0,4.65-2.257,10.537-5.368,13.998l-40.861,45.418
	C326.871,278.091,324.826,278.929,322.773,278.929z"/>
<path style="fill:#E9EAEC;" d="M70.987,436.56c0,5.668,4.636,10.307,10.302,10.307h23.695c5.666,0,10.302-4.639,10.302-10.307
	v-70.393c0-5.668-4.636-10.306-10.302-10.306H81.289c-5.666,0-10.302,4.638-10.302,10.306V436.56z"/>
<path style="fill:#0059AD;" d="M93.328,426.369c-4.142,0-7.5-3.357-7.5-7.5v-35.01c0-4.143,3.358-7.5,7.5-7.5s7.5,3.357,7.5,7.5
	v35.01C100.828,423.012,97.47,426.369,93.328,426.369z"/>
<path style="fill:#FECF05;" d="M207.829,470.098c0,2.835-2.318,5.153-5.151,5.153H144.4c-2.833,0-5.151-2.318-5.151-5.153v-14.593
	c0-2.835,2.318-5.153,5.151-5.153h58.278c2.833,0,5.151,2.318,5.151,5.153V470.098z"/>
<path style="fill:#F7931E;" d="M207.829,445.198c0,2.834-2.318,5.153-5.151,5.153H144.4c-2.833,0-5.151-2.319-5.151-5.153v-14.593
	c0-2.834,2.318-5.152,5.151-5.152h58.278c2.833,0,5.151,2.318,5.151,5.152V445.198z"/>
<ellipse style="fill:#F8B816;" cx="377.25" cy="408.611" rx="23.86" ry="23.872"/>
<ellipse style="fill:#EE3835;" cx="485.18" cy="208.631" rx="26.822" ry="26.837"/>
<path style="fill:#F8B816;" d="M471.441,496.237c0,2.835-2.318,5.153-5.15,5.153H5.151c-2.833,0-5.151-2.318-5.151-5.153v-18.593
	c0-2.834,2.318-5.153,5.151-5.153h461.14c2.832,0,5.15,2.319,5.15,5.153V496.237z"/>
<path style="opacity:0.1;enable-background:new    ;" d="M28.33,496.237v-18.593c0-2.834,2.318-5.153,5.151-5.153H5.151
	c-2.833,0-5.151,2.32-5.151,5.154v18.593c0,2.835,2.318,5.153,5.151,5.153h28.33C30.648,501.391,28.33,499.072,28.33,496.237z"/>
<circle style="fill:#FFFFFF;" cx="87.86" cy="120.511" r="7.771"/>
<circle style="fill:#FECF05;" cx="124.95" cy="120.511" r="7.771"/>
<circle style="fill:#FFFFFF;" cx="162.04" cy="120.511" r="7.771"/>
<circle style="fill:#FECF05;" cx="199.12" cy="120.511" r="7.771"/>
<circle style="fill:#FFFFFF;" cx="236.21" cy="120.511" r="7.771"/>
<circle style="fill:#FECF05;" cx="273.3" cy="120.511" r="7.771"/>
<circle style="fill:#FFFFFF;" cx="310.38" cy="120.511" r="7.771"/>
<circle style="fill:#FECF05;" cx="347.47" cy="120.511" r="7.771"/>
<circle style="fill:#FFFFFF;" cx="384.56" cy="120.511" r="7.771"/>
<g>
</g>
<g>
</g>
<g>
</g>
<g>
</g>
<g>
</g>
<g>
</g>
<g>
</g>
<g>
</g>
<g>
</g>
<g>
</g>
<g>
</g>
<g>
</g>
<g>
</g>
<g>
</g>
<g>
</g>
</svg>
