<svg id="icons" height="512" viewBox="0 0 340 340" width="512" xmlns="http://www.w3.org/2000/svg"><path d="m293.663 167.61v56.505a12.832 12.832 0 0 1 -12.832 12.832h-8.894v17.122h10.982a27.866 27.866 0 0 0 27.866-27.869v-65.082c-6.717-3.327-12.272-.333-17.122 6.492z" fill="#e4e7f2"/><path d="m262.793 167.973h-14.361l5.838 159.438h8.523a11.3 11.3 0 0 0 11.3-11.3v-136.84a11.3 11.3 0 0 0 -11.3-11.298z" fill="#9aa6c1"/><path d="m134.062 74.365-120.209 4.967v174.737l120.209 3.214 120.208-3.214v-174.737z" fill="#3c3c4f"/><path d="m13.853 254.069h240.417v73.343h-240.417z" fill="#e4e7f2"/><path d="m34.933 116.731h53.241v87.122h-53.241z" fill="#fff"/><path d="m48.681 146.994v13.3h10.419a47.152 47.152 0 0 0 -10.422 20.532h16.322a28.2 28.2 0 0 1 5.859-11.617 15.006 15.006 0 0 0 3.571-9.766v-12.449z" fill="#ea4e70"/><path d="m107.441 116.731h53.241v87.122h-53.241z" fill="#fff"/><path d="m179.949 116.731h53.241v87.122h-53.241z" fill="#fff"/><path d="m193.7 146.994v13.3h10.423a47.164 47.164 0 0 0 -10.423 20.53h16.316a28.2 28.2 0 0 1 5.86-11.617 15.006 15.006 0 0 0 3.571-9.766v-12.447z" fill="#ea4e70"/><path d="m121.188 146.994v13.3h10.423a47.164 47.164 0 0 0 -10.423 20.532h16.317a28.2 28.2 0 0 1 5.859-11.617 15.006 15.006 0 0 0 3.571-9.766v-12.449z" fill="#ea4e70"/><g fill="#9aa6c1"><rect height="33.415" rx="6.224" width="21.185" x="36.045" y="275.393"/><rect height="33.415" rx="6.224" width="21.185" x="74.427" y="275.393"/><rect height="33.415" rx="6.224" width="21.185" x="112.865" y="275.393"/></g><rect fill="#3c3c4f" height="16.141" rx="5.882" width="69.12" x="160.956" y="283.62"/><path d="m293.663 167.61 17.122-6.492v-32.393h-17.122z" fill="#9aa6c1"/><circle cx="302.224" cy="115.724" fill="#3c3c4f" r="23.923"/><path d="m248.149 48.172c-25.945-23.43-70.177-35.291-114.1-35.583a167.623 167.623 0 0 0 0 66.743h120.221v-16.588a19.545 19.545 0 0 0 -6.121-14.572z" fill="#f48f3b"/><path d="m134.05 12.6c-45.032-.3-89.739 11.55-114.076 35.572a20.488 20.488 0 0 0 -6.121 14.572v16.588h120.2z" fill="#ffb655"/><path d="m134.062 57.87-11.792 6.199 2.252-13.13-9.539-9.299 13.183-1.915 5.896-11.946 5.895 11.946 13.184 1.915-9.54 9.299 2.252 13.13z" fill="#fff"/><path d="m76.23 58.976-9.688 5.093 1.85-10.788-7.838-7.641 10.832-1.574 4.844-9.815 4.845 9.815 10.832 1.574-7.838 7.641 1.85 10.788z" fill="#fff"/><path d="m192.225 58.976 9.689 5.093-1.85-10.788 7.838-7.641-10.832-1.574-4.845-9.815-4.844 9.815-10.832 1.574 7.838 7.641-1.85 10.788z" fill="#fff"/></svg>