<svg id="Layer_1" enable-background="new 0 0 512 512" viewBox="0 0 512 512" xmlns="http://www.w3.org/2000/svg"><g><g><g><g><path d="m272 354.6-125.2.1c-17.5 0-31.7-14.2-31.7-31.7l-.1-185.9c0-17.5 14.2-31.7 31.7-31.7l125.2-.1c17.5 0 31.7 14.2 31.7 31.7l.1 185.8c.1 17.6-14.1 31.8-31.7 31.8z" fill="#e6e7e8"/></g></g><g><g><path d="m146.7 362.6c-21.7 0-39.4-17.7-39.4-39.4l-.1-185.8c0-10.5 4.1-20.4 11.5-27.9 7.4-7.4 17.3-11.5 27.8-11.5h125.3c21.7 0 39.4 17.7 39.4 39.4l.1 185.8c0 10.5-4.1 20.4-11.5 27.9-7.4 7.4-17.3 11.5-27.8 11.5zm125.1-249.2-125.2.1c-6.4 0-12.5 2.5-17 7.1-4.5 4.5-7 10.6-7 17l.1 185.8c0 13.3 10.8 24 24.1 24v7.7-7.7l125.2-.1c6.4 0 12.5-2.5 17-7.1 4.5-4.5 7-10.6 7-17l-.1-185.8c0-13.3-10.8-24-24.1-24z" fill="#414042"/></g></g><g><g><path d="m263 239.2-45.3-52.6c-4.5-5.2-12.6-5.2-17 0l-45.2 52.6c-3.6 4.2-3.6 10.4 0 14.7l45.3 52.6c4.5 5.2 12.6 5.2 17 0l45.2-52.6c3.7-4.3 3.7-10.5 0-14.7z" fill="#d04527"/></g></g><g><g><g><path d="m307.1 368.6-117.5-43.3c-16.4-6.1-24.8-24.3-18.8-40.7l64.3-174.3c6.1-16.4 24.3-24.8 40.7-18.8l117.5 43.3c16.4 6.1 24.8 24.3 18.8 40.7l-64.3 174.3c-6 16.4-24.2 24.8-40.7 18.8z" fill="#e6e7e8"/></g></g><g><g><path d="m317.9 378.5c-4.6 0-9.2-.8-13.6-2.4l-117.5-43.3c-20.4-7.5-30.8-30.2-23.3-50.6l64.3-174.3c5.7-15.4 20.5-25.8 37-25.8 4.6 0 9.2.8 13.6 2.4l117.5 43.3c9.9 3.6 17.7 10.9 22.1 20.5s4.8 20.3 1.2 30.1l-64.3 174.3c-5.7 15.4-20.6 25.8-37 25.8zm-53.2-281.1c-10 0-19.1 6.3-22.6 15.7l-64.3 174.3c-4.6 12.4 1.8 26.3 14.2 30.9l117.5 43.3c2.7 1 5.5 1.5 8.3 1.5 10 0 19.1-6.3 22.6-15.7l64.3-174.3c2.2-6 2-12.6-.7-18.4s-7.5-10.3-13.5-12.5l-117.5-43.3c-2.7-1-5.5-1.5-8.3-1.5z" fill="#414042"/></g></g></g><g><g><g><path d="m143.4 182.7 14.9-18.4-2.2-.3c-5-.6-9.1-2.3-12.3-5-3.8-3.2-5.6-7.4-5.6-12.9 0-6.7 1.9-11.9 6-15.8 2-1.9 4.2-3.4 6.8-4.3 2.3-.9 4.9-1.3 7.8-1.3 5.8 0 10.5 1.8 14.3 5.6 4 4 5.9 9.1 5.9 15.6 0 3.6-.8 7.2-2.4 10.6-1.5 3-4.1 6.9-7.9 11.5l-11.9 14.8zm12.2-46.1c-1.2.4-2.3 1.2-3.3 2.1-1.8 1.8-2.6 3.9-2.6 6.3s.9 4.5 2.7 6.3c1.8 1.7 3.9 2.6 6.3 2.6 1.1 0 2.1-.2 3-.5 1.2-.4 2.3-1.2 3.3-2.1 1.8-1.8 2.6-3.9 2.6-6.3s-.9-4.5-2.7-6.2-3.9-2.6-6.3-2.6c-1.1-.2-2.1 0-3 .4z" fill="#d04527"/></g></g></g><g><g><path d="m323.5 235.6c-.1 0-.2-.1-.3-.1 2.6-3 4.7-6.5 6.1-10.5 6.1-17.2-3-36-20.1-42.1-17.2-6.1-36 3-42.1 20.1-1.4 4-2 8-1.8 11.9-.1 0-.2-.1-.3-.1-17.2-6.1-36 3-42.1 20.1-6.1 17.2 3 36 20.1 42.1 10.8 3.8 22.2 1.6 30.7-4.8-4.3 9-11.9 22.2-22.4 30.5-3.5 2.7-2.6 8.2 1.5 9.6l9.5 3.4 9.5 3.4c4.1 1.5 8.2-2.2 7.2-6.5-3-13.1-.6-28.1 1.6-37.8 2.6 10.3 10.1 19.2 20.9 23 17.2 6.1 36-3 42.1-20.1 6.1-17.2-2.9-36-20.1-42.1z" fill="#414042"/></g></g><g><g><path d="m298.4 130.4 4.3 1.6 2.9-8.1-19.7-7.2-3 8.1 3.4 1.2-22.1 8.9 5.4-14.9 6.6 2.4 2.9-8.1-19.8-7.2-2.9 8.1 5.1 1.9-12.6 34.8-5.2-1.8-2.9 8 19.8 7.2 2.9-8.1-6.5-2.3 3.3-9.2 7.2-2.9 6.8 18.4-4-1.5-3 8.1 19.8 7.1 2.9-8-5.1-1.9-9.4-25.4z" fill="#414042"/></g></g></g><g><g><g><path d="m25.1 376.5h10.8v14.1h-10.8z" fill="#e6e7e8"/></g></g><g><g><path d="m171.1 376.5h10.8v14.1h-10.8z" fill="#e6e7e8"/></g></g><g><g><path d="m223.9 376.5h10.8v14.1h-10.8z" fill="#e6e7e8"/></g></g><g><g><g><g><path d="m476.3 387.4h-6.8v-2.1h17.4v-34.4h-64.6v14l-5.6-13.5h-22.7l-15.5 36.4h-8.6c2.7-3.8 4.1-8.4 4.1-13.6 0-5.6-1.7-10.6-5.1-14.8-4.1-5.2-11.9-8.2-20.7-8.2h-8.6-30.5v26.3h5v10.4h-3l-15.1-36.5h-22.7l-12.3 28.9v-10c0-11.2-9.7-20.4-21.7-20.4h-20.1c-5.6 0-10.9 2-14.9 5.6-.8.7-1.4 1.4-2.1 2.2-4-4.7-10.1-7.8-17-7.8h-20.1c-5.6 0-10.9 2-14.9 5.6-4.3 3.8-6.8 9.2-6.8 14.8v11.5l-12.6-30.3h-22.7l-13.2 31.2c-.3-.6-.6-1.2-1-1.8-.5-.8-1-1.5-1.6-2.2.5-1.8.7-3.8.7-5.9 0-12.9-8.4-21-21.9-21h-14.2-31.8v27h5.7v8.8h-5.7v27h47.3c4 0 7.5-.6 10.6-1.8v1.9h72.7v-2.1c2.9 1.3 6 2.1 9.4 2.1h20.1c5.6 0 10.9-2 14.9-5.6.8-.7 1.4-1.4 2.1-2.2 4 4.7 10.1 7.8 17 7.8h20.1c3.2 0 6.2-.7 8.9-1.8v1.8h12.8 17.6 42.2 48 12.8 17.6 42.2 34.7zm-302.1-2.5v-5.3h1.9v5.3zm54.2-.1v-5.3h1.9v5.3zm202.4.5h8.9v2.1h-6.4v.5h-1.4z" fill="#e6e7e8"/></g></g><g><g><path d="m239.4 349.8c12 0 21.7 9.1 21.7 20.4v10l12.3-28.9h22.7l15.2 36.4h3v-10.4h-5v-26.3h30.5 8.6c8.8 0 16.6 3.1 20.7 8.3 3.4 4.2 5.1 9.2 5.1 14.8 0 5.2-1.4 9.8-4.1 13.6h8.6l15.5-36.4h22.7l5.6 13.5v-14h64.6v34.4h-17.4v2.1h6.8v27.2h-34.7-42.2-17.6-13-48-42.2-17.6-12.8v-1.8c-2.7 1.2-5.7 1.8-8.9 1.8h-20.1c-6.9 0-13-3-17-7.8-.6.8-1.3 1.5-2.1 2.2-4 3.6-9.4 5.6-14.9 5.6h-20.1c-3.4 0-6.6-.8-9.4-2.1v2.1h-72.7v-1.9c-3.1 1.2-6.7 1.8-10.6 1.8h-47.3v-27h5.7v-8.8h-5.7v-27h31.8 14.2c13.5 0 21.9 8 21.9 21 0 2.1-.2 4.1-.7 5.9.6.7 1.1 1.4 1.6 2.2.4.6.7 1.2 1 1.8l13.2-31.2h22.7l12.6 30.3v-11.5c0-5.6 2.5-11 6.8-14.8 4-3.6 9.4-5.6 14.9-5.6h20.1c6.9 0 13 3 17 7.8.6-.8 1.3-1.5 2.1-2.2 4-3.6 9.4-5.6 14.9-5.6zm-11 35h1.9v-5.3h-1.9zm-54.2.1h1.9v-5.3h-1.9zm257.7 3h1.4v-.5h6.4v-2.1h-8.9zm-192.5-53.4h-20.1c-6 0-11.8 1.4-17 4-5.2-2.6-11-4-17-4h-20.1c-8.2 0-16 2.6-22.4 7.3-2.9-3.5-7.2-5.7-11.9-5.7h-22.7c-5.5 0-10.6 3-13.3 7.7-6.3-4.7-14.4-7.4-23.7-7.4h-13.6c-.2 0-.4 0-.6 0h-31.8c-4.1 0-8 1.6-10.8 4.5s-4.5 6.8-4.5 10.8v27c0 1.5.2 3 .6 4.4-.4 1.4-.6 2.9-.6 4.4v27c0 8.5 6.9 15.3 15.3 15.3h47.3c2.3 0 4.5-.1 6.6-.4 1.3.3 2.6.5 4 .5h72.7c1.2 0 2.5-.2 3.7-.4 1.9.3 3.8.4 5.8.4h20.1c6 0 11.8-1.4 17-4 5.2 2.6 11 4 17 4h20.1c1.8 0 3.7-.1 5.5-.4 1.1.3 2.3.4 3.4.4h12.8 17.6 42.2 48 12.8 17.6 42.2 34.7c4.1 0 8-1.6 10.8-4.5 2.9-2.9 4.5-6.8 4.5-10.8v-14.7c6.1-2 10.6-7.8 10.6-14.6v-34.4c0-8.5-6.9-15.3-15.3-15.3h-64.6c-1.4 0-2.8.2-4.1.6-.5 0-1-.1-1.5-.1h-22.7c-6.1 0-11.7 3.7-14.1 9.3l-.9 2.2c-7.2-7.5-18.2-11.8-30.7-11.8h-7.7c-.3 0-.6 0-.9 0h-30.5c-2.5 0-4.8.6-6.8 1.6-1.9-.9-4.1-1.4-6.3-1.4h-22.7c-4.6 0-8.9 2.1-11.8 5.6-6.3-4.4-13.9-7.1-22.2-7.1z" fill="#414042"/></g></g><g><g><g><path d="m78.5 381.8c1.5-.9 2.7-2 3.4-3.3.9-1.5 1.3-3.4 1.3-5.7 0-7.6-4.1-11.3-12.2-11.3h-23.8-12.5v7.7h5.7v28.1h-5.7v7.7h5.7 6.7 25.1c5.5 0 9.5-1.5 12.2-4.4 1.8-2 2.8-4.7 2.8-7.9 0-2.5-.6-4.7-1.7-6.6-1.2-2.2-3.5-3.6-7-4.3zm-26.7-11.8h15.9c1.1 0 1.9.1 2.5.3 1.8.6 2.7 1.9 2.7 3.9 0 1.1-.3 2.1-1 2.8-.8 1-2.2 1.4-4.2 1.4h-15.9zm22.3 25.2c-1.1.7-3.2 1-6 1h-16.3v-9.2h16.1c2 0 3.4.1 4.3.2 2.6.4 3.9 1.9 3.9 4.5-.1 1.6-.7 2.8-2 3.5z" fill="#d04527"/></g></g><g><g><path d="m124.3 361.1h-9.9l-15.5 36.5h-6.3v1.4 5.9h3.2 11.4 5.7 2.6v-7.3h-5l1.4-3h15.1l1.1 3h-5.2v7.3h2 5.9 11.5 2.8.6v-7.3h-6.5zm-10.3 27.5 5.3-14 5.2 14z" fill="#d04527"/></g></g><g><g><path d="m289.6 361.1h-9.9l-15.5 36.5h-6.3v1.4 5.9h3.2 11.4 5.7 2.6v-7.3h-5l1.4-3h15.1l1.1 3h-5.2v7.3h2 5.9 11.5 2.8.6v-7.3h-6.5zm-10.3 27.5 5.3-14 5.2 14z" fill="#d04527"/></g></g><g><g><path d="m185.2 359.5h-20.1c-6.6 0-12.1 4.8-12 10.8v23.9c0 5.9 5.4 10.7 12.1 10.7h20.1c6.6 0 12-4.8 12-10.8v-5.2h-11.5v5.2c0 .1-.2.3-.5.3h-20.1c-.3 0-.5-.2-.5-.3v-23.9c0-.1.2-.3.5-.3h20.1c.3 0 .5.2.5.3v5.5h11.5v-5.5c0-5.9-5.5-10.7-12.1-10.7z" fill="#d04527"/></g></g><g><g><path d="m239.4 359.5h-20.1c-6.6 0-12.1 4.8-12 10.8v23.9c0 5.9 5.4 10.7 12.1 10.7h20.1c6.6 0 12-4.8 12-10.8v-5.2h-11.5v5.2c0 .1-.2.3-.5.3h-20.1c-.3 0-.5-.2-.5-.3v-23.9c0-.1.2-.3.5-.3h20.1c.3 0 .5.2.5.3v5.5h11.5v-5.5c-.1-5.9-5.5-10.7-12.1-10.7z" fill="#d04527"/></g></g><g><g><path d="m354.9 386.6c2.6-.6 4.6-1.6 6.1-3.1 2.3-2.3 3.5-5.4 3.5-9.2 0-3.4-1-6.3-3-8.8-2.5-3.1-8-4.6-13.2-4.6h-18.3-11.2v7h5v29.7h-5v7h5 11.4 3.7v-7h-3.7v-9.8h8l7.8 11.2v5.5h3.6 14.1 2.4v-7h-7.8zm-9.1-6.3h-10.6v-10.9h10.6c2.4 0 4.1.5 5.2 1.5 1.1 1.1 1.7 2.4 1.7 3.9 0 1.6-.6 2.9-1.7 4-1.1 1-2.8 1.5-5.2 1.5z" fill="#d04527"/></g></g></g><g><g><path d="m78.5 381.8c1.5-.9 2.7-2 3.4-3.3.9-1.5 1.3-3.4 1.3-5.7 0-7.6-4.1-11.3-12.2-11.3h-23.8-12.5v7.7h5.7v28.1h-5.7v7.7h5.7 6.7 25.1c5.5 0 9.5-1.5 12.2-4.4 1.8-2 2.8-4.7 2.8-7.9 0-2.5-.6-4.7-1.7-6.6-1.2-2.2-3.5-3.6-7-4.3zm-26.7-11.8h15.9c1.1 0 1.9.1 2.5.3 1.8.6 2.7 1.9 2.7 3.9 0 1.1-.3 2.1-1 2.8-.8 1-2.2 1.4-4.2 1.4h-15.9zm22.3 25.2c-1.1.7-3.2 1-6 1h-16.3v-9.2h16.1c2 0 3.4.1 4.3.2 2.6.4 3.9 1.9 3.9 4.5-.1 1.6-.7 2.8-2 3.5z" fill="#d04527"/></g></g><g><g><path d="m124.3 361.1h-9.9l-15.5 36.5h-6.3v1.4 5.9h3.2 11.4 5.7 2.6v-7.3h-5l1.4-3h15.1l1.1 3h-5.2v7.3h2 5.9 11.5 2.8.6v-7.3h-6.5zm-10.3 27.5 5.3-14 5.2 14z" fill="#d04527"/></g></g><g><g><path d="m289.6 361.1h-9.9l-15.5 36.5h-6.3v1.4 5.9h3.2 11.4 5.7 2.6v-7.3h-5l1.4-3h15.1l1.1 3h-5.2v7.3h2 5.9 11.5 2.8.6v-7.3h-6.5zm-10.3 27.5 5.3-14 5.2 14z" fill="#d04527"/></g></g><g><g><path d="m410.3 361.1h-9.9l-15.5 36.5h-6.3v1.4 5.9h3.2 11.4 5.7 2.6v-7.3h-5l1.4-3h15.1l1.1 3h-5.2v7.3h2 5.9 11.5 2.8.6v-7.3h-6.5zm-10.3 27.5 5.3-14 5.2 14z" fill="#d04527"/></g></g><g><g><path d="m185.2 359.5h-20.1c-6.6 0-12.1 4.8-12 10.8v23.9c0 5.9 5.4 10.7 12.1 10.7h20.1c6.6 0 12-4.8 12-10.8v-5.2h-11.5v5.2c0 .1-.2.3-.5.3h-20.1c-.3 0-.5-.2-.5-.3v-23.9c0-.1.2-.3.5-.3h20.1c.3 0 .5.2.5.3v5.5h11.5v-5.5c0-5.9-5.5-10.7-12.1-10.7z" fill="#d04527"/></g></g><g><g><path d="m239.4 359.5h-20.1c-6.6 0-12.1 4.8-12 10.8v23.9c0 5.9 5.4 10.7 12.1 10.7h20.1c6.6 0 12-4.8 12-10.8v-5.2h-11.5v5.2c0 .1-.2.3-.5.3h-20.1c-.3 0-.5-.2-.5-.3v-23.9c0-.1.2-.3.5-.3h20.1c.3 0 .5.2.5.3v5.5h11.5v-5.5c-.1-5.9-5.5-10.7-12.1-10.7z" fill="#d04527"/></g></g><g><g><path d="m354.9 386.6c2.6-.6 4.6-1.6 6.1-3.1 2.3-2.3 3.5-5.4 3.5-9.2 0-3.4-1-6.3-3-8.8-2.5-3.1-8-4.6-13.2-4.6h-18.3-11.2v7h5v29.7h-5v7h5 11.4 3.7v-7h-3.7v-9.8h8l7.8 11.2v5.5h3.6 14.1 2.4v-7h-7.8zm-9.1-6.3h-10.6v-10.9h10.6c2.4 0 4.1.5 5.2 1.5 1.1 1.1 1.7 2.4 1.7 3.9 0 1.6-.6 2.9-1.7 4-1.1 1-2.8 1.5-5.2 1.5z" fill="#d04527"/></g></g><g><g><path d="m432 360.6v15.1h10.5v-4.6h6.8v25.9h-6.3v7.6h23.7v-7.6h-6.8v-25.9h6.8v4.5h10.6v-15z" fill="#d04527"/></g></g></g><g><g><path d="m429.5 380.4h10.8v14.1h-10.8z" fill="#e6e7e8"/></g></g></g><g><g><path d="m465.6 380.4h10.8v14.1h-10.8z" fill="#e6e7e8"/></g></g></g></g></svg>