<svg id="Capa_1" enable-background="new 0 0 512 512" height="512" viewBox="0 0 512 512" width="512" xmlns="http://www.w3.org/2000/svg" xmlns:xlink="http://www.w3.org/1999/xlink"><linearGradient id="lg1"><stop offset="0" stop-color="#43386b"/><stop offset="1" stop-color="#594a8e"/></linearGradient><linearGradient id="SVGID_1_" gradientUnits="userSpaceOnUse" x1="178.968" x2="344.894" xlink:href="#lg1" y1="423.619" y2="423.619"/><linearGradient id="lg2"><stop offset="0" stop-color="#c5baeb"/><stop offset="1" stop-color="#d7d1eb"/></linearGradient><linearGradient id="SVGID_00000106844562158061186990000004395819441279028881_" gradientUnits="userSpaceOnUse" x1="178.968" x2="344.894" xlink:href="#lg2" y1="455.932" y2="455.932"/><linearGradient id="lg3"><stop offset="0" stop-color="#43386b"/><stop offset="1" stop-color="#43386b" stop-opacity="0"/></linearGradient><linearGradient id="SVGID_00000031170115687507236760000004675351135365354381_" gradientUnits="userSpaceOnUse" x1="103.067" x2="160.1" xlink:href="#lg3" y1="412.405" y2="511.19"/><linearGradient id="SVGID_00000063623696966244502400000011233983917738806914_" gradientUnits="userSpaceOnUse" x1="174.203" x2="343.457" xlink:href="#lg2" y1="393.227" y2="393.227"/><linearGradient id="SVGID_00000140014222081999542730000007010256460741875585_" gradientUnits="userSpaceOnUse" x1="261.312" x2="261.312" y1="464.317" y2="251.699"><stop offset="0" stop-color="#7662bd"/><stop offset="1" stop-color="#a996eb"/></linearGradient><linearGradient id="SVGID_00000082366530303081803750000017149656156762071443_" gradientUnits="userSpaceOnUse" x1="350.8" x2="60.023" xlink:href="#lg1" y1="403.362" y2="232.126"/><linearGradient id="SVGID_00000068635528911393393450000016292141247081418899_" gradientUnits="userSpaceOnUse" x1="315.023" x2="202.999" xlink:href="#lg1" y1="317.801" y2="317.801"/><linearGradient id="SVGID_00000119800316490372561310000003408196650320318616_" gradientUnits="userSpaceOnUse" x1="171.788" x2="276.612" xlink:href="#lg1" y1="382.908" y2="382.908"/><linearGradient id="lg4"><stop offset="0" stop-color="#f2effa"/><stop offset="1" stop-color="#fff"/></linearGradient><linearGradient id="SVGID_00000157305652888466098220000007967862084189488023_" gradientTransform="matrix(.866 .5 -1 .577 153.328 285.119)" gradientUnits="userSpaceOnUse" x1="129.408" x2="129.408" xlink:href="#lg4" y1="103.194" y2="-95.434"/><linearGradient id="SVGID_00000120556415958270499390000017935518745637244831_" gradientTransform="matrix(.866 .5 -1 .577 153.328 285.119)" gradientUnits="userSpaceOnUse" x1="127.897" x2="127.897" xlink:href="#lg4" y1="84.292" y2="-68.222"/><linearGradient id="SVGID_00000154415231965581648340000016685087473370720666_" gradientTransform="matrix(.866 .5 -1 .577 153.328 285.119)" gradientUnits="userSpaceOnUse" x1="128.81" x2="128.81" xlink:href="#lg4" y1="-111.789" y2="-138.06"/><linearGradient id="SVGID_00000085211473579436517600000010316559790479612288_" gradientTransform="matrix(.866 .5 -1 .577 153.328 285.119)" gradientUnits="userSpaceOnUse" x1="16.284" x2="16.284" xlink:href="#lg4" y1="-27.787" y2="-94.959"/><linearGradient id="SVGID_00000049205566416600315780000014222787573928463781_" gradientTransform="matrix(.866 .5 -1 .577 153.328 285.119)" gradientUnits="userSpaceOnUse" x1="15.579" x2="15.579" xlink:href="#lg4" y1="103.81" y2="36.406"/><linearGradient id="SVGID_00000110445171414924462600000011291876790892343691_" gradientTransform="matrix(.866 .5 -1 .577 153.328 285.119)" gradientUnits="userSpaceOnUse" x1="126.983" x2="126.983" xlink:href="#lg4" y1="145.412" y2="119.141"/><linearGradient id="SVGID_00000031901090049534996150000014727949941319105673_" gradientUnits="userSpaceOnUse" x1="178.968" x2="344.895" xlink:href="#lg2" y1="476.419" y2="476.419"/><linearGradient id="SVGID_00000056416083524019477500000009204991895881173948_" gradientTransform="matrix(.866 .5 -1 .577 153.328 285.119)" gradientUnits="userSpaceOnUse" x1="239.509" x2="239.509" xlink:href="#lg4" y1="105.136" y2="37.963"/><linearGradient id="SVGID_00000167359223042430322090000012466453492651660448_" gradientTransform="matrix(.866 .5 -1 .577 153.328 285.119)" gradientUnits="userSpaceOnUse" x1="236.767" x2="236.767" xlink:href="#lg4" y1="-26.024" y2="-101.165"/><linearGradient id="SVGID_00000018211869218960637050000015927448538274646177_" gradientUnits="userSpaceOnUse" x1="135.671" x2="24.011" y1="395.431" y2="459.898"><stop offset=".0319" stop-color="#45356d"/><stop offset="1" stop-color="#45356d" stop-opacity="0"/></linearGradient><linearGradient id="lg5"><stop offset="0" stop-color="#00395e"/><stop offset="1" stop-color="#0072bc"/></linearGradient><linearGradient id="SVGID_00000096756939078671411340000002959804492736795067_" gradientUnits="userSpaceOnUse" x1="152.97" x2="318.896" xlink:href="#lg5" y1="363.363" y2="363.363"/><linearGradient id="SVGID_00000110440006544347480990000001701861806618966690_" gradientUnits="userSpaceOnUse" x1="152.97" x2="318.896" xlink:href="#lg2" y1="395.675" y2="395.675"/><linearGradient id="SVGID_00000069389910870389414330000015570042265453295262_" gradientUnits="userSpaceOnUse" x1="66.917" x2="129" xlink:href="#lg3" y1="318.85" y2="426.38"/><linearGradient id="SVGID_00000018210642817613539630000001161579962943035558_" gradientUnits="userSpaceOnUse" x1="148.204" x2="317.459" xlink:href="#lg2" y1="332.97" y2="332.97"/><linearGradient id="SVGID_00000129916019857666953370000003716445330054344336_" gradientUnits="userSpaceOnUse" x1="235.314" x2="235.314" y1="404.061" y2="191.443"><stop offset="0" stop-color="#0072bc"/><stop offset="1" stop-color="#2f97f7"/></linearGradient><linearGradient id="SVGID_00000011752945006693447210000007533661968948418748_" gradientUnits="userSpaceOnUse" x1="324.802" x2="34.025" xlink:href="#lg5" y1="343.105" y2="171.87"/><linearGradient id="SVGID_00000089536970945917517420000004803326332126124678_" gradientUnits="userSpaceOnUse" x1="289.025" x2="177.001" xlink:href="#lg5" y1="257.544" y2="257.544"/><linearGradient id="SVGID_00000021117468808394505250000012512198411428086673_" gradientUnits="userSpaceOnUse" x1="145.791" x2="250.614" xlink:href="#lg5" y1="322.651" y2="322.651"/><linearGradient id="SVGID_00000080168246793005592910000014007103513157925251_" gradientTransform="matrix(.866 .5 -1 .577 153.328 285.119)" gradientUnits="userSpaceOnUse" x1="54.142" x2="54.142" xlink:href="#lg4" y1="64.012" y2="-134.616"/><linearGradient id="SVGID_00000067200752242991773480000016995710161502503333_" gradientTransform="matrix(.866 .5 -1 .577 153.328 285.119)" gradientUnits="userSpaceOnUse" x1="52.631" x2="52.631" xlink:href="#lg4" y1="45.11" y2="-107.404"/><linearGradient id="SVGID_00000178183229149509585140000005963505388335047554_" gradientTransform="matrix(.866 .5 -1 .577 153.328 285.119)" gradientUnits="userSpaceOnUse" x1="53.545" x2="53.545" xlink:href="#lg4" y1="-150.971" y2="-177.242"/><linearGradient id="SVGID_00000083057466322092754410000007502812891066999197_" gradientTransform="matrix(.866 .5 -1 .577 153.328 285.119)" gradientUnits="userSpaceOnUse" x1="-58.981" x2="-58.981" xlink:href="#lg4" y1="-66.969" y2="-134.141"/><linearGradient id="SVGID_00000098191749519454276430000011736406012988241830_" gradientTransform="matrix(.866 .5 -1 .577 153.328 285.119)" gradientUnits="userSpaceOnUse" x1="-59.686" x2="-59.686" xlink:href="#lg4" y1="64.628" y2="-2.776"/><linearGradient id="SVGID_00000007405916097038274570000017390703518108625302_" gradientTransform="matrix(.866 .5 -1 .577 153.328 285.119)" gradientUnits="userSpaceOnUse" x1="51.717" x2="51.717" xlink:href="#lg4" y1="106.23" y2="79.959"/><linearGradient id="SVGID_00000022554209836471738730000010021196946243968130_" gradientUnits="userSpaceOnUse" x1="152.97" x2="318.897" xlink:href="#lg2" y1="416.162" y2="416.162"/><linearGradient id="SVGID_00000146494658686995398090000013364014872057415615_" gradientTransform="matrix(.866 .5 -1 .577 153.328 285.119)" gradientUnits="userSpaceOnUse" x1="164.244" x2="164.244" xlink:href="#lg4" y1="65.954" y2="-1.219"/><linearGradient id="SVGID_00000028291754911098674440000001281304556876410295_" gradientTransform="matrix(.866 .5 -1 .577 153.328 285.119)" gradientUnits="userSpaceOnUse" x1="161.501" x2="161.501" xlink:href="#lg4" y1="-65.206" y2="-140.347"/><linearGradient id="SVGID_00000041257912878771098030000000643490898558727823_" gradientUnits="userSpaceOnUse" x1="145.924" x2="-7.563" xlink:href="#lg3" y1="320.465" y2="409.081"/><linearGradient id="lg6"><stop offset="0" stop-color="#236568"/><stop offset="1" stop-color="#2f878a"/></linearGradient><linearGradient id="SVGID_00000056420776922440835090000005840689301673646467_" gradientUnits="userSpaceOnUse" x1="173.06" x2="338.987" xlink:href="#lg6" y1="306.651" y2="306.651"/><linearGradient id="SVGID_00000132078141705655298390000003176979670521652625_" gradientUnits="userSpaceOnUse" x1="173.06" x2="338.986" xlink:href="#lg2" y1="338.963" y2="338.963"/><linearGradient id="SVGID_00000047020296050006885740000013064402035419241352_" gradientUnits="userSpaceOnUse" x1="61.88" x2="154.38" xlink:href="#lg3" y1="206.507" y2="366.722"/><linearGradient id="SVGID_00000096043732459873282990000000457113829334053765_" gradientUnits="userSpaceOnUse" x1="168.295" x2="337.549" xlink:href="#lg2" y1="276.258" y2="276.258"/><linearGradient id="SVGID_00000021077530587186522170000006638491345292851634_" gradientUnits="userSpaceOnUse" x1="255.404" x2="255.404" y1="347.349" y2="134.731"><stop offset="0" stop-color="#06daae"/><stop offset="1" stop-color="#9bf0df"/></linearGradient><linearGradient id="SVGID_00000036231149757537139190000009965662839054925487_" gradientUnits="userSpaceOnUse" x1="344.892" x2="54.116" xlink:href="#lg6" y1="286.393" y2="115.158"/><linearGradient id="SVGID_00000173841256789137264250000002079182571370083505_" gradientUnits="userSpaceOnUse" x1="309.115" x2="197.092" xlink:href="#lg6" y1="200.832" y2="200.832"/><linearGradient id="SVGID_00000145021344869911217510000011711716943060072085_" gradientUnits="userSpaceOnUse" x1="165.881" x2="270.705" xlink:href="#lg6" y1="265.939" y2="265.939"/><linearGradient id="SVGID_00000162333218094098595750000001822545420732312198_" gradientTransform="matrix(.866 .5 -1 .577 153.328 285.119)" gradientUnits="userSpaceOnUse" x1="9.032" x2="9.032" xlink:href="#lg4" y1="4.856" y2="-193.772"/><linearGradient id="SVGID_00000005262541024101928550000005109877730079471019_" gradientTransform="matrix(.866 .5 -1 .577 153.328 285.119)" gradientUnits="userSpaceOnUse" x1="7.521" x2="7.521" xlink:href="#lg4" y1="-14.046" y2="-166.56"/><linearGradient id="SVGID_00000029007118612035316110000010826800719877014433_" gradientTransform="matrix(.866 .5 -1 .577 153.328 285.119)" gradientUnits="userSpaceOnUse" x1="8.434" x2="8.434" xlink:href="#lg4" y1="-210.127" y2="-236.398"/><linearGradient id="SVGID_00000146477847275733435750000000483670910710943397_" gradientTransform="matrix(.866 .5 -1 .577 153.328 285.119)" gradientUnits="userSpaceOnUse" x1="-104.092" x2="-104.092" xlink:href="#lg4" y1="-126.125" y2="-193.297"/><linearGradient id="SVGID_00000029752554855822392830000015611110514165198991_" gradientTransform="matrix(.866 .5 -1 .577 153.328 285.119)" gradientUnits="userSpaceOnUse" x1="-104.797" x2="-104.797" xlink:href="#lg4" y1="5.472" y2="-61.932"/><linearGradient id="SVGID_00000151533151552546017810000001293325255547296645_" gradientTransform="matrix(.866 .5 -1 .577 153.328 285.119)" gradientUnits="userSpaceOnUse" x1="6.607" x2="6.607" xlink:href="#lg4" y1="47.074" y2="20.803"/><linearGradient id="SVGID_00000124883566696822730760000009184981828612234431_" gradientUnits="userSpaceOnUse" x1="173.061" x2="338.987" xlink:href="#lg2" y1="359.45" y2="359.45"/><linearGradient id="SVGID_00000079447929591019807420000000214012462221681855_" gradientTransform="matrix(.866 .5 -1 .577 153.328 285.119)" gradientUnits="userSpaceOnUse" x1="119.133" x2="119.133" xlink:href="#lg4" y1="6.798" y2="-60.375"/><linearGradient id="SVGID_00000023263226244419928840000010533976189359972260_" gradientTransform="matrix(.866 .5 -1 .577 153.328 285.119)" gradientUnits="userSpaceOnUse" x1="116.39" x2="116.39" xlink:href="#lg4" y1="-124.362" y2="-199.503"/><linearGradient id="SVGID_00000060748892396198651140000003499431195589235849_" gradientUnits="userSpaceOnUse" x1="222.925" x2="-59.17" xlink:href="#lg3" y1="231.793" y2="394.66"/><linearGradient id="lg7"><stop offset="0" stop-color="#ffa538"/><stop offset="1" stop-color="#ffc538"/></linearGradient><linearGradient id="SVGID_00000094607413947596237880000012829459435167181960_" gradientUnits="userSpaceOnUse" x1="194.327" x2="360.254" xlink:href="#lg7" y1="246.394" y2="246.394"/><linearGradient id="SVGID_00000143586392082817640860000010493654366363975348_" gradientUnits="userSpaceOnUse" x1="194.327" x2="360.253" xlink:href="#lg2" y1="278.707" y2="278.707"/><linearGradient id="SVGID_00000152235294154316055480000014806760142266388643_" gradientUnits="userSpaceOnUse" x1="94.044" x2="144.966" xlink:href="#lg3" y1="205.656" y2="293.854"/><linearGradient id="SVGID_00000096752721738128967110000003073916038787896485_" gradientUnits="userSpaceOnUse" x1="189.562" x2="358.816" xlink:href="#lg2" y1="216.002" y2="216.002"/><linearGradient id="SVGID_00000079457804714674040880000004242659238704584618_" gradientUnits="userSpaceOnUse" x1="276.671" x2="276.671" y1="287.092" y2="74.474"><stop offset="0" stop-color="#f7e041"/><stop offset="1" stop-color="#fcf3b3"/></linearGradient><linearGradient id="SVGID_00000048488735495024186900000004848719056585546155_" gradientUnits="userSpaceOnUse" x1="366.159" x2="75.383" xlink:href="#lg7" y1="226.137" y2="54.901"/><linearGradient id="SVGID_00000147195322134233797940000015722239386851466629_" gradientUnits="userSpaceOnUse" x1="330.382" x2="218.359" xlink:href="#lg7" y1="140.575" y2="140.575"/><linearGradient id="SVGID_00000123405962118295204530000000304761768590710670_" gradientUnits="userSpaceOnUse" x1="187.148" x2="291.972" xlink:href="#lg7" y1="205.682" y2="205.682"/><linearGradient id="SVGID_00000078025860245294492970000005146317478313813401_" gradientTransform="matrix(.866 .5 -1 .577 153.328 285.119)" gradientUnits="userSpaceOnUse" x1="-38.944" x2="-38.944" xlink:href="#lg4" y1="-57.958" y2="-256.586"/><linearGradient id="SVGID_00000098913547098490203540000004195653298525749396_" gradientTransform="matrix(.866 .5 -1 .577 153.328 285.119)" gradientUnits="userSpaceOnUse" x1="-40.455" x2="-40.455" xlink:href="#lg4" y1="-76.86" y2="-229.374"/><linearGradient id="SVGID_00000114787318916394036090000006418876374589299082_" gradientTransform="matrix(.866 .5 -1 .577 153.328 285.119)" gradientUnits="userSpaceOnUse" x1="-39.541" x2="-39.541" xlink:href="#lg4" y1="-272.941" y2="-299.212"/><linearGradient id="SVGID_00000031204351611233560490000011783092611180999562_" gradientTransform="matrix(.866 .5 -1 .577 153.328 285.119)" gradientUnits="userSpaceOnUse" x1="-152.068" x2="-152.068" xlink:href="#lg4" y1="-188.939" y2="-256.111"/><linearGradient id="SVGID_00000027578331577218451390000015571841248480886418_" gradientTransform="matrix(.866 .5 -1 .577 153.328 285.119)" gradientUnits="userSpaceOnUse" x1="-152.773" x2="-152.773" xlink:href="#lg4" y1="-57.342" y2="-124.746"/><linearGradient id="SVGID_00000031202763615357439430000015369792596390561460_" gradientTransform="matrix(.866 .5 -1 .577 153.328 285.119)" gradientUnits="userSpaceOnUse" x1="-41.369" x2="-41.369" xlink:href="#lg4" y1="-15.74" y2="-42.011"/><linearGradient id="SVGID_00000091713560633215314060000013600039995650041789_" gradientUnits="userSpaceOnUse" x1="194.328" x2="360.254" xlink:href="#lg2" y1="299.194" y2="299.194"/><linearGradient id="SVGID_00000011740019107514763050000007220710226920861073_" gradientTransform="matrix(.866 .5 -1 .577 153.328 285.119)" gradientUnits="userSpaceOnUse" x1="71.157" x2="71.157" xlink:href="#lg4" y1="-56.016" y2="-123.189"/><linearGradient id="SVGID_00000077288850547148820730000015430416744795818933_" gradientTransform="matrix(.866 .5 -1 .577 153.328 285.119)" gradientUnits="userSpaceOnUse" x1="68.415" x2="68.415" xlink:href="#lg4" y1="-187.176" y2="-262.317"/><linearGradient id="SVGID_00000177469515785585495530000004007992228287183506_" gradientUnits="userSpaceOnUse" x1="155.801" x2="78.8" xlink:href="#lg3" y1="229.713" y2="274.17"/><linearGradient id="lg8"><stop offset="0" stop-color="#ab2c37"/><stop offset="1" stop-color="#ff4757"/></linearGradient><linearGradient id="SVGID_00000025436363408142630110000007841774599263964801_" gradientUnits="userSpaceOnUse" x1="173.056" x2="338.983" xlink:href="#lg8" y1="181.411" y2="181.411"/><linearGradient id="SVGID_00000157300129852873464330000006493876099724632451_" gradientUnits="userSpaceOnUse" x1="168.29" x2="337.545" xlink:href="#lg2" y1="151.019" y2="151.019"/><linearGradient id="SVGID_00000031167997290311739110000000789388187105008805_" gradientUnits="userSpaceOnUse" x1="255.4" x2="255.4" y1="222.109" y2="9.491"><stop offset="0" stop-color="#ff4757"/><stop offset="1" stop-color="#ff7a85"/></linearGradient><linearGradient id="SVGID_00000072964151693010445820000013793901735234491028_" gradientUnits="userSpaceOnUse" x1="344.888" x2="54.112" xlink:href="#lg8" y1="161.154" y2="-10.082"/><linearGradient id="SVGID_00000106127731455719098030000000676790091819194508_" gradientUnits="userSpaceOnUse" x1="309.111" x2="197.088" xlink:href="#lg8" y1="75.592" y2="75.592"/><linearGradient id="SVGID_00000058552350626288292510000011579394624376933562_" gradientUnits="userSpaceOnUse" x1="165.877" x2="270.7" xlink:href="#lg8" y1="140.7" y2="140.7"/><linearGradient id="SVGID_00000023267007784804550300000012766628085767055529_" gradientTransform="matrix(.866 .5 -1 .577 153.328 285.119)" gradientUnits="userSpaceOnUse" x1="-116.207" x2="-116.207" xlink:href="#lg4" y1="-103.597" y2="-302.224"/><linearGradient id="SVGID_00000096040440482986144710000009050315267747652276_" gradientTransform="matrix(.866 .5 -1 .577 153.328 285.119)" gradientUnits="userSpaceOnUse" x1="-117.718" x2="-117.718" xlink:href="#lg4" y1="-122.499" y2="-275.012"/><linearGradient id="SVGID_00000026850514792084217060000001309156271365175994_" gradientTransform="matrix(.866 .5 -1 .577 153.328 285.119)" gradientUnits="userSpaceOnUse" x1="-116.804" x2="-116.804" xlink:href="#lg4" y1="-318.579" y2="-344.85"/><linearGradient id="SVGID_00000165228661614332725090000016699822859889021606_" gradientTransform="matrix(.866 .5 -1 .577 153.328 285.119)" gradientUnits="userSpaceOnUse" x1="-229.33" x2="-229.33" xlink:href="#lg4" y1="-234.577" y2="-301.75"/><linearGradient id="SVGID_00000062167716528363908500000013391133684115393726_" gradientTransform="matrix(.866 .5 -1 .577 153.328 285.119)" gradientUnits="userSpaceOnUse" x1="-230.035" x2="-230.035" xlink:href="#lg4" y1="-102.981" y2="-170.385"/><linearGradient id="SVGID_00000182487969763078032160000016783819302422458503_" gradientUnits="userSpaceOnUse" x1="173.056" x2="338.982" xlink:href="#lg2" y1="213.724" y2="213.724"/><linearGradient id="SVGID_00000008860917812532039940000005979590622642928777_" gradientTransform="matrix(.866 .5 -1 .577 153.328 285.119)" gradientUnits="userSpaceOnUse" x1="-118.632" x2="-118.632" xlink:href="#lg4" y1="-61.379" y2="-87.65"/><linearGradient id="SVGID_00000124135323954640636990000012559421447568496262_" gradientUnits="userSpaceOnUse" x1="173.056" x2="338.983" xlink:href="#lg2" y1="234.211" y2="234.211"/><linearGradient id="SVGID_00000176740937593663102550000015182384474277229734_" gradientTransform="matrix(.866 .5 -1 .577 153.328 285.119)" gradientUnits="userSpaceOnUse" x1="-6.105" x2="-6.105" xlink:href="#lg4" y1="-101.655" y2="-168.827"/><linearGradient id="SVGID_00000109013614260711738760000010360486282531731388_" gradientTransform="matrix(.866 .5 -1 .577 153.328 285.119)" gradientUnits="userSpaceOnUse" x1="-8.848" x2="-8.848" xlink:href="#lg4" y1="-232.815" y2="-307.956"/><g><g><g><path d="m154.391 500.652.003.002c27.888 8.744 60.054 12.389 92.859 11.09l.013-.005 94.399-17.796.106-.01c15.023-5.312 29.346-11.778 42.529-19.389 12.561-7.252 23.314-15.103 32.261-23.33l32.617-115.977-375.717 30.407v53.177c-.001.168-.001.336 0 .503v.275l.006-.001c.131 15.702 6.274 30.94 18.565 44.491z" fill="url(#SVGID_1_)"/><path d="m92.032 464.089c7.056 7.78 16.132 15.006 27.278 21.441 10.578 6.107 22.387 11.142 35.081 15.122v-52.874l-62.359-36.566z" fill="url(#SVGID_00000106844562158061186990000004395819441279028881_)"/><path d="m73.461 418.82c-.001.168-.001.336 0 .504v.275l.006-.001c.197 23.492 13.837 45.946 41.426 63.262l53.892-31.115-62.788-88.734-32.536 2.633z" fill="url(#SVGID_00000031170115687507236760000004675351135365354381_)"/><path d="m416.561 451.216c21.684-19.939 32.69-42.107 32.613-63.438h.004v-52.539l-32.617 63.108z" fill="url(#SVGID_00000063623696966244502400000011233983917738806914_)"/><path d="m430.594 290.117-62.35-36.562c-27.892-8.746-60.064-12.391-92.874-11.091l-94.399 17.772c-15.062 5.319-29.421 11.798-42.635 19.427-12.558 7.251-23.315 15.099-32.261 23.324l-31.977 54.363c-2.684 18.974 3.214 37.629 17.939 53.865l62.354 36.563c27.892 8.746 60.064 12.391 92.874 11.091l94.399-17.772c15.062-5.32 29.421-11.798 42.636-19.427 12.559-7.251 23.315-15.099 32.261-23.324l32.593-63.061c.042-15.941-6.095-31.422-18.56-45.168z" fill="url(#SVGID_00000140014222081999542730000007010256460741875585_)"/><path d="m365.221 290.677c-49.697-28.692-136.503-25.094-193.888 8.037s-63.617 83.249-13.92 111.941 136.503 25.094 193.888-8.037c57.385-33.13 63.617-83.248 13.92-111.941zm-27.571 104.06c-48.679 28.105-122.316 31.157-164.473 6.818-42.157-24.34-36.87-66.854 11.809-94.959s122.316-31.157 164.473-6.818c42.156 24.34 36.869 66.854-11.809 94.959z" fill="url(#SVGID_00000082366530303081803750000017149656156762071443_)"/><g><path d="m171.333 303.247c57.385-33.131 144.191-36.729 193.888-8.037 21.583 12.461 32.603 28.965 33.479 46.362.954-19.044-10.029-37.355-33.479-50.894-49.697-28.692-136.503-25.094-193.888 8.037-32.462 18.742-48.541 42.919-47.4 65.579 1.069-21.315 17.094-43.55 47.4-61.047z" fill="url(#SVGID_00000068635528911393393450000016292141247081418899_)"/><path d="m173.176 406.087c42.157 24.339 115.794 21.287 164.473-6.818 27.702-15.993 41.329-36.651 40.18-55.973-1.061 17.976-14.635 36.692-40.18 51.44-48.679 28.105-122.316 31.157-164.473 6.818-18.167-10.489-27.501-24.355-28.371-38.986-.961 16.279 8.337 31.952 28.371 43.519z" fill="url(#SVGID_00000119800316490372561310000003408196650320318616_)"/></g><g><path d="m169.936 413.873 6.594-4.443c5.411 2.542 11.325 4.763 17.577 6.603l-5.223 4.957c-6.741-1.983-13.116-4.377-18.948-7.117zm-15.847-9.199c-4.713-3.383-8.826-7.077-12.228-10.982l8.606-2.993c3.155 3.621 6.971 7.049 11.344 10.187zm56.232 21.081 3.668-5.303c6.916 1.087 14.151 1.789 21.503 2.088l-1.999 5.465c-7.921-.322-15.718-1.079-23.172-2.25zm-76.6-44.468c-1.99-4.312-3.263-8.819-3.783-13.395l9.469-1.129c.483 4.248 1.663 8.429 3.51 12.43zm123.88 46.395.27-5.442c7.514-.497 15.082-1.396 22.493-2.672l1.471 5.235c-7.986 1.375-16.14 2.343-24.234 2.879zm-126.989-73.716c.966-4.675 2.682-9.381 5.097-13.988l9.055.874c-2.243 4.276-3.835 8.644-4.732 12.984zm174.764 65.488-3.173-4.849c7.073-2.017 13.95-4.405 20.439-7.098l4.772 4.292c-6.997 2.905-14.412 5.48-22.038 7.655zm-160.291-93.056c3.801-4.395 8.294-8.666 13.354-12.695l7.406 2.778c-4.692 3.737-8.86 7.698-12.385 11.774zm202.112 75.714-6.212-3.586.305-.176c5.703-3.293 10.958-6.85 15.619-10.572l7.417 2.77c-5.022 4.011-10.682 7.842-16.824 11.389zm-165.704-96.192-6.202-3.592c6.148-3.54 12.792-6.803 19.749-9.698l4.784 4.287c-6.455 2.687-12.623 5.716-18.331 9.003zm187.772 70.075c3.512-4.076 6.428-8.316 8.664-12.602l9.059.866c-2.41 4.62-5.553 9.19-9.34 13.584zm-149.016-86.194-3.186-4.844c7.614-2.179 15.531-3.986 23.531-5.37l1.485 5.233c-7.423 1.283-14.767 2.959-21.83 4.981zm162.377 60.607c.884-4.336 1.082-8.684.589-12.926l9.468-1.136c.53 4.568.318 9.253-.634 13.923zm-118.056-68.28.255-5.441c8.089-.543 16.202-.659 24.113-.345l-1.984 5.465c-7.343-.291-14.874-.183-22.384.321zm115.099 42.929c-1.862-4.005-4.413-7.873-7.583-11.496l8.599-3.001c3.419 3.908 6.169 8.078 8.177 12.396zm-71.202-41.182 3.654-5.305c7.475 1.166 14.694 2.762 21.455 4.743l-5.21 4.961c-6.271-1.838-12.966-3.318-19.899-4.399zm52.243 19.512c-4.351-3.112-9.364-6.011-14.743-8.528l6.582-4.448c5.792 2.71 11.187 5.83 15.874 9.182z" fill="url(#SVGID_00000157305652888466098220000007967862084189488023_)"/></g><path d="m328.696 389.568c42.969-24.808 47.636-62.336 10.423-83.82-37.212-21.484-102.212-18.79-145.181 6.018s-47.636 62.336-10.423 83.82c37.212 21.484 102.212 18.79 145.181-6.018z" fill="url(#SVGID_00000120556415958270499390000017935518745637244831_)"/><g><path d="m403.325 268.678c-10.578-6.107-22.387-11.143-35.081-15.124l-8.052 4.649c-7.902 4.562-8.76 11.464-1.917 15.415l38.065 21.977c6.843 3.951 18.797 3.456 26.699-1.107l7.564-4.367c-7.058-7.78-16.132-15.007-27.278-21.443z" fill="url(#SVGID_00000154415231965581648340000016685087473370720666_)"/><path d="m180.97 260.236 2.012 5.808c1.976 5.703 11.898 8.725 22.164 6.749l57.098-10.988c10.265-1.976 16.985-8.2 15.009-13.903l-1.883-5.437c-31.988 1.267-64.577 7.238-94.4 17.771z" fill="url(#SVGID_00000085211473579436517600000010316559790479612288_)"/><path d="m127.221 316.875c3.422-5.927-1.812-11.656-11.689-12.796l-9.458-1.092c-18.625 17.124-29.362 35.892-31.975 54.363l10.009 1.156c9.878 1.141 20.659-2.739 24.081-8.666z" fill="url(#SVGID_00000049205566416600315780000014222787573928463781_)"/><path d="m164.36 427.715-38.065-21.977c-6.843-3.951-18.797-3.456-26.699 1.107l-7.564 4.367c7.058 7.78 16.132 15.008 27.278 21.443 10.578 6.107 22.387 11.143 35.081 15.124l8.052-4.649c7.902-4.563 8.76-11.464 1.917-15.415z" fill="url(#SVGID_00000110445171414924462600000011291876790892343691_)"/><path d="m247.265 511.74c31.992-1.267 64.572-7.26 94.399-17.796v-52.847l-94.399 17.772z" fill="url(#SVGID_00000031901090049534996150000014727949941319105673_)"/><path d="m339.652 435.29c-1.975-5.703-11.899-8.724-22.164-6.749l-57.098 10.988c-10.265 1.975-16.985 8.2-15.01 13.903l1.883 5.437c31.987-1.268 64.576-7.239 94.399-17.772z" fill="url(#SVGID_00000056416083524019477500000009204991895881173948_)"/><path d="m449.178 335.238-8.536-.528c-9.878-1.141-20.659 2.739-24.081 8.666l-21.147 41.081c-3.422 5.927 1.812 11.656 11.69 12.796l9.458 1.092c18.624-17.123 31.646-42.652 32.616-63.107z" fill="url(#SVGID_00000167359223042430322090000012466453492651660448_)"/></g></g></g><path d="m119.309 432.654c14.479 8.359 31.268 14.706 49.476 19.091h38.47v-125.312h-121.197c-24.162 37.823-13.81 79.05 33.251 106.221z" fill="url(#SVGID_00000018211869218960637050000015927448538274646177_)"/><g><g><path d="m128.393 440.395.003.002c27.888 8.744 60.054 12.389 92.859 11.09l.013-.005 94.399-17.796.106-.01c15.023-5.312 29.346-11.778 42.529-19.389 12.561-7.252 23.314-15.103 32.261-23.33l32.617-115.977-375.717 30.407v53.177c-.001.168 0 .336 0 .503v.275h.006c.132 15.702 6.274 30.94 18.565 44.491z" fill="url(#SVGID_00000096756939078671411340000002959804492736795067_)"/><path d="m66.034 403.833c7.056 7.78 16.132 15.006 27.278 21.441 10.577 6.107 22.387 11.141 35.081 15.122v-52.874l-62.359-36.566z" fill="url(#SVGID_00000110440006544347480990000001701861806618966690_)"/><path d="m47.468 358.563c-.001.168-.001.336 0 .503v.275h.006c.207 24.717 15.284 48.288 45.842 65.931 2.114 1.22 4.277 2.398 6.486 3.533l58.95-34.035-50.373-94.311-60.91 4.929v53.175z" fill="url(#SVGID_00000069389910870389414330000015570042265453295262_)"/><path d="m390.563 390.959c21.684-19.939 32.69-42.106 32.613-63.438h.004v-52.539l-32.617 63.108z" fill="url(#SVGID_00000018210642817613539630000001161579962943035558_)"/><path d="m404.596 229.86-62.351-36.561c-27.892-8.746-60.064-12.391-92.874-11.091l-94.399 17.771c-15.062 5.32-29.421 11.798-42.635 19.427-12.558 7.251-23.315 15.098-32.261 23.324l-31.976 54.364c-2.684 18.974 3.214 37.629 17.939 53.865l62.354 36.563c27.892 8.746 60.064 12.391 92.874 11.091l94.399-17.771c15.062-5.32 29.421-11.798 42.636-19.427 12.559-7.251 23.315-15.099 32.261-23.324l32.593-63.061c.042-15.943-6.095-31.424-18.56-45.17z" fill="url(#SVGID_00000129916019857666953370000003716445330054344336_)"/><path d="m339.224 230.421c-49.697-28.692-136.503-25.094-193.888 8.037s-63.617 83.249-13.921 111.941c49.697 28.692 136.503 25.094 193.888-8.037s63.617-83.249 13.921-111.941zm-27.572 104.059c-48.679 28.105-122.316 31.157-164.473 6.818-42.157-24.34-36.87-66.854 11.809-94.959s122.316-31.157 164.473-6.818 36.87 66.855-11.809 94.959z" fill="url(#SVGID_00000011752945006693447210000007533661968948418748_)"/><g><path d="m145.336 242.99c57.385-33.131 144.191-36.729 193.888-8.037 21.583 12.461 32.603 28.965 33.479 46.362.954-19.044-10.029-37.355-33.479-50.894-49.697-28.692-136.503-25.094-193.888 8.037-32.462 18.742-48.541 42.919-47.4 65.579 1.068-21.315 17.093-43.549 47.4-61.047z" fill="url(#SVGID_00000089536970945917517420000004803326332126124678_)"/><path d="m147.178 345.83c42.157 24.339 115.794 21.287 164.473-6.818 27.702-15.993 41.329-36.651 40.18-55.973-1.061 17.976-14.635 36.692-40.18 51.44-48.679 28.105-122.316 31.157-164.473 6.818-18.167-10.489-27.501-24.355-28.371-38.986-.96 16.28 8.337 31.953 28.371 43.519z" fill="url(#SVGID_00000021117468808394505250000012512198411428086673_)"/></g><g><path d="m143.938 353.617 6.594-4.443c5.411 2.542 11.325 4.763 17.577 6.603l-5.223 4.957c-6.741-1.983-13.115-4.378-18.948-7.117zm-15.847-9.199c-4.713-3.383-8.826-7.077-12.228-10.982l8.606-2.993c3.155 3.622 6.971 7.049 11.344 10.187zm56.232 21.081 3.668-5.303c6.916 1.086 14.151 1.789 21.503 2.088l-1.999 5.465c-7.921-.322-15.718-1.08-23.172-2.25zm-76.6-44.469c-1.99-4.312-3.263-8.819-3.783-13.395l9.469-1.129c.483 4.247 1.663 8.429 3.51 12.43zm123.88 46.396.27-5.442c7.514-.497 15.082-1.396 22.493-2.672l1.471 5.235c-7.985 1.374-16.139 2.343-24.234 2.879zm-126.989-73.717c.966-4.675 2.681-9.381 5.097-13.989l9.054.874c-2.243 4.276-3.835 8.644-4.732 12.984zm174.764 65.489-3.172-4.849c7.073-2.017 13.95-4.405 20.439-7.098l4.772 4.293c-6.997 2.904-14.413 5.479-22.039 7.654zm-160.291-93.056c3.801-4.395 8.294-8.666 13.354-12.695l7.406 2.777c-4.692 3.737-8.86 7.698-12.385 11.774zm202.112 75.713-6.212-3.587.305-.176c5.704-3.293 10.958-6.85 15.619-10.572l7.417 2.77c-5.022 4.011-10.682 7.843-16.824 11.388zm-165.704-96.191-6.202-3.592c6.148-3.54 12.792-6.803 19.749-9.698l4.784 4.287c-6.455 2.686-12.623 5.715-18.331 9.003zm187.772 70.074c3.512-4.076 6.428-8.316 8.664-12.602l9.059.866c-2.41 4.62-5.553 9.19-9.34 13.584zm-149.016-86.194-3.186-4.844c7.614-2.179 15.531-3.986 23.531-5.37l1.485 5.233c-7.423 1.284-14.767 2.96-21.83 4.981zm162.377 60.607c.884-4.336 1.082-8.684.589-12.926l9.468-1.136c.53 4.568.318 9.253-.634 13.923zm-118.056-68.28.255-5.441c8.089-.543 16.202-.659 24.113-.345l-1.984 5.465c-7.343-.291-14.874-.183-22.384.321zm115.099 42.93c-1.861-4.005-4.413-7.873-7.583-11.496l8.599-3.001c3.419 3.908 6.169 8.078 8.177 12.396zm-71.202-41.183 3.654-5.305c7.475 1.166 14.694 2.762 21.455 4.743l-5.21 4.961c-6.27-1.838-12.965-3.317-19.899-4.399zm52.243 19.512c-4.352-3.112-9.364-6.011-14.744-8.528l6.582-4.448c5.792 2.71 11.187 5.83 15.875 9.182z" fill="url(#SVGID_00000080168246793005592910000014007103513157925251_)"/></g><path d="m302.698 329.311c42.969-24.808 47.636-62.336 10.424-83.82-37.212-21.485-102.212-18.79-145.181 6.018s-47.636 62.336-10.423 83.82c37.212 21.485 102.211 18.79 145.18-6.018z" fill="url(#SVGID_00000067200752242991773480000016995710161502503333_)"/><g><path d="m377.327 208.422c-10.578-6.107-22.387-11.143-35.081-15.124l-8.052 4.649c-7.902 4.562-8.76 11.464-1.917 15.415l38.065 21.977c6.843 3.951 18.797 3.456 26.699-1.107l7.564-4.367c-7.058-7.78-16.132-15.008-27.278-21.443z" fill="url(#SVGID_00000178183229149509585140000005963505388335047554_)"/><path d="m154.972 199.979 2.012 5.808c1.976 5.703 11.899 8.725 22.164 6.749l57.098-10.988c10.265-1.976 16.985-8.2 15.01-13.903l-1.883-5.437c-31.988 1.267-64.578 7.239-94.401 17.771z" fill="url(#SVGID_00000083057466322092754410000007502812891066999197_)"/><path d="m101.223 256.619c3.422-5.927-1.812-11.656-11.69-12.796l-9.457-1.092c-18.626 17.124-29.363 35.892-31.976 54.363l10.009 1.156c9.878 1.141 20.659-2.739 24.081-8.666z" fill="url(#SVGID_00000098191749519454276430000011736406012988241830_)"/><path d="m138.362 367.458-38.065-21.977c-6.843-3.951-18.797-3.455-26.699 1.107l-7.564 4.367c7.058 7.78 16.132 15.008 27.278 21.443 10.578 6.107 22.387 11.143 35.081 15.124l8.052-4.649c7.902-4.562 8.76-11.464 1.917-15.415z" fill="url(#SVGID_00000007405916097038274570000017390703518108625302_)"/><path d="m221.267 451.483c31.992-1.268 64.573-7.26 94.399-17.796v-52.847l-94.399 17.772z" fill="url(#SVGID_00000022554209836471738730000010021196946243968130_)"/><path d="m313.655 375.033c-1.975-5.703-11.898-8.724-22.164-6.749l-57.098 10.988c-10.265 1.975-16.985 8.2-15.01 13.903l1.883 5.437c31.987-1.267 64.576-7.239 94.399-17.771z" fill="url(#SVGID_00000146494658686995398090000013364014872057415615_)"/><path d="m423.18 274.982-8.536-.528c-9.878-1.141-20.659 2.739-24.081 8.666l-21.147 41.081c-3.422 5.927 1.812 11.656 11.689 12.796l9.458 1.092c18.625-17.124 31.647-42.652 32.617-63.107z" fill="url(#SVGID_00000028291754911098674440000001281304556876410295_)"/></g></g></g><path d="m216.997 221.872s-57.816.347-109.56.464c-73.84 45.26-80.594 111.683-14.121 150.062 18.622 10.751 41.062 18.178 65.436 22.372h66.927z" fill="url(#SVGID_00000041257912878771098030000000643490898558727823_)"/><g><g><path d="m148.483 383.683.003.002c27.888 8.744 60.054 12.389 92.859 11.09l.013-.005 94.399-17.796.106-.01c15.023-5.312 29.346-11.778 42.529-19.389 12.561-7.252 23.314-15.103 32.261-23.33l32.617-115.975-375.717 30.405v53.177c-.001.168-.001.336 0 .503v.275h.006c.132 15.702 6.274 30.94 18.565 44.491z" fill="url(#SVGID_00000056420776922440835090000005840689301673646467_)"/><path d="m86.124 347.12c7.056 7.78 16.132 15.006 27.278 21.441 10.578 6.107 22.387 11.142 35.081 15.122v-52.873l-62.359-36.566z" fill="url(#SVGID_00000132078141705655298390000003176979670521652625_)"/><path d="m67.554 301.851c-.001.168-.001.336 0 .503v.275l.006-.001c.197 23.492 13.837 45.946 41.426 63.262l53.892-31.115-21.052-92.112-74.272 6.011z" fill="url(#SVGID_00000047020296050006885740000013064402035419241352_)"/><path d="m410.653 334.247c21.684-19.939 32.69-42.107 32.613-63.438h.004v-52.539l-32.617 63.108z" fill="url(#SVGID_00000096043732459873282990000000457113829334053765_)"/><path d="m424.687 173.148-62.35-36.561c-27.892-8.746-60.064-12.391-92.874-11.091l-94.399 17.772c-15.062 5.32-29.421 11.798-42.635 19.427-12.558 7.251-23.315 15.099-32.261 23.324l-31.976 54.364c-2.684 18.974 3.214 37.629 17.939 53.865l62.354 36.563c27.892 8.746 60.064 12.391 92.874 11.091l94.399-17.771c15.062-5.32 29.421-11.798 42.636-19.427 12.559-7.251 23.315-15.098 32.261-23.324l32.593-63.061c.04-15.944-6.097-31.425-18.561-45.171z" fill="url(#SVGID_00000021077530587186522170000006638491345292851634_)"/><path d="m359.314 173.709c-49.697-28.692-136.503-25.094-193.888 8.037s-63.617 83.249-13.92 111.941 136.503 25.094 193.888-8.037c57.384-33.131 63.617-83.249 13.92-111.941zm-27.572 104.059c-48.679 28.105-122.316 31.157-164.473 6.818-42.157-24.34-36.87-66.854 11.809-94.959s122.316-31.157 164.473-6.818c42.157 24.34 36.87 66.855-11.809 94.959z" fill="url(#SVGID_00000036231149757537139190000009965662839054925487_)"/><g><path d="m165.426 186.278c57.385-33.131 144.191-36.729 193.888-8.037 21.583 12.461 32.603 28.965 33.479 46.362.954-19.044-10.029-37.355-33.479-50.894-49.697-28.692-136.503-25.094-193.888 8.037-32.462 18.742-48.541 42.919-47.4 65.579 1.068-21.315 17.093-43.549 47.4-61.047z" fill="url(#SVGID_00000173841256789137264250000002079182571370083505_)"/><path d="m167.269 289.118c42.157 24.339 115.794 21.287 164.473-6.818 27.702-15.993 41.329-36.651 40.18-55.972-1.061 17.976-14.635 36.692-40.18 51.44-48.679 28.105-122.316 31.157-164.473 6.818-18.167-10.489-27.501-24.355-28.371-38.986-.961 16.279 8.336 31.952 28.371 43.518z" fill="url(#SVGID_00000145021344869911217510000011711716943060072085_)"/></g><g><path d="m164.028 296.905 6.594-4.443c5.411 2.542 11.325 4.763 17.577 6.603l-5.223 4.957c-6.741-1.983-13.115-4.378-18.948-7.117zm-15.846-9.199c-4.713-3.383-8.826-7.077-12.228-10.982l8.606-2.993c3.155 3.621 6.971 7.049 11.344 10.187zm56.232 21.081 3.668-5.303c6.916 1.086 14.151 1.789 21.503 2.088l-1.999 5.465c-7.922-.322-15.718-1.08-23.172-2.25zm-76.601-44.469c-1.99-4.312-3.263-8.819-3.783-13.395l9.469-1.129c.483 4.248 1.663 8.429 3.51 12.43zm123.88 46.396.27-5.442c7.514-.497 15.082-1.396 22.493-2.672l1.471 5.235c-7.985 1.374-16.139 2.343-24.234 2.879zm-126.989-73.717c.966-4.675 2.681-9.381 5.097-13.989l9.055.874c-2.243 4.276-3.835 8.644-4.732 12.984zm174.764 65.489-3.172-4.849c7.073-2.017 13.95-4.405 20.439-7.098l4.772 4.292c-6.997 2.905-14.412 5.48-22.039 7.655zm-160.29-93.056c3.801-4.395 8.294-8.666 13.354-12.695l7.406 2.778c-4.692 3.737-8.86 7.698-12.385 11.774zm202.111 75.713-6.212-3.586.305-.176c5.703-3.293 10.958-6.85 15.619-10.572l7.417 2.77c-5.022 4.011-10.682 7.842-16.824 11.389zm-165.704-96.191-6.202-3.592c6.148-3.54 12.792-6.803 19.749-9.698l4.784 4.287c-6.455 2.686-12.623 5.715-18.331 9.003zm187.772 70.074c3.512-4.076 6.428-8.316 8.664-12.602l9.059.866c-2.41 4.62-5.553 9.19-9.34 13.584zm-149.016-86.194-3.186-4.844c7.614-2.179 15.531-3.986 23.531-5.37l1.485 5.233c-7.422 1.284-14.767 2.96-21.83 4.981zm162.377 60.607c.884-4.336 1.082-8.684.589-12.926l9.468-1.136c.53 4.568.318 9.253-.634 13.923zm-118.056-68.28.255-5.441c8.089-.543 16.202-.659 24.113-.345l-1.984 5.465c-7.343-.291-14.874-.183-22.384.321zm115.099 42.93c-1.862-4.005-4.413-7.873-7.583-11.496l8.599-3.001c3.419 3.908 6.169 8.077 8.177 12.396zm-71.202-41.183 3.654-5.305c7.475 1.166 14.694 2.762 21.455 4.743l-5.21 4.961c-6.27-1.838-12.965-3.317-19.899-4.399zm52.243 19.512c-4.351-3.112-9.364-6.01-14.743-8.528l6.582-4.448c5.792 2.71 11.187 5.83 15.874 9.182z" fill="url(#SVGID_00000162333218094098595750000001822545420732312198_)"/></g><path d="m322.788 272.599c42.969-24.808 47.636-62.336 10.423-83.82-37.211-21.484-102.211-18.79-145.18 6.018s-47.636 62.335-10.423 83.82c37.212 21.484 102.211 18.79 145.18-6.018z" fill="url(#SVGID_00000005262541024101928550000005109877730079471019_)"/><g><path d="m397.417 151.71c-10.578-6.107-22.387-11.143-35.081-15.124l-8.052 4.649c-7.902 4.562-8.76 11.464-1.917 15.415l38.065 21.977c6.843 3.951 18.797 3.456 26.699-1.107l7.564-4.367c-7.058-7.78-16.132-15.008-27.278-21.443z" fill="url(#SVGID_00000029007118612035316110000010826800719877014433_)"/><path d="m175.063 143.267 2.012 5.808c1.976 5.703 11.899 8.725 22.164 6.749l57.098-10.988c10.265-1.976 16.985-8.2 15.009-13.903l-1.883-5.437c-31.988 1.267-64.577 7.239-94.4 17.771z" fill="url(#SVGID_00000146477847275733435750000000483670910710943397_)"/><path d="m121.313 199.907c3.422-5.926-1.812-11.656-11.689-12.796l-9.458-1.092c-18.625 17.124-29.362 35.892-31.975 54.364l10.009 1.156c9.878 1.141 20.659-2.739 24.081-8.666z" fill="url(#SVGID_00000029752554855822392830000015611110514165198991_)"/><path d="m158.452 310.746-38.065-21.977c-6.843-3.951-18.797-3.456-26.699 1.107l-7.564 4.367c7.058 7.78 16.132 15.008 27.278 21.443 10.578 6.107 22.387 11.143 35.081 15.124l8.052-4.649c7.902-4.562 8.761-11.464 1.917-15.415z" fill="url(#SVGID_00000151533151552546017810000001293325255547296645_)"/><path d="m241.357 394.771c31.992-1.267 64.572-7.26 94.399-17.796v-52.847l-94.399 17.772z" fill="url(#SVGID_00000124883566696822730760000009184981828612234431_)"/><path d="m333.745 318.321c-1.975-5.703-11.899-8.724-22.164-6.749l-57.098 10.988c-10.265 1.975-16.985 8.2-15.01 13.903l1.883 5.437c31.987-1.267 64.576-7.239 94.399-17.772z" fill="url(#SVGID_00000079447929591019807420000000214012462221681855_)"/><path d="m443.27 218.27-8.536-.528c-9.878-1.141-20.659 2.739-24.081 8.666l-21.147 41.081c-3.422 5.927 1.812 11.656 11.69 12.796l9.458 1.092c18.625-17.124 31.646-42.652 32.616-63.107z" fill="url(#SVGID_00000023263226244419928840000010533976189359972260_)"/></g></g></g><path d="m211.153 186.478-99.547-10.008c-58.531 44.51-59.541 103.801 1.796 139.214 14.479 8.359 31.268 14.706 49.476 19.091h88.813z" fill="url(#SVGID_00000060748892396198651140000003499431195589235849_)"/><g><path d="m169.75 323.427.003.002c27.888 8.744 60.054 12.389 92.859 11.09l.013-.005 94.399-17.796.106-.01c15.023-5.312 29.346-11.778 42.529-19.389 12.561-7.252 23.314-15.103 32.261-23.33l32.617-115.977-375.717 30.407v53.177c-.001.168 0 .336 0 .503v.275h.006c.132 15.702 6.274 30.94 18.565 44.491z" fill="url(#SVGID_00000094607413947596237880000012829459435167181960_)"/><path d="m107.391 286.864c7.056 7.78 16.132 15.006 27.278 21.441 10.577 6.107 22.387 11.141 35.081 15.122v-52.874l-62.359-36.567z" fill="url(#SVGID_00000143586392082817640860000010493654366363975348_)"/><g><path d="m88.821 241.594c-.001.168-.001.336 0 .503v.275l.006-.001c.166 19.878 9.959 39.012 29.679 54.921l48.086-27.762-57.954-82.715-19.817 1.604z" fill="url(#SVGID_00000152235294154316055480000014806760142266388643_)"/></g><path d="m431.92 273.99c21.684-19.939 32.69-42.107 32.613-63.438h.004v-52.539l-32.617 63.108z" fill="url(#SVGID_00000096752721738128967110000003073916038787896485_)"/><path d="m445.954 112.891-62.351-36.561c-27.892-8.746-60.064-12.391-92.874-11.091l-94.399 17.772c-15.062 5.32-29.421 11.798-42.635 19.427-12.558 7.251-23.315 15.099-32.261 23.324l-31.976 54.364c-2.684 18.974 3.214 37.63 17.939 53.865l62.354 36.563c27.892 8.746 60.064 12.391 92.874 11.091l94.399-17.771c15.062-5.32 29.421-11.798 42.636-19.427 12.559-7.251 23.315-15.098 32.261-23.324l32.593-63.061c.041-15.944-6.096-31.424-18.56-45.171z" fill="url(#SVGID_00000079457804714674040880000004242659238704584618_)"/><path d="m380.581 113.452c-49.697-28.692-136.503-25.094-193.888 8.037s-63.617 83.249-13.92 111.941 136.503 25.094 193.888-8.037c57.384-33.131 63.617-83.248 13.92-111.941zm-27.572 104.06c-48.679 28.105-122.316 31.157-164.473 6.818-42.157-24.34-36.87-66.854 11.809-94.959s122.316-31.157 164.473-6.818c42.157 24.34 36.87 66.854-11.809 94.959z" fill="url(#SVGID_00000048488735495024186900000004848719056585546155_)"/><g><path d="m186.693 126.021c57.385-33.131 144.191-36.729 193.888-8.037 21.583 12.461 32.603 28.965 33.479 46.362.954-19.044-10.029-37.355-33.479-50.894-49.697-28.692-136.503-25.094-193.888 8.037-32.462 18.742-48.541 42.919-47.4 65.579 1.068-21.314 17.093-43.549 47.4-61.047z" fill="url(#SVGID_00000147195322134233797940000015722239386851466629_)"/><path d="m188.536 228.862c42.157 24.339 115.794 21.287 164.473-6.818 27.702-15.993 41.329-36.651 40.18-55.973-1.061 17.976-14.635 36.692-40.18 51.44-48.679 28.105-122.316 31.157-164.473 6.818-18.167-10.489-27.501-24.355-28.371-38.986-.961 16.279 8.336 31.952 28.371 43.519z" fill="url(#SVGID_00000123405962118295204530000000304761768590710670_)"/></g><g><path d="m185.295 236.648 6.594-4.443c5.411 2.542 11.325 4.763 17.577 6.603l-5.223 4.957c-6.741-1.983-13.115-4.378-18.948-7.117zm-15.846-9.199c-4.713-3.383-8.826-7.077-12.228-10.982l8.606-2.993c3.155 3.621 6.971 7.049 11.344 10.187zm56.232 21.081 3.668-5.303c6.916 1.086 14.151 1.789 21.503 2.088l-1.999 5.465c-7.922-.322-15.718-1.079-23.172-2.25zm-76.601-44.468c-1.99-4.312-3.263-8.819-3.783-13.395l9.468-1.128c.483 4.247 1.663 8.429 3.51 12.43zm123.88 46.395.27-5.442c7.514-.497 15.082-1.396 22.493-2.672l1.471 5.235c-7.985 1.374-16.139 2.343-24.234 2.879zm-126.989-73.716c.966-4.675 2.682-9.381 5.097-13.988l9.055.874c-2.243 4.276-3.835 8.644-4.732 12.984zm174.764 65.488-3.173-4.849c7.073-2.017 13.95-4.405 20.439-7.098l4.772 4.292c-6.996 2.905-14.411 5.48-22.038 7.655zm-160.29-93.056c3.801-4.395 8.294-8.666 13.354-12.695l7.406 2.778c-4.692 3.737-8.86 7.698-12.385 11.774zm202.111 75.714-6.212-3.586.305-.176c5.703-3.293 10.958-6.85 15.619-10.572l7.417 2.77c-5.022 4.011-10.682 7.842-16.824 11.389zm-165.704-96.192-6.202-3.592c6.148-3.54 12.792-6.803 19.749-9.698l4.784 4.287c-6.455 2.687-12.623 5.716-18.331 9.003zm187.772 70.075c3.512-4.076 6.428-8.316 8.664-12.602l9.059.866c-2.41 4.62-5.553 9.19-9.34 13.584zm-149.016-86.194-3.186-4.844c7.614-2.179 15.531-3.986 23.531-5.37l1.485 5.233c-7.422 1.283-14.767 2.959-21.83 4.981zm162.377 60.606c.884-4.336 1.082-8.684.589-12.926l9.468-1.136c.53 4.568.318 9.253-.634 13.923zm-118.056-68.28.255-5.441c8.089-.543 16.202-.659 24.113-.345l-1.984 5.465c-7.343-.29-14.874-.183-22.384.321zm115.099 42.93c-1.861-4.005-4.413-7.873-7.583-11.496l8.599-3.001c3.419 3.908 6.169 8.078 8.177 12.396zm-71.202-41.183 3.654-5.305c7.475 1.166 14.694 2.762 21.455 4.743l-5.21 4.961c-6.27-1.837-12.965-3.317-19.899-4.399zm52.243 19.513c-4.351-3.112-9.364-6.01-14.743-8.528l6.582-4.448c5.792 2.71 11.187 5.83 15.874 9.182z" fill="url(#SVGID_00000078025860245294492970000005146317478313813401_)"/></g><path d="m344.055 212.342c42.969-24.808 47.636-62.336 10.423-83.82-37.212-21.484-102.212-18.79-145.181 6.018s-47.636 62.335-10.423 83.82 102.212 18.791 145.181-6.018z" fill="url(#SVGID_00000098913547098490203540000004195653298525749396_)"/><g><path d="m418.684 91.453c-10.578-6.107-22.387-11.143-35.081-15.124l-8.052 4.649c-7.902 4.562-8.76 11.464-1.917 15.415l38.065 21.977c6.843 3.951 18.797 3.456 26.699-1.107l7.564-4.367c-7.058-7.78-16.132-15.007-27.278-21.443z" fill="url(#SVGID_00000114787318916394036090000006418876374589299082_)"/><path d="m196.33 83.011 2.012 5.808c1.976 5.703 11.899 8.724 22.164 6.749l57.098-10.988c10.265-1.976 16.985-8.2 15.009-13.903l-1.883-5.437c-31.988 1.266-64.577 7.238-94.4 17.771z" fill="url(#SVGID_00000031204351611233560490000011783092611180999562_)"/><path d="m142.58 139.65c3.422-5.927-1.812-11.656-11.689-12.796l-9.458-1.092c-18.625 17.125-29.362 35.892-31.975 54.364l10.009 1.156c9.878 1.141 20.659-2.739 24.081-8.666z" fill="url(#SVGID_00000027578331577218451390000015571841248480886418_)"/><path d="m179.719 250.49-38.065-21.977c-6.843-3.951-18.797-3.456-26.699 1.107l-7.564 4.367c7.058 7.78 16.132 15.008 27.278 21.443 10.578 6.107 22.387 11.143 35.081 15.124l8.052-4.649c7.902-4.563 8.761-11.464 1.917-15.415z" fill="url(#SVGID_00000031202763615357439430000015369792596390561460_)"/><path d="m262.624 334.515c31.992-1.268 64.572-7.26 94.399-17.796v-52.847l-94.399 17.772z" fill="url(#SVGID_00000091713560633215314060000013600039995650041789_)"/><path d="m355.012 258.065c-1.975-5.703-11.899-8.724-22.164-6.749l-57.098 10.989c-10.265 1.975-16.985 8.2-15.01 13.903l1.883 5.437c31.987-1.267 64.577-7.239 94.399-17.772z" fill="url(#SVGID_00000011740019107514763050000007220710226920861073_)"/><path d="m464.537 158.013-8.536-.527c-9.878-1.141-20.659 2.739-24.081 8.666l-21.147 41.081c-3.422 5.927 1.812 11.656 11.689 12.796l9.458 1.092c18.626-17.125 31.647-42.653 32.617-63.108z" fill="url(#SVGID_00000077288850547148820730000015430416744795818933_)"/></g></g><path d="m134.668 255.429c9.695 5.597 20.426 10.292 31.923 14.102h59.088l-136.848-81.314c-.311 25.182 14.752 49.264 45.837 67.212z" fill="url(#SVGID_00000177469515785585495530000004007992228287183506_)"/><g><path d="m148.479 258.444.003.002c27.888 8.744 60.054 12.389 92.859 11.09l.013-.005 94.399-17.796.106-.01c15.023-5.312 29.346-11.778 42.529-19.389 12.561-7.252 23.314-15.103 32.261-23.33l32.617-115.976-375.717 30.406v53.177c-.001.168-.001.336 0 .503v.275h.006c.132 15.702 6.274 30.94 18.565 44.491z" fill="url(#SVGID_00000025436363408142630110000007841774599263964801_)"/><path d="m410.649 209.007c21.684-19.939 32.69-42.107 32.613-63.438h.004v-52.539l-32.617 63.108z" fill="url(#SVGID_00000157300129852873464330000006493876099724632451_)"/><path d="m424.683 47.908-62.351-36.562c-27.892-8.745-60.064-12.39-92.874-11.09l-94.399 17.772c-15.062 5.319-29.421 11.798-42.635 19.427-12.558 7.251-23.315 15.099-32.261 23.324l-31.976 54.363c-2.684 18.974 3.214 37.63 17.939 53.865l62.354 36.563c27.892 8.746 60.064 12.391 92.874 11.091l94.399-17.771c15.062-5.32 29.421-11.798 42.635-19.427 12.559-7.251 23.315-15.099 32.261-23.324l32.593-63.061c.042-15.942-6.095-31.423-18.559-45.17z" fill="url(#SVGID_00000031167997290311739110000000789388187105008805_)"/><path d="m359.31 48.469c-49.697-28.692-136.503-25.094-193.888 8.037s-63.617 83.249-13.921 111.941c49.697 28.693 136.503 25.094 193.888-8.037 57.385-33.13 63.618-83.248 13.921-111.941zm-27.572 104.06c-48.679 28.105-122.316 31.157-164.473 6.818-42.157-24.34-36.87-66.854 11.809-94.959s122.316-31.157 164.473-6.818c42.157 24.34 36.87 66.854-11.809 94.959z" fill="url(#SVGID_00000072964151693010445820000013793901735234491028_)"/><g><path d="m165.422 61.039c57.385-33.131 144.191-36.729 193.888-8.037 21.583 12.461 32.603 28.965 33.479 46.362.954-19.044-10.029-37.355-33.479-50.894-49.697-28.692-136.503-25.094-193.888 8.037-32.462 18.742-48.541 42.919-47.4 65.579 1.068-21.315 17.093-43.55 47.4-61.047z" fill="url(#SVGID_00000106127731455719098030000000676790091819194508_)"/><path d="m167.265 163.879c42.157 24.339 115.794 21.287 164.473-6.818 27.701-15.993 41.329-36.651 40.18-55.973-1.061 17.976-14.634 36.692-40.18 51.44-48.679 28.105-122.316 31.157-164.473 6.818-18.167-10.489-27.501-24.355-28.371-38.986-.961 16.279 8.336 31.952 28.371 43.519z" fill="url(#SVGID_00000058552350626288292510000011579394624376933562_)"/></g><g><path d="m164.024 171.665 6.594-4.443c5.411 2.542 11.325 4.763 17.577 6.603l-5.223 4.957c-6.741-1.983-13.115-4.377-18.948-7.117zm-15.846-9.199c-4.712-3.383-8.826-7.077-12.228-10.982l8.606-2.993c3.155 3.622 6.971 7.049 11.344 10.187zm56.232 21.081 3.668-5.303c6.916 1.086 14.151 1.789 21.503 2.088l-1.999 5.465c-7.922-.322-15.719-1.079-23.172-2.25zm-76.601-44.468c-1.99-4.312-3.263-8.819-3.783-13.395l9.469-1.129c.483 4.248 1.663 8.429 3.51 12.43zm123.88 46.395.27-5.442c7.514-.497 15.083-1.396 22.494-2.672l1.471 5.235c-7.986 1.374-16.14 2.343-24.235 2.879zm-126.989-73.716c.966-4.675 2.682-9.381 5.097-13.989l9.055.874c-2.243 4.276-3.835 8.644-4.732 12.984zm174.764 65.488-3.172-4.849c7.073-2.017 13.95-4.405 20.439-7.098l4.772 4.293c-6.997 2.904-14.412 5.479-22.039 7.654zm-160.29-93.056c3.801-4.395 8.294-8.666 13.355-12.695l7.406 2.778c-4.692 3.737-8.86 7.698-12.385 11.774zm202.111 75.714-6.212-3.587.305-.176c5.703-3.293 10.958-6.85 15.619-10.572l7.417 2.77c-5.022 4.011-10.682 7.843-16.824 11.389zm-165.704-96.192-6.202-3.592c6.148-3.54 12.792-6.803 19.749-9.698l4.784 4.287c-6.455 2.687-12.623 5.716-18.331 9.003zm187.772 70.075c3.512-4.076 6.428-8.316 8.664-12.602l9.059.866c-2.411 4.62-5.553 9.19-9.34 13.584zm-149.016-86.194-3.186-4.844c7.614-2.179 15.531-3.986 23.531-5.37l1.485 5.233c-7.422 1.283-14.767 2.959-21.83 4.981zm162.377 60.607c.884-4.336 1.082-8.684.589-12.926l9.468-1.136c.53 4.568.318 9.253-.634 13.923zm-118.056-68.281.255-5.441c8.089-.543 16.203-.659 24.113-.345l-1.984 5.465c-7.343-.29-14.874-.183-22.384.321zm115.099 42.93c-1.861-4.005-4.413-7.873-7.583-11.496l8.599-3.001c3.419 3.907 6.17 8.077 8.177 12.396zm-71.202-41.182 3.654-5.305c7.475 1.166 14.694 2.762 21.455 4.743l-5.21 4.961c-6.27-1.838-12.965-3.318-19.899-4.399zm52.243 19.512c-4.352-3.112-9.364-6.011-14.743-8.528l6.582-4.448c5.792 2.71 11.187 5.83 15.874 9.182z" fill="url(#SVGID_00000023267007784804550300000012766628085767055529_)"/></g><path d="m322.784 147.359c42.969-24.808 47.636-62.336 10.423-83.82-37.212-21.485-102.212-18.79-145.181 6.018s-47.636 62.336-10.424 83.82c37.214 21.485 102.213 18.791 145.182-6.018z" fill="url(#SVGID_00000096040440482986144710000009050315267747652276_)"/><g><path d="m397.413 26.47c-10.578-6.107-22.387-11.143-35.081-15.123l-8.052 4.649c-7.902 4.562-8.76 11.464-1.917 15.415l38.065 21.977c6.844 3.951 18.797 3.456 26.699-1.107l7.564-4.367c-7.058-7.781-16.132-15.008-27.278-21.444z" fill="url(#SVGID_00000026850514792084217060000001309156271365175994_)"/><path d="m175.059 18.028 2.012 5.808c1.976 5.703 11.899 8.724 22.164 6.749l57.098-10.988c10.265-1.976 16.985-8.2 15.009-13.903l-1.883-5.437c-31.988 1.267-64.577 7.238-94.4 17.771z" fill="url(#SVGID_00000165228661614332725090000016699822859889021606_)"/><path d="m121.309 74.667c3.422-5.927-1.812-11.656-11.689-12.796l-9.458-1.092c-18.625 17.124-29.362 35.892-31.975 54.363l10.01 1.156c9.878 1.141 20.659-2.739 24.081-8.666z" fill="url(#SVGID_00000062167716528363908500000013391133684115393726_)"/><path d="m86.12 221.881c7.056 7.78 16.132 15.006 27.278 21.441 10.578 6.107 22.387 11.142 35.081 15.122v-52.874l-62.359-36.566z" fill="url(#SVGID_00000182487969763078032160000016783819302422458503_)"/><path d="m158.448 185.507-38.065-21.977c-6.843-3.951-18.797-3.456-26.699 1.107l-7.564 4.367c7.058 7.78 16.132 15.008 27.278 21.443 10.578 6.107 22.387 11.143 35.081 15.124l8.052-4.649c7.902-4.563 8.761-11.464 1.917-15.415z" fill="url(#SVGID_00000008860917812532039940000005979590622642928777_)"/><path d="m241.353 269.532c31.992-1.268 64.572-7.26 94.399-17.796v-52.847l-94.399 17.772z" fill="url(#SVGID_00000124135323954640636990000012559421447568496262_)"/><path d="m333.741 193.082c-1.975-5.703-11.898-8.724-22.164-6.749l-57.098 10.988c-10.265 1.976-16.985 8.2-15.009 13.903l1.883 5.437c31.987-1.267 64.576-7.239 94.399-17.771z" fill="url(#SVGID_00000176740937593663102550000015182384474277229734_)"/><path d="m443.266 93.03-8.536-.528c-9.878-1.141-20.659 2.739-24.081 8.666l-21.147 41.081c-3.422 5.927 1.812 11.656 11.69 12.796l9.458 1.092c18.625-17.123 31.646-42.652 32.616-63.107z" fill="url(#SVGID_00000109013614260711738760000010360486282531731388_)"/></g></g></g></svg>