<svg height="512" viewBox="0 0 64 64" width="512" xmlns="http://www.w3.org/2000/svg"><g id="Layer_39" data-name="Layer 39"><path d="m23.714.464h4.571a3.714 3.714 0 0 1 3.715 3.715 0 0 0 0 1 0 0h-12a0 0 0 0 1 0 0 3.714 3.714 0 0 1 3.714-3.715z" fill="#c1272d"/><path d="m32.5 4.679h-13v-.5a4.219 4.219 0 0 1 4.214-4.215h4.572a4.219 4.219 0 0 1 4.214 4.215zm-11.961-1h10.922a3.218 3.218 0 0 0 -3.175-2.715h-4.572a3.218 3.218 0 0 0 -3.175 2.715z"/><rect fill="#fc0" height="3.714" rx="1" width="18" x="17" y="2.321"/><path d="m34 6.536h-16a1.5 1.5 0 0 1 -1.5-1.5v-1.715a1.5 1.5 0 0 1 1.5-1.5h16a1.5 1.5 0 0 1 1.5 1.5v1.715a1.5 1.5 0 0 1 -1.5 1.5zm-16-3.715a.5.5 0 0 0 -.5.5v1.715a.5.5 0 0 0 .5.5h16a.5.5 0 0 0 .5-.5v-1.715a.5.5 0 0 0 -.5-.5z"/><path d="m6 63.5a1.5 1.5 0 0 1 -1.5-1.5v-44a13.515 13.515 0 0 1 13.5-13.5h16a13.515 13.515 0 0 1 13.5 13.5v44a1.5 1.5 0 0 1 -1.5 1.5z" fill="#ffd447"/><path d="m34 5a13.015 13.015 0 0 1 13 13v44a1 1 0 0 1 -1 1h-40a1 1 0 0 1 -1-1v-44a13.015 13.015 0 0 1 13-13zm0-1h-16a14 14 0 0 0 -14 14v44a2.006 2.006 0 0 0 2 2h40a2.006 2.006 0 0 0 2-2v-44a14 14 0 0 0 -14-14z"/><path d="m58.672 8.4v17.717h-4.844v1.969h5.813a.976.976 0 0 0 .968-.984v-18.702z" fill="#808080"/><path d="m59.641 28.586h-6.313v-2.969h4.844v-17.717h2.937v19.2a1.478 1.478 0 0 1 -1.468 1.486zm-5.313-1h5.313a.477.477 0 0 0 .468-.484v-18.202h-.937v17.717h-4.844z"/><path d="m51.891 23.164h2.809a3 3 0 0 1 3 3v1.875a3 3 0 0 1 -3 3h-2.809a0 0 0 0 1 0 0v-7.875a0 0 0 0 1 0 0z" fill="#666"/><path d="m54.7 31.539h-3.309v-8.875h3.309a3.5 3.5 0 0 1 3.5 3.5v1.875a3.5 3.5 0 0 1 -3.5 3.5zm-2.312-1h2.312a2.5 2.5 0 0 0 2.5-2.5v-1.875a2.5 2.5 0 0 0 -2.5-2.5h-2.309z"/><path d="m48.984 21.2h2.816a3 3 0 0 1 3 3v5.813a3 3 0 0 1 -3 3h-2.816a0 0 0 0 1 0 0v-11.813a0 0 0 0 1 0 0z" fill="#4d4d4d"/><path d="m51.8 33.508h-3.316v-12.808h3.316a3.5 3.5 0 0 1 3.5 3.5v5.813a3.5 3.5 0 0 1 -3.5 3.495zm-2.313-1h2.313a2.5 2.5 0 0 0 2.5-2.5v-5.808a2.5 2.5 0 0 0 -2.5-2.5h-2.316z"/><ellipse cx="59.641" cy="6.43" fill="#c1272d" rx="3.875" ry="3.937"/><path d="m59.641 10.867a4.438 4.438 0 1 1 4.375-4.437 4.411 4.411 0 0 1 -4.375 4.437zm0-7.875a3.438 3.438 0 1 0 3.375 3.438 3.41 3.41 0 0 0 -3.375-3.438z"/><path d="m4.5 52.5h43v2h-43z" fill="#c1272d"/><path d="m47 53v1h-42v-1zm1-1h-44v3h44z"/><path d="m6 63.5a1.5 1.5 0 0 1 -1.5-1.5v-7.5h43v7.5a1.5 1.5 0 0 1 -1.5 1.5z" fill="#ffe878"/><path d="m47 55v7a1 1 0 0 1 -1 1h-40a1 1 0 0 1 -1-1v-7zm1-1h-44v8a2 2 0 0 0 2 2h40a2 2 0 0 0 2-2z"/><path d="m4.5 58.5h43v1h-43z" fill="#c1272d"/><path d="m48 58h-44v2h44z"/><path d="m18 61.5a2.5 2.5 0 0 1 0-5h16a2.5 2.5 0 0 1 0 5z" fill="#c1272d"/><path d="m34 57a2 2 0 0 1 0 4h-16a2 2 0 0 1 0-4zm0-1h-16a3 3 0 0 0 0 6h16a3 3 0 0 0 0-6z"/><rect fill="#333" height="4" rx="2" width="20" x="16" y="57"/><path d="m9 49.5a1.5 1.5 0 0 1 0-3h26a1.5 1.5 0 0 1 0 3z" fill="#ffe878"/><path d="m35 47a1 1 0 0 1 0 2h-26a1 1 0 0 1 0-2zm0-1h-26a2 2 0 0 0 0 4h26a2 2 0 0 0 0-4z"/><path d="m40 46h5v4h-5z" fill="#333"/><path d="m45.5 50.5h-6v-5h6zm-5-1h4v-3h-4z"/><path d="m41 47h3v2h-3z"/><path d="m26 43.5a170.632 170.632 0 0 1 -24.219-1.735 1.5 1.5 0 0 1 -1.281-1.495v-26.55a1.474 1.474 0 0 1 1.271-1.475 169.491 169.491 0 0 1 48.448-.01 1.5 1.5 0 0 1 1.281 1.5v26.545a1.474 1.474 0 0 1 -1.271 1.475c-1.929.284-4 .546-6.172.778a170.239 170.239 0 0 1 -18.057.967z" fill="#fc0"/><path d="m26 11a170.093 170.093 0 0 1 24.139 1.728 1.009 1.009 0 0 1 .861 1v26.552a.981.981 0 0 1 -.846.981c-1.93.284-4 .545-6.15.775a169.742 169.742 0 0 1 -18.004.964 170.093 170.093 0 0 1 -24.139-1.728 1.009 1.009 0 0 1 -.861-1v-26.552a.979.979 0 0 1 .843-.98 169.186 169.186 0 0 1 24.157-1.74m0-1a169.7 169.7 0 0 0 -24.3 1.75 1.983 1.983 0 0 0 -1.7 1.97v26.55a2.012 2.012 0 0 0 1.71 1.99 170.446 170.446 0 0 0 24.29 1.74 170.159 170.159 0 0 0 18.11-.97c2.15-.23 4.22-.49 6.19-.78a1.983 1.983 0 0 0 1.7-1.97v-26.55a2.012 2.012 0 0 0 -1.71-1.99 170.446 170.446 0 0 0 -24.29-1.74z"/><g fill="#fff"><path d="m17 16v22h-12a2.006 2.006 0 0 1 -2-2v-18a2.006 2.006 0 0 1 2-2z"/><path d="m19 16h14v22h-14z"/><path d="m17 16h2v22h-2z"/><path d="m49 18v18a2.006 2.006 0 0 1 -2 2h-12v-22h12a2.006 2.006 0 0 1 2 2z"/><path d="m33 16h2v22h-2z"/></g><path d="m23.348 33.5c.089-1.116.413-4.169 1.395-5.8a10.482 10.482 0 0 1 3.546-3.31l-.482-.876a3.576 3.576 0 0 1 -1.617.366 3.073 3.073 0 0 1 -1.219-.243 2.32 2.32 0 0 0 -.844-.194c-.4 0-.841.29-1.437.942a.732.732 0 0 0 -.189.5v1.187h-2v-5.572h2a.732.732 0 0 0 .183.459.677.677 0 0 0 .5.229.665.665 0 0 0 .4-.131 2.759 2.759 0 0 1 1.668-.557 7.822 7.822 0 0 1 3.051.8 2.508 2.508 0 0 0 .888.29.66.66 0 0 0 .5-.22 1.225 1.225 0 0 0 .239-.874h1.561a3.937 3.937 0 0 1 -.56 2.187c-.8.7-4.187 6.649-3.809 10.813z" fill="#ed1c24"/><path d="m30.94 21a3.186 3.186 0 0 1 -.344 1.31c-.9.784-4.089 6.408-4.006 10.69h-2.7a13.768 13.768 0 0 1 1.279-5.048 10.079 10.079 0 0 1 3.359-3.129l-.963-1.753a3.105 3.105 0 0 1 -1.378.3 2.635 2.635 0 0 1 -1.044-.211 2.773 2.773 0 0 0 -1.019-.226c-.558 0-1.1.33-1.8 1.1a1.232 1.232 0 0 0 -.321.834v.687h-1.003v-4.554h1.12a1.186 1.186 0 0 0 1.068.688 1.156 1.156 0 0 0 .692-.229 2.274 2.274 0 0 1 1.372-.459 7.4 7.4 0 0 1 2.851.763 2.808 2.808 0 0 0 1.088.331 1.158 1.158 0 0 0 .865-.384 1.39 1.39 0 0 0 .331-.71zm.872-1h-2.212a.207.207 0 0 0 -.186.241c.031.322.043.853-.219.853-.375 0-2.063-1.094-3.939-1.094a3.264 3.264 0 0 0 -1.966.655.163.163 0 0 1 -.1.033.206.206 0 0 1 -.187-.22v-.249a.205.205 0 0 0 -.189-.219h-2.626a.205.205 0 0 0 -.188.219v6.125a.205.205 0 0 0 .188.219h2.626a.205.205 0 0 0 .186-.219v-1.468a.235.235 0 0 1 .059-.159c.354-.388.782-.779 1.067-.779.562 0 .938.437 2.063.437a4.064 4.064 0 0 0 1.856-.427 11 11 0 0 0 -3.732 3.49c-1.131 1.885-1.427 5.394-1.487 6.329a.206.206 0 0 0 .187.233h4.449a.208.208 0 0 0 .186-.249c-.561-3.95 2.871-10.046 3.606-10.688.608-.533.723-2.218.745-2.835a.207.207 0 0 0 -.187-.228z"/><path d="m7.348 33.5c.089-1.116.413-4.169 1.4-5.8a10.482 10.482 0 0 1 3.546-3.31l-.482-.876a3.576 3.576 0 0 1 -1.617.366 3.073 3.073 0 0 1 -1.219-.243 2.32 2.32 0 0 0 -.844-.194c-.4 0-.841.29-1.437.942a.732.732 0 0 0 -.189.5v1.187h-2v-5.572h2a.732.732 0 0 0 .183.459.677.677 0 0 0 .5.229.665.665 0 0 0 .4-.131 2.759 2.759 0 0 1 1.663-.557 7.822 7.822 0 0 1 3.051.8 2.508 2.508 0 0 0 .888.29.66.66 0 0 0 .495-.22 1.225 1.225 0 0 0 .239-.874h1.561a3.937 3.937 0 0 1 -.56 2.187c-.8.7-4.187 6.649-3.809 10.813z" fill="#ed1c24"/><path d="m14.94 21a3.186 3.186 0 0 1 -.344 1.31c-.9.784-4.089 6.408-4.006 10.69h-2.7a13.768 13.768 0 0 1 1.279-5.048 10.079 10.079 0 0 1 3.359-3.129l-.963-1.753a3.105 3.105 0 0 1 -1.378.3 2.635 2.635 0 0 1 -1.044-.211 2.773 2.773 0 0 0 -1.019-.226c-.558 0-1.1.33-1.805 1.1a1.232 1.232 0 0 0 -.319.843v.687h-1v-4.563h1.12a1.186 1.186 0 0 0 1.068.688 1.156 1.156 0 0 0 .692-.229 2.274 2.274 0 0 1 1.372-.459 7.4 7.4 0 0 1 2.851.763 2.808 2.808 0 0 0 1.088.331 1.158 1.158 0 0 0 .865-.384 1.39 1.39 0 0 0 .331-.71zm.872-1h-2.212a.207.207 0 0 0 -.186.241c.031.322.043.853-.219.853-.375 0-2.063-1.094-3.939-1.094a3.264 3.264 0 0 0 -1.966.655.163.163 0 0 1 -.1.033.206.206 0 0 1 -.19-.22v-.249a.205.205 0 0 0 -.186-.219h-2.626a.205.205 0 0 0 -.188.219v6.125a.205.205 0 0 0 .188.219h2.626a.205.205 0 0 0 .186-.219v-1.468a.235.235 0 0 1 .059-.159c.354-.388.782-.779 1.067-.779.562 0 .938.437 2.063.437a4.064 4.064 0 0 0 1.856-.427 11 11 0 0 0 -3.732 3.49c-1.131 1.885-1.427 5.394-1.487 6.329a.206.206 0 0 0 .188.233h4.449a.208.208 0 0 0 .186-.249c-.561-3.95 2.871-10.046 3.606-10.688.608-.533.723-2.218.745-2.835a.207.207 0 0 0 -.188-.228z"/><path d="m39.348 33.5c.089-1.116.413-4.169 1.4-5.8a10.482 10.482 0 0 1 3.546-3.31l-.482-.876a3.576 3.576 0 0 1 -1.617.366 3.073 3.073 0 0 1 -1.219-.243 2.32 2.32 0 0 0 -.844-.194c-.4 0-.841.29-1.437.942a.732.732 0 0 0 -.189.5v1.187h-2v-5.572h2a.732.732 0 0 0 .183.459.677.677 0 0 0 .5.229.665.665 0 0 0 .4-.131 2.759 2.759 0 0 1 1.668-.557 7.822 7.822 0 0 1 3.051.8 2.508 2.508 0 0 0 .888.29.66.66 0 0 0 .495-.22 1.225 1.225 0 0 0 .239-.874h1.561a3.937 3.937 0 0 1 -.56 2.187c-.8.7-4.187 6.649-3.809 10.813z" fill="#ed1c24"/><path d="m46.94 21a3.186 3.186 0 0 1 -.344 1.31c-.9.784-4.089 6.408-4.006 10.69h-2.7a13.768 13.768 0 0 1 1.279-5.048 10.079 10.079 0 0 1 3.359-3.129l-.963-1.753a3.105 3.105 0 0 1 -1.378.3 2.635 2.635 0 0 1 -1.044-.211 2.773 2.773 0 0 0 -1.019-.226c-.558 0-1.1.33-1.8 1.1a1.232 1.232 0 0 0 -.321.834v.687h-1.003v-4.554h1.12a1.186 1.186 0 0 0 1.068.688 1.156 1.156 0 0 0 .692-.229 2.274 2.274 0 0 1 1.372-.459 7.4 7.4 0 0 1 2.851.763 2.808 2.808 0 0 0 1.088.331 1.158 1.158 0 0 0 .865-.384 1.39 1.39 0 0 0 .331-.71zm.872-1h-2.212a.207.207 0 0 0 -.186.241c.031.322.043.853-.219.853-.375 0-2.063-1.094-3.939-1.094a3.264 3.264 0 0 0 -1.966.655.163.163 0 0 1 -.1.033.206.206 0 0 1 -.187-.22v-.249a.205.205 0 0 0 -.189-.219h-2.626a.205.205 0 0 0 -.188.219v6.125a.205.205 0 0 0 .188.219h2.626a.205.205 0 0 0 .186-.219v-1.468a.235.235 0 0 1 .059-.159c.354-.388.782-.779 1.067-.779.562 0 .938.437 2.063.437a4.064 4.064 0 0 0 1.856-.427 11 11 0 0 0 -3.732 3.49c-1.131 1.885-1.427 5.394-1.487 6.329a.206.206 0 0 0 .187.233h4.449a.208.208 0 0 0 .186-.249c-.561-3.95 2.871-10.046 3.606-10.688.608-.533.723-2.218.745-2.835a.207.207 0 0 0 -.187-.228z"/><path d="m17 14h2v26h-2z" fill="#fc0"/><path d="m33 15h2v26h-2z" fill="#fc0"/><g opacity=".2"><path d="m44 43v8a9 9 0 0 1 -9 9h-31v2a2.006 2.006 0 0 0 2 2h40a2.006 2.006 0 0 0 2-2v-19.437c.776-.1 1.552-.2 2.3-.313a1.983 1.983 0 0 0 1.7-1.97v-8.28c-2.92 8.35-8 11-8 11z"/></g><g opacity=".3"><ellipse cx="58.672" cy="5.445" fill="#fff" rx="1.937" ry="1.969"/></g><g opacity=".3"><path d="m23.911 16h5.089l-4.889 22-4.111-.054z" fill="#fff"/></g><g opacity=".3"><path d="m7.911 16h4.089l-4.889 22-3.111-.054z" fill="#fff"/></g><g opacity=".3"><path d="m39.911 16h4.089l-4.889 22-3.111-.054z" fill="#fff"/></g><path d="m17.5 38.5h-12.5a2.5 2.5 0 0 1 -2.5-2.5v-18a2.5 2.5 0 0 1 2.5-2.5h12.5zm-12.5-22a1.5 1.5 0 0 0 -1.5 1.5v18a1.5 1.5 0 0 0 1.5 1.5h11.5v-21z"/><path d="m33.5 38.5h-15v-23h15zm-14-1h13v-21h-13z"/><path d="m47 38.5h-12.5v-23h12.5a2.5 2.5 0 0 1 2.5 2.5v18a2.5 2.5 0 0 1 -2.5 2.5zm-11.5-1h11.5a1.5 1.5 0 0 0 1.5-1.5v-18a1.5 1.5 0 0 0 -1.5-1.5h-11.5z"/></g></svg>