<svg id="Flat" height="512" viewBox="0 0 512 512" width="512" xmlns="http://www.w3.org/2000/svg"><circle cx="448.326" cy="190.871" fill="#f9b534" r="39.674"/><path d="m162.524 355.24s-28.819 12.463-41.246 29.824c-8.5 11.87-24.319 34.22-24.319 34.22s-14.454-3.984-19.369 3.832c-5.926 9.427 9.294 43.2 16.448 57.93a12.349 12.349 0 0 0 11.145 6.954 12.4 12.4 0 0 0 11.973-15.638l-6.692-24.762 90.992-70.7 14.986-97.406c-25.531-2.752-56.552-8.836-70.472-22.273z" fill="#fcded5"/><path d="m152.329 360.331c-9.528 5.209-23.4 14.039-31.051 24.733-8.5 11.87-24.319 34.22-24.319 34.22s-14.454-3.984-19.369 3.832c-5.926 9.427 9.294 43.2 16.448 57.93a12.349 12.349 0 0 0 11.145 6.954 12.4 12.4 0 0 0 11.973-15.638l-6.692-24.762 72.6-56.412z" fill="#f0534a"/><path d="m155.37 312.877 54.686 8.123 6.386-41.507c-25.531-2.752-56.552-8.836-70.472-22.273z" fill="#3d8dcc"/><path d="m104.894 442.062a21.779 21.779 0 0 1 -6.135-11.894l-1.8-10.884s-14.454-3.984-19.369 3.832c-5.926 9.427 9.294 43.2 16.448 57.93a12.349 12.349 0 0 0 11.145 6.954 12.4 12.4 0 0 0 11.973-15.638l-6.692-24.762z" fill="#4e5e77"/><path d="m216.442 279.491c-25.531-2.752-56.552-8.836-70.472-22.273l2.6 15.373c17.731 10.394 43.843 15.455 66.183 17.9z" fill="#2c7ebe"/><path d="m395.3 289.018a11.621 11.621 0 0 0 -11.614 1.337l-30.147 22.522-76.255-61.577-61.706-27.995 11.831-54.061 37.063 13.469a22.841 22.841 0 0 0 26.6-34.423l-15.172-22.046-12.569-18.262-43.938-13.494a18.175 18.175 0 0 1 -9.023 2.537h-.31a19.154 19.154 0 0 1 -11.541-4.489l-57.347-4.8-47.323 19.6-54.28-7.816a13.625 13.625 0 0 0 -4.333 26.9l55.923 9.98 49.492-8.557 4.108 81.311s-15.09 27.858-6.079 43.659c18.584 32.587 117.32 31.953 117.32 31.953a117.963 117.963 0 0 0 33.813 30.858c16.268 9.76 34.58 16.722 47.955 21.66 5.25 1.939 7.459 17.643 17.683 17.784 9.019.124 32.342-31.176 44.73-48.764a11.584 11.584 0 0 0 -4.881-17.286zm-152.411-152.67 6.877 12.78-12.721-4.141z" fill="#fcded5"/><path d="m263.331 107.982-43.938-13.494a18.175 18.175 0 0 1 -9.023 2.537h-.31a19.154 19.154 0 0 1 -11.541-4.489l-57.347-4.8-25.9 10.73v33.759l25.38-4.388 3.606 71.379 73.8 12.755 12.591-57.529 12.24-18.095 33.011-10.1z" fill="#f0534a"/><path d="m230.649 154.443 2.4-3.54-27.3-8.887a12.515 12.515 0 0 0 -15.8 8.092 12.514 12.514 0 0 0 7.647 15.57l28.343 10.3z" fill="#e44d44"/><path d="m239.811 59.818c-.4 20.992-13.769 40.506-29.808 40.2s-28.671-20.3-28.276-41.3 13.665-35.023 29.7-34.721 28.779 14.83 28.384 35.821z" fill="#fcded5"/><path d="m219.393 94.488a18.175 18.175 0 0 1 -9.023 2.537h-.31a19.154 19.154 0 0 1 -11.541-4.489l-15.719-1.318c6.648 10.064 16.349 16.6 27.058 16.8h.517c8.01 0 15.584-3.6 21.8-9.613z" fill="#e44d44"/><path d="m239.811 59.818c-.4 20.992-13.769 40.506-29.808 40.2s-28.671-20.3-28.276-41.3 13.665-35.023 29.7-34.721 28.779 14.83 28.384 35.821z" fill="#fcded5"/><path d="m215.578 223.306 2.48-11.334-73.8-12.755.5 9.932s-15.09 27.858-6.079 43.659c9.805 17.195 41.92 25.14 70.075 28.81l34.135-45.918z" fill="#3d8dcc"/><path d="m395.3 289.018a11.621 11.621 0 0 0 -11.614 1.337l-30.147 22.522-60.807-49.106-28.332 31.135a119.493 119.493 0 0 0 25.417 20.718c16.268 9.76 34.58 16.722 47.955 21.66a6.364 6.364 0 0 1 2.685 2.324c3.664 4.92 6.676 15.345 15 15.46 9.019.124 32.342-31.176 44.73-48.764a11.584 11.584 0 0 0 -4.887-17.286z" fill="#f0534a"/><path d="m395.3 289.018a11.621 11.621 0 0 0 -11.614 1.337l-30.147 22.522v8.523a16.487 16.487 0 0 1 -6.393 13.035l-6.687 5.169c3.664 4.92 6.676 15.345 15 15.46 9.019.124 32.342-31.176 44.73-48.764a11.584 11.584 0 0 0 -4.889-17.282z" fill="#4e5e77"/><path d="m291.075 148.291-15.175-22.047-33.011 10.1 6.877 12.78-42.7-13.9a12.513 12.513 0 0 0 -15.794 8.092 12.515 12.515 0 0 0 7.646 15.57l65.553 23.822a22.841 22.841 0 0 0 26.6-34.423z" fill="#fcd3c4"/></svg>