<svg id="Layer_1" enable-background="new 0 0 510 510" height="512" viewBox="0 0 510 510" width="512" xmlns="http://www.w3.org/2000/svg" xmlns:xlink="http://www.w3.org/1999/xlink"><linearGradient id="SVGID_1_" gradientUnits="userSpaceOnUse" x1="462.689" x2="482.364" y1="221.348" y2="221.348"><stop offset="0" stop-color="#e4f2ff"/><stop offset="1" stop-color="#b2cbff"/></linearGradient><linearGradient id="lg1"><stop offset="0" stop-color="#3f3ced" stop-opacity="0"/><stop offset=".2796" stop-color="#3c3de4" stop-opacity=".28"/><stop offset=".7305" stop-color="#3541cc" stop-opacity=".731"/><stop offset="1" stop-color="#2f43bb"/></linearGradient><linearGradient id="SVGID_2_" gradientUnits="userSpaceOnUse" x1="502.356" x2="451.398" xlink:href="#lg1" y1="173.208" y2="121.908"/><linearGradient id="SVGID_3_" gradientUnits="userSpaceOnUse" x1="456.875" x2="506.946" y1="102.531" y2="152.603"><stop offset="0" stop-color="#91f27f"/><stop offset="1" stop-color="#00b302"/></linearGradient><linearGradient id="SVGID_4_" gradientUnits="userSpaceOnUse" x1="475.191" x2="440.205" y1="120.847" y2="85.861"><stop offset="0" stop-color="#91f27f" stop-opacity="0"/><stop offset="1" stop-color="#ffed82"/></linearGradient><linearGradient id="SVGID_5_" gradientUnits="userSpaceOnUse" x1="469.871" x2="572.956" y1="132.825" y2="49.093"><stop offset="0" stop-color="#005a01" stop-opacity="0"/><stop offset="1" stop-color="#005a01"/></linearGradient><linearGradient id="lg2"><stop offset="0" stop-color="#9b62cd"/><stop offset=".3003" stop-color="#985dcb"/><stop offset=".6716" stop-color="#8f4ec7"/><stop offset="1" stop-color="#833ac1"/></linearGradient><linearGradient id="SVGID_6_" gradientUnits="userSpaceOnUse" x1="468.082" x2="468.082" xlink:href="#lg2" y1="302.773" y2="351.436"/><linearGradient id="lg3"><stop offset="0" stop-color="#833ac1" stop-opacity="0"/><stop offset="1" stop-color="#6e566e"/></linearGradient><linearGradient id="SVGID_7_" gradientUnits="userSpaceOnUse" x1="476.932" x2="432.844" xlink:href="#lg3" y1="327.274" y2="303.97"/><linearGradient id="lg4"><stop offset="0" stop-color="#ff7044"/><stop offset="1" stop-color="#f82814"/></linearGradient><linearGradient id="SVGID_8_" gradientUnits="userSpaceOnUse" x1="428.726" x2="428.726" xlink:href="#lg4" y1="296.65" y2="370.357"/><linearGradient id="lg5"><stop offset="0" stop-color="#f82814" stop-opacity="0"/><stop offset="1" stop-color="#c0272d"/></linearGradient><linearGradient id="SVGID_9_" gradientUnits="userSpaceOnUse" x1="445.964" x2="376.009" xlink:href="#lg5" y1="333.39" y2="296.414"/><linearGradient id="SVGID_10_" gradientUnits="userSpaceOnUse" x1="209.954" x2="209.954" xlink:href="#lg4" y1="92.082" y2="182.38"/><linearGradient id="SVGID_11_" gradientUnits="userSpaceOnUse" x1="211.411" x2="177.977" y1="128.338" y2="81.985"><stop offset="0" stop-color="#ff7044" stop-opacity="0"/><stop offset="1" stop-color="#ffa325"/></linearGradient><linearGradient id="SVGID_12_" gradientUnits="userSpaceOnUse" x1="230.089" x2="230.089" xlink:href="#lg5" y1="79.826" y2="170.125"/><linearGradient id="SVGID_13_" gradientUnits="userSpaceOnUse" x1="209.954" x2="209.954" y1="109.976" y2="27.352"><stop offset="0" stop-color="#fff" stop-opacity="0"/><stop offset="1" stop-color="#fff"/></linearGradient><linearGradient id="SVGID_14_" gradientUnits="userSpaceOnUse" x1="209.954" x2="209.954" y1="136.974" y2="182.927"><stop offset="0" stop-color="#8a7889"/><stop offset="1" stop-color="#6e566e"/></linearGradient><linearGradient id="SVGID_15_" gradientUnits="userSpaceOnUse" x1="223.409" x2="178.242" y1="171.761" y2="106.884"><stop offset="0" stop-color="#8a7889" stop-opacity="0"/><stop offset="1" stop-color="#9d8b91"/></linearGradient><linearGradient id="SVGID_16_" gradientUnits="userSpaceOnUse" x1="108.53" x2="310.91" xlink:href="#lg2" y1="212.579" y2="416.292"/><linearGradient id="SVGID_17_" gradientUnits="userSpaceOnUse" x1="209.954" x2="209.954" y1="192.731" y2="165.447"><stop offset="0" stop-color="#9b62cd"/><stop offset=".1454" stop-color="#965acb"/><stop offset=".672" stop-color="#8843c4"/><stop offset="1" stop-color="#833ac1"/></linearGradient><linearGradient id="SVGID_18_" gradientUnits="userSpaceOnUse" x1="303.909" x2="-85.502" y1="380.871" y2="113.703"><stop offset="0" stop-color="#9b62cd" stop-opacity="0"/><stop offset="1" stop-color="#ff75c8"/></linearGradient><linearGradient id="SVGID_19_" gradientUnits="userSpaceOnUse" x1="211.913" x2="209.435" xlink:href="#lg3" y1="492.56" y2="383.552"/><linearGradient id="lg6"><stop offset="0" stop-color="#ffd945"/><stop offset=".3043" stop-color="#ffcd3e"/><stop offset=".8558" stop-color="#ffad2b"/><stop offset="1" stop-color="#ffa325"/></linearGradient><linearGradient id="SVGID_20_" gradientUnits="userSpaceOnUse" x1="203.07" x2="228.795" xlink:href="#lg6" y1="267.627" y2="443.419"/><linearGradient id="SVGID_21_" gradientUnits="userSpaceOnUse" x1="242.089" x2="110.778" y1="365.842" y2="140.585"><stop offset="0" stop-color="#ffd945" stop-opacity="0"/><stop offset="1" stop-color="#fbed21"/></linearGradient><linearGradient id="lg7"><stop offset="0" stop-color="#fff"/><stop offset="1" stop-color="#e4f2ff"/></linearGradient><linearGradient id="SVGID_22_" gradientUnits="userSpaceOnUse" x1="80.345" x2="80.345" xlink:href="#lg7" y1="283.231" y2="371.71"/><linearGradient id="SVGID_23_" gradientUnits="userSpaceOnUse" x1="209.954" x2="209.954" xlink:href="#lg7" y1="283.231" y2="371.71"/><linearGradient id="SVGID_24_" gradientUnits="userSpaceOnUse" x1="339.563" x2="339.563" xlink:href="#lg7" y1="283.231" y2="371.71"/><linearGradient id="SVGID_25_" gradientUnits="userSpaceOnUse" x1="80.345" x2="80.345" xlink:href="#lg1" y1="249.179" y2="221.294"/><linearGradient id="SVGID_26_" gradientUnits="userSpaceOnUse" x1="209.954" x2="209.954" xlink:href="#lg1" y1="249.179" y2="221.294"/><linearGradient id="SVGID_27_" gradientUnits="userSpaceOnUse" x1="339.563" x2="339.563" xlink:href="#lg1" y1="249.179" y2="221.294"/><linearGradient id="SVGID_28_" gradientUnits="userSpaceOnUse" x1="84.47" x2="33.621" xlink:href="#lg1" y1="311.119" y2="259.069"/><linearGradient id="SVGID_29_" gradientUnits="userSpaceOnUse" x1="43.076" x2="117.614" xlink:href="#lg6" y1="314.672" y2="314.672"/><linearGradient id="SVGID_30_" gradientUnits="userSpaceOnUse" x1="46.566" x2="114.124" xlink:href="#lg4" y1="314.672" y2="314.672"/><linearGradient id="SVGID_31_" gradientUnits="userSpaceOnUse" x1="214.468" x2="163.166" xlink:href="#lg1" y1="311.517" y2="259.004"/><linearGradient id="SVGID_32_" gradientUnits="userSpaceOnUse" x1="242.077" x2="182.593" xlink:href="#lg1" y1="335.042" y2="297.786"/><linearGradient id="SVGID_33_" gradientUnits="userSpaceOnUse" x1="172.685" x2="247.223" xlink:href="#lg6" y1="314.672" y2="314.672"/><linearGradient id="SVGID_34_" gradientUnits="userSpaceOnUse" x1="176.175" x2="243.733" xlink:href="#lg4" y1="314.672" y2="314.672"/><linearGradient id="SVGID_35_" gradientUnits="userSpaceOnUse" x1="342.44" x2="291.712" xlink:href="#lg1" y1="307.839" y2="246.528"/><linearGradient id="SVGID_36_" gradientUnits="userSpaceOnUse" x1="370.345" x2="314.504" xlink:href="#lg1" y1="333.198" y2="298.224"/><linearGradient id="SVGID_37_" gradientUnits="userSpaceOnUse" x1="302.294" x2="376.832" xlink:href="#lg6" y1="314.672" y2="314.672"/><linearGradient id="SVGID_38_" gradientUnits="userSpaceOnUse" x1="305.785" x2="373.342" xlink:href="#lg4" y1="314.672" y2="314.672"/><linearGradient id="SVGID_39_" gradientUnits="userSpaceOnUse" x1="112.548" x2="53.818" xlink:href="#lg1" y1="334.089" y2="297.305"/><linearGradient id="SVGID_40_" gradientTransform="matrix(0 1 1 0 -980.783 980.783)" gradientUnits="userSpaceOnUse" x1="-930.253" x2="-930.253" xlink:href="#lg6" y1="1188.917" y2="1204.998"/><linearGradient id="SVGID_41_" gradientTransform="matrix(-1 0 0 1 -680.1 -1190.1)" gradientUnits="userSpaceOnUse" x1="-961.149" x2="-961.149" xlink:href="#lg6" y1="1299.048" y2="1315.129"/><linearGradient id="SVGID_42_" gradientTransform="matrix(-1 0 0 1 -680.1 -1190.1)" gradientUnits="userSpaceOnUse" x1="-818.959" x2="-818.959" xlink:href="#lg6" y1="1299.048" y2="1315.129"/><linearGradient id="SVGID_43_" gradientTransform="matrix(-.707 .707 .707 .707 -1280.033 -167.027)" gradientUnits="userSpaceOnUse" x1="-921.826" x2="-921.826" xlink:href="#lg6" y1="1252.809" y2="1268.891"/><linearGradient id="SVGID_44_" gradientTransform="matrix(-.707 -.707 -.707 .707 467.71 -1489.351)" gradientUnits="userSpaceOnUse" x1="-884.535" x2="-884.535" xlink:href="#lg6" y1="1316.514" y2="1332.596"/><path d="m459.685 130.013h23.31v182.669h-23.31z" fill="url(#SVGID_1_)"/><path d="m459.685 153.954 23.31 23.31v-47.251h-23.31z" fill="url(#SVGID_2_)"/><circle cx="471.34" cy="116.996" fill="url(#SVGID_3_)" r="38.66"/><circle cx="471.34" cy="116.996" fill="url(#SVGID_4_)" r="32.265"/><path d="m488.634 82.413c2.607 5.204 4.077 11.077 4.077 17.294 0 21.351-17.309 38.66-38.66 38.66-6.217 0-12.09-1.47-17.294-4.077 6.348 12.669 19.449 21.366 34.583 21.366 21.352 0 38.66-17.309 38.66-38.66 0-15.134-8.698-28.236-21.366-34.583z" fill="url(#SVGID_5_)"/><path d="m467.065 345.961h-17.428v-62.579h17.428c10.749 0 19.463 8.714 19.463 19.463v23.653c0 10.749-8.714 19.463-19.463 19.463z" fill="url(#SVGID_6_)"/><path d="m456.542 283.382h-6.905v62.579h17.428c10.749 0 19.463-8.714 19.463-19.463v-13.13z" fill="url(#SVGID_7_)"/><path d="m438.475 362.064h-37.689v-94.786h37.689c10.045 0 18.189 8.143 18.189 18.189v58.408c0 10.046-8.143 18.189-18.189 18.189z" fill="url(#SVGID_8_)"/><path d="m419.878 267.574.436-.296h-19.527v94.786h37.689c10.045 0 18.189-8.143 18.189-18.189v-39.515z" fill="url(#SVGID_9_)"/><path d="m260.491 162.927h-101.074v-34.054c0-27.911 22.626-50.537 50.538-50.537 27.911 0 50.537 22.626 50.537 50.537v34.054z" fill="url(#SVGID_10_)"/><path d="m233.089 83.94c-9.391-4.843-20.403-4.843-29.794 0-16.274 8.392-27.403 25.36-27.403 44.933v34.054h84.6v-34.054c-.001-19.573-11.129-36.54-27.403-44.933z" fill="url(#SVGID_11_)"/><path d="m209.954 78.336c-3.518 0-6.952.361-10.267 1.046 22.988 4.744 40.271 25.099 40.271 49.492v34.054h20.533v-34.054c0-27.912-22.626-50.538-50.537-50.538z" fill="url(#SVGID_12_)"/><ellipse cx="209.954" cy="107.574" fill="url(#SVGID_13_)" rx="35.295" ry="25.508"/><path d="m276.966 173.027h-134.024v-27.528c0-8.572 6.949-15.521 15.521-15.521h102.982c8.572 0 15.521 6.949 15.521 15.521z" fill="url(#SVGID_14_)"/><path d="m276.966 173.027v-27.528c0-3.221-.982-6.212-2.661-8.692-2.041-.988-4.322-1.557-6.742-1.557h-102.982c-8.572 0-15.521 6.949-15.521 15.521v22.256z" fill="url(#SVGID_15_)"/><path d="m374.66 475.417h-329.412c-14.43 0-26.127-11.697-26.127-26.127v-269.237c0-14.43 11.697-26.127 26.127-26.127h329.412c14.429 0 26.127 11.697 26.127 26.127v269.237c0 14.429-11.698 26.127-26.127 26.127z" fill="url(#SVGID_16_)"/><path d="m283.804 196.867h-147.7c-6.79 0-12.295-5.505-12.295-12.295 0-6.79 5.505-12.295 12.295-12.295h147.7c6.79 0 12.295 5.505 12.295 12.295 0 6.791-5.505 12.295-12.295 12.295z" fill="url(#SVGID_17_)"/><path d="m56.329 165.007c-14.429 0-26.127 11.697-26.127 26.127v269.237c0 4.361 1.074 8.468 2.963 12.083 3.614 1.889 7.722 2.963 12.083 2.963h329.412c14.429 0 26.127-11.697 26.127-26.127v-269.237c0-4.361-1.074-8.468-2.963-12.083-3.614-1.889-7.722-2.963-12.083-2.963z" fill="url(#SVGID_18_)"/><path d="m19.126 399.603v13.547l62.271 62.271h293.267c14.42 0 26.117-11.697 26.117-26.128v-49.69z" fill="url(#SVGID_19_)"/><path d="m0 235.976v157.392c0 9.793 7.207 18.109 16.905 19.47 128.419 18.025 257.679 18.026 386.099 0 9.697-1.361 16.905-9.678 16.905-19.47 0-52.464 0-104.928 0-157.392 0-9.793-7.207-18.109-16.905-19.47-128.419-18.025-257.68-18.026-386.099 0-9.698 1.361-16.905 9.677-16.905 19.47z" fill="url(#SVGID_20_)"/><path d="m25.871 223.978c-9.697 1.361-16.905 9.678-16.905 19.47v157.392c0 3.921 1.17 7.594 3.178 10.69 1.499.62 3.089 1.074 4.76 1.308 128.419 18.025 257.679 18.026 386.099 0 9.697-1.361 16.905-9.678 16.905-19.47 0-52.464 0-104.928 0-157.392 0-3.921-1.17-7.594-3.178-10.69-1.499-.62-3.089-1.074-4.76-1.308-128.419-18.026-257.68-18.026-386.099 0z" fill="url(#SVGID_21_)"/><path d="m129.953 245.346v138.651c0 3.515-3.428 6.314-7.483 6.088-28.592-1.594-57.177-3.968-85.589-7.098-3.515-.387-6.145-2.986-6.145-6.051v-124.528c0-3.066 2.63-5.664 6.145-6.051 28.412-3.13 56.997-5.504 85.589-7.098 4.055-.226 7.483 2.572 7.483 6.087z" fill="url(#SVGID_22_)"/><path d="m259.563 243.503v142.337c0 3.286-3.012 5.992-6.807 6.097-14.293.398-28.566.593-42.79.593-.011 0-.011 0-.011 0-14.234 0-28.508-.196-42.801-.593-3.796-.106-6.807-2.811-6.807-6.097v-142.337c0-3.286 3.012-5.992 6.807-6.097 14.294-.398 28.568-.593 42.801-.593 14.234 0 28.508.196 42.801.593 3.795.105 6.807 2.811 6.807 6.097z" fill="url(#SVGID_23_)"/><path d="m389.172 252.408v124.527c0 3.066-2.63 5.664-6.145 6.051-28.412 3.13-56.997 5.504-85.589 7.098-4.054.226-7.483-2.572-7.483-6.088v-138.65c0-3.515 3.428-6.314 7.483-6.088 28.592 1.594 57.177 3.968 85.589 7.098 3.515.388 6.145 2.986 6.145 6.052z" fill="url(#SVGID_24_)"/><path d="m129.953 245.348v32.465c-33.105 1.91-66.188 5.024-99.217 9.331v-34.732c0-3.071 2.626-5.664 6.141-6.055 28.417-3.125 56.998-5.501 85.589-7.096 4.059-.228 7.487 2.571 7.487 6.087z" fill="url(#SVGID_25_)"/><path d="m259.563 243.503v32.888c-33.062-1.194-66.156-1.194-99.217 0v-32.888c0-3.288 3.016-5.989 6.803-6.098 14.301-.402 28.569-.597 42.805-.597s28.504.195 42.805.597c3.787.109 6.804 2.81 6.804 6.098z" fill="url(#SVGID_26_)"/><path d="m389.172 252.411v34.732c-33.029-4.308-66.112-7.422-99.217-9.331v-32.465c0-3.516 3.429-6.315 7.487-6.087 28.591 1.595 57.171 3.971 85.589 7.096 3.515.391 6.141 2.985 6.141 6.055z" fill="url(#SVGID_27_)"/><path d="m129.953 383.997v-107.44l-13.313-13.313c-.567-.779-1.375-1.525-2.443-2.237-2.277-1.518-4.58-2.277-6.907-2.277h-53.891c-2.633 0-5.01.759-7.135 2.277s-3.188 3.188-3.188 5.009v23.531c0 1.787.889 3.335 2.661 4.648l29.013 29.024-18.164 31.454c-.709 1.317-1.062 2.633-1.062 3.947 0 3.098 1.344 5.755 4.001 7.982l20.546 20.546c14.118 1.167 28.258 2.148 42.399 2.936 4.055.227 7.483-2.572 7.483-6.087z" fill="url(#SVGID_28_)"/><path d="m43.076 289.547v-23.531c0-1.821 1.062-3.492 3.188-5.009 2.126-1.518 4.502-2.277 7.135-2.277h53.892c2.327 0 4.63.759 6.907 2.277 2.278 1.518 3.416 3.188 3.416 5.009v18.976c0 3.544-1.62 8.35-4.858 14.422l-35.524 68.01c-1.115 2.125-3.34 3.188-6.68 3.188-3.847 0-7.312-1.162-10.398-3.492-3.089-2.327-4.63-5.161-4.63-8.501 0-1.314.353-2.631 1.062-3.947l37.345-64.671v-10.626h-27.173v10.171c0 2.026-1.215 3.746-3.644 5.161-2.429 1.419-5.214 2.126-8.349 2.126-3.24 0-5.996-.707-8.274-2.126-2.277-1.414-3.415-3.134-3.415-5.16z" fill="url(#SVGID_29_)"/><path d="m70.553 367.123c-3.098 0-5.811-.912-8.296-2.787-2.907-2.19-3.242-4.31-3.242-5.715 0-.724.204-1.461.623-2.252l37.784-65.431v-15.052h-34.155v13.661c0 .685-.643 1.407-1.911 2.146-1.903 1.111-4.058 1.651-6.592 1.651-2.6 0-4.702-.523-6.428-1.598-1.77-1.101-1.77-1.898-1.77-2.199v-23.531c0-.815 1.081-1.709 1.726-2.169 1.533-1.095 3.204-1.627 5.107-1.627h53.892c1.638 0 3.264.553 4.971 1.691 1.166.777 1.862 1.564 1.862 2.105v18.976c0 2.025-.772 5.885-4.447 12.78l-35.537 68.037c-.17.321-.69 1.314-3.587 1.314z" fill="url(#SVGID_30_)"/><path d="m259.563 276.554v109.286c0 3.288-3.017 5.989-6.803 6.098-12.597.358-25.173.543-37.705.586l-25.803-25.803-.119-.119c-2.658-2.224-4.004-4.883-4.004-7.986 0-1.313.358-2.626 1.063-3.939l18.164-31.456-29.014-29.025c-1.769-1.313-2.658-2.865-2.658-4.655v-23.524c0-1.823 1.063-3.494 3.19-5.013s4.503-2.279 7.14-2.279h53.884c2.333 0 4.633.76 6.912 2.279 1.063.716 1.877 1.465 2.441 2.235z" fill="url(#SVGID_31_)"/><path d="m259.563 276.554v109.286c0 3.288-3.017 5.989-6.803 6.098-12.597.358-25.173.543-37.705.586l-25.803-25.803c.163.13.336.271.51.402 3.092 2.333 6.554 3.494 10.406 3.494 3.331 0 5.555-1.063 6.673-3.19l35.525-68.011c3.234-6.076 4.861-10.883 4.861-14.42v-18.978c0-.955-.315-1.877-.955-2.756z" fill="url(#SVGID_32_)"/><path d="m172.685 289.547v-23.531c0-1.821 1.062-3.492 3.188-5.009 2.126-1.518 4.502-2.277 7.135-2.277h53.892c2.327 0 4.63.759 6.907 2.277s3.416 3.188 3.416 5.009v18.976c0 3.544-1.62 8.35-4.858 14.422l-35.523 68.01c-1.115 2.125-3.34 3.188-6.68 3.188-3.848 0-7.313-1.162-10.399-3.492-3.089-2.327-4.63-5.161-4.63-8.501 0-1.314.353-2.631 1.062-3.947l37.345-64.671v-10.626h-27.174v10.171c0 2.026-1.215 3.746-3.644 5.161-2.429 1.419-5.214 2.126-8.349 2.126-3.24 0-5.996-.707-8.274-2.126-2.276-1.414-3.414-3.134-3.414-5.16z" fill="url(#SVGID_33_)"/><path d="m200.162 367.123c-3.098 0-5.811-.912-8.296-2.787-2.907-2.19-3.243-4.31-3.243-5.715 0-.724.204-1.461.623-2.252l37.784-65.431v-15.052h-34.154v13.661c0 .685-.643 1.407-1.911 2.146-1.903 1.111-4.058 1.651-6.592 1.651-2.6 0-4.702-.523-6.428-1.598-1.77-1.101-1.77-1.898-1.77-2.199v-23.531c0-.815 1.081-1.709 1.726-2.169 1.533-1.095 3.204-1.627 5.107-1.627h53.892c1.638 0 3.264.553 4.971 1.691 1.166.777 1.862 1.564 1.862 2.105v18.976c0 2.025-.772 5.885-4.447 12.78l-35.537 68.037c-.169.321-.69 1.314-3.587 1.314z" fill="url(#SVGID_34_)"/><path d="m389.172 276.554v100.378c0 3.071-2.626 5.664-6.141 6.055-14.453 1.595-28.971 2.984-43.489 4.188-.011 0-.011 0-.022 0-.076-.011-.152-.011-.228-.022l-20.551-20.551c-2.658-2.224-4.004-4.883-4.004-7.986 0-1.313.358-2.626 1.063-3.939l18.164-31.456-29.014-29.025c-1.769-1.313-2.658-2.865-2.658-4.655v-23.524c0-1.823 1.063-3.494 3.19-5.013s4.503-2.279 7.14-2.279h53.884c2.333 0 4.633.76 6.912 2.279 1.063.716 1.877 1.465 2.441 2.235z" fill="url(#SVGID_35_)"/><path d="m389.172 276.554v100.378c0 3.071-2.626 5.664-6.141 6.055-14.464 1.595-28.982 2.984-43.51 4.188-.076-.011-.152-.011-.228-.022l-20.432-20.432c.163.13.336.271.51.402 3.092 2.333 6.554 3.494 10.406 3.494 3.331 0 5.555-1.063 6.673-3.19l35.525-68.011c3.233-6.076 4.861-10.883 4.861-14.42v-18.978c0-.955-.315-1.877-.955-2.756z" fill="url(#SVGID_36_)"/><path d="m302.294 289.547v-23.531c0-1.821 1.062-3.492 3.188-5.009 2.126-1.518 4.502-2.277 7.135-2.277h53.892c2.327 0 4.63.759 6.907 2.277s3.416 3.188 3.416 5.009v18.976c0 3.544-1.62 8.35-4.858 14.422l-35.523 68.01c-1.115 2.125-3.34 3.188-6.68 3.188-3.848 0-7.313-1.162-10.398-3.492-3.089-2.327-4.63-5.161-4.63-8.501 0-1.314.353-2.631 1.062-3.947l37.345-64.671v-10.626h-27.174v10.171c0 2.026-1.215 3.746-3.644 5.161-2.429 1.419-5.214 2.126-8.349 2.126-3.24 0-5.996-.707-8.274-2.126-2.276-1.414-3.415-3.134-3.415-5.16z" fill="url(#SVGID_37_)"/><path d="m329.771 367.123c-3.098 0-5.811-.912-8.296-2.787-2.907-2.19-3.242-4.31-3.242-5.715 0-.724.204-1.461.623-2.252l37.784-65.431v-15.052h-34.154v13.661c0 .685-.643 1.407-1.911 2.146-1.902 1.111-4.058 1.651-6.592 1.651-2.6 0-4.702-.523-6.428-1.598-1.77-1.101-1.77-1.898-1.77-2.199v-23.531c0-.815 1.081-1.709 1.726-2.169 1.533-1.095 3.204-1.627 5.107-1.627h53.892c1.638 0 3.264.553 4.97 1.691 1.166.777 1.862 1.564 1.862 2.105v18.976c0 2.025-.772 5.885-4.447 12.78l-35.537 68.037c-.169.321-.689 1.314-3.587 1.314z" fill="url(#SVGID_38_)"/><path d="m129.953 276.554v107.442c0 3.515-3.429 6.315-7.487 6.087-14.138-.781-28.276-1.769-42.393-2.93l-20.431-20.432c.163.13.336.271.51.402 3.092 2.333 6.554 3.494 10.406 3.494 3.331 0 5.556-1.063 6.673-3.19l35.525-68.011c3.233-6.076 4.861-10.883 4.861-14.42v-18.978c0-.955-.315-1.877-.955-2.756z" fill="url(#SVGID_39_)"/><path d="m217.769 58.666v-16.272c0-4.316-3.499-7.815-7.815-7.815-4.316 0-7.815 3.499-7.815 7.815v16.272c0 4.317 3.499 7.815 7.815 7.815 4.316 0 7.815-3.498 7.815-7.815z" fill="url(#SVGID_40_)"/><path d="m272.913 118.583h16.272c4.316 0 7.815-3.499 7.815-7.815 0-4.316-3.499-7.815-7.815-7.815h-16.272c-4.316 0-7.815 3.499-7.815 7.815-.001 4.316 3.499 7.815 7.815 7.815z" fill="url(#SVGID_41_)"/><path d="m130.723 118.583h16.273c4.316 0 7.815-3.499 7.815-7.815 0-4.316-3.499-7.815-7.815-7.815h-16.273c-4.316 0-7.815 3.499-7.815 7.815-.001 4.316 3.498 7.815 7.815 7.815z" fill="url(#SVGID_42_)"/><path d="m258.711 79.578 11.506-11.506c3.052-3.052 3.052-8 0-11.052-3.052-3.052-8-3.052-11.053 0l-11.506 11.506c-3.052 3.052-3.052 8 0 11.053 3.052 3.051 8.001 3.051 11.053-.001z" fill="url(#SVGID_43_)"/><path d="m149.691 68.071 11.506 11.506c3.052 3.052 8 3.052 11.052 0 3.052-3.052 3.052-8.001 0-11.053l-11.506-11.506c-3.052-3.052-8-3.052-11.053 0-3.051 3.053-3.052 8.001.001 11.053z" fill="url(#SVGID_44_)"/></svg>