<svg id="Capa_1" enable-background="new 0 0 510 510" height="512" viewBox="0 0 510 510" width="512" xmlns="http://www.w3.org/2000/svg" xmlns:xlink="http://www.w3.org/1999/xlink"><linearGradient id="SVGID_1_" gradientUnits="userSpaceOnUse" x1="30" x2="49.026" y1="176.629" y2="176.629"><stop offset="0" stop-color="#5a5a5a"/><stop offset="1" stop-color="#444"/></linearGradient><linearGradient id="SVGID_00000015351733802343702060000012715002266535751558_" gradientUnits="userSpaceOnUse" x1="36" x2="36" y1="117.349" y2="88.849"><stop offset="0" stop-color="#433f43" stop-opacity="0"/><stop offset="1" stop-color="#1a1a1a"/></linearGradient><linearGradient id="lg1"><stop offset="0" stop-color="#fef0ae"/><stop offset="1" stop-color="#fbc56d"/></linearGradient><linearGradient id="SVGID_00000017508636447846295130000014912826628251795338_" gradientUnits="userSpaceOnUse" x1="254.074" x2="310.777" xlink:href="#lg1" y1="49.272" y2="105.974"/><linearGradient id="lg2"><stop offset="0" stop-color="#f6a96c" stop-opacity="0"/><stop offset=".9957" stop-color="#f6a96c" stop-opacity=".996"/><stop offset="1" stop-color="#f6a96c"/></linearGradient><linearGradient id="SVGID_00000049219238915712274940000007245237694025095345_" gradientUnits="userSpaceOnUse" x1="319.494" x2="241.123" xlink:href="#lg2" y1="64.732" y2="97.132"/><linearGradient id="SVGID_00000127732404167628251070000005987055098525148032_" gradientUnits="userSpaceOnUse" x1="299.031" x2="256.124" xlink:href="#lg2" y1="92.544" y2="74.155"/><linearGradient id="SVGID_00000108308835861165803520000001170475396413520037_" gradientTransform="matrix(-1 0 0 1 -535.296 0)" gradientUnits="userSpaceOnUse" x1="-807.301" x2="-850.209" xlink:href="#lg2" y1="92.544" y2="74.155"/><linearGradient id="SVGID_00000060014358792101309840000007000524521848027828_" gradientUnits="userSpaceOnUse" x1="272.959" x2="300.542" xlink:href="#lg2" y1="94.696" y2="50.366"/><linearGradient id="SVGID_00000142162712194646356990000014684498390678392462_" gradientUnits="userSpaceOnUse" x1="295.963" x2="293.664" xlink:href="#lg2" y1="89.098" y2="45.753"/><linearGradient id="lg3"><stop offset="0" stop-color="#dc8758" stop-opacity="0"/><stop offset=".9957" stop-color="#dc8758" stop-opacity=".996"/><stop offset="1" stop-color="#dc8758"/></linearGradient><linearGradient id="SVGID_00000074441645894381587650000014554000165000073127_" gradientUnits="userSpaceOnUse" x1="285.518" x2="285.518" xlink:href="#lg3" y1="99.752" y2="147.915"/><linearGradient id="SVGID_00000005946785176348861160000016755211199404756898_" gradientUnits="userSpaceOnUse" x1="137.912" x2="181.082" xlink:href="#lg1" y1="95.99" y2="139.16"/><linearGradient id="SVGID_00000065060320606791086670000005875965166831840677_" gradientUnits="userSpaceOnUse" x1="187.719" x2="128.052" xlink:href="#lg2" y1="107.761" y2="132.427"/><linearGradient id="SVGID_00000001640408034170248760000008528504565733048962_" gradientUnits="userSpaceOnUse" x1="172.14" x2="139.473" xlink:href="#lg2" y1="128.935" y2="114.935"/><linearGradient id="SVGID_00000004543066439845028490000017182983718487046543_" gradientTransform="matrix(-1 0 0 1 -535.296 0)" gradientUnits="userSpaceOnUse" x1="-686.86" x2="-719.526" xlink:href="#lg2" y1="128.935" y2="114.935"/><linearGradient id="SVGID_00000089572372752204121070000002905011984363328394_" gradientUnits="userSpaceOnUse" x1="152.29" x2="173.29" xlink:href="#lg2" y1="130.573" y2="96.823"/><linearGradient id="SVGID_00000026870722668140859310000016732728117149557407_" gradientUnits="userSpaceOnUse" x1="169.803" x2="168.053" xlink:href="#lg2" y1="126.311" y2="93.311"/><linearGradient id="SVGID_00000084510753831021006880000012160788462716462994_" gradientUnits="userSpaceOnUse" x1="161.852" x2="161.852" xlink:href="#lg3" y1="134.422" y2="171.09"/><linearGradient id="SVGID_00000125600631243295001300000001843365738102500027_" gradientUnits="userSpaceOnUse" x1="385.246" x2="428.415" xlink:href="#lg1" y1="95.99" y2="139.16"/><linearGradient id="SVGID_00000127004923956091692040000009172639047595579278_" gradientUnits="userSpaceOnUse" x1="435.052" x2="375.385" xlink:href="#lg2" y1="107.761" y2="132.427"/><linearGradient id="SVGID_00000038371383169187861710000018062387976415573660_" gradientUnits="userSpaceOnUse" x1="419.473" x2="386.806" xlink:href="#lg2" y1="128.935" y2="114.935"/><linearGradient id="SVGID_00000019656489551593675500000002820494420556431523_" gradientTransform="matrix(-1 0 0 1 -535.296 0)" gradientUnits="userSpaceOnUse" x1="-934.193" x2="-966.86" xlink:href="#lg2" y1="128.935" y2="114.935"/><linearGradient id="SVGID_00000047771359284525465010000017418699335798952079_" gradientUnits="userSpaceOnUse" x1="399.623" x2="420.623" xlink:href="#lg2" y1="130.573" y2="96.823"/><linearGradient id="SVGID_00000170972107582123024640000008890080990605332873_" gradientUnits="userSpaceOnUse" x1="417.137" x2="415.387" xlink:href="#lg2" y1="126.311" y2="93.311"/><linearGradient id="SVGID_00000117677242580769519090000012091351029094177434_" gradientUnits="userSpaceOnUse" x1="409.185" x2="409.185" xlink:href="#lg3" y1="134.422" y2="171.09"/><linearGradient id="SVGID_00000178923501653023916890000005898536274992401049_" gradientUnits="userSpaceOnUse" x1="13.177" x2="53.177" y1="303.433" y2="326.433"><stop offset="0" stop-color="#bbec6c"/><stop offset="1" stop-color="#81b823"/></linearGradient><linearGradient id="SVGID_00000140715326551314080860000003897247365740045240_" gradientUnits="userSpaceOnUse" x1="35.248" x2="35.248" y1="341.349" y2="380.349"><stop offset="0" stop-color="#78a91f" stop-opacity="0"/><stop offset="1" stop-color="#78a91f"/></linearGradient><linearGradient id="SVGID_00000127009597310269155080000013123537097437128356_" gradientUnits="userSpaceOnUse" x1="174.666" x2="444.185" xlink:href="#lg1" y1="232.497" y2="502.016"/><linearGradient id="SVGID_00000132046919323324331310000012546504352619133063_" gradientUnits="userSpaceOnUse" x1="470.798" x2="82.68" xlink:href="#lg1" y1="528.629" y2="140.511"/><linearGradient id="SVGID_00000091707095511592223530000006656937284271651722_" gradientUnits="userSpaceOnUse" x1="285.518" x2="285.518" xlink:href="#lg3" y1="422.349" y2="505.403"/><linearGradient id="lg4"><stop offset="0" stop-color="#fd4755"/><stop offset="1" stop-color="#a72b2b"/></linearGradient><linearGradient id="SVGID_00000002382748971166725020000002773006556927070369_" gradientUnits="userSpaceOnUse" x1="91.794" x2="228.931" xlink:href="#lg4" y1="274.939" y2="412.076"/><linearGradient id="SVGID_00000003800467302508158960000004529656779962968448_" gradientUnits="userSpaceOnUse" x1="215.815" x2="355.544" xlink:href="#lg4" y1="273.646" y2="413.375"/><linearGradient id="SVGID_00000182503853947120575460000003828513288502882449_" gradientUnits="userSpaceOnUse" x1="342.422" x2="479.559" xlink:href="#lg4" y1="274.939" y2="412.076"/><linearGradient id="lg5"><stop offset="0" stop-color="#f9f5f3"/><stop offset="1" stop-color="#d8e8f0"/></linearGradient><linearGradient id="SVGID_00000159458042490271009630000007928043746988793276_" gradientUnits="userSpaceOnUse" x1="107.964" x2="209.317" xlink:href="#lg5" y1="285.741" y2="387.095"/><linearGradient id="SVGID_00000165939475166701784130000009964367263074036105_" gradientUnits="userSpaceOnUse" x1="237.451" x2="338.805" xlink:href="#lg5" y1="285.741" y2="387.095"/><linearGradient id="SVGID_00000094605962992465307650000011423122494442396095_" gradientUnits="userSpaceOnUse" x1="366.939" x2="468.292" xlink:href="#lg5" y1="285.741" y2="387.095"/><linearGradient id="lg6"><stop offset="0" stop-color="#a72b2b" stop-opacity="0"/><stop offset="1" stop-color="#42210b"/></linearGradient><linearGradient id="SVGID_00000173126567492924659190000005927017999658982064_" gradientUnits="userSpaceOnUse" x1="156.03" x2="156.03" xlink:href="#lg6" y1="402.849" y2="482.159"/><linearGradient id="SVGID_00000085228053513846617420000007001499854673160072_" gradientUnits="userSpaceOnUse" x1="285.515" x2="285.515" xlink:href="#lg6" y1="402.849" y2="482.159"/><linearGradient id="SVGID_00000049208184782918079390000013934110392607139720_" gradientUnits="userSpaceOnUse" x1="415.005" x2="415.005" xlink:href="#lg6" y1="402.849" y2="482.159"/><linearGradient id="SVGID_00000161607079085146868630000002437449525829779341_" gradientUnits="userSpaceOnUse" x1="20.368" x2="48.374" xlink:href="#lg4" y1="43.218" y2="71.223"/><g><path d="m27.859 70.849v211.56c0 4.496 3.645 8.14 8.14 8.14 4.496 0 8.14-3.644 8.14-8.14v-211.56c0-4.496-3.644-8.14-8.14-8.14-4.495 0-8.14 3.645-8.14 8.14z" fill="url(#SVGID_1_)"/><path d="m27.859 70.849v211.56c0 4.496 3.645 8.14 8.14 8.14 4.496 0 8.14-3.644 8.14-8.14v-211.56c0-4.496-3.644-8.14-8.14-8.14-4.495 0-8.14 3.645-8.14 8.14z" fill="url(#SVGID_00000015351733802343702060000012715002266535751558_)"/><g><g><g><path d="m347.416 45.163-29.604-7.153c-2.754-.665-5.16-2.335-6.748-4.682l-17.065-25.225c-2.064-3.051-5.227-4.688-8.481-4.952-3.254.264-6.416 1.901-8.481 4.952l-17.065 25.226c-1.587 2.347-3.994 4.016-6.748 4.682l-29.604 7.153c-8.03 1.94-11.377 11.525-6.3 18.042l18.718 24.025c1.741 2.235 2.585 5.039 2.367 7.864l-2.345 30.365c-.636 8.237 7.445 14.381 15.212 11.566l28.633-10.377c1.809-.656 3.739-.825 5.612-.535 1.873-.29 3.803-.121 5.612.535l28.633 10.377c7.767 2.815 15.848-3.33 15.212-11.566l-2.345-30.365c-.218-2.825.626-5.629 2.367-7.864l18.718-24.025c5.079-6.518 1.732-16.102-6.298-18.043z" fill="url(#SVGID_00000017508636447846295130000014912826628251795338_)"/><path d="m291.13 126.649 28.633 10.377c7.767 2.815 15.848-3.33 15.212-11.566l-2.345-30.365c-.218-2.825.626-5.629 2.367-7.864l18.718-24.025c5.077-6.517 1.73-16.101-6.3-18.042l-29.604-7.153c-2.754-.665-5.16-2.335-6.748-4.682l-17.064-25.226c-2.064-3.051-5.227-4.688-8.481-4.952v122.963c1.874-.29 3.803-.121 5.612.535z" fill="url(#SVGID_00000049219238915712274940000007245237694025095345_)"/><path d="m347.416 45.163-29.604-7.153c-1.011-.244-1.973-.626-2.867-1.125l-75.466 97.612c2.96 2.861 7.426 4.111 11.793 2.529l28.633-10.377c1.809-.656 3.739-.825 5.612-.535 1.873-.29 3.803-.121 5.612.535l28.633 10.377c7.767 2.815 15.848-3.33 15.212-11.566l-2.345-30.365c-.218-2.825.626-5.629 2.367-7.864l18.718-24.025c5.079-6.518 1.732-16.102-6.298-18.043z" fill="url(#SVGID_00000127732404167628251070000005987055098525148032_)"/><path d="m223.621 45.163 29.604-7.153c1.011-.244 1.973-.626 2.867-1.125l75.466 97.612c-2.96 2.861-7.426 4.111-11.793 2.529l-28.633-10.377c-1.809-.656-3.739-.825-5.612-.535-1.873-.29-3.803-.121-5.612.535l-28.633 10.377c-7.767 2.815-15.848-3.33-15.212-11.566l2.345-30.365c.218-2.825-.626-5.629-2.367-7.864l-18.718-24.025c-5.079-6.518-1.732-16.102 6.298-18.043z" fill="url(#SVGID_00000108308835861165803520000001170475396413520037_)"/><path d="m215.741 52.023c-1.408 3.55-1.07 7.78 1.58 11.182l18.718 24.025c1.741 2.235 2.585 5.039 2.367 7.864l-2.345 30.365c-.636 8.237 7.445 14.381 15.212 11.566l28.633-10.377c1.809-.656 3.739-.825 5.612-.535 1.873-.29 3.803-.121 5.612.535l28.633 10.377c7.767 2.815 15.848-3.33 15.212-11.566l-2.345-30.365c-.121-1.567.096-3.125.601-4.586z" fill="url(#SVGID_00000060014358792101309840000007000524521848027828_)"/><path d="m355.307 52.023c1.408 3.55 1.07 7.78-1.58 11.182l-18.718 24.025c-1.741 2.235-2.585 5.039-2.367 7.864l2.345 30.365c.636 8.237-7.445 14.381-15.212 11.566l-28.633-10.377c-1.809-.656-3.739-.825-5.612-.535-1.873-.29-3.803-.121-5.612.535l-28.633 10.377c-7.767 2.815-15.848-3.33-15.212-11.566l2.345-30.365c.121-1.567-.096-3.125-.601-4.586z" fill="url(#SVGID_00000142162712194646356990000014684498390678392462_)"/></g><path d="m344.317 75.268h-117.598l9.32 11.962c1.741 2.235 2.585 5.039 2.367 7.864l-2.345 30.365c-.636 8.237 7.445 14.381 15.212 11.566l28.633-10.377c1.809-.656 3.739-.825 5.612-.535 1.873-.29 3.803-.121 5.612.535l28.633 10.377c7.767 2.815 15.848-3.33 15.212-11.566l-2.345-30.365c-.218-2.825.626-5.629 2.367-7.864z" fill="url(#SVGID_00000074441645894381587650000014554000165000073127_)"/></g><g><g><g><path d="m208.976 92.862-22.538-5.446c-2.097-.507-3.929-1.778-5.137-3.564l-12.992-19.205c-1.572-2.323-3.979-3.569-6.457-3.77-2.477.201-4.885 1.447-6.457 3.77l-12.992 19.205c-1.209 1.786-3.041 3.058-5.137 3.564l-22.538 5.446c-6.114 1.477-8.661 8.774-4.796 13.736l14.25 18.291c1.326 1.702 1.968 3.837 1.802 5.987l-1.786 23.118c-.484 6.271 5.668 10.949 11.581 8.806l21.8-7.901c1.377-.499 2.846-.628 4.273-.407 1.426-.221 2.895-.092 4.273.407l21.8 7.901c5.913 2.143 12.066-2.535 11.581-8.806l-1.786-23.118c-.166-2.151.477-4.286 1.802-5.987l14.25-18.291c3.866-4.962 1.318-12.259-4.796-13.736z" fill="url(#SVGID_00000005946785176348861160000016755211199404756898_)"/><path d="m166.124 154.9 21.8 7.901c5.913 2.143 12.066-2.535 11.581-8.806l-1.786-23.118c-.166-2.151.477-4.286 1.802-5.987l14.25-18.291c3.865-4.961 1.317-12.259-4.796-13.736l-22.538-5.446c-2.097-.507-3.929-1.778-5.137-3.564l-12.992-19.205c-1.572-2.323-3.979-3.569-6.457-3.77v93.616c1.427-.222 2.896-.093 4.273.406z" fill="url(#SVGID_00000065060320606791086670000005875965166831840677_)"/><path d="m208.976 92.862-22.538-5.446c-.769-.186-1.502-.477-2.183-.856l-57.454 74.315c2.254 2.178 5.654 3.13 8.979 1.925l21.8-7.901c1.377-.499 2.846-.628 4.273-.407 1.426-.221 2.895-.092 4.273.407l21.8 7.901c5.913 2.143 12.066-2.535 11.581-8.806l-1.786-23.118c-.166-2.151.477-4.286 1.802-5.987l14.25-18.291c3.865-4.962 1.317-12.259-4.797-13.736z" fill="url(#SVGID_00000001640408034170248760000008528504565733048962_)"/><path d="m114.727 92.862 22.538-5.446c.769-.186 1.502-.477 2.183-.856l57.454 74.315c-2.254 2.178-5.654 3.13-8.979 1.925l-21.8-7.901c-1.377-.499-2.846-.628-4.273-.407-1.426-.221-2.895-.092-4.273.407l-21.8 7.901c-5.913 2.143-12.066-2.535-11.581-8.806l1.786-23.118c.166-2.151-.477-4.286-1.802-5.987l-14.25-18.291c-3.864-4.962-1.317-12.259 4.797-13.736z" fill="url(#SVGID_00000004543066439845028490000017182983718487046543_)"/><path d="m108.728 98.085c-1.072 2.703-.815 5.923 1.203 8.513l14.25 18.291c1.326 1.702 1.968 3.837 1.802 5.987l-1.786 23.118c-.484 6.271 5.668 10.949 11.581 8.806l21.8-7.901c1.377-.499 2.846-.628 4.273-.407 1.426-.221 2.895-.092 4.273.407l21.8 7.901c5.913 2.143 12.066-2.535 11.581-8.806l-1.786-23.118c-.092-1.193.073-2.379.458-3.491z" fill="url(#SVGID_00000089572372752204121070000002905011984363328394_)"/><path d="m214.984 98.085c1.072 2.703.815 5.923-1.203 8.513l-14.25 18.291c-1.326 1.702-1.968 3.837-1.802 5.987l1.786 23.118c.484 6.271-5.668 10.949-11.581 8.806l-21.8-7.901c-1.377-.499-2.846-.628-4.273-.407-1.426-.221-2.895-.092-4.273.407l-21.8 7.901c-5.913 2.143-12.066-2.535-11.581-8.806l1.786-23.118c.092-1.193-.073-2.379-.458-3.491z" fill="url(#SVGID_00000026870722668140859310000016732728117149557407_)"/></g><path d="m206.617 115.782h-89.531l7.095 9.107c1.326 1.702 1.968 3.837 1.802 5.987l-1.786 23.118c-.484 6.271 5.668 10.949 11.581 8.806l21.8-7.901c1.377-.499 2.846-.628 4.273-.407 1.426-.221 2.895-.092 4.273.407l21.8 7.901c5.913 2.143 12.066-2.535 11.581-8.806l-1.786-23.118c-.166-2.151.477-4.286 1.802-5.987z" fill="url(#SVGID_00000084510753831021006880000012160788462716462994_)"/></g><g><g><path d="m456.31 92.862-22.538-5.446c-2.097-.507-3.929-1.778-5.137-3.564l-12.992-19.205c-1.572-2.323-3.979-3.569-6.457-3.77-2.477.201-4.885 1.447-6.457 3.77l-12.992 19.205c-1.209 1.786-3.041 3.058-5.137 3.564l-22.538 5.446c-6.114 1.477-8.661 8.774-4.796 13.736l14.25 18.291c1.326 1.702 1.968 3.837 1.802 5.987l-1.786 23.118c-.484 6.271 5.668 10.949 11.581 8.806l21.8-7.901c1.377-.499 2.846-.628 4.273-.407 1.426-.221 2.895-.092 4.273.407l21.8 7.901c5.913 2.143 12.066-2.535 11.581-8.806l-1.786-23.118c-.166-2.151.477-4.286 1.802-5.987l14.25-18.291c3.865-4.962 1.317-12.259-4.796-13.736z" fill="url(#SVGID_00000125600631243295001300000001843365738102500027_)"/><path d="m413.458 154.9 21.8 7.901c5.913 2.143 12.066-2.535 11.581-8.806l-1.786-23.118c-.166-2.151.477-4.286 1.802-5.987l14.25-18.291c3.865-4.961 1.317-12.259-4.796-13.736l-22.538-5.446c-2.097-.507-3.929-1.778-5.137-3.564l-12.992-19.205c-1.572-2.323-3.979-3.569-6.457-3.77v93.616c1.426-.222 2.895-.093 4.273.406z" fill="url(#SVGID_00000127004923956091692040000009172639047595579278_)"/><path d="m456.31 92.862-22.538-5.446c-.769-.186-1.502-.477-2.183-.856l-57.454 74.315c2.254 2.178 5.654 3.13 8.979 1.925l21.8-7.901c1.377-.499 2.846-.628 4.273-.407 1.426-.221 2.895-.092 4.273.407l21.8 7.901c5.913 2.143 12.066-2.535 11.581-8.806l-1.786-23.118c-.166-2.151.477-4.286 1.802-5.987l14.25-18.291c3.864-4.962 1.316-12.259-4.797-13.736z" fill="url(#SVGID_00000038371383169187861710000018062387976415573660_)"/><path d="m362.06 92.862 22.538-5.446c.769-.186 1.502-.477 2.183-.856l57.454 74.315c-2.254 2.178-5.654 3.13-8.979 1.925l-21.8-7.901c-1.377-.499-2.846-.628-4.273-.407-1.426-.221-2.895-.092-4.273.407l-21.8 7.901c-5.913 2.143-12.066-2.535-11.581-8.806l1.786-23.118c.166-2.151-.477-4.286-1.802-5.987l-14.25-18.291c-3.864-4.962-1.316-12.259 4.797-13.736z" fill="url(#SVGID_00000019656489551593675500000002820494420556431523_)"/><path d="m356.062 98.085c-1.072 2.703-.815 5.923 1.203 8.513l14.25 18.291c1.326 1.702 1.968 3.837 1.802 5.987l-1.786 23.118c-.484 6.271 5.668 10.949 11.581 8.806l21.8-7.901c1.377-.499 2.846-.628 4.273-.407 1.426-.221 2.895-.092 4.273.407l21.8 7.901c5.913 2.143 12.066-2.535 11.581-8.806l-1.786-23.118c-.092-1.193.073-2.379.458-3.491z" fill="url(#SVGID_00000047771359284525465010000017418699335798952079_)"/><path d="m462.317 98.085c1.072 2.703.815 5.923-1.203 8.513l-14.25 18.291c-1.326 1.702-1.968 3.837-1.802 5.987l1.786 23.118c.484 6.271-5.668 10.949-11.581 8.806l-21.8-7.901c-1.377-.499-2.846-.628-4.273-.407-1.426-.221-2.895-.092-4.273.407l-21.8 7.901c-5.913 2.143-12.066-2.535-11.581-8.806l1.786-23.118c.092-1.193-.073-2.379-.458-3.491z" fill="url(#SVGID_00000170972107582123024640000008890080990605332873_)"/></g><path d="m453.951 115.782h-89.531l7.095 9.107c1.326 1.702 1.968 3.837 1.802 5.987l-1.786 23.118c-.484 6.271 5.668 10.949 11.581 8.806l21.8-7.901c1.377-.499 2.846-.628 4.273-.407 1.426-.221 2.895-.092 4.273.407l21.8 7.901c5.913 2.143 12.066-2.535 11.581-8.806l-1.786-23.118c-.166-2.151.477-4.286 1.802-5.987z" fill="url(#SVGID_00000117677242580769519090000012091351029094177434_)"/></g></g></g><path d="m70.496 382.951h-45.195c-13.973 0-25.301-11.328-25.301-25.301v-72.392c0-13.973 11.328-25.301 25.301-25.301h45.196v122.994z" fill="url(#SVGID_00000178923501653023916890000005898536274992401049_)"/><path d="m0 300.349v57.301c0 13.973 11.328 25.301 25.301 25.301h45.196v-82.602z" fill="url(#SVGID_00000140715326551314080860000003897247365740045240_)"/><g><g><path d="m479 506.849h-386.963c-17.121 0-31-13.879-31-31v-265c0-17.121 13.879-31 31-31h386.963c17.121 0 31 13.879 31 31v265c0 17.121-13.879 31-31 31z" fill="url(#SVGID_00000127009597310269155080000013123537097437128356_)"/><path d="m92.037 491.849c-8.822 0-16-7.178-16-16v-265c0-8.822 7.178-16 16-16h386.963c8.822 0 16 7.178 16 16v265c0 8.822-7.178 16-16 16z" fill="url(#SVGID_00000132046919323324331310000012546504352619133063_)"/><path d="m61.037 345.349v130.5c0 17.121 13.879 31 31 31h386.963c17.121 0 31-13.879 31-31v-130.5z" fill="url(#SVGID_00000091707095511592223530000006656937284271651722_)"/><g><path d="m221.025 209.849h-115.738c-7.87 0-14.25 6.38-14.25 14.25v238.5c0 7.87 6.38 14.25 14.25 14.25h115.738z" fill="url(#SVGID_00000002382748971166725020000002773006556927070369_)"/><path d="m221.025 209.849h128.987v267h-128.987z" fill="url(#SVGID_00000003800467302508158960000004529656779962968448_)"/><path d="m465.75 209.849h-115.738v267h115.738c7.87 0 14.25-6.38 14.25-14.25v-238.5c0-7.87-6.38-14.25-14.25-14.25z" fill="url(#SVGID_00000182503853947120575460000003828513288502882449_)"/></g></g><g><g><path d="m203.513 305.537c0 5.028-3.095 12.572-6.189 18.374l-45.258 86.649c-1.547 2.901-4.449 4.061-8.51 4.061-9.477 0-19.148-6.575-19.148-15.279 0-1.741.386-3.288 1.354-5.029l47.579-82.393v-13.539h-34.621v12.959c0 5.222-7.35 9.283-15.28 9.283-8.123 0-14.893-4.061-14.893-9.283v-29.979c0-4.642 6.577-9.284 13.152-9.284h68.661c5.803 0 13.152 4.641 13.152 9.284v24.176z" fill="url(#SVGID_00000159458042490271009630000007928043746988793276_)"/></g><g><path d="m333.001 305.537c0 5.028-3.095 12.572-6.189 18.374l-45.258 86.649c-1.547 2.901-4.449 4.061-8.51 4.061-9.477 0-19.148-6.575-19.148-15.279 0-1.741.386-3.288 1.354-5.029l47.579-82.393v-13.539h-34.621v12.959c0 5.222-7.35 9.283-15.28 9.283-8.123 0-14.893-4.061-14.893-9.283v-29.979c0-4.642 6.577-9.284 13.152-9.284h68.661c5.803 0 13.152 4.641 13.152 9.284v24.176z" fill="url(#SVGID_00000165939475166701784130000009964367263074036105_)"/></g><g><path d="m462.489 305.537c0 5.028-3.095 12.572-6.189 18.374l-45.258 86.649c-1.547 2.901-4.449 4.061-8.51 4.061-9.477 0-19.148-6.575-19.148-15.279 0-1.741.387-3.288 1.354-5.029l47.579-82.393v-13.539h-34.621v12.959c0 5.222-7.35 9.283-15.28 9.283-8.123 0-14.893-4.061-14.893-9.283v-29.979c0-4.642 6.577-9.284 13.152-9.284h68.661c5.803 0 13.152 4.641 13.152 9.284v24.176z" fill="url(#SVGID_00000094605962992465307650000011423122494442396095_)"/></g></g></g><g><path d="m221.02 345.349v131.5h-115.73c-7.87 0-14.25-6.38-14.25-14.25v-117.25z" fill="url(#SVGID_00000173126567492924659190000005927017999658982064_)"/><path d="m221.02 345.349h128.99v131.5h-128.99z" fill="url(#SVGID_00000085228053513846617420000007001499854673160072_)"/><path d="m480 345.349v117.25c0 7.87-6.38 14.25-14.25 14.25h-115.74v-131.5z" fill="url(#SVGID_00000049208184782918079390000013934110392607139720_)"/></g><circle cx="36" cy="58.849" fill="url(#SVGID_00000161607079085146868630000002437449525829779341_)" r="33"/></g></svg>