<?xml version="1.0" encoding="iso-8859-1"?>
<!-- Generator: Adobe Illustrator 19.0.0, SVG Export Plug-In . SVG Version: 6.00 Build 0)  -->
<svg version="1.1" id="Capa_1" xmlns="http://www.w3.org/2000/svg" xmlns:xlink="http://www.w3.org/1999/xlink" x="0px" y="0px"
	 viewBox="0 0 511.2 511.2" style="enable-background:new 0 0 511.2 511.2;" xml:space="preserve">
<circle style="fill:#F3F3F3;" cx="175.333" cy="477.067" r="34.133"/>
<path style="fill:#F26F5A;" d="M247.867,494.133c0,0,3.2,6.4,11.733,7.467c8.533,0,16,0,16-7.467H247.867z"/>
<g>
	<path style="fill:#FFD15C;" d="M299.067,302.133l-6.4,29.867c0,0-3.2,16-4.267,22.4c0,6.4-1.067,13.867-1.067,13.867l-28.8-1.067
		c0,0-2.133-12.8-2.133-20.267c-1.067-6.4,1.067-46.933,1.067-46.933L299.067,302.133z"/>
	<path style="fill:#FFD15C;" d="M240.4,277.6c0,0-7.467,13.867-27.733,20.267c0,0-10.667,6.4-16,10.667
		C192.4,312.8,189.2,316,189.2,316l3.2,13.867L158.267,332c0,0,1.067-21.333,0-25.6c-2.133-4.267,0-12.8,3.2-19.2
		c3.2-5.333,20.267-30.933,24.533-34.133c4.267-3.2,12.8-6.4,12.8-6.4S236.133,256.267,240.4,277.6z"/>
</g>
<path style="fill:#344A5E;" d="M237.2,292.533l-2.133,1.067c0,0-4.267,1.067-10.667-2.133c0,0,16-9.6,14.933-18.133
	C240.4,273.333,242.533,286.133,237.2,292.533z"/>
<g>
	<path style="fill:#425A6B;" d="M322.533,158.133h4.267c0,0,33.067-9.6,28.8-22.4C355.6,136.8,320.4,140,322.533,158.133z"/>
	<path style="fill:#425A6B;" d="M240.4,45.067c3.2,3.2,5.333,5.333,7.467,8.533c2.133,3.2,3.2,7.467,3.2,10.667
		c0,5.333-3.2,9.6-5.333,13.867c-1.067,3.2-1.067,5.333-2.133,7.467c-1.067,3.2-3.2,5.333-5.333,7.467
		c-3.2,4.267-6.4,8.533-10.667,11.733c-1.067,1.067-3.2,2.133-4.267,3.2c-5.333,4.267-8.533,11.733-10.667,18.133
		c0-3.2,1.067-7.467,1.067-10.667c1.067-4.267,2.133-8.533,4.267-12.8C222.267,92,227.6,82.4,232.933,72.8
		c2.133-3.2,4.267-7.467,5.333-11.733c2.133-6.4,1.067-13.867,1.067-20.267"/>
	<path style="fill:#425A6B;" d="M285.2,45.067c0,1.067-1.067,2.133-2.133,3.2c-1.067,2.133-2.133,3.2-3.2,5.333
		c-1.067,2.133-2.133,4.267-3.2,6.4c0,2.133,0,4.267,0,6.4c0,4.267,0,7.467,1.067,11.733c1.067,3.2,2.133,7.467,5.333,9.6
		c1.067,1.067,1.067,1.067,2.133,1.067c1.067,0,2.133-1.067,2.133-1.067c0-1.067,1.067-2.133,1.067-3.2c0-1.067,0-3.2,1.067-4.267
		c0-3.2,1.067-5.333,1.067-8.533s1.067-7.467,0-10.667c0-5.333-2.133-9.6-5.333-14.933c-1.067-1.067-1.067-2.133-2.133-3.2"/>
</g>
<path style="fill:#FFD15C;" d="M248.933,60c0,0,1.067,16-14.933,22.4l9.6,24.533l49.067-6.4L278.8,79.2l2.133-24.533L248.933,60z"/>
<path style="fill:#F5B54C;" d="M280.933,56.8l-1.067,9.6c-7.467,10.667-22.4,8.533-30.933-2.133c0-2.133,0-3.2,0-3.2L280.933,56.8z"
	/>
<g>
	<g>
		<path id="SVGCleanerId_0" style="fill:#F26F5A;" d="M236.133,81.333c0,0,6.4,9.6,14.933,13.867c0,0,22.4-2.133,32-20.267
			c0,0,7.467,6.4,17.067,9.6c9.6,3.2,18.133,6.4,20.267,9.6c2.133,3.2,36.267,41.6,36.267,41.6s-11.733,3.2-24.533,12.8
			C318.267,159.2,326.8,159.2,326.8,159.2s-3.2,2.133-12.8-5.333c-8.533-7.467-11.733-5.333-11.733-5.333s0,4.267-4.267,6.4
			c0,0,3.2,26.667,1.067,29.867c-2.133,3.2-4.267,8.533-1.067,14.933c3.2,6.4,8.533,30.933,11.733,56.533c0,0-25.6,10.667-56.533,0
			c-30.933-10.667-32-18.133-32-18.133s-9.6-7.467-17.067-7.467c0,0-2.133-2.133,1.067-9.6c3.2-7.467,8.533-25.6,5.333-36.267
			c-2.133-9.6-3.2-35.2-3.2-35.2s0-2.133-5.333,0c-4.267,2.133-11.733,8.533-11.733,8.533s-14.933-5.333-25.6-20.267
			c0,0,19.2-19.2,21.333-25.6C189.2,105.867,208.4,82.4,236.133,81.333z"/>
	</g>
	<g>
		<path id="SVGCleanerId_0_1_" style="fill:#F26F5A;" d="M236.133,81.333c0,0,6.4,9.6,14.933,13.867c0,0,22.4-2.133,32-20.267
			c0,0,7.467,6.4,17.067,9.6c9.6,3.2,18.133,6.4,20.267,9.6c2.133,3.2,36.267,41.6,36.267,41.6s-11.733,3.2-24.533,12.8
			C318.267,159.2,326.8,159.2,326.8,159.2s-3.2,2.133-12.8-5.333c-8.533-7.467-11.733-5.333-11.733-5.333s0,4.267-4.267,6.4
			c0,0,3.2,26.667,1.067,29.867c-2.133,3.2-4.267,8.533-1.067,14.933c3.2,6.4,8.533,30.933,11.733,56.533c0,0-25.6,10.667-56.533,0
			c-30.933-10.667-32-18.133-32-18.133s-9.6-7.467-17.067-7.467c0,0-2.133-2.133,1.067-9.6c3.2-7.467,8.533-25.6,5.333-36.267
			c-2.133-9.6-3.2-35.2-3.2-35.2s0-2.133-5.333,0c-4.267,2.133-11.733,8.533-11.733,8.533s-14.933-5.333-25.6-20.267
			c0,0,19.2-19.2,21.333-25.6C189.2,105.867,208.4,82.4,236.133,81.333z"/>
	</g>
</g>
<g>
	<path id="SVGCleanerId_0_2_" style="fill:#67C5B8;" d="M236.133,81.333c0,0,6.4,9.6,14.933,13.867c0,0,22.4-2.133,32-20.267
		c0,0,7.467,6.4,17.067,9.6c9.6,3.2,18.133,6.4,20.267,9.6c2.133,3.2,36.267,41.6,36.267,41.6s-11.733,3.2-24.533,12.8
		C318.267,159.2,326.8,159.2,326.8,159.2s-3.2,2.133-12.8-5.333c-8.533-7.467-11.733-5.333-11.733-5.333s0,4.267-4.267,6.4
		c0,0,3.2,26.667,1.067,29.867c-2.133,3.2-4.267,8.533-1.067,14.933c3.2,6.4,8.533,30.933,11.733,56.533c0,0-25.6,10.667-56.533,0
		c-30.933-10.667-32-18.133-32-18.133s-9.6-7.467-17.067-7.467c0,0-2.133-2.133,1.067-9.6c3.2-7.467,8.533-25.6,5.333-36.267
		c-2.133-9.6-3.2-35.2-3.2-35.2s0-2.133-5.333,0c-4.267,2.133-11.733,8.533-11.733,8.533s-14.933-5.333-25.6-20.267
		c0,0,19.2-19.2,21.333-25.6C189.2,105.867,208.4,82.4,236.133,81.333z"/>
</g>
<g>
	<path style="fill:#48B9A5;" d="M266,209.333c0,0,3.2,13.867,25.6,20.267c0,0,8.533,3.2-1.067-2.133
		C280.933,222.133,269.2,214.667,266,209.333z"/>
	<path style="fill:#48B9A5;" d="M273.467,209.333c1.067,0,0-2.133,2.133,0c3.2,2.133,7.467,7.467,12.8,11.733
		c5.333,3.2,8.533,8.533,0,3.2C280.933,217.867,273.467,209.333,273.467,209.333z"/>
	<path style="fill:#48B9A5;" d="M306.533,231.733c0-1.067,0-2.133-1.067-3.2c-5.333-3.2-16-12.8-22.4-18.133
		c-6.4-6.4-6.4-5.333-3.2-1.067c0,0,18.133,16,23.467,21.333C305.467,230.667,305.467,231.733,306.533,231.733z"/>
	<path style="fill:#48B9A5;" d="M303.333,217.867c-8.533-5.333-23.467-17.067-21.333-12.8c2.133,4.267,16,14.933,22.4,19.2
		C304.4,222.133,304.4,220,303.333,217.867z"/>
	<path style="fill:#48B9A5;" d="M289.467,192.267c0,0-13.867-16-16-17.067c-2.133-1.067-1.067-11.733-1.067-8.533
		c1.067,4.267,1.067,7.467,4.267,8.533c3.2,1.067,10.667,1.067,13.867,4.267c3.2,4.267,4.267,5.333,5.333,4.267
		c1.067,0-4.267,2.133-4.267,6.4C290.533,195.467,289.467,192.267,289.467,192.267z"/>
</g>
<path style="fill:#425A6B;" d="M288.4,140L288.4,140c0-2.133,0-5.333,0-8.533c0-1.067,0-3.2,0-4.267c0-1.067,0-2.133-1.067-3.2
	c-1.067-5.333-2.133-10.667-5.333-14.933c-1.067-2.133-2.133-4.267-3.2-6.4c-2.133-5.333-3.2-10.667-2.133-17.067
	c1.067-5.333,3.2-10.667,5.333-16l5.333,1.067c3.2,7.467,2.133,16,4.267,24.533C293.733,110.133,292.667,126.133,288.4,140z"/>
<g>
	<path style="fill:#FFD15C;" d="M284.133,44c0,35.2-40.533,35.2-40.533,0c0-17.067,3.2-33.067,18.133-36.267
		C275.6,10.933,284.133,26.933,284.133,44z"/>
	<path style="fill:#FFD15C;" d="M283.067,188C284.133,188,284.133,188,283.067,188l-21.333-1.067c-3.2,0-3.2,5.333,0,5.333
		L282,194.4c2.133,0,1.067,1.067,0,1.067l-20.267,3.2c-2.133,0-2.133,5.333,1.067,5.333l21.333-3.2c1.067,0,1.067,0,0,1.067
		l-16,2.133c-2.133,0-3.2,4.267,0,4.267L278.8,207.2h7.467l8.533,5.333c0,0,3.2,3.2,11.733,1.067
		c7.467-2.133,23.467-11.733,28.8-14.933c5.333-4.267,19.2-17.067,19.2-17.067s6.4-5.333,11.733-9.6
		c6.4-4.267,3.2-10.667,3.2-10.667L354.533,136.8l-12.8-1.067L330,147.467c0,0,8.533,12.8,11.733,13.867c0,0-12.8,16-14.933,18.133
		c-1.067,2.133-9.6,10.667-11.733,11.733c-2.133,1.067-7.467,8.533-12.8,7.467c-3.2-1.067-8.533-7.467-9.6-9.6L291.6,188
		l-7.467-7.467c0,0-1.067-1.067-2.133-1.067l-8.533-5.333c-2.133-1.067-4.267,2.133-2.133,3.2L283.067,188z"/>
</g>
<g>
	<path style="fill:#48B9A5;" d="M277.733,172c-2.133-1.067-2.133-3.2-2.133-5.333c1.067-3.2,2.133-10.667,4.267-17.067
		c2.133-10.667,2.133-1.067,3.2,6.4c1.067,7.467,0,13.867,3.2,18.133c3.2,3.2,7.467,4.267,6.4,4.267s-6.4-3.2-9.6-4.267
		C280.933,174.133,279.867,173.067,277.733,172z"/>
	<path style="fill:#48B9A5;" d="M221.2,178.4l-1.067-38.4c0,0,2.133-18.133,4.267,1.067c2.133,19.2,1.067,50.133,1.067,50.133
		s0,12.8,0,16c0,2.133-5.333,13.867-12.8,16C205.2,225.333,202,227.467,202,227.467s-1.067-5.333,2.133-7.467
		c3.2-2.133,11.733-5.333,12.8-11.733c1.067-6.4-4.267-34.133,0-25.6S221.2,178.4,221.2,178.4z"/>
</g>
<path style="fill:#FFD15C;" d="M186,149.6l-6.4,9.6c0,0,7.467,14.933,8.533,18.133c1.067,3.2,14.933,21.333,14.933,21.333
	s2.133,1.067,3.2,0c1.067-2.133,6.4-7.467,6.4-7.467l2.133-6.4c0-1.067,1.067-1.067,1.067-2.133l7.467-2.133c0,0,2.133,3.2,0,4.267
	c-2.133,1.067-4.267,1.067-4.267,1.067L218,191.2l8.533,1.067c3.2,0,3.2,4.267,0,4.267H218l-2.133,2.133
	c-1.067,0-1.067,1.067,0,1.067l5.333,3.2l5.333,2.133c2.133,1.067,1.067,5.333-2.133,4.267l-10.667-4.267
	c-1.067-1.067-2.133,0-1.067,1.067l4.267,5.333l4.267,3.2c2.133,2.133,0,5.333-3.2,3.2l-5.333-4.267c0,0-3.2-4.267-6.4-1.067
	c-3.2,3.2-5.333,2.133-8.533,0c-3.2-2.133-20.267-18.133-23.467-24.533c-3.2-5.333-17.067-26.667-17.067-26.667
	s-3.2-5.333,1.067-12.8c4.267-7.467,9.6-12.8,9.6-12.8L186,149.6z"/>
<path style="fill:#425A6B;" d="M296.933,148.533c0-25.6-11.733-12.8-12.8-52.267c-1.067-10.667-4.267-30.933-3.2-37.333
	c4.267-17.067,2.133-19.2-1.067-32c-2.133-9.6-12.8-13.867-16-14.933c-1.067,0-2.133-1.067-2.133-1.067
	c-2.133-1.067-6.4,0-8.533,1.067c-2.133,2.133-4.267,4.267-5.333,7.467c-3.2,9.6-2.133,20.267-3.2,30.933
	c0,19.2-7.467,39.467-19.2,55.467c-2.133,3.2-5.333,6.4-6.4,9.6c-6.4,11.733-5.333,26.667-7.467,39.467
	c-3.2-3.2-5.333-8.533-5.333-13.867c0,2.133-1.067,3.2-2.133,5.333c-2.133-7.467,0-14.933,2.133-21.333
	c2.133-7.467,4.267-13.867,6.4-21.333c1.067-4.267,3.2-8.533,4.267-11.733c2.133-4.267,4.267-7.467,6.4-11.733s2.133-8.533,3.2-12.8
	c2.133-14.933,5.333-28.8,9.6-43.733c1.067-6.4,3.2-11.733,7.467-17.067c4.267-5.333,12.8-7.467,19.2-6.4
	C276.667-1.867,289.467,12,291.6,20.533c2.133,7.467,3.2,26.667,6.4,35.2s1.067,24.533-1.067,30.933
	c-2.133,6.4,2.133,24.533,7.467,35.2C309.733,130.4,296.933,148.533,296.933,148.533z"/>
<g>
	<path style="fill:#67C5B8;" d="M200.933,95.2c-8.533,6.4-13.867,13.867-14.933,17.067c-2.133,6.4-21.333,25.6-21.333,25.6
		c10.667,14.933,25.6,20.267,25.6,20.267s6.4-6.4,10.667-8.533V95.2z"/>
	<path style="fill:#67C5B8;" d="M331.067,149.6c13.867-9.6,24.533-12.8,24.533-12.8s-32-36.267-36.267-40.533v57.6H314
		c8.533,6.4,11.733,5.333,11.733,5.333S318.267,159.2,331.067,149.6z"/>
</g>
<path style="fill:#425A6B;" d="M308.667,254.133L308.667,254.133c0,5.333,2.133,36.267,7.467,45.867c0,0-26.667,17.067-43.733,12.8
	c-16-4.267-18.133-8.533-18.133-9.6v-26.667c0,0-2.133-2.133-2.133-3.2c0,0-4.267,4.267-6.4,4.267c0,0-3.2,6.4-4.267,10.667
	c-1.067,3.2-2.133,6.4-5.333,7.467c0,0,3.2-2.133,3.2-7.467c0-4.267,0-9.6-3.2-13.867c-4.267-4.267-28.8-34.133-50.133-20.267
	l10.667-12.8l8.533-9.6L308.667,254.133z"/>
<g>
	<path style="fill:#F3F3F3;" d="M286.267,398.133c-2.133,8.533-19.2,66.133-19.2,66.133c0-5.333-13.867-8.533-17.067-5.333
		c0,0,2.133-5.333,1.067-14.933c0-9.6,3.2-45.867,4.267-53.333c1.067-6.4,2.133-14.933,2.133-23.467c0-1.067,0-3.2,0-4.267
		c0,0,16,8.533,29.867,1.067c0,0,0,2.133,0,4.267C288.4,375.733,288.4,391.733,286.267,398.133z"/>
	<path style="fill:#F3F3F3;" d="M159.333,317.067c0,0,17.067,7.467,30.933,2.133c0,0,8.533,29.867,8.533,58.667
		c0,24.533,5.333,40.533,5.333,40.533l1.067,17.067l-24.533-19.2c0,0-6.4-26.667-9.6-33.067
		C167.867,375.733,155.067,339.467,159.333,317.067z"/>
</g>
<path style="fill:#F26F5A;" d="M146.533,441.867L141.2,444c0,0-1.067,1.067,1.067,2.133c2.133,1.067,28.8,5.333,34.133,3.2
	c3.2-2.133,7.467-4.267,10.667-4.267s18.133,2.133,20.267-2.133v-1.067H146.533z"/>
<g>
	<path style="fill:#425A6B;" d="M141.2,442.933l7.467,1.067c0,0,21.333,3.2,24.533,2.133c3.2-1.067,6.4-4.267,11.733-4.267
		c5.333,0,19.2,2.133,21.333-1.067c0,0,1.067-12.8,1.067-16c-1.067-2.133-2.133-8.533-4.267-9.6c0,0-1.067,1.067-1.067,3.2
		c0,2.133,0,5.333-1.067,5.333c-2.133,0-5.333-5.333-6.4-5.333c0,0-4.267-3.2-7.467-4.267c-3.2-1.067-9.6-1.067-10.667,0
		s-11.733,12.8-21.333,17.067C145.467,435.467,140.133,438.667,141.2,442.933z"/>
	<path style="fill:#425A6B;" d="M250,457.867c0,0-5.333,8.533-6.4,13.867c-1.067,5.333,0,9.6,1.067,10.667
		c1.067,1.067,2.133,3.2,2.133,6.4c0,4.267-1.067,10.667,10.667,10.667c11.733,0,17.067,0,18.133-3.2
		c1.067-3.2,0-8.533-2.133-10.667c-2.133-2.133-4.267-5.333-4.267-9.6s-2.133-13.867-2.133-13.867S266,461.067,266,460v-3.2
		c-2.133-2.133-7.467-3.2-10.667-1.067l-2.133,2.133H250z"/>
</g>
<g>
	<path style="fill:#F26F5A;" d="M288.4,368.267c-4.267,2.133-8.533,2.133-12.8,2.133c-7.467,0-14.933-2.133-17.067-3.2
		c0-1.067,0-3.2,0-4.267c0,0,16,8.533,29.867,1.067C288.4,364,288.4,366.133,288.4,368.267z"/>
	<path style="fill:#F26F5A;" d="M191.333,323.467c-4.267,1.067-8.533,2.133-11.733,2.133c-9.6,0-18.133-3.2-21.333-4.267
		c0-1.067,0-2.133,0-4.267c0,0,17.067,7.467,30.933,2.133C190.267,320.267,191.333,321.333,191.333,323.467z"/>
</g>
<g>
	<polygon style="fill:#425A6B;" points="179.6,476 192.4,473.867 193.467,461.067 181.733,455.733 173.2,464.267 	"/>
	<path style="fill:#425A6B;" d="M193.467,497.333c0,0,5.333-8.533,6.4-12.8l6.4-3.2v8.533l-9.6,10.667L193.467,497.333z"/>
	<polygon style="fill:#425A6B;" points="173.2,488.8 179.6,498.4 170,505.867 158.267,500.533 159.333,489.867 	"/>
	<polyline style="fill:#425A6B;" points="159.333,465.333 154,477.067 144.4,476 145.467,464.267 154,456.8 159.333,465.333 	"/>
	<path style="fill:#425A6B;" d="M197.733,451.467l3.2,7.467l6.4,8.533l0,0C206.267,461.067,203.067,455.733,197.733,451.467z"/>
</g>
<g>
</g>
<g>
</g>
<g>
</g>
<g>
</g>
<g>
</g>
<g>
</g>
<g>
</g>
<g>
</g>
<g>
</g>
<g>
</g>
<g>
</g>
<g>
</g>
<g>
</g>
<g>
</g>
<g>
</g>
</svg>
