<svg height="512" viewBox="0 0 64 64" width="512" xmlns="http://www.w3.org/2000/svg"><g id="_09-jackpot" data-name="09-jackpot"><path d="m18 25h-12a2.006 2.006 0 0 0 -2 2v30a2.006 2.006 0 0 0 2 2h12a2.006 2.006 0 0 0 2-2v-30a2.006 2.006 0 0 0 -2-2zm-4 23c0 2-3 2-3 2s-3 0-3-2c0 0 0-7 4-9l1-1a3.993 3.993 0 0 1 -2.65.1 1.857 1.857 0 0 0 -2.33.86l-.02.04h-1v-5h2v1a4.38 4.38 0 0 1 3-1 5 5 0 0 1 1.98.38 1.841 1.841 0 0 0 2.01-.37l.01-.01h1v3s-4 6-4 7c0 2 1 2 1 4z" fill="#f7f3e1"/><path d="m38 25h-12a2.006 2.006 0 0 0 -2 2v30a2.006 2.006 0 0 0 2 2h12a2.006 2.006 0 0 0 2-2v-30a2.006 2.006 0 0 0 -2-2zm-4 23c0 2-3 2-3 2s-3 0-3-2c0 0 0-7 4-9l1-1a3.993 3.993 0 0 1 -2.65.1 1.857 1.857 0 0 0 -2.33.86l-.02.04h-1v-5h2v1a4.38 4.38 0 0 1 3-1 5 5 0 0 1 1.98.38 1.841 1.841 0 0 0 2.01-.37l.01-.01h1v3s-4 6-4 7c0 2 1 2 1 4z" fill="#f7f3e1"/><path d="m58 25h-12a2.006 2.006 0 0 0 -2 2v30a2.006 2.006 0 0 0 2 2h12a2.006 2.006 0 0 0 2-2v-30a2.006 2.006 0 0 0 -2-2zm-4 23c0 2-3 2-3 2s-3 0-3-2c0 0 0-7 4-9l1-1a3.993 3.993 0 0 1 -2.65.1 1.857 1.857 0 0 0 -2.33.86l-.02.04h-1v-5h2v1a4.38 4.38 0 0 1 3-1 5 5 0 0 1 1.98.38 1.841 1.841 0 0 0 2.01-.37l.01-.01h1v3s-4 6-4 7c0 2 1 2 1 4z" fill="#f7f3e1"/><path d="m57 34v3s-4 6-4 7c0 2 1 2 1 4s-3 2-3 2-3 0-3-2c0 0 0-7 4-9l1-1a3.993 3.993 0 0 1 -2.65.1 1.857 1.857 0 0 0 -2.33.86l-.02.04h-1v-5h2v1a4.38 4.38 0 0 1 3-1 5 5 0 0 1 1.98.38 1.841 1.841 0 0 0 2.01-.37l.01-.01z" fill="#d1013e"/><path d="m37 37s-4 6-4 7c0 2 1 2 1 4s-3 2-3 2-3 0-3-2c0 0 0-7 4-9l1-1a3.993 3.993 0 0 1 -2.65.1 1.857 1.857 0 0 0 -2.33.86l-.02.04h-1v-5h2v1a4.38 4.38 0 0 1 3-1 5 5 0 0 1 1.98.38 1.841 1.841 0 0 0 2.01-.37l.01-.01h1z" fill="#d1013e"/><path d="m17 34v3s-4 6-4 7c0 2 1 2 1 4s-3 2-3 2-3 0-3-2c0 0 0-7 4-9l1-1a3.993 3.993 0 0 1 -2.65.1 1.857 1.857 0 0 0 -2.33.86l-.02.04h-1v-5h2v1a4.38 4.38 0 0 1 3-1 5 5 0 0 1 1.98.38 1.841 1.841 0 0 0 2.01-.37l.01-.01z" fill="#d1013e"/><rect fill="#fffced" height="20" rx="4" width="62" x="1" y="1"/><path d="m59 1h-54a4 4 0 0 0 -4 4v4a4 4 0 0 1 4-4h54a4 4 0 0 1 4 4v-4a4 4 0 0 0 -4-4z" fill="#f0ebd7"/><path d="m5 21h54a4 4 0 0 0 4-4v-4a4 4 0 0 1 -4 4h-54a4 4 0 0 1 -4-4v4a4 4 0 0 0 4 4z" fill="#f0ebd7"/><path d="m4 27v30a2.006 2.006 0 0 0 2 2h12a2.006 2.006 0 0 0 2-2v-30a2.006 2.006 0 0 0 -2-2h-12a2.006 2.006 0 0 0 -2 2zm56 30v-30a2.006 2.006 0 0 0 -2-2h-12a2.006 2.006 0 0 0 -2 2v30a2.006 2.006 0 0 0 2 2h12a2.006 2.006 0 0 0 2-2zm3-32v34a4 4 0 0 1 -4 4h-54a4 4 0 0 1 -4-4v-34a4 4 0 0 1 4-4h54a4 4 0 0 1 4 4zm-23 32v-30a2.006 2.006 0 0 0 -2-2h-12a2.006 2.006 0 0 0 -2 2v30a2.006 2.006 0 0 0 2 2h12a2.006 2.006 0 0 0 2-2z" fill="#d1013e"/><path d="m59 1h-54a4 4 0 0 0 -4 4v12a4 4 0 0 0 4 4h54a4 4 0 0 0 4-4v-12a4 4 0 0 0 -4-4zm2 16a2 2 0 0 1 -2 2h-54a2 2 0 0 1 -2-2v-12a2 2 0 0 1 2-2h54a2 2 0 0 1 2 2z" fill="#d1013e"/><circle cx="62" cy="5" fill="#ff9c00" r="1"/><circle cx="62" cy="8" fill="#ff9c00" r="1"/><circle cx="62" cy="11" fill="#ff9c00" r="1"/><circle cx="62" cy="14" fill="#ff9c00" r="1"/><circle cx="62" cy="17" fill="#ff9c00" r="1"/><circle cx="2" cy="5" fill="#ff9c00" r="1"/><circle cx="2" cy="8" fill="#ff9c00" r="1"/><circle cx="2" cy="11" fill="#ff9c00" r="1"/><circle cx="2" cy="14" fill="#ff9c00" r="1"/><circle cx="2" cy="17" fill="#ff9c00" r="1"/><path d="m10.5 6a1 1 0 0 0 -1-1h-2v2h1v6.5a1.5 1.5 0 1 1 -3 0v-2.5h-2v2.5a3.5 3.5 0 0 0 7 0z" fill="#d1013e"/><path d="m23.249 6.757a6.006 6.006 0 0 0 4.251 10.243h1v-2h-1a4 4 0 1 1 0-8h1v-2h-1a6.005 6.005 0 0 0 -4.251 1.757z" fill="#d1013e"/><path d="m34.5 6.52-3 2.4v-3.92h-2v12h2v-3.92l3 2.4v1.52h2v-2a1 1 0 0 0 -.375-.781l-4.025-3.219 4.024-3.219a1 1 0 0 0 .376-.781v-2h-2z" fill="#d1013e"/><path d="m42 5h-3.5a1 1 0 0 0 -1 1v11h2v-5h2.5a3.5 3.5 0 0 0 0-7zm1.063 4.563a1.491 1.491 0 0 1 -1.063.437h-2.5v-3h2.5a1.5 1.5 0 0 1 1.063 2.563z" fill="#d1013e"/><path d="m50.5 5a4 4 0 0 0 -4 4v4a4 4 0 0 0 8 0v-4a4 4 0 0 0 -4-4zm2 8a2 2 0 0 1 -4 0v-4a2 2 0 0 1 4 0z" fill="#d1013e"/><path d="m60.5 5h-6v2h2v10h2v-10h2z" fill="#d1013e"/><path d="m18.458 5.713a1 1 0 0 0 -.958-.713h-2a1 1 0 0 0 -.958.713l-2.786 9.287h-1.256v2h4v-2h-.656l.6-2h4.112l.6 2h-.656v2h4v-2h-1.256zm-3.414 5.287 1.2-4h.512l1.2 4z" fill="#d1013e"/><path d="m58 25h-12a2.006 2.006 0 0 0 -2 2v3a2.006 2.006 0 0 1 2-2h12a2.006 2.006 0 0 1 2 2v-3a2.006 2.006 0 0 0 -2-2z" fill="#d9d4c2"/><path d="m58 56h-12a2.006 2.006 0 0 1 -2-2v3a2.006 2.006 0 0 0 2 2h12a2.006 2.006 0 0 0 2-2v-3a2.006 2.006 0 0 1 -2 2z" fill="#d9d4c2"/><path d="m38 25h-12a2.006 2.006 0 0 0 -2 2v3a2.006 2.006 0 0 1 2-2h12a2.006 2.006 0 0 1 2 2v-3a2.006 2.006 0 0 0 -2-2z" fill="#d9d4c2"/><path d="m38 56h-12a2.006 2.006 0 0 1 -2-2v3a2.006 2.006 0 0 0 2 2h12a2.006 2.006 0 0 0 2-2v-3a2.006 2.006 0 0 1 -2 2z" fill="#d9d4c2"/><path d="m18 25h-12a2.006 2.006 0 0 0 -2 2v3a2.006 2.006 0 0 1 2-2h12a2.006 2.006 0 0 1 2 2v-3a2.006 2.006 0 0 0 -2-2z" fill="#d9d4c2"/><path d="m18 56h-12a2.006 2.006 0 0 1 -2-2v3a2.006 2.006 0 0 0 2 2h12a2.006 2.006 0 0 0 2-2v-3a2.006 2.006 0 0 1 -2 2z" fill="#d9d4c2"/><rect fill="#a80132" height="2" rx="1" width="54" x="5" y="19"/><circle cx="6.5" cy="2" fill="#ff9c00" r="1"/><circle cx="9.5" cy="2" fill="#ff9c00" r="1"/><circle cx="12.5" cy="2" fill="#ff9c00" r="1"/><circle cx="15.5" cy="2" fill="#ff9c00" r="1"/><circle cx="18.5" cy="2" fill="#ff9c00" r="1"/><circle cx="21.5" cy="2" fill="#ff9c00" r="1"/><circle cx="24.5" cy="2" fill="#ff9c00" r="1"/><circle cx="27.5" cy="2" fill="#ff9c00" r="1"/><circle cx="30.5" cy="2" fill="#ff9c00" r="1"/><circle cx="33.5" cy="2" fill="#ff9c00" r="1"/><circle cx="36.5" cy="2" fill="#ff9c00" r="1"/><circle cx="39.5" cy="2" fill="#ff9c00" r="1"/><circle cx="42.5" cy="2" fill="#ff9c00" r="1"/><circle cx="45.5" cy="2" fill="#ff9c00" r="1"/><circle cx="48.5" cy="2" fill="#ff9c00" r="1"/><circle cx="51.5" cy="2" fill="#ff9c00" r="1"/><circle cx="54.5" cy="2" fill="#ff9c00" r="1"/><circle cx="57.5" cy="2" fill="#ff9c00" r="1"/><circle cx="7" cy="20" fill="#ff9c00" r="1"/><circle cx="10" cy="20" fill="#ff9c00" r="1"/><circle cx="13" cy="20" fill="#ff9c00" r="1"/><circle cx="16" cy="20" fill="#ff9c00" r="1"/><circle cx="19" cy="20" fill="#ff9c00" r="1"/><circle cx="22" cy="20" fill="#ff9c00" r="1"/><circle cx="25" cy="20" fill="#ff9c00" r="1"/><circle cx="28" cy="20" fill="#ff9c00" r="1"/><circle cx="31" cy="20" fill="#ff9c00" r="1"/><circle cx="34" cy="20" fill="#ff9c00" r="1"/><circle cx="37" cy="20" fill="#ff9c00" r="1"/><circle cx="40" cy="20" fill="#ff9c00" r="1"/><circle cx="43" cy="20" fill="#ff9c00" r="1"/><circle cx="46" cy="20" fill="#ff9c00" r="1"/><circle cx="49" cy="20" fill="#ff9c00" r="1"/><circle cx="52" cy="20" fill="#ff9c00" r="1"/><circle cx="55" cy="20" fill="#ff9c00" r="1"/><circle cx="58" cy="20" fill="#ff9c00" r="1"/><path d="m59 61h-54a4 4 0 0 1 -4-4v2a4 4 0 0 0 4 4h54a4 4 0 0 0 4-4v-2a4 4 0 0 1 -4 4z" fill="#a80132"/><path d="m59 21h-54a4 4 0 0 0 -4 4v2a4 4 0 0 1 4-4h54a4 4 0 0 1 4 4v-2a4 4 0 0 0 -4-4z" fill="#ff014c"/><g fill="#ff9c00"><circle cx="61" cy="27" r="1"/><circle cx="61" cy="30" r="1"/><circle cx="61" cy="33" r="1"/><circle cx="61" cy="36" r="1"/><circle cx="61" cy="39" r="1"/><circle cx="61" cy="42" r="1"/><circle cx="61" cy="45" r="1"/><circle cx="61" cy="48" r="1"/><circle cx="61" cy="51" r="1"/><circle cx="61" cy="54" r="1"/><circle cx="61" cy="57" r="1"/><circle cx="43" cy="27" r="1"/><circle cx="43" cy="30" r="1"/><circle cx="43" cy="33" r="1"/><circle cx="43" cy="36" r="1"/><circle cx="43" cy="39" r="1"/><circle cx="43" cy="42" r="1"/><circle cx="43" cy="45" r="1"/><circle cx="43" cy="48" r="1"/><circle cx="43" cy="51" r="1"/><circle cx="43" cy="54" r="1"/><circle cx="43" cy="57" r="1"/><circle cx="41" cy="27" r="1"/><circle cx="41" cy="30" r="1"/><circle cx="41" cy="33" r="1"/><circle cx="41" cy="36" r="1"/><circle cx="41" cy="39" r="1"/><circle cx="41" cy="42" r="1"/><circle cx="41" cy="45" r="1"/><circle cx="41" cy="48" r="1"/><circle cx="41" cy="51" r="1"/><circle cx="41" cy="54" r="1"/><circle cx="41" cy="57" r="1"/><circle cx="23" cy="27" r="1"/><circle cx="23" cy="30" r="1"/><circle cx="23" cy="33" r="1"/><circle cx="23" cy="36" r="1"/><circle cx="23" cy="39" r="1"/><circle cx="23" cy="42" r="1"/><circle cx="23" cy="45" r="1"/><circle cx="23" cy="48" r="1"/><circle cx="23" cy="51" r="1"/><circle cx="23" cy="54" r="1"/><circle cx="23" cy="57" r="1"/><circle cx="21" cy="27" r="1"/><circle cx="21" cy="30" r="1"/><circle cx="21" cy="33" r="1"/><circle cx="21" cy="36" r="1"/><circle cx="21" cy="39" r="1"/><circle cx="21" cy="42" r="1"/><circle cx="21" cy="45" r="1"/><circle cx="21" cy="48" r="1"/><circle cx="21" cy="51" r="1"/><circle cx="21" cy="54" r="1"/><circle cx="21" cy="57" r="1"/><circle cx="3" cy="27" r="1"/><circle cx="3" cy="30" r="1"/><circle cx="3" cy="33" r="1"/><circle cx="3" cy="36" r="1"/><circle cx="3" cy="39" r="1"/><circle cx="3" cy="42" r="1"/><circle cx="3" cy="45" r="1"/><circle cx="3" cy="48" r="1"/><circle cx="3" cy="51" r="1"/><circle cx="3" cy="54" r="1"/><circle cx="3" cy="57" r="1"/><path d="m57 33h-1a1.032 1.032 0 0 0 -.717.3.834.834 0 0 1 -.909.158 5.987 5.987 0 0 0 -2.374-.458 6.165 6.165 0 0 0 -2.208.389 1 1 0 0 0 -.792-.389h-2a1 1 0 0 0 -1 1v5a1 1 0 0 0 1 1h1a1.069 1.069 0 0 0 .912-.588.866.866 0 0 1 1.1-.37c.044.016.087.031.131.044-3.102 2.892-3.143 8.64-3.143 8.914 0 2.373 2.617 3 4 3s4-.627 4-3a4.865 4.865 0 0 0 -.6-2.447 2.86 2.86 0 0 1 -.4-1.478 44.572 44.572 0 0 1 3.837-6.52 1.006 1.006 0 0 0 .163-.555v-3a1 1 0 0 0 -1-1zm0 4s-4 6-4 7c0 2 1 2 1 4s-3 2-3 2-3 0-3-2c0 0 0-7 4-9l1-1a3.993 3.993 0 0 1 -2.65.1 1.857 1.857 0 0 0 -2.33.86l-.02.04h-1v-5h2v1a4.38 4.38 0 0 1 3-1 5 5 0 0 1 1.98.38 1.841 1.841 0 0 0 2.01-.37l.01-.01h1z"/><path d="m37 33h-1a1.032 1.032 0 0 0 -.717.3.834.834 0 0 1 -.909.158 5.987 5.987 0 0 0 -2.374-.458 6.165 6.165 0 0 0 -2.208.389 1 1 0 0 0 -.792-.389h-2a1 1 0 0 0 -1 1v5a1 1 0 0 0 1 1h1a1.069 1.069 0 0 0 .912-.588.866.866 0 0 1 1.1-.37c.044.016.087.031.131.044-3.102 2.892-3.143 8.64-3.143 8.914 0 2.373 2.617 3 4 3s4-.627 4-3a4.865 4.865 0 0 0 -.6-2.447 2.86 2.86 0 0 1 -.4-1.478 44.572 44.572 0 0 1 3.837-6.52 1.006 1.006 0 0 0 .163-.555v-3a1 1 0 0 0 -1-1zm0 4s-4 6-4 7c0 2 1 2 1 4s-3 2-3 2-3 0-3-2c0 0 0-7 4-9l1-1a3.993 3.993 0 0 1 -2.65.1 1.857 1.857 0 0 0 -2.33.86l-.02.04h-1v-5h2v1a4.38 4.38 0 0 1 3-1 5 5 0 0 1 1.98.38 1.841 1.841 0 0 0 2.01-.37l.01-.01h1z"/><path d="m17 33h-1a1.032 1.032 0 0 0 -.717.3.834.834 0 0 1 -.909.158 5.987 5.987 0 0 0 -2.374-.458 6.165 6.165 0 0 0 -2.208.389 1 1 0 0 0 -.792-.389h-2a1 1 0 0 0 -1 1v5a1 1 0 0 0 1 1h1a1.069 1.069 0 0 0 .912-.588.866.866 0 0 1 1.1-.37c.044.016.087.031.131.044-3.102 2.892-3.143 8.64-3.143 8.914 0 2.373 2.617 3 4 3s4-.627 4-3a4.865 4.865 0 0 0 -.605-2.447 2.86 2.86 0 0 1 -.4-1.478 44.572 44.572 0 0 1 3.837-6.52 1.006 1.006 0 0 0 .168-.555v-3a1 1 0 0 0 -1-1zm0 4s-4 6-4 7c0 2 1 2 1 4s-3 2-3 2-3 0-3-2c0 0 0-7 4-9l1-1a3.993 3.993 0 0 1 -2.65.1 1.857 1.857 0 0 0 -2.33.86l-.02.04h-1v-5h2v1a4.38 4.38 0 0 1 3-1 5 5 0 0 1 1.98.38 1.841 1.841 0 0 0 2.01-.37l.01-.01h1z"/></g><path d="m56 34-.01.01a1.841 1.841 0 0 1 -2.01.37 5 5 0 0 0 -1.98-.38 4.38 4.38 0 0 0 -3 1v-1h-2v2h2v1a4.38 4.38 0 0 1 3-1 5 5 0 0 1 1.98.38 1.841 1.841 0 0 0 2.01-.37l.01-.01h1v-2z" fill="#ff014c"/><path d="m51 48s-2.4 0-2.9-1.445c-.1.863-.1 1.445-.1 1.445 0 2 3 2 3 2s3 0 3-2a3.942 3.942 0 0 0 -.179-1.249c-.64 1.249-2.821 1.249-2.821 1.249z" fill="#a80132"/><path d="m36 34-.01.01a1.841 1.841 0 0 1 -2.01.37 5 5 0 0 0 -1.98-.38 4.38 4.38 0 0 0 -3 1v-1h-2v2h2v1a4.38 4.38 0 0 1 3-1 5 5 0 0 1 1.98.38 1.841 1.841 0 0 0 2.01-.37l.01-.01h1v-2z" fill="#ff014c"/><path d="m31 48s-2.4 0-2.9-1.445c-.1.863-.1 1.445-.1 1.445 0 2 3 2 3 2s3 0 3-2a3.942 3.942 0 0 0 -.179-1.249c-.64 1.249-2.821 1.249-2.821 1.249z" fill="#a80132"/><path d="m16 34-.01.01a1.841 1.841 0 0 1 -2.01.37 5 5 0 0 0 -1.98-.38 4.38 4.38 0 0 0 -3 1v-1h-2v2h2v1a4.38 4.38 0 0 1 3-1 5 5 0 0 1 1.98.38 1.841 1.841 0 0 0 2.01-.37l.01-.01h1v-2z" fill="#ff014c"/><path d="m11 48s-2.4 0-2.9-1.445c-.1.863-.1 1.445-.1 1.445 0 2 3 2 3 2s3 0 3-2a3.942 3.942 0 0 0 -.179-1.249c-.64 1.249-2.821 1.249-2.821 1.249z" fill="#a80132"/><path d="m8.5 13.5v-6.5h-1v-1h-1v2h1v6.5a1.494 1.494 0 0 1 -.07.43 1.5 1.5 0 0 0 1.07-1.43z" fill="#e3decb"/><path d="m21.5 11a5.982 5.982 0 0 1 1.285-3.71 5.988 5.988 0 0 0 -2.251 5.343l.629 2.1c.047.092.1.183.149.272h1.188v1.46a5.969 5.969 0 0 0 4 1.54h1v-1.005a6.006 6.006 0 0 1 -6-6z" fill="#e3decb"/><path d="m27.5 8v-1a4.016 4.016 0 0 0 -2.837 1.171 4.094 4.094 0 0 0 -.447.549 4 4 0 0 1 2.284-.72z" fill="#e3decb"/><path d="m34.5 15.48-3-2.4v1.8l2 1.6v1.52h2v-1h-1z" fill="#e3decb"/><path d="m29.5 6h-1v1 8 2 1h2v-1h-1z" fill="#e3decb"/><path d="m34.5 6h-1v1.32l1-.8z" fill="#e3decb"/><path d="m43.5 8.5a1.5 1.5 0 0 0 -1.5-1.5h-2.5v1h1.5a1.5 1.5 0 0 1 1.5 1.5 1.518 1.518 0 0 1 -.069.431 1.469 1.469 0 0 0 1.069-1.431z" fill="#e3decb"/><path d="m37.5 11v-5a1 1 0 0 0 -1 1v11h2v-1h-1z" fill="#e3decb"/><path d="m39.5 12v1h1.5a3.481 3.481 0 0 0 2.925-1.575 3.483 3.483 0 0 1 -1.925.575z" fill="#e3decb"/><path d="m50.5 7a2 2 0 0 0 -1.82 1.18 2 2 0 0 1 2.82 1.82v4a1.99 1.99 0 0 1 -.18.82 2 2 0 0 0 1.18-1.82v-4a2 2 0 0 0 -2-2z" fill="#e3decb"/><path d="m46.5 13v-4a3.965 3.965 0 0 1 .721-2.279 3.992 3.992 0 0 0 -1.721 3.279v4a3.995 3.995 0 0 0 7.279 2.279 3.991 3.991 0 0 1 -6.279-3.279z" fill="#e3decb"/><path d="m56.5 7h-2v-1h-1v.383a3.947 3.947 0 0 1 .858 1.617h1.142v10h2v-1h-1z" fill="#e3decb"/><path d="m58.5 7h1v1h-1z" fill="#e3decb"/><path d="m14.454 6.008a1 1 0 0 0 -.912.705l-2.486 8.287h.7z" fill="#e3decb"/><path d="m16.756 7h-.512l-.394 1.314.806 2.686h1.3z" fill="#e3decb"/><path d="m10.5 16h-1v2h4v-1h-3z" fill="#e3decb"/><path d="m18.5 15h.656l-.6-2h-4.112l-.3 1h3.412l.6 2h-.656v2h4v-1h-3z" fill="#e3decb"/><path d="m7 17a3.493 3.493 0 0 1 -3.5-3.5v-1.5h-.5v4.285a3.485 3.485 0 0 0 5.92.135 3.47 3.47 0 0 1 -1.92.58z" fill="#e3decb"/></g></svg>