<svg id="Layer_1" enable-background="new 0 0 512 512" height="512" viewBox="0 0 512 512" width="512" xmlns="http://www.w3.org/2000/svg"><g id="XMLID_1_"><g id="XMLID_5133_"><g id="XMLID_3039_"><circle id="XMLID_3068_" cx="471.4" cy="450.5" fill="#d3bcc9" r="35.7"/><g id="XMLID_3066_"><path id="XMLID_3067_" d="m469 426h6v19h-6z" fill="#a59aa0"/></g><g id="XMLID_3064_"><path id="XMLID_3065_" d="m447.5 442.8h18.3v6h-18.3z" fill="#a59aa0" transform="matrix(.952 .306 -.306 .952 158.154 -118.278)"/></g><g id="XMLID_3062_"><path id="XMLID_3063_" d="m459.4 452.5h6v21.1h-6z" fill="#a59aa0" transform="matrix(.811 .585 -.585 .811 358.193 -182.973)"/></g><g id="XMLID_3060_"><path id="XMLID_3061_" d="m472.7 460.1h15.6v6h-15.6z" fill="#a59aa0" transform="matrix(.585 .811 -.811 .585 575.109 -197.497)"/></g><g id="XMLID_3058_"><path id="XMLID_3059_" d="m483.2 437.7h6v16.2h-6z" fill="#a59aa0" transform="matrix(.305 .952 -.952 .305 762.465 -153.178)"/></g><g id="XMLID_3056_"><path id="XMLID_3057_" d="m451.6 414.6h6v25.5h-6z" fill="#a59aa0" transform="matrix(.59 .808 -.808 .59 531.778 -191.755)"/></g><g id="XMLID_3054_"><path id="XMLID_3055_" d="m472.7 424.4h31.2v6h-31.2z" fill="#a59aa0" transform="matrix(.808 .589 -.589 .808 345.382 -205.595)"/></g><g id="XMLID_3052_"><path id="XMLID_3053_" d="m432.8 456.5h22.8v6h-22.8z" fill="#a59aa0" transform="matrix(.313 .95 -.95 .313 741.578 -106.261)"/></g><g id="XMLID_3050_"><path id="XMLID_3051_" d="m456.5 476.2h29.9v6h-29.9z" fill="#a59aa0"/></g><g id="XMLID_3047_"><path id="XMLID_3048_" d="m495.6 447h6v25h-6z" fill="#a59aa0" transform="matrix(.95 .312 -.312 .95 168.325 -132.68)"/></g><g fill="#7f757b"><path id="XMLID_3046_" d="m464.7 460-4.2-12.9 10.9-8 11 8-4.2 12.9z"/><path id="XMLID_3045_" d="m462.8 415.9-2.3 7 10.9 8 10.9-8-2.3-7.1c-2.8-.7-5.7-1.1-8.7-1.1-2.9.2-5.8.5-8.5 1.2z"/><path id="XMLID_3043_" d="m435.9 448.2 6.1 4.4 10.9-8-4.2-12.8h-7.5c-3.1 4.8-4.9 10.4-5.3 16.4z"/><path id="XMLID_3042_" d="m446.5 466.4-2.3 7.2c3.7 4.4 8.5 7.9 14 10.1l6.1-4.4-4.2-12.9z"/><path id="XMLID_3041_" d="m498.7 473.5-2.3-7.1-13.5-.1-4.2 12.9 6.1 4.4c5.3-2.2 10.1-5.7 13.9-10.1z"/><path id="XMLID_3040_" d="m507 448.2c-.4-6-2.3-11.6-5.3-16.4h-7.5l-4.3 12.9 10.9 8z"/></g></g><path id="XMLID_2031_" d="m465.9 297-51.1-10.9 7.2-14.8c3.9-8 13.4-11.3 21.4-7.4l29.1 14.1c5.1 2.4 7.2 8.5 4.7 13.6-2.1 4.1-6.8 6.4-11.3 5.4z" fill="#d85064"/><path id="XMLID_2032_" d="m425.3 284-10.6 2.1-10.8 81.9 21.9 11.5c23.6 12.4 50.2-10.4 41.5-35.6l-15.3-44.5c-3.7-11.1-15.2-17.7-26.7-15.4z" fill="#fccfac"/><path id="XMLID_2024_" d="m403.9 368 23.3 12.2 26-60.2-38.4-33.9z" fill="#e5ad88"/><path id="XMLID_609_" d="m433.9 310.5 33.4 33.4-15.3-44.5c-3.8-11.1-15.2-17.7-26.8-15.4l-10.6 2.1-4.4 33.1z" fill="#8b8aba"/><path id="XMLID_2029_" d="m322.2 365-3.8 17c23.8 16.9 43.3 39.3 56.7 65.2l30.8 59.8h-72.3c-.6-9.1 5.1-17.4 13.8-20.2l11.2-3.5-102.7-79.8-6-37.5 37-20.7z" fill="#fccfac"/><path id="XMLID_3070_" d="m249.9 366 3.9 24.6 64.6-8.6 3.8-17-35.3-19.7z" fill="#e5ad88"/><path id="XMLID_2033_" d="m395.7 264-99.3-41.9-57.4 41.9 10.9 102 72.3-1 9.7-43 72 46 30-57.5z" fill="#f27986"/><path id="XMLID_3071_" d="m296.4 222.1-57.4 41.9 2.5 23.9 170.3-4.3-16.1-19.6z" fill="#d85064"/><path id="XMLID_607_" d="m333.6 507h72.3l-30.8-59.8c-7.5-14.6-17-28.1-28-40l-5.2-.2c-20.6-.7-40.8 6.1-56.8 19.2l73.5 57.2-11.2 3.5c-8.7 2.7-14.4 11-13.8 20.1z" fill="#b0add6"/><path id="XMLID_529_" d="m358 483.5-10.6 3.3c-8.7 2.7-14.4 11.1-13.8 20.2h72.3l-15-29-32.3 5.4z" fill="#f27986"/><path id="XMLID_2036_" d="m123 119.7-81.1 4.3-18.2-21.5-18.7 6v38.5l36.9 4.5 81.1 3.5 17.3-27z" fill="#fccfac"/><path id="XMLID_3072_" d="m104 120.7v33.5l19.1.8 17.2-27-17.2-8.3z" fill="#e5ad88"/><path id="XMLID_2034_" d="m401.5 142 66.8 56 16.7 5v26l-23.7 2.7-8.7-17.4-49.1-14.3-22.8-50z" fill="#fccfac"/><path id="XMLID_3073_" d="m418 155.8-16.5-13.8-20.8 8 22.8 50 14.5 4.2z" fill="#e5ad88"/><path id="XMLID_2038_" d="m401.5 142c-44-41.2-103.9-60.8-163.7-53.4l-64.5 7.9-50.3 23.2v35.3l81.7 11 34.2 98h156.7l-46.2-87 53.9 23z" fill="#b0add6"/><path id="XMLID_2888_" d="m236.3 89 8.2 27.7c4.1 13.8 16.8 23.3 31.2 23.3 23.3 0 39.1-23.8 29.9-45.3l-1.4-3.3-41-14.4z" fill="#8b8aba"/><g fill="#f27986"><path id="XMLID_2026_" d="m204.7 166-16.3-71.4 25.1-3.1 57.4 172.5h-32z"/><path id="XMLID_2025_" d="m243.1 88 50.3 176h32.5l-60.2-176.9z"/><path id="XMLID_3044_" d="m320.5 95.5c-10-3-20.1-5.1-30.5-6.6l61.9 175h43.8l-46.2-87z"/></g><path id="XMLID_2927_" d="m265.7 87.1-22.6.9 13 45.5c5.5 4.2 12.3 6.6 19.6 6.6 2.7 0 5.2-.3 7.7-.9z" fill="#d85064"/><path id="XMLID_2925_" d="m302.9 125.3c5.7-8.6 7.3-19.9 2.8-30.6l-1.4-3.3c-4.7-1-9.5-1.8-14.2-2.5z" fill="#d85064"/><g id="XMLID_2039_"><path id="XMLID_2041_" d="m268.7 5.1c-26.2 0-45.8 24.1-40.4 49.7l5.4 25.8c3.3 15.8 14 28.9 28.7 35.4l1 .4c11.5 5 25 1.5 32.6-8.5 7.6-10.1 11.1-22.7 9.8-35.3l-3.3-30.5 6.2-6.3-.8-2.4c-5.6-16.9-21.4-28.3-39.2-28.3z" fill="#fccfac"/><path id="XMLID_2040_" d="m232.5 75 13.1-22.4 34.6 3.8 22.3-14.3 6.2-6.3-.8-2.4c-5.6-17-21.4-28.4-39.2-28.4-26.2 0-45.7 24.1-40.4 49.7z" fill="#e19f76"/></g><path id="XMLID_2037_" d="m349.5 177-23.1-11 8.8 19.1c7.7 16.7 21.4 29.9 38.3 37z" fill="#d85064"/><path id="XMLID_3019_" d="m14.5 136.6c.9 1.7 2.6 2.6 4.4 2.6.7 0 1.5-.2 2.2-.5l13-6.3-4.3-9-8.7 4.2-11.3-20.7-4.8 1.6v10.5z" fill="#e5ad88"/><g id="XMLID_2921_"><path id="XMLID_3140_" d="m264 75.1h10v10h-10z" fill="#e19f76" transform="matrix(.104 .995 -.995 .104 320.628 -195.719)"/></g><g id="XMLID_3138_"><path id="XMLID_3139_" d="m285.9 72.9h10v10h-10z" fill="#e19f76" transform="matrix(.104 .995 -.995 .104 337.947 -219.533)"/></g></g></g></svg>