<svg id="Layer_1" enable-background="new 0 0 53 53" height="512" viewBox="0 0 53 53" width="512" xmlns="http://www.w3.org/2000/svg"><g id="_x39_1"><g><path d="m37.4030762 7.4955492v37.9294128c0 2.7589645-2.2365837 4.9955482-4.9955482 4.9955482h-21.8535815c-2.758966 0-4.9955497-2.2365837-4.9955497-4.9955482v-37.9294128c0-2.7589655 2.2365837-4.9955492 4.9955497-4.9955492h21.8535805c2.7589655 0 4.9955492 2.2365837 4.9955492 4.9955492z" fill="#d0d0f7"/></g><g><path d="m37.4048347 12.5418224v32.8330154c0 2.7628746-2.238781 4.9941597-4.9941559 4.9941597h-21.856203c-2.7630558 0-4.9943399-2.2312851-4.9943399-4.9941597v-.0823517c10.3179064 3.5042267 23.533596-7.3602562 29.5984268-24.3870068 1.0033979-2.8153342 1.7446622-5.6231774 2.246272-8.3636569z" fill="#c2c2ef"/></g><g><g opacity=".7"><g><path d="m19.2342625 5.2585611h-1.8027954c-.3100338 0-.5615692-.2515359-.5615692-.5615687 0-.3100324.2515354-.5615683.5615692-.5615683h1.8027954c.3100319 0 .5615673.2515359.5615673.5615683 0 .3100328-.2515354.5615687-.5615673.5615687z" fill="#fff"/></g></g><g opacity=".7"><g><path d="m26.3071003 5.2585611h-4.2296791c-.0854053 0-.3369408-.2515359-.3369408-.5615687 0-.3100324.2515354-.5615683.5615692-.5615683h4.2296772c.3100338 0 .5615692.2515359.5615692.5615683.0000001.3100328-.2515354.5615687-.7861957.5615687z" fill="#fff"/></g></g></g><g opacity=".6"><g opacity=".7"><g><path d="m8.8156309 29.0453835v1.8027973c0 .3100319-.2515354.5615673-.5615683.5615673s-.5615687-.2515354-.5615687-.5615673v-1.8027973c0-.3100319.2515359-.5615673.5615687-.5615673s.5615683.2515354.5615683.5615673z" fill="#fff"/></g></g><g opacity=".7"><g><path d="m8.8156309 14.953968v11.2482567c0 .0854053-.2515354.3369408-.5615683.3369408s-.5615687-.2515354-.5615687-.5615692v-11.2482557c0-.3100328.2515359-.5615683.5615687-.5615683s.5615683.2515354.5615683.7861957z" fill="#fff"/></g></g></g><g><g><g><path d="m12.0634651 13.128233c-.272543.2031717-.6821737.2031717-.9547062-.0032969-.0264339-.0165234-.0512142-.0379972-.0776377-.0528574.0330372.0809345.075984.1552649.1238813.2213287.0792809.1090212.1783915.1949053.2890558.246109.0297308.0148706.0198202.0594711-.0148697.0594711h-1.0026035c-.0346909 0-.0446005-.0446005-.0148706-.0594711.1767387-.0842304.3237467-.2527122.4145908-.4690914-.0280762.0165138-.0528564.0379877-.0792809.0545111-.272542.2064686-.6805296.2064686-.953063.0032969-.2758389-.2031622-.3964233-.5929728-.2791462-.9150667.075984-.2081213.2361994-.3782463.4145908-.5136919.1783819-.1370974.3749409-.2461185.5566397-.3766031.1668282-.1189213.3187866-.2609797.4145908-.4377079.0132065-.0231276.0429468-.0231276.0545006 0 .0974579.1767282.2477627.3187866.4162445.4377079.1800451.1304846.3782463.2395058.554985.3766031.1783924.1354456.3402605.3055706.4145908.5136919.1172783.3220939-.0016525.7119045-.2774923.9150667z" fill="#fc6559"/></g></g><g><g><path d="m12.0632219 13.1285219c-.272543.2031622-.6821737.2031622-.9547062-.0033073-.0264339-.0165129-.0512142-.0379868-.0776377-.0528564.0330372.0809441.075984.1552649.1238813.2213383.0792809.1090117.1783924.1949053.2890568.246109.0297298.0148706.0198202.0594606-.0148706.0594606h-1.0026035c-.0346899 0-.0446005-.04459-.0148697-.0594606.1767378-.08424.3237467-.2527122.4145908-.4690914-.0280771.0165138-.0528574.0379877-.0792809.0545006-.272543.2064695-.6805305.2064695-.953063.0033073-.0908451-.0677176-.1651754-.1552649-.2180328-.2543659.2196856.1024075.4707451.1602144.738328.1602144.8390913 0 1.5179586-.5714989 1.5179586-1.2767992 0-.0446005-.0032969-.0908442-.0082569-.1337919.0346909.0247707.0693808.049551.1024075.0759745.1783924.1354446.3402605.3055801.4145918.5137014.1172772.3220834-.0016537.7119044-.2774935.9150666z" fill="#f05543"/></g></g></g><g><g><path d="m12.7276487 9.6083822c.0726166.0802908.1089249.188921.1089249.2904654 0 .2320194-.1886253.4203501-.4206448.4203501-.1160088 0-.2246389-.0436888-.3117189-.1375589l-1.7982931-1.9724541v1.6896629c0 .2320194-.1957102.4203501-.4277287.4203501-.2320194 0-.4206448-.1883307-.4206448-.4203501v-4.2347841c0-.2320185.1886253-.4203491.4206448-.4203491.2320185 0 .4277287.1883307.4277287.4203491v1.6896634l1.7982931-1.9724545c.0797005-.0867853.1957102-.137558.3117189-.137558.239399 0 .4206448.1960053.4206448.4203491 0 .10922-.0363083.2107654-.1089249.2904663l-1.6749029 1.8272214z" fill="#474646"/></g></g><g><g><path d="m47.439846 7.5750394v37.9294128c0 2.7589645-2.2365837 4.9955482-4.9955482 4.9955482h-21.8535824c-2.7589664 0-4.9955492-2.2365837-4.9955492-4.9955482v-37.9294128c0-2.758966 2.2365828-4.9955492 4.9955492-4.9955492h21.8535824c2.7589645-.0000003 4.9955482 2.2365832 4.9955482 4.9955492z" fill="#e4e3ff"/></g><g><path d="m47.4416046 12.6213121v32.8330193c0 2.7628746-2.238781 4.9941597-4.9941597 4.9941597h-21.8561992c-2.7630558 0-4.9943409-2.2312851-4.9943409-4.9941597v-.0823517c10.3179073 3.5042267 23.533596-7.3602562 29.598423-24.3870068 1.0034027-2.815339 1.744667-5.6231803 2.2462768-8.3636608z" fill="#d0d0f7"/></g><g opacity=".6"><g opacity=".7"><g><path d="m25.9016209 5.3380508h-1.8027973c-.3100319 0-.5615673-.2515359-.5615673-.5615683 0-.3100328.2515354-.5615687.5615673-.5615687h1.8027973c.3100319 0 .5615673.2515359.5615673.5615687 0 .3100324-.2515354.5615683-.5615673.5615683z" fill="#fff"/></g></g><g opacity=".7"><g><path d="m36.3438683 5.3380508h-7.5990887c-.0854053 0-.3369408-.2515359-.3369408-.5615683 0-.3100328.2515354-.5615687.5615692-.5615687h7.5990887c.3100319 0 .5615692.2515359.5615692.5615687 0 .3100324-.2515373.5615683-.7861976.5615683z" fill="#fff"/></g></g></g><g><g><path d="m34.1513596 31.3419571c-.83078 0-1.5818138-.2924366-2.1799526-.7709885.5050831 1.2694588 1.375742 2.1799927 2.3859882 2.4059448h-5.7357312c.8108654-.1860733 1.5286331-.7975197 2.0404072-1.6881371.1329346-.2259903.2459087-.4652462.3456192-.7178078-.5981808.4785519-1.3558636.7709885-2.1866474.7709885-1.9207401 0-3.4826355-1.5618954-3.4826355-3.4826355 0-1.7014828 1.2162781-3.1170998 2.8180084-3.422842-.0996685-.3190079-.1528511-.6579742-.1528511-1.0102463 0-1.9207802 1.5618572-3.4826355 3.4826374-3.4826355 1.927433 0 3.4892883 1.5618553 3.4892883 3.4826355 0 .352272-.0531387.6912384-.1528511 1.0102463 1.608387.312355 2.8180122 1.7280121 2.8180122 3.422842.0000001 1.9207402-1.561859 3.4826356-3.489292 3.4826356z" fill="#474646"/></g><g opacity=".4"><g><path d="m29.334198 23.6465054c-.11553.0133038-.2336578-.1044979-.2323589-.233984.0038929-.7256355.3336105-1.4006481.9034767-1.8527107.0999527-.0795078.2459888-.063282.3271198.0379696.079834.1006031.0629578.2469635-.0376453.3267956-.4595261.3637924-.7243385.9070473-.7282333 1.4905434-.0006486.1281871-.1044961.2313861-.232359.2313861z" fill="#fff"/></g></g><g opacity=".4"><g><path d="m30.9990101 21.5650024c-.1064453 0-.2018547-.0730171-.2265186-.1807594-.0292072-.1249428.0493279-.2498837.1745949-.2787666.162262-.0373211.3284187-.057766.4932766-.0610104.1077423-.0113583.2349567.0999527.2369022.2281399.0025978.1285133-.0993042.2346325-.2278156.2372284-.1330547.0022717-.2667599.019146-.3985157.0493279-.0175248.0038947-.0350495.0058402-.0519238.0058402z" fill="#fff"/></g></g><g><g><path d="m34.1513596 31.3419571c-.83078 0-1.5818138-.2924366-2.1799526-.7709885.5050831 1.2694588 1.375742 2.1799927 2.3859882 2.4059448h-5.7357312c.8108654-.1860733 1.5286331-.7975197 2.0404072-1.6881371.1329346-.2259903.2459087-.4652462.3456192-.7178078-.5981808.4785519-1.3558636.7709885-2.1866474.7709885-1.3026409 0-2.439167-.7178078-3.030695-1.7745819.9504108.5915279 2.0802841.9371471 3.2832565.9371471 3.3430901 0 6.0680428-2.6319351 6.2275467-5.9351101 1.3625183.471859 2.3395004 1.767889 2.3395004 3.2899094.0000001 1.9207402-1.561859 3.4826356-3.489292 3.4826356z" fill="#2d2c2c"/></g></g></g><g opacity=".6"><g opacity=".7"><g><path d="m18.8523998 29.1248741v1.8027954c0 .3100338-.2515354.5615692-.5615673.5615692-.3100338 0-.5615692-.2515354-.5615692-.5615692v-1.8027954c0-.3100319.2515354-.5615692.5615692-.5615692.3100319 0 .5615673.2515373.5615673.5615692z" fill="#fff"/></g></g><g opacity=".7"><g><path d="m18.8523998 15.0334578v11.2482557c0 .0854053-.2515354.3369427-.5615673.3369427-.3100338 0-.5615692-.2515373-.5615692-.5615692v-11.2482567c0-.3100328.2515354-.5615683.5615692-.5615683.3100319 0 .5615673.2515354.5615673.7861958z" fill="#fff"/></g></g></g><g><g><g><g><path d="m41.0436592 39.0427704c.2203712 0 .41959.0775719.5782509.2045097-.1339798-.3367348-.3649254-.5782585-.6329041-.638195h1.5214462c-.2150879.0493584-.4054794.2115479-.5412331.4477921-.0352592.0599442-.0652275.1234093-.0916786.190403.1586723-.1269379.3596535-.2045097.5800247-.2045097.509491 0 .9237976.4143028.9237976.9237938 0 .4513321-.322628.8268356-.7474976.9079361.0264359.0846214.0405426.1745338.0405426.2679749 0 .5095024-.4142914.9237976-.9237938.9237976-.5112686 0-.92556-.4142952-.92556-.9237976 0-.093441.0140953-.1833534.0405426-.2679749-.4266357-.0828552-.7474976-.4583664-.7474976-.9079361.0000002-.5094911.4142954-.9237939.9255602-.9237939z" fill="#474646"/></g><g><g><path d="m41.0436592 39.0427704c.2203712 0 .41959.0775719.5782509.2045097-.1339798-.3367348-.3649254-.5782585-.6329041-.638195h1.5214462c-.2150879.0493584-.4054794.2115479-.5412331.4477921-.0352592.0599442-.0652275.1234093-.0916786.190403.1586723-.1269379.3596535-.2045097.5800247-.2045097.3455391 0 .6470108.190403.8039169.4707222-.2521057-.1569099-.5518112-.2485847-.8709106-.2485847-.8867798 0-1.6095924.6981392-1.6519012 1.5743294-.3614197-.125164-.6205711-.4689445-.6205711-.872673 0-.5094912.4142952-.923794.92556-.923794z" fill="#2d2c2c"/></g></g></g><g><g><path d="m39.6637344 42.4942703c-.0218582-.0502167-.0289497-.1087036-.0289497-.1595078 0-.2174034.1665955-.4206276.4206276-.4206276.1668892 0 .3266945.1016121.3919716.2682076l.3190155.7910385h1.9663658l.3190155-.7910385c.0655746-.1665955.2250824-.2682076.3919716-.2682076.2466469 0 .4209213.2103157.4209213.4206276 0 .0584869-.0073814.1092911-.0292435.1595078l-1.6904755 4.2298889c-.0652809.1600952-.2247887.2687988-.3990631.2687988-.166893 0-.3264008-.1087036-.3916779-.2687988zm1.4438324 1.3209534.6383247 1.6175194.6457062-1.6175194z" fill="#474646"/></g></g></g><g><g><g><path d="m21.9913521 14.0367203c-.2203712 0-.4195881-.0775709-.578249-.2045107.133976.3367338.3649254.5782595.6329002.638195h-1.5214462c.2150898-.0493574.4054832-.2115479.541235-.4477911.0352612-.0599461.0652294-.1234102.0916767-.1904039-.1586704.1269398-.3596516.2045107-.5800247.2045107-.5094891 0-.9237957-.4143047-.9237957-.9237957 0-.4513311.322628-.8268347.7474995-.9079351-.0264378-.0846195-.0405445-.1745329-.0405445-.2679758 0-.5095015.4142933-.9237957.9237957-.9237957.5112667 0 .92556.4142942.92556.9237957 0 .0934429-.0140953.1833563-.0405445.2679758.4266357.0828543.7474976.4583683.7474976.9079351-.0000001.5094909-.4142934.9237957-.9255601.9237957z" fill="#474646"/></g><g><g><path d="m21.9913521 14.0367203c-.2203712 0-.4195881-.0775709-.578249-.2045107.133976.3367338.3649254.5782595.6329002.638195h-1.5214462c.2150898-.0493574.4054832-.2115479.541235-.4477911.0352612-.0599461.0652294-.1234102.0916767-.1904039-.1586704.1269398-.3596516.2045107-.5800247.2045107-.3455353 0-.647007-.1904039-.803915-.4707212.2521038.1569071.5518112.2485847.8709106.2485847.8867798 0 1.6095943-.6981411 1.6519032-1.5743332.3614178.125164.6205692.4689465.6205692.872674 0 .5094909-.4142933.9237957-.92556.9237957z" fill="#2d2c2c"/></g></g></g><g><g><path d="m23.3712788 10.5852213c.0218582.0502148.0289478.1087008.0289478.1595068 0 .2174025-.1665974.4206257-.4206257.4206257-.166893 0-.3266945-.1016121-.3919735-.2682076l-.3190155-.7910366h-1.9663658l-.3190136.7910366c-.0655766.1665955-.2250824.2682076-.3919735.2682076-.2466469 0-.4209213-.2103128-.4209213-.4206257 0-.058486.0073833-.109292.0292416-.1595068l1.6904793-4.2298894c.065279-.1600981.2247868-.2687988.3990631-.2687988.1668911 0 .3263988.1087008.3916779.2687988zm-1.4438343-1.3209543-.6383228-1.6175194-.6457082 1.6175194z" fill="#474646"/></g></g></g></g></g></g></svg>