<svg id="Layer_1" enable-background="new 0 0 512 512" viewBox="0 0 512 512" xmlns="http://www.w3.org/2000/svg" xmlns:xlink="http://www.w3.org/1999/xlink"><linearGradient id="lg1"><stop offset="0" stop-color="#eaf9fa"/><stop offset="1" stop-color="#b3dafe"/></linearGradient><linearGradient id="SVGID_1_" gradientUnits="userSpaceOnUse" x1="255" x2="476.58" xlink:href="#lg1" y1="275.877" y2="446.624"/><linearGradient id="lg2"><stop offset="0" stop-color="#7bacdf" stop-opacity="0"/><stop offset="1" stop-color="#7bacdf"/></linearGradient><linearGradient id="SVGID_00000039813983689458536190000015025823226424581295_" gradientUnits="userSpaceOnUse" x1="328.9" x2="273.086" xlink:href="#lg2" y1="336.025" y2="299.978"/><linearGradient id="SVGID_00000051374492281602503050000013489321236656755364_" gradientUnits="userSpaceOnUse" x1="354.563" x2="354.563" xlink:href="#lg2" y1="478.319" y2="511.685"/><linearGradient id="SVGID_00000119091101597590760450000010910479731752582577_" gradientUnits="userSpaceOnUse" x1="437.065" x2="459.739" xlink:href="#lg2" y1="352.599" y2="352.599"/><linearGradient id="lg3"><stop offset="0" stop-color="#5a5a5a"/><stop offset="1" stop-color="#444"/></linearGradient><linearGradient id="SVGID_00000000927115974910384120000014171810609760519302_" gradientUnits="userSpaceOnUse" x1="269.528" x2="309.282" xlink:href="#lg3" y1="235.321" y2="251.613"/><linearGradient id="SVGID_00000129183540633092104310000009495127176470934176_" gradientUnits="userSpaceOnUse" x1="409.365" x2="435.208" xlink:href="#lg3" y1="444.924" y2="470.767"/><linearGradient id="SVGID_00000131356791559956855700000000278773150652944514_" gradientUnits="userSpaceOnUse" x1="416.76" x2="366.76" xlink:href="#lg2" y1="429.744" y2="358.814"/><linearGradient id="SVGID_00000044884270165855155420000017193820957610771124_" gradientUnits="userSpaceOnUse" x1="340.566" x2="365.641" xlink:href="#lg3" y1="394.821" y2="394.821"/><linearGradient id="lg4"><stop offset="0" stop-color="#433f43" stop-opacity="0"/><stop offset="1" stop-color="#1a1a1a"/></linearGradient><linearGradient id="SVGID_00000075122373862873804880000002166245680461168527_" gradientUnits="userSpaceOnUse" x1="354.563" x2="354.563" xlink:href="#lg4" y1="405.4" y2="422.512"/><linearGradient id="SVGID_00000013185462288317734950000001960913991427369105_" gradientUnits="userSpaceOnUse" x1="360.95" x2="367.009" xlink:href="#lg4" y1="399.427" y2="384.456"/><linearGradient id="SVGID_00000111883919771634973700000010376341315291669383_" gradientUnits="userSpaceOnUse" x1="332.297" x2="376.02" xlink:href="#lg3" y1="318.785" y2="387.221"/><linearGradient id="SVGID_00000160179189825406824650000004856338251456305342_" gradientUnits="userSpaceOnUse" x1="403.771" x2="429.791" xlink:href="#lg4" y1="350.438" y2="360.775"/><linearGradient id="SVGID_00000098935504750964784890000005474756662179658943_" gradientUnits="userSpaceOnUse" x1="354.563" x2="354.563" xlink:href="#lg4" y1="362.984" y2="397.916"/><linearGradient id="SVGID_00000164474601414249308200000012223971418314867103_" gradientUnits="userSpaceOnUse" x1="317.545" x2="322.178" xlink:href="#lg4" y1="377.708" y2="392.321"/><linearGradient id="SVGID_00000148629934940560559580000001234781281987523972_" gradientUnits="userSpaceOnUse" x1="145.668" x2="367.247" xlink:href="#lg1" y1="82.679" y2="253.426"/><linearGradient id="SVGID_00000161619689031073838320000003580436251520117666_" gradientUnits="userSpaceOnUse" x1="245.23" x2="245.23" xlink:href="#lg2" y1="285.121" y2="318.487"/><linearGradient id="SVGID_00000010275624735005177610000014422732006816353434_" gradientUnits="userSpaceOnUse" x1="327.733" x2="350.407" xlink:href="#lg2" y1="159.401" y2="159.401"/><linearGradient id="SVGID_00000075137137807900411740000012871852414064484498_" gradientUnits="userSpaceOnUse" x1="323.958" x2="271.154" xlink:href="#lg2" y1="205.49" y2="205.49"/><linearGradient id="SVGID_00000103965738651533716080000002724169037464562071_" gradientUnits="userSpaceOnUse" x1="159.047" x2="350.85" y1="92.99" y2="240.791"><stop offset="0" stop-color="#bbec6c"/><stop offset="1" stop-color="#81b823"/></linearGradient><linearGradient id="lg5"><stop offset="0" stop-color="#026841" stop-opacity="0"/><stop offset=".2391" stop-color="#0a6644" stop-opacity=".239"/><stop offset=".6113" stop-color="#20604d" stop-opacity=".611"/><stop offset="1" stop-color="#3e5959"/></linearGradient><linearGradient id="SVGID_00000106861152210907701180000016298878423282139836_" gradientUnits="userSpaceOnUse" x1="245.23" x2="245.23" xlink:href="#lg5" y1="267.096" y2="323.888"/><linearGradient id="SVGID_00000030450882965756097780000001315782213236458386_" gradientUnits="userSpaceOnUse" x1="293.294" x2="364.476" xlink:href="#lg5" y1="159.401" y2="159.401"/><linearGradient id="SVGID_00000154409811053257920400000000958803556766749852_" gradientUnits="userSpaceOnUse" x1="312.879" x2="248.982" xlink:href="#lg5" y1="196.58" y2="196.58"/><linearGradient id="SVGID_00000019637329448520419380000012064270496975381667_" gradientUnits="userSpaceOnUse" x1="57.875" x2="279.455" xlink:href="#lg1" y1="168.65" y2="339.396"/><linearGradient id="SVGID_00000159440382509723901580000017367115648140501426_" gradientUnits="userSpaceOnUse" x1="157.437" x2="157.437" xlink:href="#lg2" y1="371.091" y2="404.457"/><linearGradient id="SVGID_00000072982928956848469540000014846268519647675041_" gradientUnits="userSpaceOnUse" x1="239.94" x2="262.614" xlink:href="#lg2" y1="245.371" y2="245.371"/><linearGradient id="SVGID_00000066493396575984425830000000552078084931679645_" gradientUnits="userSpaceOnUse" x1="224.106" x2="173.925" xlink:href="#lg2" y1="312.126" y2="245"/><linearGradient id="lg6"><stop offset="0" stop-color="#fd4755"/><stop offset=".3362" stop-color="#e43f48"/><stop offset="1" stop-color="#a72b2b"/></linearGradient><linearGradient id="SVGID_00000171693052443116414140000004975491705309441426_" gradientUnits="userSpaceOnUse" x1="143.055" x2="197.082" xlink:href="#lg6" y1="208.957" y2="287.747"/><linearGradient id="lg7"><stop offset="0" stop-color="#a72b2b" stop-opacity="0"/><stop offset="1" stop-color="#481f05"/></linearGradient><linearGradient id="SVGID_00000029035895530740672570000013899072259159741628_" gradientUnits="userSpaceOnUse" x1="143.612" x2="161.058" xlink:href="#lg7" y1="216.11" y2="186.658"/><linearGradient id="SVGID_00000177472615021855159890000006265449841705029514_" gradientUnits="userSpaceOnUse" x1="178.24" x2="207.129" xlink:href="#lg7" y1="253.581" y2="283.971"/><linearGradient id="SVGID_00000176040946327383368680000009933320251481704338_" gradientUnits="userSpaceOnUse" x1="152.922" x2="146.919" xlink:href="#lg7" y1="261.196" y2="306.594"/><linearGradient id="SVGID_00000114752055600412198040000015131700776808278424_" gradientUnits="userSpaceOnUse" x1="72.403" x2="112.157" xlink:href="#lg6" y1="128.093" y2="144.386"/><linearGradient id="SVGID_00000070105112360141964640000000700142089490267033_" gradientUnits="userSpaceOnUse" x1="212.24" x2="238.083" xlink:href="#lg6" y1="337.696" y2="363.539"/><g><g><g><g><path d="m440.588 512h-172.05c-11.552 0-20.916-9.365-20.916-20.916v-276.97c0-11.552 9.365-20.916 20.916-20.916h172.05c11.552 0 20.916 9.365 20.916 20.916v276.97c0 11.551-9.365 20.916-20.916 20.916z" fill="url(#SVGID_1_)"/><path d="m440.588 512h-172.05c-11.552 0-20.916-9.365-20.916-20.916v-276.97c0-11.552 9.365-20.916 20.916-20.916h172.05c11.552 0 20.916 9.365 20.916 20.916v276.97c0 11.551-9.365 20.916-20.916 20.916z" fill="url(#SVGID_00000039813983689458536190000015025823226424581295_)"/><path d="m247.621 391.216v99.867c0 11.552 9.365 20.916 20.916 20.916h172.05c11.552 0 20.916-9.365 20.916-20.916v-99.867z" fill="url(#SVGID_00000051374492281602503050000013489321236656755364_)"/><path d="m440.588 193.198h-106.176v318.802h106.176c11.552 0 20.916-9.365 20.916-20.916v-276.97c0-11.552-9.365-20.916-20.916-20.916z" fill="url(#SVGID_00000119091101597590760450000010910479731752582577_)"/></g><g><g><path d="m272.689 260.844c-.632 0-1.293-.098-1.983-.296-.691-.197-1.332-.464-1.923-.8-.592-.335-1.076-.73-1.451-1.184-.375-.453-.562-.957-.562-1.51 0-.118.039-.335.119-.651l11.01-36.109c.315-1.025 1.055-1.795 2.22-2.309 1.163-.512 2.436-.769 3.818-.769 1.381 0 2.654.257 3.818.769 1.163.514 1.903 1.283 2.22 2.309l11.069 36.109c.078.316.119.533.119.651 0 .553-.188 1.056-.562 1.51-.375.454-.859.849-1.451 1.184-.592.336-1.233.602-1.923.8-.691.198-1.353.296-1.983.296-.75 0-1.391-.128-1.924-.385-.532-.256-.898-.7-1.095-1.332l-2.013-7.399h-12.49l-2.013 7.399c-.198.632-.562 1.076-1.095 1.332-.534.257-1.176.385-1.925.385zm15.569-16.219-4.322-15.864-4.321 15.864z" fill="url(#SVGID_00000000927115974910384120000014171810609760519302_)"/></g><g><path d="m436.436 444.354c.632 0 1.293.098 1.983.296.691.197 1.332.464 1.923.8.592.335 1.076.73 1.451 1.184.375.453.562.957.562 1.51 0 .118-.039.335-.119.651l-11.01 36.109c-.315 1.025-1.055 1.795-2.22 2.309-1.163.512-2.436.769-3.818.769-1.381 0-2.654-.257-3.818-.769-1.163-.514-1.903-1.283-2.22-2.309l-11.069-36.109c-.078-.316-.119-.533-.119-.651 0-.553.188-1.056.562-1.51.375-.454.859-.849 1.451-1.184.592-.336 1.233-.602 1.923-.8.691-.198 1.353-.296 1.983-.296.75 0 1.391.128 1.924.385.532.256.898.7 1.095 1.332l2.013 7.399h12.49l2.013-7.399c.198-.632.562-1.076 1.095-1.332.534-.258 1.176-.385 1.925-.385zm-15.568 16.219 4.322 15.864 4.321-15.864z" fill="url(#SVGID_00000129183540633092104310000009495127176470934176_)"/></g></g></g><path d="m461.504 491.083v-127.34l-40.637-40.636h-66.305v76.289l-37.107 18.95 93.078 93.654h30.055c11.551 0 20.916-9.365 20.916-20.917z" fill="url(#SVGID_00000131356791559956855700000000278773150652944514_)"/><g><path d="m363.83 380.886-2.852-15.051-6.416-1.426-6.416 1.426-2.852 15.051c-1.537 8.114-7.029 14.823-14.53 18.278-8.685 3.999-14.246 10.139-14.246 17.027 0 12.057 76.087 12.057 76.087 0 0-6.888-5.561-13.027-14.246-17.027-7.5-3.455-12.991-10.164-14.529-18.278z" fill="url(#SVGID_00000044884270165855155420000017193820957610771124_)"/><path d="m363.83 380.886-2.852-15.051-6.416-1.426-6.416 1.426-2.852 15.051c-1.537 8.114-7.029 14.823-14.53 18.278-8.685 3.999-14.246 10.139-14.246 17.027 0 12.057 76.087 12.057 76.087 0 0-6.888-5.561-13.027-14.246-17.027-7.5-3.455-12.991-10.164-14.529-18.278z" fill="url(#SVGID_00000075122373862873804880000002166245680461168527_)"/><path d="m363.83 380.886-2.852-15.051-6.416-1.426-6.416 1.426-2.852 15.051c-1.537 8.114-7.029 14.823-14.53 18.278-8.685 3.999-14.246 10.139-14.246 17.027 0 12.057 76.087 12.057 76.087 0 0-6.888-5.561-13.027-14.246-17.027-7.5-3.455-12.991-10.164-14.529-18.278z" fill="url(#SVGID_00000013185462288317734950000001960913991427369105_)"/><g><path d="m422.122 382.059c-15.68 15.69-43.54 14.27-67.56-1.66-24.01 15.93-51.87 17.35-67.56 1.66-5.756-5.756-9.208-13.153-10.485-21.399-3.308-21.371 9.438-42.009 29.701-49.562l13.094-4.881c9.768-3.641 18.406-9.787 25.049-17.82l4.914-5.943c2.744-3.318 7.831-3.318 10.574 0l4.912 5.941c6.643 8.035 15.283 14.181 25.052 17.822l13.09 4.878c20.266 7.553 33.014 28.194 29.703 49.567-1.276 8.245-4.728 15.641-10.484 21.397z" fill="url(#SVGID_00000111883919771634973700000010376341315291669383_)"/><path d="m422.122 382.059c5.756-5.756 9.208-13.152 10.485-21.397 3.311-21.373-9.437-42.014-29.703-49.567l-13.09-4.879c-9.769-3.641-18.409-9.787-25.052-17.822l-4.912-5.941c-1.372-1.659-3.33-2.489-5.287-2.489v100.434c24.019 15.931 51.879 17.351 67.559 1.661z" fill="url(#SVGID_00000160179189825406824650000004856338251456305342_)"/><path d="m276.517 360.66c1.276 8.245 4.729 15.643 10.485 21.399 15.69 15.69 43.55 14.27 67.56-1.66 24.02 15.93 51.88 17.35 67.56 1.66 5.756-5.756 9.208-13.152 10.485-21.397 1.418-9.155-.118-18.171-3.921-26.087h-148.246c-3.803 7.915-5.34 16.931-3.923 26.085z" fill="url(#SVGID_00000098935504750964784890000005474756662179658943_)"/><path d="m354.562 380.399c-24.01 15.93-51.87 17.35-67.56 1.66-5.756-5.756-9.208-13.152-10.484-21.397-3.309-21.372 9.44-42.012 29.705-49.564l10.679-3.98c-3.56 19.06 4.82 42.99 23.51 61.68 4.46 4.461 9.23 8.341 14.15 11.601z" fill="url(#SVGID_00000164474601414249308200000012223971418314867103_)"/></g></g></g><g><g><path d="m331.255 318.802h-172.05c-11.552 0-20.916-9.365-20.916-20.916v-276.97c0-11.551 9.364-20.916 20.916-20.916h172.05c11.552 0 20.916 9.365 20.916 20.916v276.97c.001 11.552-9.364 20.916-20.916 20.916z" fill="url(#SVGID_00000148629934940560559580000001234781281987523972_)"/><path d="m138.289 198.019v99.867c0 11.552 9.365 20.916 20.916 20.916h172.05c11.552 0 20.916-9.365 20.916-20.916v-99.867z" fill="url(#SVGID_00000161619689031073838320000003580436251520117666_)"/><path d="m331.255 0h-106.175v318.802h106.176c11.552 0 20.916-9.365 20.916-20.916v-276.97c0-11.551-9.365-20.916-20.917-20.916z" fill="url(#SVGID_00000010275624735005177610000014422732006816353434_)"/><path d="m258.33 92.178v226.625h72.925c11.552 0 20.916-9.365 20.916-20.916v-111.868z" fill="url(#SVGID_00000075137137807900411740000012871852414064484498_)"/></g><g><path d="m316.942 300.982h-143.423c-9.975 0-18.061-8.086-18.061-18.061v-247.04c0-9.975 8.086-18.061 18.061-18.061h143.423c9.975 0 18.061 8.086 18.061 18.061v247.04c0 9.975-8.087 18.061-18.061 18.061z" fill="url(#SVGID_00000103965738651533716080000002724169037464562071_)"/><path d="m155.458 193.702v88.703c0 10.26 7.861 18.578 17.558 18.578h144.428c9.697 0 17.558-8.318 17.558-18.578v-88.703z" fill="url(#SVGID_00000106861152210907701180000016298878423282139836_)"/><path d="m317.444 17.82h-89.13v283.162h89.13c9.697 0 17.558-8.318 17.558-18.578v-246.006c.001-10.26-7.861-18.578-17.558-18.578z" fill="url(#SVGID_00000030450882965756097780000001315782213236458386_)"/></g></g><path d="m335.003 168.85-76.673-76.672v208.805h59.114c9.697 0 17.558-8.318 17.558-18.578v-113.555z" fill="url(#SVGID_00000154409811053257920400000000958803556766749852_)"/><g><g><path d="m243.463 404.772h-172.051c-11.552 0-20.916-9.365-20.916-20.916v-276.97c0-11.552 9.365-20.916 20.916-20.916h172.05c11.552 0 20.916 9.365 20.916 20.916v276.97c.001 11.552-9.364 20.916-20.915 20.916z" fill="url(#SVGID_00000019637329448520419380000012064270496975381667_)"/><path d="m50.496 283.989v99.867c0 11.552 9.365 20.916 20.916 20.916h172.05c11.552 0 20.916-9.365 20.916-20.916v-99.867z" fill="url(#SVGID_00000159440382509723901580000017367115648140501426_)"/><path d="m243.463 85.97h-106.176v318.802h106.176c11.552 0 20.916-9.365 20.916-20.916v-276.97c0-11.551-9.365-20.916-20.916-20.916z" fill="url(#SVGID_00000072982928956848469540000014846268519647675041_)"/></g><path d="m264.379 383.856v-146.592l-39.381-39.381-120.339 83.195 123.694 123.694h15.109c11.552 0 20.917-9.364 20.917-20.916z" fill="url(#SVGID_00000066493396575984425830000000552078084931679645_)"/><g><path d="m224.998 197.884c-15.685-15.685-43.545-14.263-67.561 1.662-24.015-15.925-51.876-17.347-67.561-1.662-18.901 18.901-12.962 55.484 13.265 81.712 16.339 16.339 36.697 24.802 54.296 24.293 17.599.51 37.957-7.953 54.296-24.293 26.227-26.228 32.166-62.811 13.265-81.712z" fill="url(#SVGID_00000171693052443116414140000004975491705309441426_)"/><path d="m143.287 211.149c4.463-4.463 9.226-8.337 14.151-11.603-24.015-15.925-51.876-17.347-67.561-1.662-18.901 18.901-12.962 55.484 13.265 81.712 16.339 16.339 36.697 24.802 54.295 24.293-10.65-.309-20.29-3.902-27.415-11.028-18.901-18.902-12.962-55.485 13.265-81.712z" fill="url(#SVGID_00000029035895530740672570000013899072259159741628_)"/><path d="m198.831 186.908-94.171 94.171c16.07 15.367 35.72 23.303 52.778 22.809 17.599.51 37.957-7.953 54.296-24.293 26.227-26.227 32.166-62.811 13.265-81.712-6.847-6.846-16.014-10.431-26.168-10.975z" fill="url(#SVGID_00000177472615021855159890000006265449841705029514_)"/><path d="m103.142 279.595c16.339 16.339 36.697 24.802 54.296 24.293 17.599.51 37.957-7.953 54.296-24.293 17.455-17.455 25.92-39.496 24.06-57.86h-156.712c-1.86 18.364 6.605 40.405 24.06 57.86z" fill="url(#SVGID_00000176040946327383368680000009933320251481704338_)"/></g><g><g><path d="m75.564 153.617c-.632 0-1.293-.098-1.983-.296-.691-.197-1.332-.464-1.923-.8-.592-.335-1.076-.73-1.451-1.184-.375-.453-.562-.957-.562-1.51 0-.118.039-.335.119-.651l11.01-36.109c.315-1.025 1.055-1.795 2.22-2.309 1.163-.512 2.436-.769 3.818-.769 1.381 0 2.654.257 3.818.769 1.163.514 1.903 1.283 2.22 2.309l11.069 36.109c.078.316.119.533.119.651 0 .553-.188 1.056-.562 1.51-.375.454-.859.849-1.451 1.184-.592.336-1.233.602-1.923.8-.691.198-1.353.296-1.983.296-.75 0-1.391-.128-1.924-.385-.532-.256-.898-.7-1.095-1.332l-2.013-7.399h-12.49l-2.013 7.399c-.198.632-.562 1.076-1.095 1.332-.534.257-1.176.385-1.925.385zm15.568-16.22-4.322-15.864-4.321 15.864z" fill="url(#SVGID_00000114752055600412198040000015131700776808278424_)"/></g><g><path d="m239.311 337.126c.632 0 1.293.098 1.983.296.691.197 1.332.464 1.923.8.592.335 1.076.73 1.451 1.184.375.453.562.957.562 1.51 0 .118-.039.335-.119.651l-11.01 36.109c-.315 1.025-1.055 1.795-2.22 2.309-1.163.512-2.436.769-3.818.769-1.381 0-2.654-.257-3.818-.769-1.163-.514-1.903-1.283-2.22-2.309l-11.069-36.109c-.078-.316-.119-.533-.119-.651 0-.553.188-1.056.562-1.51.375-.454.859-.849 1.451-1.184.592-.336 1.233-.602 1.923-.8.691-.198 1.353-.296 1.983-.296.75 0 1.391.128 1.924.385.532.256.898.7 1.095 1.332l2.013 7.399h12.49l2.013-7.399c.198-.632.562-1.076 1.095-1.332.534-.257 1.176-.385 1.925-.385zm-15.569 16.22 4.322 15.864 4.321-15.864z" fill="url(#SVGID_00000070105112360141964640000000700142089490267033_)"/></g></g></g></g><g/><g/><g/><g/><g/><g/><g/><g/><g/><g/><g/><g/><g/><g/><g/></svg>