<svg id="Layer_1" enable-background="new 0 0 135 135" height="512" viewBox="0 0 135 135" width="512" xmlns="http://www.w3.org/2000/svg"><g id="Gambling_Club"><g><g><g><g><g><path d="m50.7428169 105.2768173c-.0179977.7091751-.3820953.899437-1.0298843 1.0568008-.6208534.1505127-1.2691765.1390381-1.8841667.0059509-.8852615-.1863098-1.6969528-.5957718-2.4615822-1.0728073-1.6780815-1.041481-3.1410828-2.4077072-4.8728409-3.3341904-.6156311-.3357162-1.3054085-.6441574-1.644989-1.2508926-.2716789-.4854431-.2668381-1.0931854-.1267548-1.6339188.1133804-.4595337.3213615-.8924103.5158043-1.3320007.0335236-.074379.0670433-.1487579.1005859-.2299881.21455-.4936523.4086914-1.02771.7992134-1.4003296.3232002-.2982025.7413635-.4683533 1.1664314-.5912933.6544647-.1844177 1.3430672-.260788 2.0252304-.2359848.5403099.018486 1.1349792.1382828 1.4874573.5490265.3931046.4580154.3750038 1.1334.5928993 1.6999588.1906471.4991302.5565834.8897171.9494133 1.2599335.1219788.1211319.2506523.2354736.3725662.3499222.1557579.1413879.3047562.2827072.4538612.4443054.0067596-.0000229.0067596-.0000229.0067596-.0000229.1557579.141304.3048401.2961426.4538803.4509811.2574806.2694168.5149765.5454254.7589569.8214798.4744377.5387955.9353981 1.0911484 1.3761673 1.6570053.366127.4648666.7323418.9566803.8827705 1.536972.1025508.4048539.09042.8303529.0782206 1.2490922z" fill="#e3e7f0"/></g><g><path d="m50.7288055 105.2959366c-.020237.7091217-.3849373.8982315-1.0332184 1.0535431-.6213264.1485443-1.2696075.135025-1.8841743 0-.8846703-.1891098-1.6950645-.6011353-2.4581795-1.0805817-1.6747856-1.0467834-3.133461-2.4176254-4.8622818-3.3495712-.6145668-.3376617-1.3033676-.6482849-1.6410294-1.2560883-.2701454-.4862976-.2633858-1.094017-.1215935-1.6343079.0945549-.391655.2633858-.7563553.4322166-1.1277313.074276.2700577.1485901.5335312.2498665.7968292.8509102 2.1474762 2.6945267 3.7413101 4.5719376 5.0919495.6955605.499733 1.4181595.9859467 2.2150345 1.2830505.8036346.2971802 1.7018242.3984985 2.5189781.1283493.6212845-.2093048 1.1547737-.6280823 1.7761002-.8509064.0675125-.0269623.1350288-.0472412.2093468-.0675201.0472756.3309022.0405159.6753235.0269966 1.0129853z" fill="#c9cee2"/></g></g><g><path d="m45.6847076 91.4496918-.3815308 5.4798279c-.0149078.2140961-.1408615.4123993-.3337364.5065231-1.7010078.8300858-3.3362617.7162323-4.9058266-.3415604-.1779709-.1199417-.2752342-.3337784-.2603264-.5478821l.3815117-5.4798279z" fill="#f4d6d4"/></g></g><g><path d="m38.8003883 76.6042404 1.4747391-21.0956879h7.4357529l-1.5181847 38.7529907c-.0094452.2395401-.1342392.4679794-.3379669.5944214-.5970001.370369-1.2015839.629631-1.8114929.7844696-1.5702553.3899231-3.1867599.0589371-4.84655-1.0023117-.1952095-.124794-.3192902-.3431854-.3341217-.5744247l-.4017906-6.2535629c-.2649117-4.2054901-.2462387-8.0602188.3396148-11.2058945z" fill="#455368"/></g><g><path d="m43.5170326 70.5777435c.2015266-1.9031143.2314072-3.8211136.2612343-5.7391663.0461922-3.1090927.0940895-6.2198906.1413269-9.3300247h3.7912865l-1.5181847 38.7529907c-.0094452.2395401-.1342392.4679794-.3379669.5944214-.5970001.370369-1.2015839.629631-1.8114929.7844696-.0037346-.0037384-.0037346-.0037384-.0075264-.0074692-1.5522385-1.4664993-1.7164726-3.8435287-1.7462959-5.9816742-.074646-5.6160202.0485001-10.3603516.8059998-15.9240799.1418227-1.048561.309677-2.0971145.4216193-3.1494674z" fill="#4c5c75"/></g><g><g><g><path d="m40.2549324 111.5352936c-.0179977.7091751-.3820992.899437-1.0298882 1.0568008-.6208534.1505127-1.2691727.1390381-1.8841629.0059509-.8852615-.1863098-1.6969566-.5957718-2.4615822-1.0728073-1.6780853-1.041481-3.1410847-2.4077072-4.8728428-3.3341904-.6156292-.3357162-1.3054066-.6441574-1.6449871-1.2508926-.2716808-.4854431-.26684-1.0931854-.1267567-1.6339188.1133823-.4595337.3213634-.8924103.5158043-1.3320007.0335217-.074379.0670452-.1487579.1005878-.2299881.2145481-.4936523.4086914-1.02771.7992134-1.4003296.3232002-.2982025.7413616-.4683533 1.1664314-.5912933.6544628-.1844177 1.3430634-.260788 2.0252266-.2359848.5403137.018486 1.1349792.1382828 1.4874611.5490265.3931046.4580154.375 1.1334.5928993 1.6999588.1906471.4991302.5565834.8897171.9494133 1.2599335.1219749.1211319.2506523.2354736.3725662.3499222.1557579.1413879.3047562.2827072.4538612.4443054.0067596-.0000229.0067596-.0000229.0067596-.0000229.1557579.141304.3048401.2961426.4538803.4509811.2574768.2694168.5149765.5454254.7589569.8214798.4744377.5387955.9353981 1.0911484 1.3761635 1.6570053.3661308.4648666.7323456.9566803.8827705 1.536972.1025546.4048539.0904201.8303529.0782245 1.2490922z" fill="#e3e7f0"/></g><g><path d="m40.240921 111.5544128c-.020237.7091217-.3849373.8982315-1.0332222 1.0535431-.6213226.1485443-1.2696075.135025-1.8841705 0-.8846703-.1891098-1.6950645-.6011353-2.4581833-1.0805817-1.6747818-1.0467834-3.1334591-2.4176254-4.8622818-3.3495712-.6145649-.3376617-1.3033657-.6482849-1.6410255-1.2560883-.2701454-.4862976-.2633858-1.094017-.1215954-1.6343079.0945549-.391655.2633858-.7563553.4322166-1.1277313.074276.2700577.148592.5335312.2498665.7968292.8509102 2.1474762 2.6945248 3.7413101 4.5719395 5.0919495.6955605.499733 1.4181595.9859467 2.2150345 1.2830505.8036346.2971802 1.7018242.3984985 2.5189781.1283493.6212807-.2093048 1.1547699-.6280823 1.7760963-.8509064.0675163-.0269623.1350327-.0472412.2093506-.0675201.0472756.3309022.0405159.6753236.0269966 1.0129853z" fill="#c9cee2"/></g></g><g><path d="m35.1968231 97.7081757-.3815346 5.4798203c-.014904.2140961-.1408615.4123993-.3337364.5065231-1.701004.8300858-3.3362598.7162323-4.9058228-.3415604-.1779728-.1199417-.2752342-.3337784-.2603283-.5478821l.3815117-5.4798279z" fill="#f4d6d4"/></g></g><g><path d="m39.4533958 62.4615784-2.899437 22.9155655-1.0522842 16.2599335c-1.9628105 1.5299377-4.4294186 1.7239838-6.1533585.3918152-.1530075-.1194153-.2985439-.2500076-.4403458-.3918152-.6082478-9.4334183-.9515228-16.6480026.6828613-22.0513382.2462978-.817215.3806286-1.6605301.3806286-2.5150757v-17.736145l3.4330273 1.1306534z" fill="#4c5c75"/></g><g><path d="m33.3448143 69.5067825c-.0410881 2.7240448-.0298805 5.4480896-.1007576 8.1758652-.0746155 3.0934677-.2499886 6.1906891-.7015381 9.2542953-.1642151 1.108284-.3619537 1.3261719-.4664459 2.4419098-.2089462 2.2277603-.0335732 4.47789-.2612381 6.6981735-.2275753 2.1792526-.9030113 4.4256668-2.4665184 5.9518661-.1530075-.1194153-.2985439-.2500076-.4403458-.3918152-.6082478-9.4334183-.9515228-16.6480026.6828613-22.0513382.2462978-.817215.3806286-1.6605301.3806286-2.5150757v-17.736145l3.4330273 1.1306534c.1381111.4440575.2201958.8694611.2426071 1.1829262.1865769 2.5523797-.2649727 5.2838937-.3022804 7.8586846z" fill="#455368"/></g></g><g><g><g><g><path d="m114.341774 67.3222656v26.6099854c0 4.25-2.7799683 8.4900513-8.3699951 11.710022l-44.4600258 25.8599854v-.0100098l-40.8800049-23.5999756v-26.6199952l40.8700562 23.5999756h.0099487l44.4700356-25.8399658c5.5599975-3.2399902 8.3499755-7.4700317 8.3599853-11.710022z" fill="#dedffb"/></g></g><g><g><path d="m114.3450012 67.3237381-.006134 26.6072311c0 4.2528839-2.7820816 8.4880295-8.3639755 11.7131119l-44.4598427 25.8536606-.0114861-26.6249695 44.4775772-25.8359222c5.5641556-3.2428208 8.3462372-7.4779663 8.3638611-11.7131119z" fill="#f3f1fc"/></g></g><g><g><path d="m61.5120392 104.8730087.0005607 26.6180802-40.8764724-23.6000367-.0005608-26.6180877z" fill="#dedffb"/></g></g><g><g><path d="m114.341774 90.7722778v3.1599731c0 4.25-2.7799683 8.4900513-8.3699951 11.710022l-44.4600258 25.8599854v-.0100098l-40.8800049-23.5999756v-3.1699829l40.8700562 23.5899658 44.4799843-25.8299561c5.5599975-3.2400512 8.3499755-7.4800414 8.3599853-11.7100219z" fill="#1d2943"/></g></g><g><g><path d="m114.3450012 90.7682114-.006134 3.1627579c0 4.2528839-2.7820816 8.4880295-8.3639755 11.7131119l-44.4598427 25.8536605-.0114861-3.1804962 44.4775772-25.8359222c5.5641556-3.2428208 8.3462372-7.4779664 8.3638611-11.7131119z" fill="#4c5c75"/></g></g><g><g><path d="m61.5120392 128.3174744.0005607 3.1736145-40.8764724-23.6000367-.0005608-3.1736145z" fill="#1d2943"/></g></g></g></g><g enable-background="new"><g><g><path d="m66.8482895 104.1408234-5.7900467 3.3648071-44.1483402-25.4890518 5.7900467-3.3648072z" fill="#ab865d"/></g></g></g><g enable-background="new"><g><g><path d="m107.5248032 73.6796799-31.2970505-18.1878624 10.5609207-6.0973511 31.2970581 18.1878624z" fill="#bb874d"/></g></g></g><g><g><g><path d="m48.5972328 64.4431152c-.0058708 1.0701065-.4309654 2.1020889-1.1961594 2.852623-5.2009926 5.0866699-11.595211 6.7372665-17.5320854 6.5437622-.8824711-.0293121-1.6711407-.551178-2.0639915-1.3427658-.2931786-.5951462-.5541115-1.2489319-.7827644-1.937912-1.7092571-5.177536-.7241802-10.8652153 2.4978542-15.2629013.3840466-.5247841.7651939-1.0466499 1.1082268-1.515728 1.0994205-1.495224 1.647665-3.3334465 1.5040073-5.1863403-.1730003-2.225235-.9000778-4.3918152-2.4568405-6.4675293-.1993771-.2638664-.337162-.571701-.4045887-.8941917l-2.4040527-11.3020649c3.9549828-3.8582287 8.554945-6.6698246 15.3186054-7.1418381.1172409-.0087852.23452-.0175896.351799-.0234585 1.1492386.7270966 1.4570923 2.066927 1.7971878 3.6823463.0967369.4544239.2931824.8853874.5687866 1.2606659 2.2603989 3.0900993 3.2747879 6.024826 1.2811546 8.5842743-.0586205.0732918-.1113739.1495209-.1612244.2286873-.04105.0644913-.0791664.1289978-.1143456.1964226-.0117378.0175934-.0205421.0381165-.0293465.055706-.029274.0527687-.0527534.1055412-.0761948.1583099-.0175705.0381165-.0351791.0762291-.046917.1143456-.0146751.0263939-.0234756.0527687-.0322456.0820961-.0234413.0586243-.0439835.1201973-.0615921.1847076-.0029335.0058479-.0058327.0117188-.0058327.0175896-.0205078.0644913-.0351791.1289978-.0498543.1934891-.0058708.0205231-.0088043.04105-.0117378.061573-.014637.055706-.0234413.111412-.0322113.1700325-.0117378.0820999-.0205421.1671143-.0264091.2492142v.0029335c-.0088043.131916-.0117416.2667847-.0029373.3987198l.1759377 3.1399536.055687 1.8646126c.0762291 2.48909.4954567 4.9517975 1.1990929 7.3382645.9850769 3.3451805 1.653534 8.4171752 1.6329918 13.6944007z" fill="#f45170"/></g><g><path d="m46.1786346 36.2929764s-6.0868034 4.4981308-9.3037605 3.9298515c3.0929222.6348038 8.144043-.8045196 9.3037605-3.9298515z" fill="#e93565"/></g></g></g><g><path d="m48.4711838 90.2413864-22.2963505-12.8892135-2.9738064-1.7083817 25.2701569-14.6846123v-3.6567421l-31.5829544 18.3540039 31.5829544 18.2344132z" fill="#dba660"/></g><g><g><path d="m114.1422882 63.9617043c-.1698914.3666725-.3677597.7302132-.5930176 1.0897942.2252579-.3595811.4231263-.7231217.5930176-1.0897942z" fill="#bf7d5a"/></g><g><path d="m61.0173988 97.4941788-17.4212837-10.0710144z" fill="#bf7d5a"/></g><g><path d="m61.0173988 97.4941788c62.2897911-36.213646 63.5426903-36.9420471 0 0z" fill="#78e75a"/></g><g><path d="m26.1748333 77.3521729 17.4212818 10.0709915z" fill="#78e75a"/></g><g><path d="m107.3124924 53.940918c-5.4204483-3.1425476-12.6757736-4.8720436-20.4373245-4.8720436-7.7616196 0-14.9958954 1.729496-20.374115 4.8509483l-40.3262196 23.4323502 17.4212818 10.0709915 17.4212837 10.0710144c49.5551033-28.8100281 46.5699348-27.0588684 47.1840401-27.4416885 2.8875809-1.8002548 5.7659988-4.4404373 6.5139618-7.7594223-.6959381-3.0582505-3.2480164-5.968834-7.4029083-8.35215z" fill="#78e75a"/></g></g><g><g><g><path d="m98.2146683 58.6212234c.0387573.3805962.0148315.7628975-.07341 1.1438408.0903396-.3790245.1148147-.7626724.07341-1.1438408z" fill="#e93565"/></g><g><path d="m103.1368179 58.9571495c0 .0071411-.001709.0143433-.001709.0214844.0032349-2.171814-1.4180298-4.3423462-4.2717896-6.0007324-5.7223511-3.3254395-15.0272217-3.3230591-20.7869263.0023193-3.0799561 1.7782593-4.5062866 4.1486816-4.3052979 6.4782104-.0119019-.1377563-.0346069-.2752686-.0349731-.413208l.0123291 2.6248779c.0061035 2.1638794 1.427063 4.3244667 4.2682495 5.9755898 5.7265015 3.3278809 15.0356445 3.3230591 20.7911377.0001221 2.8988647-1.6737061 4.3475342-3.8703041 4.3413086-6.0637856z" fill="#1d2943"/><g><path d="m73.7361221 59.0452232.0123062 2.624897c.0061264 2.1638527 1.4270706 4.3244629 4.2682724 5.9755936 5.7265091 3.3278809 15.0356216 3.3230362 20.7911377.0000916 2.8988876-1.6736755 4.3475189-3.8702812 4.3412933-6.0637474l-.0122986-2.6248856c.006218 2.1934624-1.4424057 4.3900642-4.341301 6.0637398-5.7555084 3.3229523-15.0646286 3.3277893-20.7911301-.0000916-2.8412016-1.651123-4.2621458-3.811737-4.2682799-5.9755974z" fill="#1d2943"/></g><g><path d="m78.0763855 52.9802628c-5.7555161 3.3229446-5.7943192 8.7150993-.0719833 12.0405579 5.7265015 3.3278809 15.0356216 3.3230438 20.7911301.0000916 5.7597427-3.3253822 5.7942963-8.7151146.0677872-12.0429955-5.7223359-3.3254586-15.0271989-3.3230439-20.786934.002346z" fill="#4c5c75"/></g><g><path d="m79.3962021 64.218132c4.9501572 2.8767319 13.0353928 2.8767624 18.0179749.0000687 4.9869995-2.8792305 5.0089645-7.559967.0587845-10.4366951-4.9501877-2.8767281-13.0266495-2.8767776-18.013649.0024719-4.9825745 2.8766937-5.013321 7.5574265-.0631104 10.4341545zm2.0830612-1.202652c-2.2420807-1.3029518-3.1560593-3.0886765-2.7446747-4.7889137.2292709-.9457054.8671875-1.8637466 1.91362-2.6577988.2365265-.1849365.5042191-.360321.7873993-.5274925.0308456-.0183182.0618668-.0365143.0932159-.0546265.0313797-.0181084.0628815-.0359955.0945587-.0537949.2903366-.1639252.5976028-.320507.9157104-.4583359 1.9811325-.8661461 4.3995361-1.2429008 6.7562561-1.128952.1711807.0078278.3419876.0180588.5125656.030777 1.9940567.1595192 3.9175797.6719971 5.4618607 1.5393333.0442734.0249023.0822372.0464859.1201172.0685005.0455017.0266304.0762558.0448112.1063766.06287.0619507.0374298.0859756.0521507.1098709.0669632 1.4461594.9029541 2.2832947 1.9886513 2.5415878 3.1114693.0298233.1190643.049263.2386818.0627823.3584175.0455704.4185066.0210953.8021584-.0692444 1.1811752-.2313538.9553337-.867775 1.8720932-1.9120865 2.6655235-.23526.1846428-.5055313.3615456-.788414.5286713-.0317764.0188522-.063797.0376167-.0960999.056263-.03228.0186462-.0648193.0371552-.0974655.0554886-.2886734.1628723-.5913773.3167763-.9083633.4541397-1.3762207.6021309-2.9630051.9685707-4.5942917 1.0979652-2.9515913.2305605-6.0250929-.3057783-8.2652815-1.607643z" fill="#ffd06c"/></g><g><path d="m80.0625992 54.1343498c-4.6520691 2.6858788-4.6834412 7.0442581-.0581818 9.7321663 4.6286316 2.6898651 12.1530228 2.6859512 16.8050995.0000763 4.6554871-2.687851 4.6834183-7.0442696.0547867-9.7341385-4.6252594-2.6879043-12.1462097-2.685955-16.8017044.0018959z" fill="#febc1f"/></g><g><path d="m95.392395 54.9856491c-.0009232-.0005379-.0015793-.0009499-.0025024-.0014877-.0378799-.0220108-.0758438-.0435944-.1141586-.0651588.0391387.0220031.0780334.0441932.116661.0666465z" fill="#e93565"/></g><g><path d="m88.0030136 55.4449501c-.1859818.0073395-.3715134.0191727-.5560074.036026l-.3180542-2.1019287c-1.6291656.1293755-3.2141953.4948959-4.5873795 1.0972214l2.328598 1.6238785c-.2689896.1095543-.5248337.2369766-.771965.3796577 1.0882188-.6282806 2.4826661-.9732475 3.9048081-1.0348549z" fill="#e93565"/></g><g><path d="m87.1289291 53.3788605.0000229.0001869c.0098495-.000782.0197067-.0014725.0295563-.0022392-.0098648.0007438-.0197144.001297-.0295792.0020523z" fill="#e93565"/></g><g><path d="m87.1585083 53.3768082c.7120285-.0536041 1.4265518-.0637016 2.1368332-.0312576-.7112808-.0343896-1.4281082-.0237542-2.1368332.0312576z" fill="#e93565"/></g><g><path d="m95.1475754 54.8484268c.040947.0222206.0817795.044529.1221924.067234-.0404358-.0226783-.0812226-.0450439-.1221924-.067234z" fill="#e93565"/></g><g><path d="m95.7920685 55.2325668c-.0513535-.0336914-.1033401-.0671272-.1561966-.1001587.0529632.0330811.1048431.0665245.1561966.1001587z" fill="#e93565"/></g><g><path d="m82.3673325 58.4137268c-.0144958.0521927-.0269241.1045609-.0376434.1570435.1641464-.7646408.7537155-1.5050659 1.7685165-2.0909653-.2427139.1401329-.4679337.290451-.6579437.4459l-2.7920609-1.356945c-1.0464325.7940559-1.6843491 1.712101-1.9133224 2.6564102z" fill="#e93565"/></g><g><path d="m92.0059357 61.9038048c-.7817612.3233757-1.6647797.5284996-2.5749664.6153145l.3135681 2.1039963c1.6312866-.1293945 3.2180634-.4958344 4.5923386-1.0993652z" fill="#e93565"/></g><g><path d="m84.1708908 61.582058c-.0346298-.0192528-.0693283-.0388145-.1034088-.0585823.0007935.0004807.0015564.0009651.0023193.0013809.0332489.0193557.0670166.03833.1010895.0572014z" fill="#e93565"/></g><g><path d="m82.3517532 59.5598946c.1461639.5380821.49823 1.0562592 1.0628662 1.5146294.1727295.1394768.3521042.2656975.5580368.3919144.0199432.0133018.039856.0265999.0664139.0398598.0066452.006649.0199432.013298.0265961.0199471.0332031.0199089.0730591.039856.1062698.0531158.013298.013298.0265961.0199471.039856.0265961.0199509.006649.039856.0199089.053154.0265579.1860275.0996628.3786621.1926727.5845947.2723885.7705688.3255005 1.6541061.5247841 2.5575485.611145.6709518.0664139 1.3552017.0664139 2.0261536 0 .9100876-.0863609 1.7935867-.2856445 2.5708466-.611145.2324905-.0996628.4649811-.2059326.6775589-.3255424.0332108-.0199089.0664597-.0332069.0996628-.0531158.0332108-.0199471.0664139-.039856.0930176-.0598068.0265579-.013298.0531082-.0265541.0730591-.039856.1859818-.1195679.3454514-.2324867.4849319-.3520584.611145-.4849701.9831924-1.0429611 1.109375-1.6208992.0730972-.3255424.066452-.6510468-.0066147-.9765472-.1395187-.5513802-.4916153-1.0828171-1.0695572-1.5478363-.1926346-.1594276-.4185104-.3122025-.6576538-.4517212-.2457886-.1394768-.4982224-.2656975-.7705688-.3786583-.8237305-.3454094-1.767067-.557991-2.7369232-.6310539-.4052582-.0265961-.8104706-.039856-1.2156906-.0265961-.039856 0-.0597992 0-.0797119.006649-1.4216156.059803-2.8166351.4052124-3.906105 1.0296593-1.0164032.5912399-1.6075974 1.3286057-1.7670212 2.0925713-.0664598.3321492-.059807.6643025.0199049.989803z" fill="#9ea9c9"/></g><g><path d="m87.4073868 62.5186195-.3373489 2.1046715c.8771896.0682755 1.7721634.0662079 2.6546936.0013962.0066299-.0004807.0132217-.000885.0198212-.0013809l-.3135986-2.1041908c-.6690294.0606651-1.3552858.0606613-2.0235673-.000496z" fill="#1d2943"/></g><g><path d="m92.0384521 56.0959702 2.3469238-1.6188774c.2217712.0965996.4381332.2004166.6482086.3106003-1.5020676-.7897797-3.3319702-1.2597733-5.2260208-1.4094429l-.3370743 2.1027489c-.0570755-.0049782-.1141129-.0093803-.1713409-.0135498.9699555.0759353 1.912819.2854232 2.7393036.6285209z" fill="#e93565"/></g><g><path d="m89.4704895 55.4810181c-.0570602-.0049782-.1141052-.0093842-.1713409-.0135498-.4040222-.0294113-.8107452-.0385513-1.215271-.0255585-.0074615.0002441-.0148926.0005379-.0223618.0007782-.0195389.0006752-.0390167.0014877-.0585098.0022621-.1859741.0073471-.371521.0191841-.5560074.0360336l-.3180542-2.1019821c.0070724-.0005684.0141373-.0010529.021225-.001606.7147827-.0541573 1.4321213-.0643883 2.1451797-.0318298.1711655.0078278.3419876.0180588.5121994.032692z" fill="#1d2943"/></g><g><path d="m94.5171585 58.4138031 3.6305542-.1883316c-.2469864-1.0736313-1.0235748-2.1131706-2.3294373-2.9755287.1572418.1040611.3072433.2109985.4480972.3202667l-2.7994156 1.3573494c.574295.4687462.9293365 1.0008659 1.0650635 1.5485229-.0047149-.0207748-.0095825-.0415267-.014862-.0622787z" fill="#e93565"/></g><g><path d="m78.7345886 58.2265625c-.4113846 1.7002258.502594 3.4859619 2.7446594 4.7889099 2.2401962 1.301857 5.3137054 1.8382111 8.2454987 1.6092224-.8825378.0648041-1.7774963.0668716-2.6547012-.0014038l.3373184-2.1045799c-.9069672-.0869102-1.7854843-.2913818-2.5624619-.613205l-2.3567657 1.6195755c-.3510437-.1528893-.6843872-.3261566-1.0000839-.5096245-.3200684-.1860008-.618103-.3796501-.8809128-.5834923l2.8067932-1.3566246c-.5639648-.4586716-.9169998-.9783478-1.0592957-1.5139999.0020676.0081329.0039444.0163231.0060959.0244751l-3.634552.1885529c-.1157913-.5116997-.108551-1.0335503.0084076-1.5478058z" fill="#e93565"/></g><g><path d="m94.510582 59.5858803c.012146-.0436707.0226974-.0874748.0320587-.1313286-.1291656.5741386-.4981155 1.1335907-1.1063004 1.623436l2.7928238 1.3525963c1.0443268-.7934341 1.6807327-1.7101974 1.9091568-2.653595z" fill="#e93565"/></g><g><path d="m81.5288162 54.9866371c-.0313034.018074-.0622864.0363388-.0932388.0546227-.2831802.1671791-.5508652.3425713-.7898102.5263405l2.794487 1.3581085c.1900101-.1554489.4152222-.3057671.6579514-.4459038.2471313-.1426811.5029678-.2700996.7719574-.3796539l-2.328598-1.6238861c-.3205948.1360779-.6278839.2926483-.9182053.4565811-.031662.017868-.0633011.0357513-.0945435.053791z" fill="#1d2943"/></g><g><path d="m92.003334 61.9020271 2.3335342 1.621727c.318924-.1359749.6216278-.2898674.9103088-.4527435.0326462-.0184059.0652084-.0368614.0974731-.0554886.0322037-.0185928.0641708-.0373917.096077-.056263.2829132-.1671295.5531769-.3440399.7914047-.5272217l-2.7957993-1.3540459c-.1446991.1143036-.3010025.2272797-.4736862.3363838-.0050278.0031815-.0101776.0063248-.0152664.0095024-.023056.0144463-.0462875.0288582-.0699005.043148-.0320892.0194244-.0646591.0387421-.0978165.057888-.0323257.0186615-.0650635.0370827-.0981369.0552788-.2151869.1184541-.4450529.2268488-.678192.3218347z" fill="#1d2943"/></g><g><path d="m78.7348557 58.2251701c-.1172485.5156479-.1244812 1.0374985-.0086899 1.5491905l3.6345596-.1885414c-.0021667-.0081558-.0040283-.016346-.0061035-.0244827-.0835342-.3273506-.0919113-.6615791-.0249405-.9905701.010704-.0524788.0231476-.1048546.0376358-.1570396z" fill="#1d2943"/></g><g><path d="m94.5171432 58.4137993c.0052795.020752.0101471.0415077.0148621.0622787.0739441.3255501.0800018.6541634.0106354.9784737-.0093765.0438538-.0199127.0876579-.0320663.1313248l3.627739.1911163c.0012131-.0039749.0020142-.0079498.0029297-.0119247.0882416-.3809509.1121674-.7632523.07341-1.1438408-.0007935-.0077744-.0016708-.0154991-.0024948-.0232582-.0005112-.0046997-.0011368-.0093994-.0016785-.0140839-.0134964-.1197319-.0329285-.2393417-.0587234-.3586273z" fill="#1d2943"/></g><g><path d="m94.3853683 54.4770966-2.3469391 1.6188736c.2740402.1163292.5240784.2411766.7696304.383873.2411499.1401405.4646378.2904778.6573029.448452l2.8010025-1.3580818c-.194458-.1508369-.4058304-.2974243-.6305161-.4378052-.0098343-.0061722-.0198288-.0122871-.0297241-.0184212-.0239029-.0147934-.0479813-.0295486-.0721817-.0442047-.0125504-.0076027-.0250626-.0151863-.0377045-.0227394-.0302658-.0181427-.0607376-.0362015-.0914841-.0541039-.0035095-.0020714-.006958-.0041809-.010498-.006237-.0404968-.0235023-.0793915-.0456886-.1185303-.0677032-.2887877-.1619302-.5845259-.3086892-.8903579-.4419022z" fill="#1d2943"/></g><g><path d="m80.607132 62.4319649c.2628021.2038345.5608444.3974915.8809052.5834961.3156967.1834602.6490555.3567276 1.0000916.5096207l2.3567581-1.6195793c-.1987228-.0834122-.3939438-.1741829-.5791855-.2721634-.0172501-.0091209-.0342941-.0184021-.0513306-.0276451-.0145416-.0078621-.0291214-.0156746-.0435104-.0236244-.0340576-.0188522-.0678329-.0378609-.1010818-.0571785-.0129623-.0076027-.0232468-.0138588-.0338058-.0200958-.0205154-.0121307-.0410919-.0242615-.0611267-.0364609-.2055588-.1252098-.3868027-.2550201-.5579376-.3944511z" fill="#1d2943"/></g><g><g><g enable-background="new"><g><g><path d="m90.9717789 57.8322716v1.2999878c0 .3699951-.25.75-.75 1.0400391-.9899902.5699463-2.5900269.5699463-3.5700073 0-.4899902-.2800293-.7399902-.6600342-.7399902-1.0300293v-1.2999878c0-.3800049.25-.75.75-1.039978.9899902-.5700073 2.5900269-.5700073 3.5700073 0 .6699829.3899536.8800049.9499512.6300049 1.4499512.0700072-.1399537.1099853-.2799684.1099853-.419983z" fill="#1d2943"/></g></g></g></g><g><g enable-background="new"><g><g><path d="m85.9125214 57.8457985v1.2980728c.0010529.3729439.2467422.7451401.7361526 1.0295525.9804001.5697479 2.5806732.5719566 3.5751038-.002182.4965897-.286705.744606-.6644249.7435379-1.0415611l.0000076-1.298069c.0010681.3771324-.2469482.7548523-.7435379 1.0415573-.9944382.5741386-2.5947037.5719299-3.5751114.002182-.4894028-.2844124-.7350922-.6566086-.7361526-1.0295525z" fill="#1d2943"/></g></g><g><g><path d="m86.660347 56.8023224c-.9944382.5741386-.9958572 1.5010834-.011673 2.0730286.9804077.5697479 2.5806732.5719566 3.5751114-.002182.9868164-.5697403.9920425-1.4988823.0116425-2.0686302-.9841843-.5719453-2.5882645-.5719529-3.5750809-.0022164z" fill="#4c5c75"/></g></g></g></g><g><g enable-background="new"><g><g><path d="m89.9617691 53.5922813v4.1499634c0 .2300415-.1499634.4500122-.4500122.6300049-.5999756.3400269-1.5599976.3400269-2.1499634 0-.2999878-.1699829-.4400024-.3999634-.4400024-.6199951v-4.1499634c-.0100098-.2300415.1400146-.460022.4500122-.6300049.5899658-.3500366 1.5599976-.3500366 2.1499634 0 .290039.1699829.4400024.3900147.4400024.6199951z" fill="#e9e7fc"/></g></g></g></g><g><g enable-background="new"><g><g><path d="m86.9168777 53.598835v4.1517334c.0006332.2247429.1486893.4490318.4436188.6204224.5907974.343338 1.5551453.3446693 2.1544037-.0013161.2992477-.1727715.4487076-.4003906.4480667-.627655v-4.1517334c.0006409.2272644-.1488113.4548836-.4480667.627655-.5992584.3459854-1.5636063.3446541-2.1544037.0013161-.2949295-.1713906-.4429779-.3956795-.4436188-.6204224z" fill="#e9e7fc"/></g></g><g><g><path d="m87.3675232 52.9700241c-.5992584.3459816-.6001129.9045715-.0070267 1.2492332.5907974.343338 1.5551453.3446693 2.1544037-.0013161.5946655-.3433304.5978241-.903244.007019-1.246582-.5930862-.3446617-1.5597228-.3446655-2.154396-.0013351z" fill="#fff"/></g></g></g></g></g></g></g></g><g><g><g><g><path d="m65.3619843 75.9660034-4.2603875 2.4758606-.3775558-.2179794-3.6005402-2.0787735-.3775596-.2179871 4.2603874-2.4758606.3775558.2179795 3.600544 2.0787735z" fill="#e93565"/></g></g><g><g><path d="m70.0153809 83.603714-4.2603836 2.4758682-.3641129-.2102203-3.613987-2.0865402-.3776054-.21801 4.2603836-2.4758606.3776093.21801 3.6139831 2.0865326z" fill="#57b3fe"/></g></g><g><g enable-background="new"><g><g><path d="m74.976181 76.1101761-.021141.021141v-.021141z" fill="#edeef2"/></g></g><g><g><path d="m65.6617126 80.6511307-.7391815.4224472-3.8229103-2.1965485.7391854-.4224472z" fill="#edeef2"/></g></g><g><g><path d="m70.0337906 83.1856842-.3801575.2112885-3.6116257-2.091095.3801651-.2111588z" fill="#edeef2"/></g></g><g><g><path d="m65.3872604 85.868103-.3802948.2111588-3.611618-2.0698242.3801613-.2322998z" fill="#edeef2"/></g></g><g><g><path d="m74.95504 76.1101761v.0211411l.0211411-.0211411z" fill="#edeef2"/></g></g></g><g><g><path d="m85.2832794 74.8428345c-2.0065308-1.1404953-4.9423904-1.4362183-7.4135208-.8447647 1.0137711-1.4362183.5068893-3.1470184-1.4996414-4.3087845-2.6822891-1.5417938-6.9910736-1.5206528-9.6523514.0211411l-1.4362106.8237534c-15.5721169-8.9726982-10.2012749-5.878006-11.3631516-6.5474815-11.3882446 6.6243172-12.8993759 7.4924507-12.7993698 7.4345284l-.7603264.4435883-4.2664986 2.4711304 11.3631477 6.5686264-3.8650627 2.2388306c1.9004669 1.0970917-6.8845329-3.9742737 18.5865211 10.7295456 12.9627266-7.5128098 12.6515999-7.3448792 23.1276054-13.4329758 2.6612779-1.5418017 2.6401369-4.0552142-.0211409-5.5971377zm-17.8261947-4.709961c2.2388306-1.288353 5.8927307-1.288353 8.1527023 0 2.2599716 1.309494 2.2599716 3.421608.0211411 4.7099609l-1.4362183.8448944-3.8017654-2.1965485-4.3509369-2.5134125zm2.5556945 13.4752579-4.2664948 2.4711304-.359024-.2111588-.3802948.2111588-3.5060387 2.0488129-3.6327667-2.0699539 3.5271873-2.0486832.3801613-.2322998-.3801613-.2112885 4.2663651-2.4711304.3802948.2111588.3801651-.2111588 3.5271835-2.0698242 3.6117477 2.0909653-3.5273132 2.0698242-.3801575.2112885zm-.8237533-5.0056839-3.5273132 2.0486832-.7391815.4224472-3.5271835 2.0488129-3.8229103-2.1966782 3.5271835-2.0486832.7391853-.4224472 3.5484543-2.0698242zm-3.083725-2.6401367 3.5271912-2.0488129 3.8229065 2.2178192-3.5271835 2.0275421zm-9.2721786 4.5199432-3.6116219-2.0699539 3.5271835-2.0486832 3.5906067 2.0698242zm4.2664985-2.0488128-.3801651-.2111588-3.5906105-2.0699539-.3801613-.2322998 4.2664986-2.4711304.3590202.2111588 3.6117516 2.0909653.3801651.2112885zm-4.3720779-2.9358597-3.6116219-2.0909653 3.5271835-2.0486832 3.6327629 2.0909653zm-.7391892.4224472-3.5273132 2.0488129-3.611618-2.0909653 3.5271835-2.0276718zm-3.5061683 2.9358597 3.5906067 2.0698242-3.5271835 2.0488129-3.5906067-2.0699539zm4.3509369 2.5134124 3.8229103 2.1965485-3.5271873 2.0488129-3.8229065-2.1966782zm13.8554229-2.7668533 3.5273132-2.0488129 3.611618 2.091095-3.5271835 2.0486832zm-1.7952423-5.1112671-3.5271835 2.0486832-3.6117516-2.0909653 3.5271873-2.0488129zm-4.3720779-2.5134125-4.097496 2.3866959.5703125-.3591537-3.6117516-2.0698242 3.5271835-2.0488129zm-10.6028214-6.1463012 6.2518845 3.6117477-3.5271835 2.0486832-6.2518883-3.6116257zm-4.2663727 2.4922714 6.2517586 3.6117477-3.5271835 2.0486832-6.2518883-3.6116257zm-4.2664985 2.4712524 6.2518845 3.6116257-3.5273094 2.0488129-6.2517586-3.6117554zm-7.7936821 4.5409546 3.5061722-2.0486832 6.2728958 3.6116257-3.5271835 2.0488129zm6.9910698 4.0342026 3.5271873-2.0488129 3.6117477 2.0909653-3.5271835 2.0488129zm8.6597213 9.5044861-8.1739769-4.7312317 3.1260071-1.8163834h.0211411l4.3509369 2.5134125 3.8017693 2.2176895zm8.9130326 5.1324005-8.1738472-4.710083 3.1258774-1.8163834h.0211411c.1030045.0595093 8.6994019 5.0259323 8.15271 4.7100906zm3.8863334-2.2388229-3.8018951-2.1966782 3.5273132-2.0486832 3.8017654 2.1965485zm4.2663727-2.4922715-3.8017731-2.1966782 3.5271835-2.0486832 3.8019028 2.1965485zm4.2664948-2.47126-3.8017654-2.1965485 3.5271835-2.0698242 3.8017654 2.1965485zm4.2665024-2.4922715-3.8018952-2.1965484 3.5273132-2.0488129 3.8017654 2.1966782zm5.7025833-3.3160247-1.4150696.8448944c-.10289-.0597076-8.6987991-5.0480042-8.15271-4.731102l-.021141.021141v-.0211411h.0211411l1.3939362-.8237534c2.912117-1.4560547 6.1666565-1.1569138 8.152832 0 2.2598418 1.3094941 2.2598418 3.4216005.0210113 4.7099611z" fill="#fff"/></g></g></g></g></g><path d="m118.091774 60.5922813c0 .039978 0 .0899658-.0100098.1300049.0800171-4.6900024-2.9799805-9.4000244-9.1799927-12.9700317-12.1799927-7.039978-31.8800049-7.039978-43.9899902 0l-48.0200214 27.9000282.0200195 6.3599854 44.1400146 25.4899902v-1.4299927l.0100098 1.4400024 48.0099525-27.9199829c6.0300293-3.4899902 9.0400391-8.0599976 9.0400391-12.6500244zm-10.6300049 9.909977-46.4400063 26.9899902-34.8499736-20.1399536 40.3300171-23.4299965c5.3799438-3.1199951 12.6099854-4.8500366 20.3699951-4.8500366 7.7599487 0 15.0199585 1.7300415 20.4400024 4.8699951 4.1599731 2.3800049 6.7099609 5.2900391 7.3999634 8.3500366-.669981 3.0000039-3.2000103 5.8599892-7.2499981 8.2099648z" fill="#bf7d5a"/><g><g><path d="m118.0923615 60.5915756.0144577 6.3474884c0 4.5930252-3.0045853 9.1668854-9.0329132 12.64991l-48.0156555 27.9213943-.0334969-6.3666534 48.0348167-27.9022369c6.0091705-3.5021744 9.0137558-8.0760346 9.0327912-12.6499024z" fill="#bf7d5a"/></g></g><g><g><path d="m61.0339088 101.1439743.0216942 6.3592072-44.1457004-25.4875336-.0216942-6.3592072z" fill="#aa6256"/></g></g><g><path d="m108.900856 47.7485657c-12.1819611-7.0332527-31.8752823-7.0401611-43.990097.0002327l-48.0225296 27.9076423 44.1457062 25.4875183 48.0224915-27.9076385c12.1148528-7.0403976 12.0385589-18.4474678-.1555711-25.4877548zm-1.4408493 22.7489853-46.4426079 26.9966278-34.8425655-20.1420059-2.9738064-1.7083817 43.300026-25.1618462c11.1380157-6.4643669 29.5529709-6.4833641 40.8114395 0 10.2387695 5.9326096 10.0155105 14.3105584.1475143 20.015606z" fill="#dba660"/></g><g><path d="m107.3124924 50.481945c-11.2463989-6.4764137-29.661171-6.4714775-40.8114395 0l-43.300026 25.1618462 2.9738064 1.7083817 40.3262177-23.4323502c5.3782196-3.1214523 12.6124954-4.8509483 20.374115-4.8509483 7.7615509 0 15.0168762 1.729496 20.4373245 4.8720436 4.154892 2.383316 6.7069702 5.2938995 7.4029083 8.35215-.1265488.5615387-.3182983 1.1186409-.5731125 1.6686363.4820023-1.0403633.78405-2.2310486.78405-3.4192467.0000019-3.6487236-2.6996975-7.2131272-7.6138439-10.0605126z" fill="#bf7d5a"/></g><g><path d="m39.8212929 64.8275452s3.4571762.0995407 3.4915428 1.3617859c.0419426 1.540596-2.0718956.7114258-2.0718956.7114258s2.6838875 3.7342606.7150307 5.429718c-3.4840889 3.0002823-5.8904495-5.7355499-5.8904495-5.7355499z" fill="#f5c9c6"/></g><g><path d="m40.5345917 64.7530365-.9064636-2.0892944v.2856598h-5.7968254c1.3119278 2.2151947 2.2819061 3.78405 2.2819061 3.78405.4318924.9641876 4.8532753-1.0162507 4.4213829-1.9804154z" fill="#f3f1fc"/></g><g><path d="m38.6581268 65.8425751c-1.2968025.6403503-2.8510056 1.0136261-3.108448.4344025 0 0-7.4460526-11.7032928-8.8072338-16.3208885-1.1487522-3.9000244-1.007185-12.099102-1.007185-17.5211601.0032196-1.8824291 1.5123692-3.3915977 3.3530045-3.4366512.115839-.0032215.2348976 0 .3571758.0096436 1.6636009.1319408 2.9958324 1.4351635 3.1567249 3.095583l1.1487503 15.571125c.0225067.2767487.0868874.5502586.1962852.807682l6.519352 15.5936699c.2220116.492317-.7014694 1.2259978-1.8084259 1.7665938z" fill="#df3260"/></g><g><path d="m38.6581268 65.8425751c-2.8896179-4.9200745-8.1540031-14.1295586-9.0292473-17.4793243-1.007225-3.8581886-.7175713-13.8688927-.5406151-19.3649731.115839-.0032215.2348976 0 .3571758.0096436 1.6636009.1319408 2.9958324 1.4351635 3.1567249 3.095583l1.1487503 15.571125c.0225067.2767487.0868874.5502586.1962852.807682l6.519352 15.5936699c.2220117.4923171-.7014693 1.2259979-1.8084258 1.7665939z" fill="#e93565"/></g><g><path d="m56.9009666 59.2887917c-.5896034-.7292671 2.8584595-3.5170479 3.4480591-2.7877846l-.57621-.6658401c-.5895996-.7292671-4.0376587 2.0585175-3.4480591 2.7877808z" fill="#f3f1fc"/></g><g><path d="m60.1250496 56.0787048c-.2843742-.3488846-1.1991272.0762291-2.0434494.7124405-.9909439.7417336-1.8880539 1.779583-1.5744057 2.1988449-.2462234-.3254433-7.6695366-10.0824318-10.7039337-14.7527733-.0175705-.275589-.0293083-.551178-.0381126-.826767l-.055687-1.8646126-.1759377-3.1399536c-.0088043-.1348686-.005867-.2668037.0029373-.4016533.0410461-.6186066.2638664-1.219635.6479111-1.7121735 1.9936333-2.5594482.9792442-5.494175-1.2811546-8.5842743-.2756042-.3752785-.4720497-.806242-.5687866-1.2606659-.3400955-1.6154194-.6479492-2.9552498-1.7971878-3.6823463-.1172791.0058689-.2345581.0146732-.351799.0234585l.1143074-.3547344c3.4830055 1.5655651 6.5496445 8.1943398 9.3846626 17.713871.0967751.3254242.2257538.6420631.3811493.938179z" fill="#df3260"/></g><g><path d="m62.9026909 62.2299271c-1.3772087 2.2235413-3.8453064-1.3032227-3.9643669-1.4737778.0289497.1126366.418335 1.5864143-.4376221 1.724781-.6435661.1029739-1.3096848-1.9886246-1.6539764-3.2532539l.054718.0611382c-.5437965-.6757393 2.3586655-3.1052055 3.2660789-2.8960571.0515366.0289688.1062164.0611382.1673355.09655l.0032196.0032005c1.2839165.7497634 4.3215828 2.9057235 2.5646134 5.7374191z" fill="#f5c9c6"/></g><g><path d="m34.2787361 20.4586906-1.2575836 4.9845791c-.1680946 2.8521271 3.8011284 4.493885 6.4484863 2.9770012.3123474-.1789703.4821129-.528698.4451904-.8867874-.1556854-1.5100288.1830635-3.0484142.8049545-4.603056 1.3008804-.3026485 2.3101997-1.2587299 2.7181511-2.4717369z" fill="#f5c9c6"/></g><g><g><g><path d="m45.7893982 7.8742323.3503876 5.8980637c.0942078 1.5858078.4337463 3.1551352 1.0326271 4.6265306.3192253.7843132.6719322 1.515564 1.0624275 2.1869545.1312103.2255898.0636787.5137768-.1570511.6530113-.62043.3913612-1.3240471.4317627-2.0004654.1419754-.2986107-.1279297-.6368446.0979767-.5804214.417902.1746559.9902878.4540939 1.9373512.843235 2.8392086.0768127.1780186.047081.3918209-.0923347.5265598-1.3356514 1.2908764-3.3993225 1.5577145-5.9548798 1.396368-.1725731-.0108948-.2511673-.2184505-.1289406-.3407669 4.7766953-4.7802181 6.6340752-12.2695913 3.6447487-17.7333908z" fill="#1d2943"/></g><g><g><g><path d="m43.852562 8.4858437c.1866417-.0803776 4.2413216 9.0122299-1.1858482 16.746336-.3491669.4975681-.909481.8231335-1.516201.8603725-1.2320938.0756226-3.5764847-.2613068-7.1807098-2.6717224-6.1352119-4.1030769-3.6188335-11.024703-3.6188335-11.024703l8.1955776-4.9264717z" fill="#f4d6d4"/></g><g><path d="m43.8087311 8.4866476c-.7079124 1.8852501-1.8288651 3.6839104-3.6172028 5.3489151-.1134033.1055822-.284893-.0377302-.2005959-.167738.5947151-.9172087.8937454-1.7904482.9040756-2.62078.001667-.1340265-.1780128-.1811876-.2455177-.0653906-.9635086 1.652832-2.0159149 3.1145287-3.2531891 4.1789742-.1197357.1030111-.285675-.0535498-.1905479-.1796417.6209412-.823081.9963989-1.6659899 1.1485138-2.5269461.0256386-.145112-.1713181-.2140732-.2447243-.086298-.760891 1.3244696-1.6848793 2.5368366-2.7580643 3.6467171-.5820007.6019039-.8771858 1.4251213-.8257637 2.2608051.1184425 1.9249115.8022728 3.391531 1.8888702 4.5317039.0950928.0997829.0032578.2619209-.1312218.2316895l-.6122818-.1376381c-.1098022-.024683-.2012405.0843582-.159153.1887341.6317673 1.5668011.4065971 2.7919312-.3818626 3.7924156-.0938148.1190434-.281601.02882-.2462769-.1185741.2538681-1.0593052.2784348-2.0243168-.0101433-2.8605137l-1.3614235 3.2958488c-.1110229.4324837-4.0580921-.5809345-3.9470711-1.0134201l-.1504459-1.9373016c-.0126915-.1634369-.2480278-.1748142-.2764263-.0133629l-.207243 1.178215c-.0166035.094389-.1212578.1442986-.2050552.0977917l-.998724-.554306c-.0545101-.0302525-.0823231-.0930042-.0681286-.1537094l.5120678-2.1899509c.0325108-.13904-.1417427-.2329712-.2378883-.1274014-.2610149.2865944-.4807701.641983-.6475639 1.0856304-.0542126.1441975-.2674465.1080761-.270752-.0459404-.0239067-1.1137886.1222038-2.2972927.4055557-3.5370693.0335941-.146986-.1548176-.2338924-.2471848-.1147194-.4085007.5270596-.6666412 1.5472145-.8121758 2.9368782-.0145569.1389961-.1988258.1727104-.2637978.048975-.3367271-.641264-.4553146-1.4575939-.3007965-2.4930935.0828838-.5554409.2542896-1.0931225.4768982-1.6087074.8342113-1.9321156 1.2491035-3.903842 1.2417603-5.9154301.048914-2.5158253.9398346-4.6016207 2.5926685-6.298327 1.527483-1.5680256 3.5541553-2.5418825 5.7168636-2.8803995 2.7373619-.4284639 5.3610954-.0533772 7.8243294 1.4564412 1.1220284.7762184 1.917099 1.6661701 2.1375618 2.7557611z" fill="#4c5c75"/></g></g></g></g></g></g></g></svg>