<svg id="Layer_1" enable-background="new 0 0 53 53" height="512" viewBox="0 0 53 53" width="512" xmlns="http://www.w3.org/2000/svg"><g id="_x36_2"><g><g><path d="m47.0923729 7.5038362v37.9923248c0 2.7635422-2.2402954 5.0038376-5.0038376 5.0038376h-21.8898315c-2.7635422 0-5.0038357-2.2402954-5.0038357-5.0038376v-37.9923248c0-2.7635427 2.2402935-5.0038362 5.0038357-5.0038362h21.8898315c2.7635422 0 5.0038376 2.2402935 5.0038376 5.0038362z" fill="#e4e3ff"/></g></g><g><g><path d="m47.0878372 7.508667v37.9899902c0 2.7600098-2.2399902 5-5 5h-21.8900146c-1.9899902 0-3.7200317-1.1700439-4.5100107-2.8601074.7100229.380127 1.5200205.6000977 2.3900156.6000977h21.8900146c2.7599487 0 5-2.2399902 5-5.0100098v-37.9899902c0-.7600098-.1700439-1.4799805-.4800415-2.1199951 1.5499878.8499755 2.6000366 2.4899902 2.6000366 4.3900146z" fill="#d0d0f7"/></g></g><g opacity=".6"><g opacity=".7"><g><g><path d="m25.5184174 5.2631369h-1.8057861c-.3105469 0-.5625-.2519531-.5625-.5625s.2519531-.5625.5625-.5625h1.8057861c.3105469 0 .5625.2519531.5625.5625s-.2519532.5625-.5625.5625z" fill="#fff"/></g></g></g><g opacity=".7"><g><g><path d="m35.9779892 5.2631369h-7.6116943c-.0855484 0-.3375015-.2519531-.3375015-.5625s.2519531-.5625.5625-.5625h7.6116943c.3105469 0 .5625.2519531.5625.5625s-.2519532.5625-.7874985.5625z" fill="#fff"/></g></g></g></g><g><g><g><path d="m33.7818451 31.3101788c-.8321648 0-1.5844383-.292923-2.1835709-.7722683.5059204 1.2715645 1.3780212 2.183609 2.3899422 2.409935h-5.7452431c.8122101-.1863823 1.531168-.7988434 2.0437927-1.690937.1331539-.2263641.2463169-.4660168.3461914-.718998-.5991707.4793453-1.3581123.7722683-2.1902733.7722683-1.9239254 0-3.4884129-1.5644875-3.4884129-3.4884129 0-1.7043056 1.2182941-3.1222706 2.8226833-3.4285202-.0998344-.3195381-.1531048-.6590652-.1531048-1.0119209 0-1.9239674 1.5644474-3.4884148 3.4884148-3.4884148 1.9306278 0 3.4950771 1.5644474 3.4950771 3.4884148 0 .3528557-.0532303.6923828-.1531067 1.0119209 1.6110535.3128719 2.8226852 1.7308788 2.8226852 3.4285202.0000002 1.9239254-1.5644453 3.4884129-3.495075 3.4884129z" fill="#fc6559"/></g></g><g opacity=".4"><g><g><path d="m28.9566898 23.6019611c-.1157227.0133266-.234045-.1046715-.2327442-.2343712.0039005-.726841.3341637-1.4029713.904974-1.8557854.1001205-.0796394.2463989-.0633869.3276634.0380325.0799656.100771.0630627.2473736-.0377064.3273392-.460289.3643951-.7255402.9085503-.7294426 1.4930134-.0006484.1284009-.1046695.2317715-.2327442.2317715z" fill="#fff"/></g></g></g><g opacity=".4"><g><g><path d="m30.6242638 21.5170059c-.1066208 0-.2021904-.0731392-.2268944-.1810589-.0292568-.1251507.0494099-.2502995.1748829-.2792301.1625328-.0373821.3289642-.0578613.4940968-.0611115.1079197-.0113773.2353458.1001186.2372952.2285194.0026016.1287251-.0994682.2350197-.2281933.2376213-.133276.0022755-.2672024.0191784-.3991776.0494099-.0175534.0039006-.0351067.0058499-.0520096.0058499z" fill="#fff"/></g></g></g><g><g><g><path d="m33.7818451 31.3101788c-.8321648 0-1.5844383-.292923-2.1835709-.7722683.5059204 1.2715645 1.3780212 2.183609 2.3899422 2.409935h-5.7452431c.8122101-.1863823 1.531168-.7988434 2.0437927-1.690937.1331539-.2263641.2463169-.4660168.3461914-.718998-.5991707.4793453-1.3581123.7722683-2.1902733.7722683-1.3048038 0-2.4432144-.718998-3.0357227-1.7775249.9519882.5925083 2.0837345.9386997 3.288702.9386997 3.3486366 0 6.0781097-2.636301 6.2378769-5.9449539 1.3647766.472641 2.34338 1.7708206 2.34338 3.2953663 0 1.9239253-1.5644455 3.4884128-3.4950752 3.4884128z" fill="#f05543"/></g></g></g></g><g opacity=".6"><g opacity=".7"><g><g><path d="m18.4575043 29.0894165v1.8057861c0 .3105469-.2519531.5625-.5625.5625s-.5625-.2519531-.5625-.5625v-1.8057861c0-.3105469.2519531-.5625.5625-.5625s.5625.2519531.5625.5625z" fill="#fff"/></g></g></g><g opacity=".7"><g><g><path d="m18.4575043 14.9746265v11.2669144c0 .0855465-.2519531.3374996-.5625.3374996s-.5625-.2519531-.5625-.5625v-11.2669143c0-.3105469.2519531-.5625.5625-.5625s.5625.2519531.5625.7875003z" fill="#fff"/></g></g></g></g><g><g><g><g><g><path d="m40.6855736 39.0237656c.2207375 0 .4202843.0776978.5792084.2048492-.1341972-.3372917-.3655281-.5792198-.6339493-.6392555h1.5239716c-.2154465.0494423-.4061546.2118988-.5421333.4485359-.0353203.0600433-.0653381.1236153-.0918312.1907196.1589355-.1271515.3602524-.2048492.5809898-.2048492.510334 0 .9253273.4149895.9253273.9253273 0 .4520798-.3231621.8282051-.7487411.9094429.0264854.0847588.0406151.1748199.0406151.2684174 0 .5103455-.4149818.9253273-.9253311.9253273-.5121117 0-.9270935-.4149818-.9270935-.9253273 0-.0935974.0141182-.1836586.0406113-.2684174-.4273453-.0829926-.7487373-.4591293-.7487373-.9094429-.0000002-.5103379.4149816-.9253273.9270933-.9253273z" fill="#fc6559"/></g></g><g><g><g><path d="m40.6855736 39.0237656c.2207375 0 .4202843.0776978.5792084.2048492-.1341972-.3372917-.3655281-.5792198-.6339493-.6392555h1.5239716c-.2154465.0494423-.4061546.2118988-.5421333.4485359-.0353203.0600433-.0653381.1236153-.0918312.1907196.1589355-.1271515.3602524-.2048492.5809898-.2048492.3461075 0 .6480789.1907196.8052483.4715004-.2525253-.1571655-.5527267-.2489967-.8723564-.2489967-.8882484 0-1.6122627.6992989-1.654644 1.5769463-.3620148-.1253738-.6215973-.4697266-.6215973-.8741226-.0000001-.510338.4149817-.9253274.9270934-.9253274z" fill="#f05543"/></g></g></g></g><g><g><g><path d="m39.30336 42.4809875c-.0218964-.0502968-.0289955-.1088791-.0289955-.159771 0-.217762.1668739-.4213219.4213219-.4213219.1671715 0 .3272362.1017799.3926239.2686539l.3195457.792347h1.9696274l.3195419-.792347c.0656853-.1668739.2254562-.2686539.3926239-.2686539.2470551 0 .4216194.210659.4216194.4213219 0 .0585823-.0073967.1094742-.0292892.159771l-1.6932831 4.236908c-.0653877.1603622-.2251587.2692451-.3997269.2692451-.1671677 0-.3269386-.1088829-.3923264-.2692451zm1.446228 1.3231469.6393814 1.6202011.6467819-1.6202011z" fill="#f05543"/></g></g></g></g><g><g><g><g><path d="m21.6016636 13.9762354c-.2207375 0-.4202843-.0776997-.5792084-.2048502.1341991.3372927.3655319.5792198.6339512.6392536h-1.5239697c.2154446-.0494394.4061546-.2118988.5421314-.448534.0353203-.0600452.0653381-.1236143.0918293-.1907196-.1589336.1271505-.3602486.2048502-.580986.2048502-.5103359 0-.9253292-.4149923-.9253292-.9253283 0-.4520798.3231621-.8282061.7487392-.909441-.0264816-.0847597-.0406113-.1748219-.0406113-.2684202 0-.5103464.4149799-.9253283.9253273-.9253283.5121136 0 .9270954.4149818.9270954.9253283 0 .0935984-.0141182.1836605-.0406113.2684202.4273434.0829916.7487373.4591284.7487373.909441.0000002.510336-.4149797.9253283-.9270952.9253283z" fill="#fc6559"/></g></g><g><g><g><path d="m21.6016636 13.9762354c-.2207375 0-.4202843-.0776997-.5792084-.2048502.1341991.3372927.3655319.5792198.6339512.6392536h-1.5239697c.2154446-.0494394.4061546-.2118988.5421314-.448534.0353203-.0600452.0653381-.1236143.0918293-.1907196-.1589336.1271505-.3602486.2048502-.580986.2048502-.3461094 0-.6480808-.1907196-.8052483-.4715023.2525215.1571674.5527267.2489977.8723526.2489977.8882523 0 1.6122646-.6992989 1.654644-1.5769444.3620186.1253719.6215992.4697237.6215992.8741207.0000001.510336-.4149798.9253283-.9270953.9253283z" fill="#f05543"/></g></g></g></g><g><g><g><path d="m22.9838791 10.5190105c.0218945.0502987.0289955.108882.0289955.1597719 0 .2177629-.166872.4213238-.4213238.4213238-.1671677 0-.3272362-.1017809-.3926239-.2686529l-.3195419-.7923489h-1.9696293l-.3195438.7923489c-.0656834.166872-.2254543.2686529-.3926239.2686529-.2470531 0-.4216194-.2106619-.4216194-.4213238 0-.0585833.0073967-.1094732.0292912-.1597719l1.6932831-4.2369051c.0653896-.1603637.2251606-.2692447.399725-.2692447.1671696 0 .3269405.108881.3923283.2692447zm-1.446228-1.3231449-.6393833-1.6202021-.6467781 1.6202021z" fill="#f05543"/></g></g></g></g></g><g><g><g><path d="m28.1768055 39.3172989c0 .8629456-.0974159 1.7015076-.285326 2.50877-.2783604 1.2178421-.7585411 2.359127-1.4022522 3.385601-.8977318 1.4335785-2.1120949 2.6514244-3.5491543 3.5491562-1.026474.6437073-2.167757 1.1238899-3.385603 1.4022713-.8072605.1878891-1.6493301.285305-2.5122528.285305-.8629246 0-1.7015095-.0974159-2.50877-.285305-1.217845-.2783813-2.3591299-.758564-3.3856039-1.4022713-1.4370594-.8977318-2.6549053-2.1155777-3.5526371-3.5491562-.6437097-1.026474-1.1204076-2.1677589-1.4022512-3.3821182-.1878886-.8072624-.2853265-1.6493073-.2853265-2.5122528 0-.8664093.0974379-1.7084541.2853265-2.5157166.2818437-1.2143631.7585416-2.3556671 1.4022512-3.3821411.8977318-1.4335766 2.1155777-2.6514225 3.5526371-3.5491333 1.026474-.6437302 2.1677589-1.1239128 3.3856039-1.4022732.8072605-.1878872 1.6458454-.285326 2.50877-.285326.8629227 0 1.7049923.0974388 2.5122528.285326 1.2178459.2783604 2.359129.758543 3.385603 1.4022732 1.4370594.8977108 2.6514225 2.1155567 3.5491543 3.5491333.6437111 1.026474 1.1238918 2.167778 1.4022522 3.3856239.1879101.8072625.285326 1.6493073.285326 2.5122338z" fill="#5bc658"/></g></g><g><g><path d="m28.1768055 39.3172989c0 .8629456-.0974159 1.7015076-.285326 2.50877-.2783604 1.2178421-.7585411 2.359127-1.4022522 3.385601-.8977318 1.4335785-2.1120949 2.6514244-3.5491543 3.5491562-1.026474.6437073-2.167757 1.1238899-3.385603 1.4022713-.8072605.1878891-1.6493301.285305-2.5122528.285305-.8629246 0-1.7015095-.0974159-2.50877-.285305-1.217845-.2783813-2.3591299-.758564-3.3856039-1.4022713-1.3431044-.8385658-2.4948378-1.9589958-3.3751764-3.2707939.093955.059166.1879101.1183128.2818432.1774597 1.026475.6437302 2.1677799 1.1239128 3.3856258 1.4022713.8072596.1878891 1.6458244.2853279 2.5087481.2853279.8629456 0 1.7049923-.0974388 2.5122519-.2853279 4.1351795-.9451675 7.3968945-4.2239609 8.3370094-8.3370285.1879101-.8072624.2853279-1.6458244.2853279-2.50877 0-.8629227-.0974178-1.7049713-.2853279-2.5122299-.2783604-1.2178459-.7585411-2.3591518-1.4022503-3.3856049-.0591469-.093956-.1217976-.1879101-.1809444-.2818432 1.3152847.8803158 2.4356918 2.0320492 3.2742767 3.3751545.6437111 1.026474 1.1238918 2.167778 1.4022522 3.3856239.1879101.8072625.285326 1.6493073.285326 2.5122338z" fill="#49a247"/></g></g><g><g><path d="m11.6280241 47.8665771-.4801807.894249c-1.3253298-.828331-2.4241486-1.9209404-3.1942325-3.0167732-.0626292-.0800438-.1183143-.1670341-.1774607-.2505379-.0591469-.0939331-.1217761-.1878891-.180944-.2818451l.8977318-.4801788c.3305626-.1774635.741148-.1182938 1.0090809.1496162l1.976387 1.9729271c.07654.0765381.1357079.1635284.1774607.2609673.1043825.2366066.0974169.5149689-.0278425.7515754z" fill="#e4e3ff"/></g></g><g><g><path d="m19.5544701 50.1630974c-.8072605.1878891-1.6493301.285305-2.5122528.285305-.8629246 0-1.7015095-.0974159-2.50877-.285305l.2922926-.9708099c.1113482-.361866.4453726-.6089249.8211708-.6089249h2.7906122c.379261 0 .7133064.2470589.8246536.6089249z" fill="#e4e3ff"/></g></g><g><g><path d="m26.4892273 45.2116699c-.8977318 1.4335785-2.1120949 2.6514244-3.5491543 3.5491562l-.4801807-.894249c-.1774597-.3305626-.1183147-.7446327.1496181-1.0125427l1.9729042-1.9729271c.2679329-.26791.6785183-.3270798 1.0125637-.1496162z" fill="#e4e3ff"/></g></g><g><g><path d="m28.1768055 39.3172989c0 .8629456-.0974159 1.7015076-.285326 2.50877l-.970789-.2922935c-.3618889-.1113472-.608923-.4453735-.608923-.8211708v-2.794075c0-.3757973.2470341-.7098427.608923-.8211937l.970789-.2922707c.1879101.8072624.285326 1.6493072.285326 2.5122337z" fill="#e4e3ff"/></g></g><g><g><path d="m26.4892273 33.4194412-.894249.4801788c-.2366066.1252823-.5115051.132225-.7481136.0278435-.0974159-.0417519-.1878891-.1008987-.2644501-.1774597l-1.9729042-1.9729042c-.2679329-.2679329-.3270779-.6820011-.1496181-1.0125427l.4801807-.894249c.0904732.0591469.1844063.1148109.2748775.1739788v.0034618c.038271.0243587.076561.0522003.1148319.076561 1.0820084.7213383 2.1236401 1.7861843 2.8358498 2.8080063.1113263.1600457.2191926.3201142.3235951.4871254z" fill="#e4e3ff"/></g></g><g><g><path d="m11.6558666 47.1150017c.1043825.2366066.0974169.5149689-.0278425.7515755l-.4801807.894249c-1.3253298-.828331-2.4241486-1.9209404-3.1942325-3.0167732-.0626292-.0800438-.1183143-.1670341-.1774607-.2505379.0939546.0556831.1844268.11483.2783599.1739769 1.026475.6437302 2.1677799 1.1239128 3.3856258 1.4022713.0730572.0173949.1426526.0313071.2157307.0452384z" fill="#d2d2f7"/></g></g><g><g><path d="m19.2621765 49.1922874.2922935.9708099c-.8072605.1878891-1.6493301.285305-2.5122528.285305-.8629246 0-1.7015095-.0974159-2.50877-.285305l.2922926-.9708099c.1113482-.361866.4453726-.6089249.8211708-.6089249h2.7906122c.3792611.0000001.7133065.2470589.8246537.6089249z" fill="#d2d2f7"/></g></g><g><g><path d="m25.5949783 44.7314911.894249.4801788c-.8977318 1.4335785-2.1120949 2.6514244-3.5491543 3.5491562l-.4801807-.894249c-.1774597-.3305626-.1183147-.7446327.1496181-1.0125427l1.9729042-1.9729271c.2679329-.26791.6785183-.3270797 1.0125637-.1496162z" fill="#d2d2f7"/></g></g><g><g><path d="m23.395895 30.3261299c-.0591469-.093956-.1217976-.1844273-.1809444-.2783813v-.0034618c.038271.0243587.076561.0521793.1148319.0800228 1.0820084.7213383 2.1236401 1.7861843 2.8358498 2.8080063.1113262.1600456.2191925.3201141.323595.4871254l-.894249.4801788c-.2366066.1252823-.5115051.132225-.7481136.0278435-.0173931-.0730782-.0313034-.1426506-.0487194-.2157288-.2783604-1.2178459-.7585411-2.3591519-1.4022503-3.3856049z" fill="#d2d2f7"/></g></g><g><g><path d="m28.1768055 39.3172989c0 .8629456-.0974159 1.7015076-.285326 2.50877l-.970789-.2922935c-.3618889-.1113472-.608923-.4453735-.608923-.8211708v-2.794075c0-.3757973.2470341-.7098427.608923-.8211937l.970789-.2922707c.1879101.8072624.285326 1.6493072.285326 2.5122337z" fill="#d2d2f7"/></g></g><g><g><path d="m17.0495071 46.7917824h-.0061169c-.4869347 0-.9752274-.0472336-1.4506092-.1403389-.1885891-.0370369-.3115969-.2198486-.274559-.4084396s.2167931-.3126183.4084406-.274559c.4315462.08461.8746462.1274261 1.3167276.1274261.1923275 0 .3510132.1556282.3510132.3479538.0000001.1923294-.1525707.3479576-.3448963.3479576zm1.0489636-.4165955c-.0377178-.188591.0849514-.3717422.273201-.4091225.4346046-.086647.8620739-.2164497 1.270853-.3863525.1780567-.0730553.3812561.0101967.4549942.187912.0737362.1773758-.0105343.3812561-.1879101.4549904-.4509163.187233-.9228992.3306274-1.4020176.4257698-.1840324.0378914-.3709793-.081707-.4091205-.2731972zm-3.9087267-.1474762c-.4505758-.1862106-.8855209-.418293-1.2926016-.6894531-.1597061-.1063576-.2032013-.3224716-.0965033-.4825172.1060171-.1600456.3217907-.2028618.4825163-.0965042.3693638.2460175.7635326.4563522 1.1723127.6255722.1777153.0733986.2619867.2769394.1885891.4543152-.0735435.1782188-.2773589.2618598-.4543132.1885871zm6.5289297-.7927513c-.1070366-.1593666-.0645618-.3754807.0951443-.4825172.3680038-.247036.7135811-.5311089 1.0265388-.8440666.1359196-.1359215.3561096-.1359215.4920311 0 .1359196.1359215.1359196.3561096 0 .4920311-.3448982.3448982-.7254753.657856-1.131197.9296951-.1600151.1078949-.3765239.0635757-.4825172-.0951424zm-8.9551067-.8253784c-.3465967-.3455772-.6602325-.7258148-.9317331-1.1301765-.1070375-.1597061-.0645618-.3758202.0948048-.4828568.1593657-.1077156.3751392-.0645599.4828568.0948029.2463551.3666458.5307684.7118835.8454237 1.0255203.1359205.135582.13626.3557701.00068.4920311-.1345188.135189-.3547012.1373253-.4920322.000679zm11.0159988-1.0459061c-.1597061-.1070366-.2025223-.3231506-.0954838-.4828568.2466946-.3686829.4577103-.7625122.6269321-1.1706123.0733967-.1777153.277956-.2613068.4546528-.1882515.1777153.0737381.2619858.2772789.1882496.4546547-.1865501.4502373-.4193134.8848419-.691494 1.291584-.1066341.1596795-.3233013.2021561-.4828567.0954819zm-12.6416054-1.3744926c-.1879091-.4505768-.3319845-.9222183-.4274693-1.4020195-.0377178-.1882477.0846109-.3717422.2732-.4091187.1872301-.0387383.3714018.0849495.4091206.273201.0866489.4342651.2171326.8617325.387372 1.2701721.0740767.1773758-.0098543.3809166-.1872301.4549942-.1753148.0733872-.3802995-.0082397-.4549932-.1872291zm13.8319264-1.1413918c-.1885891-.0370369-.3109169-.220192-.2735386-.4087791.085289-.4318886.1287842-.8766861.1287842-1.3221664 0-.1923256.1556282-.3629036.3479557-.3629036s.3479557.1403351.3479557.3326645v.0302391c0 .4910126-.0479126.9813461-.1423759 1.4574051-.0377427.1918563-.2258511.3117637-.4087811.2735404zm-14.0561943-1.3765335c-.1923275 0-.3479557-.1491699-.3479557-.3414993v-.0129128c0-.4852333.0468922-.9711494.139658-1.4448318.0370378-.1885872.2167931-.3122749.4084406-.274559.1885891.0370407.3115969.2198524.274559.4084435-.0842714.4295044-.1267462.8705673-.1267462 1.3109474 0 .1923293-.1556282.354412-.3479557.354412zm13.7768783-1.7051163c-.0880089-.434269-.2191715-.8613968-.3900909-1.2694969-.0744171-.1773758.0091743-.3812561.1862106-.4553337.1780548-.0750961.3812561.0091743.4553318.1862106.1889305.4502373.3336849.9215393.4308681 1.4006577.0380573.1882515-.0835915.3717422-.2721806.410141-.1853808.038166-.3713893-.0819511-.410139-.2721787zm-13.3742141-1.0425109c-.1777163-.0733948-.2623262-.2769356-.1892691-.4543114.1862106-.4512558.4179544-.8865395.6891155-1.2932816.1060181-.1600456.3217907-.2032013.4825172-.0965042.1597061.1063576.2032003.3224716.0965033.4825172-.245676.3686829-.4560127.7631912-.6245537 1.1723099-.0734052.177887-.2766485.2620163-.4543132.1892701zm12.3527736-1.3955613c-.2480545-.3673248-.5331478-.7115402-.8474636-1.023819-.1366005-.135582-.1372795-.3557701-.002039-.4920311.1355801-.1366005.356451-.13694.4920311-.002037.3465977.3442154.6609135.723774.9344521 1.1284752.107378.1590271.0655823.3754807-.0937843.4831963-.1606636.1077194-.3760948.0647049-.4831963-.0937844zm-10.924592-.9939155c-.13626-.135582-.13694-.3557739-.001359-.4920311.3442183-.3459167.7241154-.6595535 1.1294975-.932415.1593666-.1077156.3758192-.0659218.4828568.0941238.1073771.1593666.0652418.3758202-.0941248.4828568-.3680048.247715-.7125626.5324707-1.0248394.8461037-.1353302.1360092-.3555212.1371879-.4920311.0013618zm9.0468531-.8702316c-.3700428-.2456741-.7648907-.4553299-1.1733322-.6231918-.1777153-.0730591-.2626648-.2762604-.1896076-.4539757.0730572-.1780548.2769375-.2616463.4539738-.1896095.4505749.1851921.8858604.416256 1.2936211.6870766.1603851.1063576.2038803.3221321.0975227.4821777-.1063004.1602592-.3226796.2038573-.4821778.0975227zm-6.8157215-.7944527c-.0740767-.1773758.0095139-.3812561.1868896-.4553337.4512558-.1885872.9228992-.333004 1.4016781-.4288273.1879101-.0397568.3720818.0842686.4094601.2728596.0377178.1882515-.0842705.3717422-.2728605.4094582-.4335852.0869904-.8610544.2174759-1.2698345.3887329-.1748076.0731773-.3800336-.0075417-.4553328-.1868897zm4.3701763-.2093163c-.4261093-.0829124-.8641129-.1250458-1.3024559-.1250458-.1923275 0-.35849-.155632-.35849-.3479576 0-.1923275.1447544-.3479557.3370819-.3479557h.0214081c.4828568 0 .9657135.0465527 1.4356575.1379585.1885891.0366993.3115978.219511.2748985.408102-.0370388.190651-.2221527.3115235-.4081001.2748986z" fill="#fff"/></g></g><g><g><path d="m19.5544701 28.4680347-.2922935.9707909c-.1113472.361887-.4453926.608923-.8246536.608923h-2.7906122c-.3757982 0-.7098227-.247036-.8211708-.608923l-.2922926-.9707909c.8072605-.1878872 1.6458454-.285326 2.50877-.285326.8629225 0 1.7049921.0974389 2.5122527.285326z" fill="#e4e3ff"/></g></g><g><g><path d="m11.478406 31.7770996-1.976387 1.9729042c-.2679329.2679329-.6785183.3270798-1.0090809.1496162l-.8977318-.4801788c.8977318-1.4335766 2.1155777-2.6514225 3.5526371-3.5491333l.4801807.894249c.1774607.3305416.1148319.7446098-.1496181 1.0125427z" fill="#e4e3ff"/></g></g><g><g><path d="m7.7761502 37.9185295v2.794075c0 .3757973-.2470565.7098236-.608923.8211708l-.9742722.2957764c-.1878886-.8072624-.2853265-1.6493073-.2853265-2.5122528 0-.8664093.0974379-1.7084541.2853265-2.5157166l.9742723.2957535c.3618664.111351.6089229.4453964.6089229.8211937z" fill="#e4e3ff"/></g></g><g><g><path d="m22.6368008 39.3137054c0 3.0896759-2.5050392 5.5946922-5.5946941 5.5946922-3.0859737 0-5.590991-2.5050163-5.590991-5.5946922 0-3.0859528 2.5050173-5.590992 5.590991-5.590992 3.0896549.0000001 5.5946941 2.5050393 5.5946941 5.590992z" fill="#fff"/></g></g><g><g><path d="m22.6344566 39.3150673c0 3.0841064-2.5047474 5.5889091-5.5889072 5.5889091-1.7827396 0-3.3604279-.8290215-4.3855247-2.1215744.9537716.7577515 2.1660223 1.2123566 3.4763641 1.2123566 3.0841045 0 5.5888519-2.5047989 5.5888519-5.5889053 0-1.3102875-.454607-2.5137253-1.2122498-3.4674416 1.2924977 1.0161743 2.1214657 2.6028404 2.1214657 4.3766556z" fill="#e4e3ff"/></g></g><g><g><g><path d="m14.9765511 41.8753929c-.4168453 0-.8336916-.1580124-1.1516972-.4740334-.1986713-.1976814-.1996632-.5189934-.0019836-.7179947s.5189915-.1996613.7179928-.0019836c.2416449.2393341.6330376.2390022.8733597-.0016518.2386703-.2389984.2386703-.6277466 0-.8667488-.2386694-.2373466-.6300621-.2380066-.8707151.0013237-.1454496.1441269-.3636246.1867714-.5527086.1084251-.189415-.0786743-.3127174-.2637939-.3127174-.4687424v-1.8991127c0-.280323.2274313-.5077515.5077524-.5077515h1.8108492c.2803211 0 .5077515.2274284.5077515.5077515s-.2274303.5077515-.5077515.5077515h-1.3030977v.5831223c.5064297-.0882607 1.0472383.0601616 1.4373083.4479179.6360111.636013.6360111 1.6690369.0016518 2.3040581-.3186667.3183365-.7371657.4776688-1.1559946.4776688z" fill="#474646"/></g></g><g><g><path d="m18.9786053 41.8762321c-.8998775 0-1.6320896-.7322121-1.6320896-1.6320877v-1.565773c0-.8998756.7322121-1.6320877 1.6320896-1.6320877.9002151 0 1.6324272.7322121 1.6324272 1.6320877v1.565773c0 .8998757-.7322121 1.6320877-1.6324272 1.6320877zm0-3.8899421c-.3815804 0-.6920815.3105011-.6920815.6920815v1.565773c0 .3815804.3105011.6920815.6920815.6920815.3815784 0 .692421-.3105011.692421-.6920815v-1.565773c-.0000001-.3815804-.3108426-.6920815-.692421-.6920815z" fill="#474646"/></g></g></g></g></g></svg>