<?xml version="1.0" encoding="iso-8859-1"?>
<!-- Generator: Adobe Illustrator 19.0.0, SVG Export Plug-In . SVG Version: 6.00 Build 0)  -->
<svg version="1.1" id="Layer_1" xmlns="http://www.w3.org/2000/svg" xmlns:xlink="http://www.w3.org/1999/xlink" x="0px" y="0px"
	 viewBox="0 0 512 512" style="enable-background:new 0 0 512 512;" xml:space="preserve">
<g>
	<g>
		<path d="M373.333,202.667H32c-17.643,0-32,14.357-32,32v128c0,17.643,14.357,32,32,32h341.333c17.643,0,32-14.357,32-32v-128
			C405.333,217.024,390.976,202.667,373.333,202.667z M384,362.667c0,5.888-4.8,10.667-10.667,10.667H32
			c-5.867,0-10.667-4.779-10.667-10.667v-128c0-5.888,4.8-10.667,10.667-10.667h341.333C379.2,224,384,228.779,384,234.667V362.667z
			"/>
	</g>
</g>
<g>
	<g>
		<path d="M138.667,202.667c-5.888,0-10.667,4.779-10.667,10.667V384c0,5.888,4.779,10.667,10.667,10.667
			s10.667-4.779,10.667-10.667V213.333C149.333,207.445,144.555,202.667,138.667,202.667z"/>
	</g>
</g>
<g>
	<g>
		<path d="M266.667,202.667c-5.888,0-10.667,4.779-10.667,10.667V384c0,5.888,4.779,10.667,10.667,10.667
			s10.667-4.779,10.667-10.667V213.333C277.333,207.445,272.555,202.667,266.667,202.667z"/>
	</g>
</g>
<g>
	<g>
		<path d="M105.109,250.453c-1.941-3.179-5.397-5.12-9.109-5.12H53.333c-5.888,0-10.667,4.779-10.667,10.667v10.667
			c0,5.888,4.779,10.667,10.667,10.667S64,272.555,64,266.667h14.848c-9.899,20.843-25.515,56.576-25.515,74.667
			C53.333,347.221,58.112,352,64,352s10.667-4.779,10.667-10.667c0-14.933,18.901-57.28,30.827-80.448
			C107.2,257.579,107.051,253.611,105.109,250.453z"/>
	</g>
</g>
<g>
	<g>
		<path d="M74.667,330.667H53.333c-5.888,0-10.667,4.779-10.667,10.667S47.445,352,53.333,352h21.333
			c5.888,0,10.667-4.779,10.667-10.667S80.555,330.667,74.667,330.667z"/>
	</g>
</g>
<g>
	<g>
		<path d="M233.109,250.453c-1.941-3.179-5.397-5.12-9.109-5.12h-42.667c-5.888,0-10.667,4.779-10.667,10.667v10.667
			c0,5.888,4.779,10.667,10.667,10.667S192,272.555,192,266.667h14.848c-9.899,20.843-25.515,56.576-25.515,74.667
			c0,5.888,4.779,10.667,10.667,10.667s10.667-4.779,10.667-10.667c0-14.933,18.901-57.28,30.827-80.448
			C235.2,257.579,235.051,253.611,233.109,250.453z"/>
	</g>
</g>
<g>
	<g>
		<path d="M202.667,330.667h-21.333c-5.888,0-10.667,4.779-10.667,10.667S175.445,352,181.333,352h21.333
			c5.888,0,10.667-4.779,10.667-10.667S208.555,330.667,202.667,330.667z"/>
	</g>
</g>
<g>
	<g>
		<path d="M361.109,250.453c-1.941-3.179-5.397-5.12-9.109-5.12h-42.667c-5.888,0-10.667,4.779-10.667,10.667v10.667
			c0,5.888,4.779,10.667,10.667,10.667S320,272.555,320,266.667h14.848c-9.899,20.843-25.515,56.576-25.515,74.667
			c0,5.888,4.779,10.667,10.667,10.667s10.667-4.779,10.667-10.667c0-14.933,18.901-57.28,30.827-80.448
			C363.2,257.579,363.051,253.611,361.109,250.453z"/>
	</g>
</g>
<g>
	<g>
		<path d="M330.667,330.667h-21.333c-5.888,0-10.667,4.779-10.667,10.667S303.445,352,309.333,352h21.333
			c5.888,0,10.667-4.779,10.667-10.667S336.555,330.667,330.667,330.667z"/>
	</g>
</g>
<g>
	<g>
		<path d="M416,224h-21.333c-5.888,0-10.667,4.779-10.667,10.667s4.779,10.667,10.667,10.667H416
			c5.867,0,10.667,4.779,10.667,10.667v85.333c0,5.888-4.8,10.667-10.667,10.667h-21.333c-5.888,0-10.667,4.779-10.667,10.667
			s4.779,10.667,10.667,10.667H416c17.643,0,32-14.357,32-32V256C448,238.357,433.643,224,416,224z"/>
	</g>
</g>
<g>
	<g>
		<path d="M480,160c-5.888,0-10.667,4.779-10.667,10.667V288h-32c-5.888,0-10.667,4.779-10.667,10.667s4.779,10.667,10.667,10.667
			H480c5.888,0,10.667-4.779,10.667-10.667v-128C490.667,164.779,485.888,160,480,160z"/>
	</g>
</g>
<g>
	<g>
		<path d="M480,117.333c-17.643,0-32,14.357-32,32c0,17.643,14.357,32,32,32c17.643,0,32-14.357,32-32
			C512,131.691,497.643,117.333,480,117.333z M480,160c-5.867,0-10.667-4.779-10.667-10.667s4.8-10.667,10.667-10.667
			c5.867,0,10.667,4.779,10.667,10.667S485.867,160,480,160z"/>
	</g>
</g>
<g>
</g>
<g>
</g>
<g>
</g>
<g>
</g>
<g>
</g>
<g>
</g>
<g>
</g>
<g>
</g>
<g>
</g>
<g>
</g>
<g>
</g>
<g>
</g>
<g>
</g>
<g>
</g>
<g>
</g>
</svg>
