<svg xmlns="http://www.w3.org/2000/svg" height="512pt" version="1.1" viewBox="0 0 512 512" width="512pt">
<g id="surface1">
<path d="M 512 301 L 512 497 C 512 505.398438 505.402344 512 497 512 L 120 512 L 105 482 L 90 512 L 15 512 C 6.597656 512 0 505.398438 0 497 L 0 301 L 30 271 L 482 271 Z M 512 301 " style=" stroke:none;fill-rule:nonzero;fill:rgb(100%,47.058824%,8.627451%);fill-opacity:1;" />
<path d="M 512 301 L 512 497 C 512 505.398438 505.402344 512 497 512 L 256 512 L 256 271 L 482 271 Z M 512 301 " style=" stroke:none;fill-rule:nonzero;fill:rgb(100%,29.411765%,0%);fill-opacity:1;" />
<path d="M 443.597656 89.5 C 441.5 90.398438 439.398438 91 437 91 L 256 90.398438 L 68.402344 89.5 C 60.902344 85.601562 57.898438 76.597656 61.5 69.398438 L 91.5 8.398438 C 94.199219 3.300781 99.300781 0 105 0 L 407 0 C 412.699219 0 417.800781 3.300781 420.5 8.398438 L 450.5 69.398438 C 454.101562 76.597656 451.097656 85.601562 443.597656 89.5 Z M 443.597656 89.5 " style=" stroke:none;fill-rule:nonzero;fill:rgb(100%,47.058824%,8.627451%);fill-opacity:1;" />
<path d="M 437 91 L 256 90.398438 L 256 0 L 407 0 C 412.699219 0 417.800781 3.300781 420.5 8.398438 L 450.5 69.398438 C 454.101562 76.597656 451.097656 85.601562 443.597656 89.5 C 441.5 90.398438 439.402344 91 437 91 Z M 437 91 " style=" stroke:none;fill-rule:nonzero;fill:rgb(100%,29.411765%,0%);fill-opacity:1;" />
<path d="M 512 76 L 512 301 L 0 301 L 0 76 C 0 67.597656 6.597656 61 15 61 L 497 61 C 505.402344 61 512 67.597656 512 76 Z M 512 76 " style=" stroke:none;fill-rule:nonzero;fill:rgb(35.294118%,35.294118%,35.294118%);fill-opacity:1;" />
<path d="M 512 76 L 512 301 L 256 301 L 256 61 L 497 61 C 505.402344 61 512 67.597656 512 76 Z M 512 76 " style=" stroke:none;fill-rule:nonzero;fill:rgb(26.666667%,26.666667%,26.666667%);fill-opacity:1;" />
<path d="M 30 91 L 150 91 L 150 271 L 30 271 Z M 30 91 " style=" stroke:none;fill-rule:nonzero;fill:rgb(92.54902%,92.54902%,94.509804%);fill-opacity:1;" />
<path d="M 362 91 L 482 91 L 482 271 L 362 271 Z M 362 91 " style=" stroke:none;fill-rule:nonzero;fill:rgb(88.627451%,88.627451%,90.588235%);fill-opacity:1;" />
<path d="M 422 241 C 413.710938 241 407 234.289062 407 226 L 407 208.421875 C 407 188.296875 412.316406 168.433594 422.058594 151 L 407 151 C 407 159.289062 400.289062 166 392 166 C 383.710938 166 377 159.289062 377 151 L 377 136 C 377 127.710938 383.710938 121 392 121 L 452 121 C 458.0625 121 463.542969 124.648438 465.855469 130.257812 C 468.1875 135.867188 466.898438 142.3125 462.605469 146.605469 C 446.332031 162.878906 437 185.410156 437 208.421875 L 437 226 C 437 234.289062 430.289062 241 422 241 Z M 422 241 " style=" stroke:none;fill-rule:nonzero;fill:rgb(81.568627%,23.137255%,0%);fill-opacity:1;" />
<path d="M 90 241 C 81.710938 241 75 234.289062 75 226 L 75 208.421875 C 75 188.296875 80.316406 168.433594 90.058594 151 L 75 151 C 75 159.289062 68.289062 166 60 166 C 51.710938 166 45 159.289062 45 151 L 45 136 C 45 127.710938 51.710938 121 60 121 L 120 121 C 126.0625 121 131.542969 124.648438 133.855469 130.257812 C 136.1875 135.867188 134.898438 142.3125 130.605469 146.605469 C 114.332031 162.878906 105 185.410156 105 208.421875 L 105 226 C 105 234.289062 98.289062 241 90 241 Z M 90 241 " style=" stroke:none;fill-rule:nonzero;fill:rgb(100%,29.411765%,0%);fill-opacity:1;" />
<path d="M 437 331 L 195 331 C 186.597656 331 180 337.597656 180 346 L 180 437 C 180 445.398438 186.597656 452 195 452 L 437 452 C 445.402344 452 452 445.398438 452 437 L 452 346 C 452 337.597656 445.402344 331 437 331 Z M 437 331 " style=" stroke:none;fill-rule:nonzero;fill:rgb(35.294118%,35.294118%,35.294118%);fill-opacity:1;" />
<path d="M 120 512 L 120 406 C 120 397.710938 113.289062 391 105 391 C 96.710938 391 90 397.710938 90 406 L 90 512 Z M 120 512 " style=" stroke:none;fill-rule:nonzero;fill:rgb(92.54902%,92.54902%,94.509804%);fill-opacity:1;" />
<path d="M 452 346 L 452 437 C 452 445.398438 445.402344 452 437 452 L 256 452 L 256 331 L 437 331 C 445.402344 331 452 337.597656 452 346 Z M 452 346 " style=" stroke:none;fill-rule:nonzero;fill:rgb(26.666667%,26.666667%,26.666667%);fill-opacity:1;" />
<path d="M 180 91 L 332 91 L 332 271 L 180 271 Z M 180 91 " style=" stroke:none;fill-rule:nonzero;fill:rgb(92.54902%,92.54902%,94.509804%);fill-opacity:1;" />
<path d="M 256 91 L 332 91 L 332 271 L 256 271 Z M 256 91 " style=" stroke:none;fill-rule:nonzero;fill:rgb(88.627451%,88.627451%,90.588235%);fill-opacity:1;" />
<path d="M 296.5 146.5 C 280.300781 163 271 185.5 271 208.300781 L 271 226 C 271 234.398438 264.402344 241 256 241 C 247.597656 241 241 234.398438 241 226 L 241 208.300781 C 241 188.199219 246.398438 168.398438 256 151 L 241 151 C 241 159.398438 234.402344 166 226 166 C 217.597656 166 211 159.398438 211 151 L 211 136 C 211 127.597656 217.597656 121 226 121 L 286 121 C 292 121 297.398438 124.601562 299.800781 130.300781 C 302.199219 136 301 142.300781 296.5 146.5 Z M 296.5 146.5 " style=" stroke:none;fill-rule:nonzero;fill:rgb(100%,29.411765%,0%);fill-opacity:1;" />
<path d="M 256 241 L 256 121 L 286 121 C 292 121 297.398438 124.601562 299.800781 130.300781 C 302.199219 136 301 142.300781 296.5 146.5 C 280.300781 163 271 185.5 271 208.300781 L 271 226 C 271 234.398438 264.402344 241 256 241 Z M 256 241 " style=" stroke:none;fill-rule:nonzero;fill:rgb(81.568627%,23.137255%,0%);fill-opacity:1;" />
<path d="M 105 421 C 80.1875 421 60 400.8125 60 376 C 60 351.1875 80.1875 331 105 331 C 129.8125 331 150 351.1875 150 376 C 150 400.8125 129.8125 421 105 421 Z M 105 421 " style=" stroke:none;fill-rule:nonzero;fill:rgb(100%,83.137255%,0%);fill-opacity:1;" />
</g>
</svg>