<?xml version="1.0" encoding="UTF-8" standalone="no"?>
<!-- Created with Inkscape (http://www.inkscape.org/) -->

<svg
   version="1.1"
   id="svg3531"
   width="682.66669"
   height="682.66669"
   viewBox="0 0 682.66669 682.66669"
   xmlns="http://www.w3.org/2000/svg"
   xmlns:svg="http://www.w3.org/2000/svg">
  <defs
     id="defs3535">
    <clipPath
       clipPathUnits="userSpaceOnUse"
       id="clipPath3545">
      <path
         d="M 0,512 H 512 V 0 H 0 Z"
         id="path3543" />
    </clipPath>
  </defs>
  <g
     id="g3537"
     transform="matrix(1.3333333,0,0,-1.3333333,0,682.66667)">
    <g
       id="g3539">
      <g
         id="g3541"
         clip-path="url(#clipPath3545)">
        <g
           id="g3547"
           transform="translate(512,256)">
          <path
             d="m 0,0 c 0,-15.92 -1.45,-31.5 -4.24,-46.61 -3.71,-20.21 -29.4,-19.98 -37.56,-38.22 -5.14,-11.48 -14.939,-15.785 -21.639,-26.295 -7.77,-12.19 -47.527,-10.28 -57.197,-20.95 -7.86,-8.67 -1.672,-14.741 -10.642,-22.281 -12.95,-10.87 -1.344,-27.089 -16.294,-35.249 -6.01,-3.29 -26.699,-4.95 -32.989,-7.74 -2.26,-1.01 2.3,0.94 0,0 -3.53,-1.45 14.751,-42.345 11.141,-43.635 -0.01,0 -0.03,-0.01 -0.04,-0.01 -27.03,-9.73 -56.16,-15.01 -86.54,-15.01 -141.38,0 -256,114.62 -256,256 0,141.38 114.62,256 256,256 C -114.62,256 0,141.38 0,0"
             style="fill:#3ad99e;fill-opacity:1;fill-rule:nonzero;stroke:none"
             id="path3549" />
        </g>
        <g
           id="g3551"
           transform="translate(344.3453,345.0022)">
          <path
             d="m 0,0 c 0,-64.164 -37.435,-119.593 -91.65,-145.641 -21.132,-10.153 -44.819,6.836 -69.838,6.836 -25.018,0 -48.695,-16.989 -69.827,-6.836 -27.467,13.194 -50.63,33.928 -66.797,59.52 -15.74,24.921 7.325,54.457 7.325,86.121 0,25.368 -26.329,49.366 -15.904,70.722 15.458,31.683 40.962,57.537 72.393,73.452 h 0.009 c 21.871,11.066 46.607,-8.673 72.801,-8.673 26.194,0 50.931,19.739 72.811,8.673 C -36.065,117.552 0,62.988 0,0"
             style="fill:#aa80e0;fill-opacity:1;fill-rule:nonzero;stroke:none"
             id="path3553" />
        </g>
        <g
           id="g3555"
           transform="translate(232.7392,191.4088)">
          <path
             d="m 0,0 c -15.719,-5.108 -34.358,9.544 -51.768,9.544 -25.007,0 -46.808,-11.735 -67.939,-1.586 -27.109,13.021 -50.023,33.389 -66.159,58.522 -16.136,25.133 6.685,55.031 6.685,87.113 0,25.368 -26.334,49.368 -15.915,70.728 15.457,31.69 40.979,57.567 72.401,73.47 21.877,11.072 46.613,1.642 72.805,1.642 17.41,0 34.171,12.898 49.89,7.79 -64.782,-20.97 -111.615,-81.832 -111.615,-153.63 C -111.615,81.833 -64.782,20.971 0,0"
             style="fill:#8b66c6;fill-opacity:1;fill-rule:nonzero;stroke:none"
             id="path3557" />
        </g>
        <g
           id="g3559"
           transform="translate(324.0072,337.8251)">
          <path
             d="m 0,0 c 0,-43.601 -35.346,-78.947 -78.947,-78.947 -43.601,0 -78.946,35.346 -78.946,78.947 0,43.601 35.345,78.947 78.946,78.947 C -35.346,78.947 0,43.601 0,0"
             style="fill:#f8f6f7;fill-opacity:1;fill-rule:nonzero;stroke:none"
             id="path3561" />
        </g>
        <g
           id="g3563"
           transform="translate(255.6686,489.1761)">
          <path
             d="m 0,0 c -11.941,-19.131 -40.049,-32.568 -72.811,-32.568 -5.45,0 -10.765,0.37 -15.905,1.079 -25.756,3.546 -46.937,15.535 -56.896,31.489 21.871,11.066 46.607,17.304 72.801,17.304 0.36,0 0.729,0 1.088,-0.01 10.387,-0.058 20.54,-1.107 30.382,-3.051 C -35.065,13 -28.924,11.397 -22.939,9.454 -15.011,6.889 -7.345,3.711 0,0"
             style="fill:#f8f6f7;fill-opacity:1;fill-rule:nonzero;stroke:none"
             id="path3565" />
        </g>
        <g
           id="g3567"
           transform="translate(252.6955,199.3612)">
          <path
             d="m 0,0 c -6.432,-3.09 -13.087,-5.762 -19.956,-7.986 -4.994,-1.613 -10.086,-3.003 -15.284,-4.13 -4.848,-1.068 -9.774,-1.904 -14.768,-2.516 -6.5,-0.797 -13.116,-1.205 -19.83,-1.205 -4.187,0 -8.336,0.156 -12.446,0.476 -5.033,0.379 -9.997,0.991 -14.884,1.827 -14.973,2.555 -29.236,7.16 -42.498,13.534 11.64,14.846 33.413,25.524 59.121,27.865 3.498,0.321 7.074,0.486 10.707,0.486 C -39.544,28.351 -13.223,16.867 0,0"
             style="fill:#f8f6f7;fill-opacity:1;fill-rule:nonzero;stroke:none"
             id="path3569" />
        </g>
        <g
           id="g3571"
           transform="translate(100.1077,337.8222)">
          <path
             d="m 0,0 c 0,-43.595 -24.056,-78.941 -53.719,-78.941 h -0.155 c -6.967,11.027 -12.641,22.968 -16.78,35.589 -1.894,5.722 -3.468,11.591 -4.702,17.576 -1.749,8.414 -2.837,17.061 -3.216,25.902 -0.107,2.342 -0.156,4.693 -0.156,7.054 0,3.741 0.127,7.462 0.379,11.134 1.448,21.259 7.005,41.38 15.895,59.588 2.847,0.69 5.762,1.049 8.735,1.049 C -24.056,78.951 0,43.605 0,0"
             style="fill:#e3e1f2;fill-opacity:1;fill-rule:nonzero;stroke:none"
             id="path3573" />
        </g>
        <g
           id="g3575"
           transform="translate(244.5063,304.2802)">
          <path
             d="m 0,0 c -9.965,0 -18.072,8.107 -18.072,18.073 0,9.965 8.107,18.072 18.072,18.072 9.965,0 18.073,-8.107 18.073,-18.072 C 18.073,8.107 9.965,0 0,0 m 0,50.719 c -3.084,0 -6.065,-0.439 -8.895,-1.242 8.337,15.647 19.182,24.011 19.376,24.157 3.214,2.406 3.877,6.96 1.48,10.183 -2.402,3.229 -6.966,3.9 -10.196,1.498 -1.194,-0.888 -29.145,-22.113 -34.004,-62.107 -0.265,-1.674 -0.407,-3.388 -0.407,-5.135 0,-18.002 14.645,-32.647 32.646,-32.647 18.001,0 32.646,14.645 32.646,32.647 0,18.001 -14.645,32.646 -32.646,32.646"
             style="fill:#434c54;fill-opacity:1;fill-rule:nonzero;stroke:none"
             id="path3577" />
        </g>
        <g
           id="g3579"
           transform="translate(55.7159,352.2016)">
          <path
             d="m 0,0 c -6.859,5.383 -15.4,7.782 -24.056,6.743 -3.479,-0.418 -6.811,-1.37 -9.901,-2.808 -0.253,-3.673 -0.379,-7.394 -0.379,-11.134 0,-2.361 0.049,-4.713 0.156,-7.054 2.973,3.653 7.17,5.956 11.853,6.529 4.8,0.573 9.531,-0.758 13.32,-3.741 7.841,-6.15 9.201,-17.537 3.051,-25.368 -6.063,-7.714 -17.177,-9.162 -25.008,-3.323 1.233,-5.985 2.807,-11.853 4.702,-17.576 2.011,-0.388 4.042,-0.573 6.063,-0.573 9.677,0 19.266,4.275 25.698,12.466 C 16.624,-31.683 14.156,-11.115 0,0"
             style="fill:#434c54;fill-opacity:1;fill-rule:nonzero;stroke:none"
             id="path3581" />
        </g>
        <g
           id="g3583"
           transform="translate(110.0568,489.1761)">
          <path
             d="m 0,0 c 21.87,11.066 46.607,17.304 72.801,17.304 0.36,0 0.729,0 1.088,-0.01 10.386,-0.058 20.54,-1.107 30.382,-3.051 C 110.547,13 116.688,11.397 122.673,9.454 97.46,1.282 74.958,-12.941 56.896,-31.489 31.139,-27.943 9.959,-15.954 0,0"
             style="fill:#e3e1f2;fill-opacity:1;fill-rule:nonzero;stroke:none"
             id="path3585" />
        </g>
        <g
           id="g3587"
           transform="translate(232.7391,191.3748)">
          <path
             d="m 0,0 c -4.994,-1.613 -10.085,-3.002 -15.283,-4.129 -4.848,-1.069 -9.774,-1.905 -14.768,-2.517 -6.5,-0.796 -13.117,-1.204 -19.83,-1.204 -4.188,0 -8.336,0.155 -12.446,0.476 -5.033,0.379 -9.998,0.991 -14.885,1.826 -14.972,2.556 -29.235,7.161 -42.497,13.534 11.639,14.846 33.413,25.524 59.121,27.866 C -43.469,19.782 -22.852,7.413 0,0"
             style="fill:#e3e1f2;fill-opacity:1;fill-rule:nonzero;stroke:none"
             id="path3589" />
        </g>
        <g
           id="g3591"
           transform="translate(183.946,506.4702)">
          <path
             d="M 0,0 C 0.418,-0.194 0.836,-0.369 1.263,-0.544 4.12,-1.7 7.054,-2.41 9.978,-2.72 c -13.544,-11.358 -26.699,-15.07 -27,-15.157 -3.887,-1.03 -6.199,-5.004 -5.188,-8.89 0.864,-3.274 3.818,-5.441 7.044,-5.441 0.612,0 1.233,0.078 1.855,0.233 1.195,0.311 24.62,6.704 43.692,28.924 C 20.539,-1.107 10.386,-0.058 0,0"
             style="fill:#434c54;fill-opacity:1;fill-rule:nonzero;stroke:none"
             id="path3593" />
        </g>
        <g
           id="g3595"
           transform="translate(198.9473,206.5413)">
          <path
             d="m 0,0 c -16.692,6.733 -35.754,-1.37 -42.488,-18.072 -0.349,-0.874 -0.66,-1.748 -0.932,-2.642 4.887,-0.836 9.852,-1.448 14.884,-1.827 3.051,6.451 9.532,10.338 16.352,10.338 2.245,0 4.528,-0.428 6.733,-1.312 4.1,-1.651 7.268,-4.663 9.192,-8.297 4.994,0.612 9.92,1.448 14.768,2.516 C 15.487,-10.824 8.987,-3.624 0,0"
             style="fill:#434c54;fill-opacity:1;fill-rule:nonzero;stroke:none"
             id="path3597" />
        </g>
        <g
           id="g3599"
           transform="translate(507.76,209.39)">
          <path
             d="m 0,0 c -3.713,-20.205 -9.8,-39.578 -17.961,-57.819 -5.136,-11.48 -20.566,-17.469 -27.272,-27.979 -6.56,-3.62 -3.387,-12.942 -8.337,-19.172 -4.01,-5.05 -14.628,-4.102 -16.568,-12.052 -7.861,-8.678 -8.141,-24.983 -17.113,-32.516 -20.029,-16.816 -42.67,-30.622 -67.229,-40.712 -6.33,3.65 -13.91,8.59 -16.49,8.59 -47.64,0 -63.92,23.96 -107.15,40.58 -21.34,23.69 -35.77,53.76 -40.09,86.97 -0.9,6.89 9.51,32.73 9.51,39.86 0,40 25.09,43.69 27.76,86.01 29.63,34.68 73.67,56.67 122.85,56.67 C -80.24,128.43 -15.25,73.33 0,0"
             style="fill:#ffce3c;fill-opacity:1;fill-rule:nonzero;stroke:none"
             id="path3601" />
        </g>
        <g
           id="g3603"
           transform="translate(378.56,31.2)">
          <path
             d="m 0,0 c -8.17,-4.47 -16.6,-8.5 -25.28,-12.06 -3.53,-1.45 -9.185,6.202 -12.795,4.912 -44.795,1.929 -78.369,20.617 -110.842,44.261 -21.341,23.697 -35.765,53.747 -40.092,86.967 -0.898,6.893 13.137,22.312 13.137,29.449 0,39.998 15.2,58.245 24.13,96.423 29.617,34.686 73.665,56.678 122.852,56.678 17.4,0 34.17,-2.75 49.87,-7.85 C -43.8,277.76 -90.63,216.92 -90.63,145.14 -90.63,81.37 -53.67,26.24 0,0"
             style="fill:#ffbf03;fill-opacity:1;fill-rule:nonzero;stroke:none"
             id="path3605" />
        </g>
        <g
           id="g3607"
           transform="translate(448.1714,241.0951)">
          <path
             d="m 0,0 c 0,-43.605 -35.346,-78.951 -78.951,-78.951 -35.794,0 -66.02,23.813 -75.697,56.468 -2.118,7.122 -3.254,14.671 -3.254,22.483 0,43.595 35.346,78.941 78.951,78.941 2.03,0 4.042,-0.077 6.024,-0.233 C -32.14,75.638 0,41.565 0,0"
             style="fill:#f8f6f7;fill-opacity:1;fill-rule:nonzero;stroke:none"
             id="path3609" />
        </g>
        <g
           id="g3611"
           transform="translate(375.244,319.8034)">
          <path
             d="m 0,0 c -39.718,-20.559 -69.809,-57.139 -81.72,-101.191 -2.118,7.122 -3.255,14.671 -3.255,22.483 0,43.595 35.346,78.941 78.951,78.941 C -3.993,0.233 -1.982,0.155 0,0"
             style="fill:#e3e1f2;fill-opacity:1;fill-rule:nonzero;stroke:none"
             id="path3613" />
        </g>
        <g
           id="g3615"
           transform="translate(360.11,22.0701)">
          <path
             d="m 0,0 c -2.26,-1.01 -4.53,-1.99 -6.83,-2.93 -3.53,-1.45 -7.09,-2.83 -10.7,-4.12 -0.01,0 -0.03,-0.01 -0.04,-0.01 -9.33,0.4 -18.46,1.6 -27.31,3.53 -4.79,1.03 -9.5,2.29 -14.12,3.74 -8.87,2.79 -17.4,6.33 -25.53,10.54 -4.35,2.25 -8.59,4.69 -12.7,7.32 -12.32,7.86 -23.5,17.35 -33.24,28.17 18.9,13.04 49.11,15.15 78.36,3.36 C -25.97,39.05 -6.99,19.99 0,0"
             style="fill:#e3e1f2;fill-opacity:1;fill-rule:nonzero;stroke:none"
             id="path3617" />
        </g>
        <g
           id="g3619"
           transform="translate(489.8,151.5701)">
          <path
             d="m 0,0 c -5.14,-11.48 -11.1,-22.51 -17.8,-33.02 -7.77,-12.19 -16.54,-23.68 -26.21,-34.35 -7.86,-8.67 -16.31,-16.81 -25.28,-24.35 0.24,16.43 5.73,34.59 16.61,51.32 C -38.77,-19.04 -19.14,-4.76 0,0"
             style="fill:#f8f6f7;fill-opacity:1;fill-rule:nonzero;stroke:none"
             id="path3621" />
        </g>
        <g
           id="g3623"
           transform="translate(231.1965,207.4489)">
          <path
             d="m 0,0 c -8.356,-24.27 -24.086,-42.964 -41.642,-52.164 -0.904,6.888 -1.37,13.922 -1.37,21.054 0,40 14.544,76.61 38.64,104.815 C 7.093,55.293 9.492,27.545 0,0"
             style="fill:#e3e1f2;fill-opacity:1;fill-rule:nonzero;stroke:none"
             id="path3625" />
        </g>
        <g
           id="g3627"
           transform="translate(359.4973,192.7152)">
          <path
             d="m 0,0 c -1.835,0 -3.67,0.688 -5.087,2.07 -29.414,28.683 -30.212,30.281 -30.853,31.564 -1.151,2.3 -1.137,4.893 0.037,7.111 2.039,3.851 5.084,4.259 13.223,5.349 6.807,0.912 19.476,2.61 41.798,6.551 6.717,1.185 12.047,2.949 15.851,5.244 l 1.81,1.4 c 2.399,2.545 3.715,5.856 3.715,9.369 0,3.652 -1.422,7.085 -4.004,9.667 -4.611,4.611 -11.876,5.325 -17.274,1.698 -3.339,-2.243 -7.868,-1.355 -10.112,1.986 -2.244,3.341 -1.354,7.869 1.987,10.112 11.165,7.5 26.181,6.033 35.704,-3.491 5.335,-5.334 8.273,-12.427 8.273,-19.972 0,-7.544 -2.938,-14.638 -8.273,-19.972 -0.219,-0.219 -0.451,-0.423 -0.694,-0.611 L 43.574,46.121 C 43.38,45.97 43.179,45.83 42.971,45.701 37.56,42.327 30.387,39.835 21.651,38.293 4.152,35.203 -7.508,33.472 -15.09,32.418 -9.519,26.832 -1.995,19.411 5.088,12.504 7.969,9.694 8.027,5.081 5.218,2.199 3.79,0.735 1.895,0 0,0"
             style="fill:#5b565f;fill-opacity:1;fill-rule:nonzero;stroke:none"
             id="path3629" />
        </g>
        <g
           id="g3631"
           transform="translate(315.2291,18.5433)">
          <path
             d="m 0,0 c -4.79,1.03 -9.502,2.283 -14.117,3.74 0.544,2.915 0.767,5.548 0.651,7.87 l -0.369,2.264 c -2.323,6.976 -9.804,10.911 -16.896,8.783 -4.227,-1.263 -7.462,-4.449 -8.919,-8.384 -4.353,2.254 -8.589,4.692 -12.699,7.325 3.332,7.064 9.551,12.67 17.45,15.031 14.923,4.45 30.692,-4.052 35.152,-18.975 C 0.34,17.353 0.408,17.051 0.457,16.75 L 0.981,13.602 C 1.02,13.359 1.049,13.116 1.059,12.864 1.302,8.987 0.942,4.683 0,0"
             style="fill:#5b565f;fill-opacity:1;fill-rule:nonzero;stroke:none"
             id="path3633" />
        </g>
      </g>
    </g>
  </g>
</svg>
