<svg width="254" height="107" viewBox="0 0 254 107" fill="none" xmlns="http://www.w3.org/2000/svg">
<path d="M196.313 106.5H152.263V103H152.663C155.898 103 158.747 102.646 161.203 101.93C162.468 101.561 163.467 100.98 164.149 100.156C164.835 99.3269 165.163 98.2958 165.163 97.1V10.4C165.163 9.20425 164.835 8.17309 164.149 7.34372C163.467 6.52007 162.468 5.93897 161.203 5.57C158.747 4.85364 155.898 4.50001 152.663 4.50001H152.263V1H196.313C204.664 1 212.255 2.24252 219.093 4.72017L219.101 4.72297C226.042 7.10257 231.98 10.5688 236.925 15.118L236.928 15.1213C241.972 19.6703 245.88 25.2094 248.653 31.7453L248.654 31.7478C251.424 38.1769 252.813 45.4083 252.813 53.45C252.813 61.4909 251.424 68.7728 248.654 75.303C245.881 81.7406 241.97 87.3335 236.921 92.0859C231.975 96.7349 226.036 100.3 219.095 102.779L219.093 102.78C212.255 105.257 204.664 106.5 196.313 106.5ZM178.613 5.25001H178.113V5.75001V101.75V102.25H178.613H196.313C202.671 102.25 208.439 101.14 213.609 98.9101C218.874 96.6823 223.385 93.4902 227.135 89.335L227.139 89.3305C230.887 85.0756 233.768 79.9661 235.787 74.0105L235.788 74.0081C237.808 67.9481 238.813 61.0933 238.813 53.45C238.813 45.8076 237.808 39.0021 235.787 33.0408C233.769 26.9858 230.887 21.9221 227.133 17.8628C223.382 13.7071 218.87 10.5646 213.602 8.437C208.434 6.30927 202.669 5.25001 196.313 5.25001H178.613ZM1.40002 4.50001H1.15002V1H37.95V4.50001H35.3C33.2917 4.50001 31.3329 4.55021 29.4237 4.6507C27.5137 4.75122 25.896 4.90244 24.574 5.10581L24.574 5.10577L24.5678 5.1068C23.9517 5.20949 23.4434 5.34429 23.0764 5.52779C22.7289 5.70156 22.35 6.0048 22.35 6.5V6.55713L22.3629 6.61278L42.7774 94.7921L41.2724 99.6521L41.0718 100.3H41.75H44.45H45.079L44.9371 99.6872L43.8126 94.8298L72.8686 1H79.9197L105.749 94.2401L104.565 98.9276L104.408 99.55H105.05H107.6H108.257L108.082 98.9165L106.783 94.2283L128.335 8.87241L128.35 8.81215V8.75C128.35 7.97675 127.964 7.26226 127.319 6.61188C126.696 5.87942 125.5 5.4119 123.911 5.11202C122.347 4.6983 120.102 4.50001 117.2 4.50001H112.75V1H144.15V4.50001H143.6C140.97 4.50001 138.559 5.44997 136.38 7.3157C134.17 9.10716 132.581 11.9678 131.566 15.8227L131.565 15.827L108.561 106.5H97.9289L73.3263 18.9771L74.7776 14.2981L74.9786 13.65H74.3H71.45H70.7901L70.9687 14.2853L72.2836 18.9631L45.1316 106.5H34.492L10.7376 9.83919C10.7373 9.83775 10.7369 9.8363 10.7366 9.83486C10.2135 7.53734 9.08118 6.00113 7.26271 5.42702C5.59582 4.80414 3.63781 4.50001 1.40002 4.50001ZM42.4283 99.3L43.2252 96.7264L43.821 99.3H42.4283ZM105.692 98.55L106.288 96.188L106.943 98.55H105.692ZM73.6214 14.65L72.8285 17.2063L72.11 14.65H73.6214Z" fill="black" stroke="black"/>
</svg>
